<svg width="361" height="241" viewBox="0 0 361 241" fill="none" xmlns="http://www.w3.org/2000/svg">
<path d="M15.9189 193.755V213.412H44.6633H76.3673V193.755H15.9189Z" fill="#F5F5F5"/>
<path d="M13.3828 188.26V193.755H78.4809V188.26H44.6635H13.3828Z" fill="#E0E0E0"/>
<path d="M45.9312 213.412H76.3671V193.755H78.4805V188.26H44.6631V193.247L45.9312 213.412Z" fill="#E0E0E0"/>
<path d="M36.6318 196.925H24.373V199.884H36.6318V196.925Z" fill="#E0E0E0"/>
<path d="M38.537 203.583H22.7959V209.832H38.537V203.583Z" fill="white"/>
<path d="M25.2188 168.63V188.286H53.9631H85.6666V168.63H25.2188Z" fill="#F5F5F5"/>
<path d="M22.6826 163.135V168.63H87.7807V163.135H53.9633H22.6826Z" fill="#E0E0E0"/>
<path d="M55.231 188.286H85.6664V168.63H87.7803V163.135H53.9629V168.121L55.231 188.286Z" fill="#E0E0E0"/>
<path d="M45.9316 171.8H33.6729V174.759H45.9316V171.8Z" fill="#E0E0E0"/>
<path d="M47.8363 178.458H32.0957V184.706H47.8363V178.458Z" fill="white"/>
<path d="M62.3885 18.9087H17.6338V83.7783H62.3885V18.9087Z" fill="#E0E0E0"/>
<path d="M60.1458 18.9087H15.3916V83.7783H60.1458V18.9087Z" fill="#F5F5F5"/>
<path d="M54.5857 25.9346H20.9521V76.7526H54.5857V25.9346Z" fill="white"/>
<path d="M54.5856 76.7525C54.5856 76.7525 54.5813 76.6666 54.5789 76.5039C54.5774 76.3358 54.575 76.0968 54.5722 75.7834C54.5693 75.145 54.5645 74.2099 54.5587 72.996C54.5515 70.5605 54.5414 67.0114 54.5285 62.5277C54.515 53.5666 54.4958 40.8773 54.4733 25.9344L54.5846 26.0463C44.3088 26.0491 32.9227 26.053 20.9549 26.0563H20.951L21.0725 25.9344C21.0634 45.1051 21.0547 62.7806 21.048 76.7525L20.951 76.6555C31.1938 76.6766 39.5894 76.6944 45.432 76.7064C48.3542 76.717 50.6366 76.7256 52.1957 76.7309C52.9704 76.7357 53.5642 76.7391 53.9712 76.7419C54.3739 76.7458 54.5856 76.7525 54.5856 76.7525C54.5856 76.7525 54.3878 76.7597 53.9923 76.7631C53.5896 76.7654 53.0021 76.7693 52.235 76.7741C50.6813 76.7799 48.4061 76.788 45.4934 76.7986C39.6365 76.8106 31.2202 76.8283 20.952 76.8495H20.855V76.752C20.8483 62.7802 20.8397 45.1047 20.8301 25.9339V25.812H20.952H20.9558C32.9232 25.8154 44.3098 25.8192 54.5856 25.8221H54.6974V25.9339C54.6749 40.9071 54.6562 53.6218 54.6427 62.6007C54.6298 67.0733 54.6197 70.6138 54.6125 73.0435C54.6067 74.2479 54.6019 75.1752 54.599 75.8083C54.5962 76.116 54.5938 76.3517 54.5923 76.5163C54.5899 76.6752 54.5856 76.7525 54.5856 76.7525Z" fill="#E0E0E0"/>
<path d="M60.2718 18.9085C60.2977 18.9287 59.9938 19.3722 59.474 20.0677C58.9542 20.7627 58.2159 21.7088 57.374 22.7312C56.5316 23.7541 55.7444 24.6594 55.1617 25.3031C54.579 25.9467 54.2022 26.3298 54.1772 26.3082C54.1513 26.2856 54.4825 25.8627 55.0316 25.1912C55.6316 24.4631 56.3698 23.5674 57.1863 22.5771C58.0018 21.5864 58.7396 20.6903 59.3391 19.9616C59.893 19.2935 60.2449 18.8874 60.2718 18.9085Z" fill="#E0E0E0"/>
<path d="M54.7578 76.5884C56.4282 79.2447 58.4005 81.7109 60.6239 83.9252L54.7578 76.5884Z" fill="white"/>
<path d="M60.6244 83.9253C60.6023 83.9479 60.2029 83.6013 59.6015 82.9951C59.0001 82.3893 58.2033 81.5171 57.3887 80.4991C56.5746 79.48 55.8993 78.5109 55.4404 77.7909C54.9815 77.0709 54.7309 76.6053 54.7578 76.5885C54.7881 76.5693 55.0895 77.0023 55.5829 77.6944C56.0764 78.3871 56.7695 79.3341 57.5788 80.3469C58.3885 81.3587 59.1599 82.2434 59.7268 82.877C60.2937 83.5106 60.6493 83.8999 60.6244 83.9253Z" fill="#E0E0E0"/>
<path d="M15.3857 83.7268C17.3398 81.3157 19.2939 78.9052 21.248 76.4941L15.3857 83.7268Z" fill="white"/>
<path d="M21.2476 76.494C21.2999 76.5362 20.0298 78.1898 18.4113 80.1866C16.7922 82.1844 15.4377 83.7689 15.3853 83.7266C15.333 83.6844 16.6031 82.0313 18.2221 80.0335C19.8407 78.0367 21.1957 76.4517 21.2476 76.494Z" fill="#E0E0E0"/>
<path d="M15.3923 18.9086C15.4451 18.8668 16.719 20.3898 18.2378 22.3098C19.757 24.2303 20.945 25.821 20.8922 25.8628C20.8394 25.9046 19.5654 24.3815 18.0467 22.461C16.528 20.5406 15.3395 18.9503 15.3923 18.9086Z" fill="#E0E0E0"/>
<path d="M44.1075 36.2524H32.8457V68.2281H44.1075V36.2524Z" fill="#E0E0E0"/>
<path d="M303.861 206.541C302.803 205.633 300.441 202.757 302.262 199.411C302.93 198.185 304.348 197.578 305.631 197.038C306.915 196.497 308.263 196.028 309.325 195.124C311.328 193.42 311.88 190.59 313.21 188.317C314.736 185.708 317.585 183.753 320.594 183.89C324.041 184.047 326.915 186.862 328.218 190.071C329.521 193.28 329.566 196.844 329.593 200.31C329.608 202.226 329.523 204.387 328.115 205.681C326.818 206.874 324.865 206.889 323.107 206.835C316.829 206.642 310.551 206.449 304.273 206.256" fill="#F5F5F5"/>
<path d="M339.883 154.751H290.354L299.276 207.951C299.666 210.275 301.347 212.066 303.505 212.687C303.562 212.705 303.62 212.719 303.678 212.735C303.825 212.772 303.967 212.822 304.119 212.849C304.445 212.916 304.783 212.951 305.126 212.964C305.129 212.981 305.132 212.999 305.135 213.015L305.376 212.977C305.377 212.977 305.377 212.977 305.378 212.977H327.452C327.867 212.977 328.272 212.934 328.665 212.856C331.272 212.453 333.358 210.36 333.675 207.656L337.976 171L338.17 169.543H338.147L339.85 155.027L339.883 154.751ZM330.54 188.686H325.457L325.969 173.246H331.859L330.54 188.686ZM332.352 173.246H337.218L335.407 188.686H331.033L332.352 173.246ZM317.831 205.802L317.522 192.389H324.841L324.396 205.802H317.831ZM309.917 192.389H317.029L317.338 205.802H310.959L309.917 192.389ZM310.467 205.802H304.504C303.937 202.181 303.2 197.474 302.402 192.389H309.424L310.467 205.802ZM309.629 188.686L308.429 173.246H316.588L316.944 188.686H309.629ZM317.437 188.686L317.081 173.246H325.478L324.964 188.686H317.437ZM316.995 169.544L316.666 155.245H326.075L325.6 169.544H316.995ZM316.504 169.544H308.142L307.031 155.245H316.175L316.504 169.544ZM307.649 169.544H298.802C298.49 167.569 298.192 165.699 297.924 164.018C297.001 158.237 296.654 156.063 296.462 155.245H306.538L307.649 169.544ZM307.937 173.246L309.137 188.686H301.82C301.574 187.119 301.325 185.535 301.076 183.949C300.502 180.304 299.928 176.661 299.389 173.246H307.937ZM301.323 188.686H296.544L293.954 173.246H298.89C299.645 178.018 300.481 183.329 301.323 188.686ZM301.904 192.389C302.633 197.03 303.35 201.607 304.006 205.802H299.414L297.164 192.389H301.904ZM324.888 205.802L325.334 192.389H330.223L329.077 205.802H324.888ZM326.092 169.544L326.568 155.245H333.397L332.175 169.544H326.092ZM295.993 155.245C296.189 156.279 297.093 161.905 298.304 169.544H293.333L290.935 155.245H295.993ZM333.398 205.802H329.57L330.717 192.389H334.972L333.398 205.802ZM337.653 169.544H332.668L333.89 155.245H339.33L337.653 169.544Z" fill="#E0E0E0"/>
<path d="M340.986 22.3857V65.9443H278.424L276.17 22.6901L340.986 22.3857Z" fill="#E0E0E0"/>
<path d="M276.17 22.6905V65.8525H338.732V22.6905L276.17 22.6905Z" fill="white"/>
<path d="M339.029 66.1494H275.873V22.3936H339.029V66.1494ZM276.467 65.5556H338.435V22.9868H276.467V65.5556Z" fill="#E0E0E0"/>
<path d="M331.956 28.0527H282.946V60.4897H331.956V28.0527Z" fill="white"/>
<path d="M331.956 28.0527C331.956 28.0527 331.872 28.0585 331.714 28.0609C331.548 28.0628 331.318 28.0657 331.017 28.0691C330.396 28.0729 329.495 28.0787 328.326 28.0863C325.971 28.095 322.549 28.1079 318.226 28.1243C309.583 28.1415 297.35 28.1655 282.946 28.1939L283.088 28.0523C283.092 37.9628 283.096 48.9438 283.101 60.4854V60.4892L282.946 60.3347C301.434 60.3467 318.48 60.3572 331.956 60.3659L331.833 60.4887C331.86 50.6175 331.883 42.5243 331.898 36.8881C331.911 34.071 331.922 31.8702 331.929 30.362C331.935 29.6166 331.94 29.0444 331.943 28.647C331.947 28.2591 331.956 28.0527 331.956 28.0527C331.956 28.0527 331.965 28.2414 331.969 28.622C331.973 29.0142 331.977 29.5787 331.983 30.314C331.991 31.8164 332.001 34.0076 332.015 36.8127C332.03 42.4671 332.052 50.5868 332.079 60.4902L332.08 60.6135H331.956C318.48 60.6222 301.434 60.6332 282.947 60.6447H282.792V60.4902V60.4863C282.796 48.9447 282.801 37.9638 282.805 28.0532V27.9111L282.947 27.9116C297.388 27.9399 309.654 27.9644 318.32 27.9812C322.629 27.9975 326.04 28.0105 328.387 28.0191C329.544 28.0263 330.436 28.0326 331.051 28.0364C331.344 28.0398 331.569 28.0427 331.732 28.0446C331.883 28.0475 331.956 28.0527 331.956 28.0527Z" fill="#E0E0E0"/>
<path d="M276.169 22.5692C276.195 22.5356 276.605 22.8039 277.245 23.2657C277.885 23.7279 278.757 24.3831 279.697 25.1363C280.639 25.8899 281.466 26.6022 282.049 27.136C282.632 27.6697 282.972 28.0215 282.945 28.0527C282.887 28.1185 281.383 26.8777 279.504 25.3777C277.625 23.8791 276.115 22.6398 276.169 22.5692Z" fill="#E0E0E0"/>
<path d="M338.732 22.6903C338.785 22.757 337.311 24.0122 335.44 25.4925C333.569 26.9738 332.009 28.1196 331.956 28.0528C331.904 27.9861 333.377 26.7314 335.249 25.2501C337.119 23.7698 338.679 22.6236 338.732 22.6903Z" fill="#E0E0E0"/>
<path d="M338.681 65.8585C336.356 63.974 334.031 62.0896 331.706 60.2051L338.681 65.8585Z" fill="white"/>
<path d="M331.706 60.2047C331.76 60.1385 333.365 61.3505 335.292 62.9115C337.218 64.4729 338.736 65.7919 338.682 65.8587C338.629 65.9249 337.024 64.7134 335.097 63.1519C333.171 61.5905 331.653 60.271 331.706 60.2047Z" fill="#E0E0E0"/>
<path d="M276.169 65.8527C276.117 65.7855 277.575 64.5437 279.427 63.0793C281.279 61.6143 282.823 60.4815 282.876 60.5482C282.929 60.6149 281.47 61.8567 279.618 63.3217C277.767 64.7861 276.223 65.9194 276.169 65.8527Z" fill="#E0E0E0"/>
<path d="M292.896 38.1586V49.02H323.735V38.1586H292.896Z" fill="#E0E0E0"/>
<path d="M339.883 213.412C339.883 213.481 267.729 213.537 178.743 213.537C89.7261 213.537 17.5879 213.481 17.5879 213.412C17.5879 213.343 89.7266 213.287 178.743 213.287C267.729 213.287 339.883 213.343 339.883 213.412Z" fill="#263238"/>
<path d="M297.676 211.704H60.497C56.6354 211.704 53.5049 208.573 53.5049 204.712V49.3328C53.5049 47.2779 55.1705 45.6123 57.2254 45.6123H301.433C303.22 45.6123 304.668 47.0609 304.668 48.8475V204.712C304.668 208.573 301.538 211.704 297.676 211.704Z" fill="#455A64"/>
<path d="M308.532 213.952H49.588C45.9506 213.952 43.002 211.004 43.002 207.366V199.42H315.118V207.366C315.118 211.004 312.169 213.952 308.532 213.952Z" fill="#455A64"/>
<path d="M297.224 52.2114H60.2471V192.473H297.224V52.2114Z" fill="#F5F5F5"/>
<path d="M154.327 199.42L157.704 204.791H205.219L208.355 199.42H154.327Z" fill="#263238"/>
<path d="M304.708 199.371H53.5449V200.172H304.708V199.371Z" fill="#263238"/>
<path d="M127.344 45.6125H101.252V36.4248C101.252 29.9381 106.507 24.4517 112.993 24.4517L127.344 24.6797V45.6125Z" fill="#E0E0E0"/>
<path d="M112.434 24.4388C112.434 24.4388 127.283 23.0909 127.283 42.456C127.283 61.8212 127.283 193.107 127.283 193.107H243.825V36.9639C243.825 29.8858 238.078 24.1527 231 24.1695L112.434 24.4388Z" fill="white"/>
<path d="M112.434 24.4386C113.124 24.4362 145.408 24.3321 198.655 24.1602C205.305 24.141 212.272 24.1209 219.531 24.0997C223.161 24.0901 226.864 24.0801 230.637 24.0705C232.531 24.0479 234.476 24.3628 236.242 25.1745C238.012 25.9645 239.615 27.1612 240.896 28.6626C242.172 30.1679 243.084 31.9953 243.56 33.9417C243.708 34.4226 243.743 34.9281 243.83 35.4234C243.9 35.9217 243.894 36.429 243.93 36.933C243.931 37.9362 243.931 38.9433 243.932 39.9546C243.933 43.9991 243.934 48.1079 243.935 52.2772C243.936 60.6157 243.938 69.1981 243.94 77.9989C243.943 113.203 243.946 151.905 243.95 192.529C243.95 192.723 243.95 192.917 243.95 193.107V193.232H243.825C202.355 193.228 162.905 193.225 127.283 193.222H127.169V193.107C127.187 140.946 127.203 96.6565 127.214 65.4052C127.22 57.5932 127.225 50.5957 127.23 44.4935C127.23 42.9681 127.248 41.4983 127.145 40.0924C127.075 38.6826 126.843 37.3458 126.587 36.0791C126.29 34.8196 125.913 33.6397 125.446 32.5607C124.961 31.4903 124.398 30.5221 123.772 29.6725C122.497 27.9882 120.993 26.8108 119.566 26.0649C118.142 25.3021 116.816 24.9316 115.745 24.7122C114.669 24.501 113.834 24.4453 113.276 24.4319C112.718 24.418 112.434 24.4386 112.434 24.4386C112.434 24.4386 112.717 24.405 113.277 24.4122C113.836 24.4189 114.672 24.4689 115.752 24.6743C116.827 24.8884 118.16 25.2541 119.593 26.0145C121.028 26.758 122.545 27.9369 123.832 29.6274C124.463 30.4799 125.032 31.4514 125.522 32.5261C125.994 33.6095 126.375 34.7937 126.676 36.058C126.935 37.3295 127.17 38.6711 127.244 40.0847C127.35 41.4959 127.334 42.9685 127.337 44.493C127.341 50.5948 127.346 57.5922 127.352 65.4047C127.364 96.6565 127.379 140.946 127.398 193.107L127.283 192.992C162.905 192.989 202.355 192.985 243.825 192.982L243.7 193.107C243.7 192.916 243.7 192.722 243.7 192.528C243.704 151.905 243.707 113.202 243.71 77.9985C243.712 69.1977 243.714 60.6157 243.716 52.2767C243.716 48.1074 243.717 43.9986 243.718 39.9541C243.688 37.9338 243.864 35.9082 243.355 33.9901C242.888 32.0754 241.992 30.2773 240.737 28.7956C239.479 27.3177 237.9 26.1388 236.16 25.3602C234.42 24.5601 232.514 24.2495 230.638 24.2701C226.858 24.2773 223.148 24.2841 219.512 24.2913C212.239 24.3033 205.258 24.3148 198.595 24.3258C145.385 24.3954 113.123 24.4377 112.434 24.4386Z" fill="#263238"/>
<path d="M177.167 70.1561C177.167 70.2252 170.08 70.2809 161.34 70.2809C152.596 70.2809 145.511 70.2247 145.511 70.1561C145.511 70.0869 152.596 70.0313 161.34 70.0313C170.08 70.0308 177.167 70.0869 177.167 70.1561Z" fill="#263238"/>
<path d="M184.264 73.9417C184.264 74.0108 175.589 74.0665 164.889 74.0665C154.185 74.0665 145.512 74.0103 145.512 73.9417C145.512 73.8726 154.186 73.8169 164.889 73.8169C175.588 73.8164 184.264 73.8726 184.264 73.9417Z" fill="#263238"/>
<path d="M186.807 88.8431C186.807 88.9122 177.848 88.9679 166.801 88.9679C155.749 88.9679 146.793 88.9117 146.793 88.8431C146.793 88.7739 155.749 88.7183 166.801 88.7183C177.849 88.7183 186.807 88.7744 186.807 88.8431Z" fill="#263238"/>
<path d="M212.946 103.366C212.946 103.436 197.969 103.491 179.5 103.491C161.023 103.491 146.05 103.435 146.05 103.366C146.05 103.297 161.023 103.242 179.5 103.242C197.969 103.242 212.946 103.298 212.946 103.366Z" fill="#263238"/>
<path d="M212.946 107.7C212.946 107.77 197.969 107.825 179.5 107.825C161.023 107.825 146.05 107.769 146.05 107.7C146.05 107.632 161.023 107.576 179.5 107.576C197.969 107.575 212.946 107.631 212.946 107.7Z" fill="#263238"/>
<path d="M212.946 112.034C212.946 112.103 197.969 112.159 179.5 112.159C161.023 112.159 146.05 112.103 146.05 112.034C146.05 111.965 161.023 111.909 179.5 111.909C197.969 111.909 212.946 111.965 212.946 112.034Z" fill="#263238"/>
<path d="M212.946 116.367C212.946 116.437 197.969 116.492 179.5 116.492C161.023 116.492 146.05 116.436 146.05 116.367C146.05 116.298 161.023 116.243 179.5 116.243C197.969 116.243 212.946 116.299 212.946 116.367Z" fill="#263238"/>
<path d="M212.946 120.701C212.946 120.77 197.969 120.826 179.5 120.826C161.023 120.826 146.05 120.77 146.05 120.701C146.05 120.632 161.023 120.576 179.5 120.576C197.969 120.576 212.946 120.632 212.946 120.701Z" fill="#263238"/>
<path d="M171.417 125.034C171.417 125.104 165.737 125.159 158.733 125.159C151.727 125.159 146.049 125.103 146.049 125.034C146.049 124.966 151.727 124.91 158.733 124.91C165.738 124.909 171.417 124.965 171.417 125.034Z" fill="#263238"/>
<path d="M224.905 102.761L213.004 130.413C212.753 130.996 213.348 131.585 213.929 131.328L223.102 127.28C223.478 127.113 223.917 127.307 224.047 127.698L227.142 136.988C227.35 137.613 228.228 137.629 228.459 137.012L239.644 107.185L224.905 102.761Z" fill="#3282C4"/>
<path d="M240.413 107.363L246.113 136.922C246.234 137.545 247.056 137.699 247.392 137.16L252.703 128.655C252.921 128.306 253.393 128.22 253.72 128.47L261.501 134.414C262.025 134.814 262.76 134.334 262.604 133.693L255.09 102.738L240.413 107.363Z" fill="#3282C4"/>
<g opacity="0.3">
<path d="M224.905 102.761L213.004 130.413C212.753 130.996 213.348 131.585 213.929 131.328L223.102 127.28C223.478 127.113 223.917 127.307 224.047 127.698L227.142 136.988C227.35 137.613 228.228 137.629 228.459 137.012L239.644 107.185L224.905 102.761Z" fill="black"/>
</g>
<g opacity="0.3">
<path d="M240.413 107.363L246.113 136.922C246.234 137.545 247.056 137.699 247.392 137.16L252.703 128.655C252.921 128.306 253.393 128.22 253.72 128.47L261.501 134.414C262.025 134.814 262.76 134.334 262.604 133.693L255.09 102.738L240.413 107.363Z" fill="black"/>
</g>
<path d="M240.993 54.2883L244.899 51.417L247.969 55.1696L252.467 53.36L254.507 57.7583L259.314 57.1242L260.197 61.8916L265.01 62.4728L264.679 67.3103L269.197 69.0704L267.673 73.6732L271.611 76.5013L268.991 80.5808L272.102 84.2994L268.549 87.5989L270.638 91.9746L266.376 94.2872L267.311 99.0445L262.608 100.224L262.33 105.065L257.482 105.038L256.009 109.658L251.32 108.426L248.744 112.534L244.509 110.175L240.993 113.514L237.476 110.175L233.241 112.534L230.665 108.426L225.976 109.658L224.503 105.038L219.654 105.065L219.376 100.224L214.674 99.0445L215.608 94.2872L211.347 91.9746L213.435 87.5989L209.883 84.2994L212.994 80.5808L210.373 76.5013L214.311 73.6732L212.788 69.0704L217.306 67.3103L216.975 62.4728L221.788 61.8916L222.67 57.1242L227.477 57.7583L229.518 53.36L234.016 55.1696L237.085 51.417L240.993 54.2883Z" fill="#3282C4"/>
<path d="M256.517 97.9929C265.092 89.4178 265.092 75.5148 256.517 66.9398C247.942 58.3647 234.039 58.3647 225.464 66.9398C216.889 75.5148 216.889 89.4178 225.464 97.9929C234.039 106.568 247.942 106.568 256.517 97.9929Z" fill="white"/>
<path d="M245.783 77.2639L251.676 78.127C252.644 78.2686 253.029 79.459 252.328 80.1411L248.058 84.2935C247.78 84.5643 247.652 84.955 247.717 85.338L248.718 91.2094C248.882 92.1737 247.869 92.9081 247.004 92.4521L241.735 89.6748C241.391 89.4934 240.981 89.4934 240.636 89.6734L235.362 92.4391C234.495 92.8932 233.484 92.1569 233.65 91.1926L234.664 85.3236C234.73 84.9406 234.603 84.5498 234.325 84.2782L230.065 80.1161C229.365 79.4326 229.753 78.2431 230.721 78.1034L236.616 77.2534C237.001 77.1982 237.333 76.9567 237.506 76.6087L240.148 71.2706C240.582 70.3937 241.833 70.3951 242.265 71.2731L244.895 76.6169C245.066 76.9654 245.398 77.2073 245.783 77.2639Z" fill="#3282C4"/>
<path d="M156.6 47.7687C156.6 46.1837 157.812 45.0596 159.465 45.0596C160.425 45.0596 161.198 45.4095 161.704 46.0421L160.767 46.8903C160.439 46.4957 160.037 46.2802 159.539 46.2802C158.683 46.2802 158.088 46.8754 158.088 47.7687C158.088 48.6615 158.683 49.2572 159.539 49.2572C160.037 49.2572 160.439 49.0412 160.767 48.6466L161.704 49.4952C161.198 50.1274 160.425 50.4773 159.465 50.4773C157.812 50.4773 156.6 49.3536 156.6 47.7687Z" fill="#263238"/>
<path d="M166.542 49.2345V50.373H162.359V45.1641H166.445V46.3026H163.818V47.1805H166.132V48.2817H163.818V49.234L166.542 49.2345Z" fill="#263238"/>
<path d="M169.638 48.9887H168.835V50.373H167.361V45.1641H169.743C171.164 45.1641 172.057 45.9009 172.057 47.0913C172.057 47.8578 171.685 48.4233 171.037 48.7357L172.161 50.373H170.584L169.638 48.9887ZM169.653 46.3252H168.835V47.8506H169.653C170.263 47.8506 170.568 47.5679 170.568 47.0917C170.568 46.6074 170.263 46.3252 169.653 46.3252Z" fill="#263238"/>
<path d="M173.903 46.3324H172.303V45.1641H176.969V46.3324H175.377V50.373H173.904V46.3324H173.903Z" fill="#263238"/>
<path d="M177.52 45.1641H178.993V50.373H177.52V45.1641Z" fill="#263238"/>
<path d="M181.516 46.3026V47.4484H183.816V48.5869H181.516V50.373H180.043V45.1641H184.129V46.3026H181.516Z" fill="#263238"/>
<path d="M184.821 45.1641H186.295V50.373H184.821V45.1641Z" fill="#263238"/>
<path d="M187.076 47.7687C187.076 46.1837 188.289 45.0596 189.941 45.0596C190.901 45.0596 191.675 45.4095 192.181 46.0421L191.244 46.8903C190.916 46.4957 190.514 46.2802 190.015 46.2802C189.16 46.2802 188.565 46.8754 188.565 47.7687C188.565 48.6615 189.16 49.2572 190.015 49.2572C190.514 49.2572 190.916 49.0412 191.244 48.6466L192.181 49.4952C191.675 50.1274 190.901 50.4773 189.941 50.4773C188.289 50.4773 187.076 49.3536 187.076 47.7687Z" fill="#263238"/>
<path d="M196.238 49.3612H194.035L193.625 50.373H192.122L194.421 45.1641H195.872L198.179 50.373H196.647L196.238 49.3612ZM195.806 48.2745L195.136 46.6074L194.465 48.2745H195.806Z" fill="#263238"/>
<path d="M199.446 46.3324H197.846V45.1641H202.511V46.3324H200.919V50.373H199.446V46.3324H199.446Z" fill="#263238"/>
<path d="M203.062 45.1641H204.536V50.373H203.062V45.1641Z" fill="#263238"/>
<path d="M205.317 47.7687C205.317 46.2058 206.545 45.0596 208.212 45.0596C209.879 45.0596 211.106 46.2058 211.106 47.7687C211.106 49.3311 209.878 50.4773 208.212 50.4773C206.545 50.4773 205.317 49.3316 205.317 47.7687ZM209.619 47.7687C209.619 46.8682 209.001 46.2802 208.212 46.2802C207.423 46.2802 206.805 46.8682 206.805 47.7687C206.805 48.6687 207.423 49.2572 208.212 49.2572C209.001 49.2572 209.619 48.6692 209.619 47.7687Z" fill="#263238"/>
<path d="M216.838 45.1641V50.373H215.625L213.326 47.5972V50.373H211.882V45.1641H213.095L215.394 47.9399V45.1641H216.838Z" fill="#263238"/>
<path d="M222.745 143.329C222.745 143.398 216.103 143.454 207.912 143.454C199.717 143.454 193.077 143.398 193.077 143.329C193.077 143.26 199.717 143.204 207.912 143.204C216.103 143.204 222.745 143.26 222.745 143.329Z" fill="#263238"/>
<path d="M222.745 147.515C222.745 147.584 216.103 147.64 207.912 147.64C199.717 147.64 193.077 147.584 193.077 147.515C193.077 147.446 199.717 147.39 207.912 147.39C216.103 147.39 222.745 147.446 222.745 147.515Z" fill="#263238"/>
<path d="M220.773 165.7C220.768 165.7 220.761 165.629 220.749 165.492C220.739 165.343 220.724 165.141 220.706 164.882C220.697 164.746 220.688 164.596 220.677 164.432C220.659 164.268 220.624 164.09 220.594 163.896C220.531 163.508 220.472 163.059 220.323 162.571C220.095 161.579 219.628 160.408 218.895 159.167C218.155 157.932 217.089 156.641 215.639 155.546C214.194 154.462 212.37 153.539 210.266 153.167C208.175 152.808 205.816 152.873 203.569 153.727C202.997 153.911 202.46 154.193 201.907 154.458C201.384 154.775 200.833 155.067 200.345 155.463C199.828 155.819 199.375 156.264 198.901 156.692C198.472 157.166 198.022 157.63 197.653 158.169C196.895 159.222 196.233 160.392 195.832 161.678C195.417 162.957 195.193 164.315 195.175 165.697C195.193 167.079 195.416 168.437 195.831 169.717C196.231 171.004 196.894 172.174 197.652 173.227C198.021 173.766 198.472 174.231 198.9 174.705C199.374 175.133 199.827 175.578 200.345 175.934C200.832 176.331 201.384 176.622 201.907 176.939C202.46 177.204 202.997 177.487 203.57 177.67C205.817 178.524 208.177 178.589 210.267 178.23C212.372 177.858 214.195 176.936 215.641 175.851C217.091 174.756 218.156 173.465 218.896 172.23C219.629 170.989 220.096 169.818 220.324 168.826C220.473 168.338 220.532 167.889 220.595 167.501C220.624 167.308 220.66 167.129 220.678 166.965C220.689 166.801 220.698 166.651 220.707 166.517C220.725 166.258 220.74 166.055 220.75 165.906C220.761 165.771 220.768 165.7 220.773 165.7C220.777 165.7 220.778 165.771 220.775 165.908C220.771 166.058 220.765 166.261 220.756 166.521C220.752 166.657 220.746 166.807 220.74 166.972C220.726 167.138 220.694 167.318 220.668 167.513C220.612 167.904 220.561 168.357 220.418 168.851C220.202 169.854 219.745 171.041 219.015 172.302C218.279 173.559 217.21 174.873 215.747 175.993C214.289 177.101 212.442 178.048 210.304 178.435C208.182 178.809 205.781 178.751 203.49 177.887C202.908 177.702 202.36 177.416 201.796 177.147C201.262 176.826 200.7 176.529 200.202 176.127C199.674 175.765 199.212 175.313 198.728 174.877C198.29 174.394 197.831 173.921 197.453 173.373C196.679 172.301 196.004 171.108 195.594 169.795C195.17 168.492 194.942 167.106 194.924 165.697C194.942 164.288 195.171 162.903 195.595 161.599C196.004 160.288 196.68 159.095 197.454 158.023C197.832 157.475 198.291 157.002 198.728 156.52C199.212 156.084 199.674 155.632 200.202 155.271C200.7 154.868 201.262 154.572 201.796 154.251C202.359 153.982 202.907 153.696 203.489 153.51C205.78 152.647 208.18 152.589 210.303 152.963C212.44 153.35 214.287 154.296 215.745 155.404C217.208 156.523 218.277 157.839 219.014 159.095C219.744 160.356 220.201 161.544 220.417 162.546C220.56 163.04 220.612 163.494 220.667 163.885C220.693 164.08 220.724 164.26 220.739 164.426C220.745 164.591 220.751 164.741 220.756 164.878C220.763 165.138 220.769 165.341 220.774 165.491C220.778 165.629 220.777 165.7 220.773 165.7Z" fill="#3282C4"/>
<path d="M215.954 167.63C217.011 163.189 214.267 158.731 209.826 157.674C205.384 156.617 200.926 159.361 199.869 163.803C198.812 168.244 201.556 172.702 205.998 173.759C210.44 174.816 214.897 172.072 215.954 167.63Z" fill="#3282C4"/>
<path d="M226.295 158.582C226.295 158.582 226.179 158.653 225.947 158.777C225.706 158.904 225.363 159.086 224.914 159.323C223.997 159.802 222.659 160.499 220.944 161.394C219.217 162.286 217.111 163.375 214.673 164.634C214.053 164.931 213.378 165.211 212.629 165.287C211.889 165.385 211.065 165.163 210.464 164.627C210.167 164.359 209.915 164.009 209.822 163.595C209.72 163.196 209.787 162.702 210.097 162.38C210.387 162.051 210.811 161.855 211.253 161.822C211.689 161.763 212.211 161.995 212.385 162.456L212.391 162.472L212.391 162.488C212.417 163.814 211.93 165.192 211.003 166.269C210.098 167.358 208.698 168.126 207.178 168.192C205.673 168.27 204.076 167.755 202.912 166.65C202.335 166.109 201.836 165.414 201.682 164.583C201.611 164.174 201.643 163.722 201.844 163.335C202.039 162.952 202.362 162.625 202.777 162.462C203.192 162.291 203.699 162.365 204.058 162.637C204.422 162.905 204.643 163.307 204.784 163.712C204.927 164.122 204.979 164.558 204.981 164.985C204.998 165.2 204.985 165.415 204.965 165.63C204.954 165.846 204.931 166.06 204.882 166.272C204.573 167.978 203.601 169.575 202.207 170.692C200.827 171.815 198.954 172.448 197.118 172.155C195.289 171.879 193.605 170.811 192.464 169.323C191.815 168.471 191.328 167.487 191.127 166.441C190.937 165.402 190.93 164.298 191.364 163.312C191.578 162.828 191.924 162.379 192.392 162.103C192.85 161.826 193.408 161.696 193.944 161.808C194.49 161.908 194.929 162.32 195.176 162.775C195.435 163.234 195.564 163.731 195.681 164.219C196.133 166.183 196.006 168.242 195.326 170.059C194.666 171.884 193.402 173.45 191.8 174.397C190.212 175.358 188.344 175.748 186.598 175.53C185.726 175.419 184.884 175.153 184.137 174.733C183.39 174.314 182.746 173.75 182.226 173.109C181.186 171.827 180.617 170.237 180.639 168.699C180.646 167.931 180.814 167.185 181.099 166.503C181.397 165.839 181.883 165.205 182.59 164.973C182.936 164.871 183.306 164.847 183.651 164.944C183.993 165.047 184.287 165.246 184.534 165.477C185.024 165.95 185.333 166.544 185.545 167.136C185.761 167.73 185.862 168.348 185.867 168.939C185.874 169.234 185.883 169.524 185.866 169.81C185.86 170.096 185.843 170.376 185.812 170.651C185.6 172.856 184.918 174.673 184.194 176.04C183.464 177.413 182.688 178.351 182.139 178.952C181.866 179.256 181.639 179.469 181.486 179.611C181.333 179.754 181.251 179.823 181.251 179.823C181.251 179.823 181.321 179.741 181.468 179.593C181.616 179.445 181.836 179.227 182.102 178.919C182.637 178.31 183.396 177.366 184.108 175.995C184.814 174.629 185.477 172.822 185.674 170.638C185.703 170.366 185.718 170.088 185.722 169.805C185.737 169.523 185.727 169.235 185.718 168.943C185.71 168.362 185.609 167.767 185.396 167.189C185.187 166.614 184.882 166.042 184.418 165.598C184.185 165.383 183.912 165.201 183.604 165.109C183.293 165.023 182.96 165.048 182.645 165.14C182.01 165.349 181.551 165.939 181.267 166.578C180.997 167.233 180.836 167.957 180.831 168.701C180.814 170.189 181.371 171.735 182.386 172.977C182.892 173.598 183.518 174.144 184.241 174.546C184.962 174.949 185.779 175.206 186.625 175.311C188.318 175.518 190.138 175.136 191.681 174.198C193.235 173.275 194.459 171.756 195.101 169.975C195.763 168.203 195.884 166.189 195.442 164.274C195.327 163.796 195.199 163.314 194.961 162.895C194.73 162.477 194.359 162.135 193.893 162.049C193.432 161.952 192.93 162.065 192.519 162.315C192.102 162.561 191.791 162.962 191.59 163.413C191.185 164.325 191.187 165.395 191.371 166.39C191.564 167.396 192.034 168.346 192.661 169.169C193.765 170.61 195.397 171.643 197.153 171.907C198.914 172.19 200.712 171.585 202.051 170.499C203.402 169.419 204.345 167.87 204.644 166.228C204.691 166.024 204.713 165.818 204.724 165.61C204.744 165.403 204.757 165.197 204.741 164.991C204.739 164.576 204.691 164.17 204.557 163.788C204.427 163.411 204.223 163.052 203.917 162.827C203.614 162.6 203.207 162.539 202.86 162.68C202.51 162.815 202.222 163.103 202.051 163.439C201.875 163.774 201.846 164.167 201.909 164.543C202.046 165.298 202.513 165.966 203.067 166.484C204.178 167.545 205.718 168.046 207.166 167.974C208.626 167.913 209.967 167.183 210.846 166.133C211.745 165.096 212.218 163.765 212.198 162.491L212.204 162.524C212.063 162.156 211.659 161.963 211.265 162.008C210.874 162.035 210.486 162.215 210.235 162.501C209.965 162.778 209.909 163.188 209.997 163.553C210.077 163.923 210.305 164.245 210.579 164.496C211.144 164.999 211.901 165.212 212.613 165.122C213.329 165.053 213.991 164.784 214.606 164.494C217.05 163.251 219.162 162.177 220.894 161.296C222.62 160.422 223.965 159.74 224.888 159.272C225.341 159.046 225.689 158.872 225.933 158.751C226.17 158.635 226.295 158.582 226.295 158.582Z" fill="#263238"/>
<path d="M183.295 40.1746C183.295 40.2437 173.141 40.2994 160.618 40.2994C148.09 40.2994 137.938 40.2432 137.938 40.1746C137.938 40.106 148.09 40.0498 160.618 40.0498C173.141 40.0493 183.295 40.1055 183.295 40.1746Z" fill="#E0E0E0"/>
<path d="M190.855 40.1746C190.855 40.2437 190.15 40.2994 189.28 40.2994C188.41 40.2994 187.705 40.2432 187.705 40.1746C187.705 40.106 188.41 40.0498 189.28 40.0498C190.15 40.0493 190.855 40.1055 190.855 40.1746Z" fill="#E0E0E0"/>
<path d="M236 40.1746C236 40.2437 226.739 40.2994 215.318 40.2994C203.892 40.2994 194.634 40.2432 194.634 40.1746C194.634 40.106 203.892 40.0498 215.318 40.0498C226.74 40.0493 236 40.1055 236 40.1746Z" fill="#E0E0E0"/>
<path d="M183.295 52.7933C183.295 52.8624 173.141 52.9181 160.618 52.9181C148.09 52.9181 137.938 52.8619 137.938 52.7933C137.938 52.7246 148.09 52.6685 160.618 52.6685C173.141 52.668 183.295 52.7241 183.295 52.7933Z" fill="#E0E0E0"/>
<path d="M190.855 52.7933C190.855 52.8624 190.15 52.9181 189.28 52.9181C188.41 52.9181 187.705 52.8619 187.705 52.7933C187.705 52.7246 188.41 52.6685 189.28 52.6685C190.15 52.668 190.855 52.7241 190.855 52.7933Z" fill="#E0E0E0"/>
<path d="M236 52.7933C236 52.8624 226.739 52.9181 215.318 52.9181C203.892 52.9181 194.634 52.8619 194.634 52.7933C194.634 52.7246 203.892 52.6685 215.318 52.6685C226.74 52.668 236 52.7241 236 52.7933Z" fill="#E0E0E0"/>
<path d="M326.305 99.9085C326.305 99.9085 320.582 123.347 294.966 117.978C294.966 117.978 302.39 94.2416 326.305 99.9085Z" fill="#263238"/>
<path d="M313.928 135.404C313.928 135.404 302.169 152.937 282.741 140.812C282.741 140.812 295.988 123.548 313.928 135.404Z" fill="#263238"/>
<path d="M295.193 162.152C295.193 162.152 278.035 176.743 261.604 158.661C261.604 158.661 280.211 144.777 295.193 162.152Z" fill="#263238"/>
<path d="M277.023 105.443C277.023 105.443 296.052 114.586 286.817 135.543C286.817 135.543 267.842 124.889 277.023 105.443Z" fill="#263238"/>
<path d="M272.893 130.708C272.893 130.708 282.382 143.521 268.241 154.528C268.241 154.528 259.355 140.71 272.893 130.708Z" fill="#263238"/>
<path d="M316.906 72.498C316.906 72.498 319.088 91.4964 298.568 94.5396C298.568 94.5396 297.569 74.8529 316.906 72.498Z" fill="#263238"/>
<path d="M287.475 53.2759C287.475 53.2759 304.074 60.208 296.864 79.6596C296.864 79.6596 280.232 71.3589 287.475 53.2759Z" fill="#263238"/>
<path d="M277.457 81.0337C277.457 81.0337 299.434 83.5412 297.499 107.457C297.499 107.457 275.056 103.437 277.457 81.0337Z" fill="#263238"/>
<path d="M246.186 164.519C246.186 164.519 246.279 164.486 246.464 164.436C246.658 164.384 246.931 164.311 247.287 164.217C248.01 164.026 249.084 163.774 250.435 163.331C253.146 162.5 257.029 161.089 261.497 158.675C265.967 156.278 270.967 152.792 275.831 148.167C278.262 145.856 280.646 143.252 282.913 140.39C283.458 139.658 284.007 138.92 284.561 138.175C284.838 137.803 285.115 137.428 285.394 137.053C285.663 136.671 285.909 136.271 286.169 135.877C286.684 135.088 287.202 134.292 287.723 133.492C288.197 132.662 288.674 131.827 289.155 130.987C289.393 130.566 289.631 130.147 289.869 129.728C290.082 129.297 290.294 128.867 290.506 128.438C290.926 127.58 291.356 126.733 291.761 125.882C292.129 125.014 292.495 124.152 292.857 123.298C293.035 122.869 293.225 122.448 293.392 122.019C293.547 121.585 293.702 121.154 293.856 120.724C294.163 119.865 294.469 119.014 294.771 118.17C295.025 117.311 295.277 116.46 295.526 115.618C295.65 115.197 295.774 114.778 295.897 114.361C296.023 113.945 296.103 113.52 296.207 113.103C296.404 112.267 296.598 111.44 296.79 110.624C298.231 104.063 298.549 97.9795 298.425 92.9122C298.308 87.829 297.57 83.7691 297.09 80.9746C296.791 79.5869 296.525 78.516 296.365 77.7854C296.285 77.4269 296.223 77.1509 296.179 76.9546C296.139 76.7669 296.124 76.6694 296.124 76.6694C296.124 76.6694 296.155 76.7626 296.203 76.9483C296.253 77.1432 296.323 77.4173 296.413 77.7734C296.589 78.5006 296.871 79.5691 297.185 80.9558C297.695 83.7485 298.462 87.8126 298.602 92.9074C298.748 97.9862 298.448 104.088 297.016 110.673C296.824 111.492 296.631 112.321 296.435 113.161C296.331 113.579 296.251 114.006 296.126 114.423C296.003 114.841 295.879 115.262 295.755 115.684C295.507 116.53 295.255 117.384 295.002 118.246C294.699 119.093 294.394 119.948 294.086 120.81C293.932 121.241 293.778 121.674 293.622 122.109C293.455 122.539 293.264 122.963 293.086 123.393C292.723 124.251 292.357 125.115 291.988 125.987C291.583 126.841 291.151 127.691 290.729 128.552C290.516 128.982 290.304 129.414 290.09 129.847C289.852 130.267 289.613 130.688 289.373 131.11C288.891 131.953 288.412 132.791 287.936 133.623C287.412 134.427 286.892 135.225 286.375 136.017C286.114 136.411 285.867 136.813 285.596 137.196C285.317 137.573 285.038 137.948 284.76 138.322C284.204 139.068 283.651 139.809 283.104 140.544C280.828 143.412 278.432 146.021 275.989 148.335C271.101 152.966 266.074 156.448 261.581 158.832C257.088 161.233 253.186 162.622 250.462 163.426C249.105 163.855 248.026 164.092 247.298 164.268C246.94 164.352 246.665 164.416 246.469 164.462C246.283 164.503 246.186 164.519 246.186 164.519Z" fill="#263238"/>
<path d="M270.839 141.038C270.856 141.04 270.849 141.231 270.821 141.575C270.794 141.919 270.742 142.416 270.667 143.028C270.518 144.252 270.265 145.937 269.905 147.785C269.543 149.633 269.143 151.29 268.82 152.48C268.659 153.076 268.521 153.555 268.416 153.883C268.312 154.212 268.247 154.392 268.23 154.387C268.213 154.383 268.247 154.194 268.321 153.858C268.411 153.47 268.52 152.996 268.648 152.438C268.927 151.239 269.298 149.58 269.659 147.737C270.018 145.895 270.298 144.219 270.492 143.003C270.583 142.437 270.66 141.957 270.723 141.564C270.782 141.223 270.821 141.036 270.839 141.038Z" fill="#455A64"/>
<path d="M275.513 160.066C275.509 160.083 275.317 160.065 274.972 160.017C274.575 159.959 274.088 159.888 273.514 159.804C272.284 159.621 270.584 159.379 268.7 159.158C266.816 158.938 265.106 158.78 263.866 158.674C263.289 158.623 262.799 158.58 262.398 158.544C262.052 158.511 261.86 158.485 261.861 158.467C261.862 158.45 262.055 158.444 262.404 158.447C262.752 158.45 263.256 158.466 263.878 158.498C265.122 158.559 266.84 158.689 268.729 158.91C270.617 159.132 272.319 159.402 273.543 159.63C274.156 159.744 274.649 159.843 274.989 159.922C275.33 159.999 275.516 160.049 275.513 160.066Z" fill="#455A64"/>
<path d="M298.638 136.81C298.641 136.826 298.415 136.88 298.005 136.963C297.547 137.053 296.963 137.168 296.266 137.305C294.799 137.595 292.776 138.018 290.559 138.554C288.341 139.093 286.349 139.643 284.911 140.057C284.229 140.254 283.658 140.418 283.209 140.548C282.806 140.663 282.581 140.718 282.575 140.702C282.57 140.686 282.785 140.599 283.179 140.455C283.573 140.311 284.147 140.116 284.861 139.888C286.287 139.43 288.277 138.851 290.5 138.312C292.723 137.773 294.757 137.377 296.235 137.132C296.974 137.008 297.573 136.919 297.99 136.867C298.405 136.813 298.636 136.792 298.638 136.81Z" fill="#455A64"/>
<path d="M281.842 118.844C281.857 118.836 281.995 119.043 282.233 119.426C282.474 119.807 282.795 120.376 283.166 121.093C283.91 122.524 284.802 124.58 285.486 126.951C286.166 129.323 286.503 131.539 286.633 133.147C286.699 133.951 286.729 134.604 286.727 135.055C286.729 135.506 286.722 135.755 286.705 135.755C286.687 135.756 286.661 135.507 286.63 135.059C286.602 134.61 286.545 133.962 286.457 133.164C286.283 131.569 285.921 129.375 285.246 127.02C284.567 124.667 283.708 122.616 283.009 121.172C282.66 120.449 282.363 119.869 282.149 119.474C281.937 119.077 281.827 118.853 281.842 118.844Z" fill="#455A64"/>
<path d="M307.33 107.912C307.339 107.927 307.158 108.053 306.824 108.268C306.45 108.513 305.978 108.821 305.416 109.187C304.234 109.971 302.631 111.1 300.949 112.461C299.269 113.824 297.831 115.158 296.82 116.153C296.344 116.626 295.946 117.023 295.629 117.339C295.349 117.621 295.188 117.772 295.176 117.76C295.163 117.749 295.299 117.576 295.558 117.274C295.815 116.969 296.202 116.543 296.695 116.029C297.678 114.999 299.103 113.638 300.793 112.267C302.483 110.899 304.11 109.787 305.321 109.039C305.927 108.664 306.424 108.373 306.775 108.185C307.124 107.995 307.322 107.897 307.33 107.912Z" fill="#455A64"/>
<path d="M283.334 90.5635C283.34 90.5573 283.402 90.6048 283.515 90.7018C283.647 90.8199 283.807 90.9624 283.999 91.1333C284.417 91.5106 285.008 92.0722 285.725 92.7783C287.161 94.1895 289.085 96.2045 291.08 98.5435C293.073 100.885 294.757 103.104 295.923 104.746C296.506 105.567 296.966 106.239 297.273 106.712C297.411 106.928 297.527 107.108 297.622 107.258C297.7 107.384 297.737 107.453 297.73 107.458C297.722 107.463 297.672 107.404 297.58 107.287C297.474 107.145 297.347 106.973 297.192 106.767C296.835 106.283 296.358 105.635 295.78 104.85C294.58 103.237 292.878 101.041 290.889 98.7058C288.899 96.3725 287.001 94.344 285.6 92.9031C284.917 92.2075 284.353 91.6335 283.931 91.2039C283.752 91.0195 283.603 90.8659 283.479 90.7387C283.379 90.6298 283.329 90.5698 283.334 90.5635Z" fill="#455A64"/>
<path d="M309.803 78.6734C309.816 78.6849 309.647 78.8961 309.331 79.2666C308.988 79.6722 308.539 80.2026 307.999 80.8415C306.881 82.1769 305.38 84.0561 303.834 86.2151C302.291 88.3766 300.998 90.406 300.096 91.895C299.666 92.613 299.309 93.2087 299.037 93.6647C298.788 94.0838 298.644 94.3118 298.628 94.3036C298.613 94.2954 298.729 94.0516 298.952 93.6177C299.173 93.1828 299.511 92.5626 299.944 91.8052C300.809 90.2898 302.082 88.2383 303.631 86.0697C305.182 83.9034 306.711 82.0348 307.865 80.7263C308.441 80.0716 308.919 79.5513 309.259 79.2014C309.597 78.85 309.79 78.6618 309.803 78.6734Z" fill="#455A64"/>
<path d="M289.932 60.6369C289.948 60.6301 290.071 60.8783 290.278 61.3333C290.486 61.7879 290.776 62.4503 291.124 63.2735C291.821 64.9189 292.742 67.21 293.689 69.7674C294.635 72.3258 295.427 74.6653 295.97 76.3679C296.241 77.2194 296.453 77.9106 296.591 78.3911C296.73 78.8711 296.798 79.1394 296.782 79.1442C296.766 79.1495 296.665 78.8917 296.498 78.4209C296.32 77.9082 296.085 77.2352 295.802 76.4236C295.218 74.7364 294.4 72.4093 293.455 69.8538C292.509 67.2997 291.615 65.0015 290.96 63.3402C290.646 62.5401 290.387 61.8767 290.188 61.3713C290.009 60.9042 289.917 60.6436 289.932 60.6369Z" fill="#455A64"/>
<path d="M38.8857 94.6904C38.8857 94.6904 44.2939 116.84 68.5003 111.765C68.5003 111.765 61.4846 89.3355 38.8857 94.6904Z" fill="#263238"/>
<path d="M50.5811 128.234C50.5811 128.234 61.6935 144.802 80.0526 133.344C80.0526 133.344 67.5347 117.029 50.5811 128.234Z" fill="#263238"/>
<path d="M68.2871 153.51C68.2871 153.51 84.5005 167.299 100.027 150.211C100.027 150.211 82.4447 137.09 68.2871 153.51Z" fill="#263238"/>
<path d="M85.4562 99.9209C85.4562 99.9209 67.4745 108.561 76.2013 128.364C76.2013 128.364 94.1322 118.297 85.4562 99.9209Z" fill="#263238"/>
<path d="M89.3596 123.796C89.3596 123.796 80.3923 135.903 93.7555 146.305C93.7555 146.305 102.153 133.248 89.3596 123.796Z" fill="#263238"/>
<path d="M47.7685 68.7876C47.7685 68.7876 45.706 86.741 65.097 89.6167C65.097 89.6167 66.0417 71.0129 47.7685 68.7876Z" fill="#263238"/>
<path d="M75.5787 50.6235C75.5787 50.6235 59.8937 57.1741 66.7059 75.5557C66.7059 75.5557 82.423 67.712 75.5787 50.6235Z" fill="#263238"/>
<path d="M85.0452 76.854C85.0452 76.854 64.277 79.2233 66.1063 101.824C66.1063 101.824 87.3146 98.0249 85.0452 76.854Z" fill="#263238"/>
<path d="M119.149 157.284C119.149 157.284 119.053 157.27 118.868 157.23C118.674 157.186 118.402 157.125 118.047 157.046C117.328 156.878 116.26 156.654 114.913 156.255C112.21 155.506 108.327 154.246 103.789 152.084C101.51 151.024 99.0961 149.693 96.5905 148.13C94.0753 146.579 91.5222 144.707 88.9729 142.579C86.4279 140.444 83.907 138.019 81.5286 135.293C80.9511 134.598 80.3684 133.896 79.7809 133.188C79.215 132.464 78.675 131.71 78.1143 130.964C77.8359 130.589 77.5566 130.212 77.2763 129.835C77.0195 129.441 76.7612 129.046 76.5025 128.649C75.9918 127.853 75.4508 127.066 74.9559 126.246C74.0132 124.576 73.0321 122.951 72.2478 121.254C71.3795 119.598 70.6993 117.885 69.9908 116.222C68.6962 112.847 67.6009 109.525 66.8881 106.278C65.3699 99.8039 64.9114 93.789 65.0401 88.7697C65.1663 83.7417 65.8398 79.7178 66.3682 76.9631C66.6567 75.5898 66.95 74.5381 67.1194 73.8191C67.2087 73.4677 67.2779 73.197 67.3268 73.0045C67.3748 72.8217 67.4055 72.7295 67.4055 72.7295C67.4055 72.7295 67.3911 72.826 67.3513 73.0113C67.3081 73.2052 67.2471 73.4773 67.1684 73.8316C67.0148 74.554 66.7374 75.6081 66.4638 76.9823C65.9651 79.7385 65.3204 83.758 65.2167 88.773C65.1111 93.7794 65.5863 99.7751 67.1122 106.224C67.8284 109.46 68.9257 112.769 70.2183 116.131C70.9258 117.788 71.6046 119.493 72.4705 121.143C73.2524 122.834 74.2307 124.451 75.17 126.116C75.6635 126.933 76.202 127.716 76.7108 128.51C76.9686 128.905 77.2254 129.299 77.4812 129.692C77.7601 130.068 78.0385 130.443 78.3154 130.816C78.8737 131.56 79.4113 132.312 79.9743 133.034C80.559 133.739 81.1388 134.439 81.7134 135.132C84.0803 137.849 86.5892 140.269 89.1212 142.401C91.658 144.528 94.1982 146.4 96.7014 147.954C99.195 149.52 101.598 150.857 103.865 151.924C108.382 154.102 112.249 155.385 114.94 156.161C116.281 156.573 117.344 156.813 118.059 156.996C118.41 157.086 118.681 157.156 118.873 157.205C119.056 157.254 119.149 157.284 119.149 157.284Z" fill="#263238"/>
<path d="M91.3009 133.558C91.3182 133.556 91.3566 133.732 91.4113 134.053C91.4723 134.429 91.5462 134.883 91.6326 135.413C91.8169 136.561 92.0819 138.145 92.4217 139.886C92.7625 141.627 93.1129 143.195 93.3745 144.328C93.4941 144.853 93.5968 145.3 93.6813 145.672C93.7513 145.99 93.7821 146.168 93.7653 146.173C93.7485 146.177 93.6861 146.008 93.5872 145.697C93.4873 145.386 93.3558 144.934 93.2027 144.371C92.8965 143.247 92.5177 141.681 92.176 139.934C91.8352 138.189 91.5971 136.595 91.4574 135.438C91.3873 134.86 91.3389 134.391 91.3144 134.065C91.2894 133.74 91.2837 133.56 91.3009 133.558Z" fill="#455A64"/>
<path d="M86.8838 151.539C86.8805 151.522 87.0566 151.473 87.3778 151.399C87.6989 151.325 88.1654 151.229 88.7443 151.121C89.9016 150.905 91.5086 150.649 93.2938 150.439C95.0794 150.23 96.7022 150.109 97.8782 150.051C98.4662 150.023 98.9424 150.008 99.2717 150.006C99.601 150.004 99.7834 150.011 99.7843 150.028C99.7853 150.045 99.6043 150.071 99.277 150.103C98.8944 150.138 98.4322 150.179 97.8902 150.228C96.7195 150.329 95.1034 150.479 93.3226 150.687C91.5427 150.896 89.9357 151.124 88.7731 151.296C88.2346 151.373 87.7752 151.44 87.395 151.495C87.0686 151.539 86.8867 151.556 86.8838 151.539Z" fill="#455A64"/>
<path d="M65.0303 129.562C65.0332 129.545 65.2516 129.564 65.6447 129.613C66.0378 129.661 66.6047 129.746 67.3031 129.861C68.7004 130.092 70.6223 130.466 72.7233 130.974C74.8247 131.484 76.7044 132.032 78.0522 132.466C78.7261 132.683 79.269 132.867 79.6405 133.005C80.0125 133.141 80.2156 133.224 80.2103 133.24C80.205 133.257 79.9914 133.205 79.6108 133.097C79.1821 132.974 78.6431 132.819 78.0013 132.636C76.6425 132.245 74.7604 131.726 72.6647 131.218C70.5695 130.711 68.6581 130.311 67.2719 130.035C66.6167 129.905 66.0666 129.796 65.6293 129.709C65.241 129.63 65.0279 129.579 65.0303 129.562Z" fill="#455A64"/>
<path d="M80.9019 112.584C80.9168 112.593 80.8136 112.806 80.6149 113.181C80.4128 113.554 80.1335 114.102 79.8042 114.786C79.1442 116.151 78.3335 118.089 77.6917 120.312C77.0547 122.537 76.7115 124.609 76.5459 126.117C76.4619 126.87 76.4077 127.483 76.3803 127.907C76.3491 128.331 76.3237 128.565 76.3069 128.565C76.2896 128.564 76.2819 128.329 76.2834 127.903C76.281 127.477 76.3083 126.86 76.3703 126.1C76.4917 124.58 76.8095 122.485 77.4517 120.243C78.0983 118.003 78.9416 116.059 79.6463 114.707C79.9976 114.03 80.3019 113.493 80.5304 113.133C80.7555 112.771 80.8871 112.576 80.9019 112.584Z" fill="#455A64"/>
<path d="M56.8157 102.254C56.8244 102.239 57.0111 102.331 57.3423 102.51C57.6745 102.687 58.1449 102.961 58.717 103.315C59.8623 104.021 61.4012 105.072 62.9986 106.364C64.5951 107.659 65.942 108.947 66.8703 109.921C67.3349 110.408 67.7007 110.811 67.9426 111.099C68.1865 111.386 68.3146 111.549 68.3021 111.561C68.2892 111.573 68.1365 111.431 67.8716 111.165C67.5687 110.864 67.1919 110.49 66.745 110.045C65.7884 109.106 64.4295 107.847 62.8417 106.559C61.2529 105.273 59.7385 104.205 58.622 103.464C58.0949 103.118 57.65 102.827 57.2929 102.593C56.9775 102.389 56.8071 102.269 56.8157 102.254Z" fill="#455A64"/>
<path d="M79.4923 85.8599C79.5043 85.8724 79.3032 86.088 78.9302 86.4667C78.5289 86.8761 77.9976 87.418 77.3549 88.0742C76.031 89.4369 74.2382 91.354 72.3581 93.5587C70.4789 95.7657 68.8704 97.8403 67.7352 99.3638C67.1894 100.103 66.7387 100.713 66.3984 101.174C66.0835 101.603 65.903 101.835 65.8886 101.826C65.8742 101.816 66.0283 101.565 66.3182 101.119C66.6072 100.672 67.0411 100.036 67.5921 99.2601C68.6928 97.7073 70.2835 95.6102 72.1675 93.3969C74.0529 91.1865 75.8712 89.2828 77.2291 87.9499C77.9078 87.2827 78.467 86.7532 78.8625 86.3971C79.2571 86.039 79.4803 85.8475 79.4923 85.8599Z" fill="#455A64"/>
<path d="M54.4802 74.6236C54.4927 74.6121 54.676 74.7892 54.9967 75.1209C55.3187 75.4511 55.7704 75.9421 56.3157 76.5604C57.4072 77.7964 58.853 79.5613 60.3184 81.609C61.7824 83.6586 62.9853 85.5978 63.8013 87.0306C64.2103 87.7468 64.529 88.3329 64.7368 88.7447C64.9466 89.1551 65.0551 89.386 65.0402 89.3941C65.0248 89.4023 64.8875 89.1873 64.6519 88.7917C64.3912 88.3578 64.0543 87.7957 63.6491 87.1204C62.7957 85.714 61.5736 83.7969 60.1149 81.7545C58.6543 79.714 57.2359 77.938 56.1813 76.6756C55.6735 76.0737 55.2506 75.573 54.9242 75.1861C54.6266 74.8348 54.4677 74.6351 54.4802 74.6236Z" fill="#455A64"/>
<path d="M73.2566 57.5792C73.2724 57.586 73.1865 57.8332 73.017 58.2738C72.8289 58.7557 72.5841 59.3816 72.2894 60.1352C71.6721 61.7053 70.8273 63.8778 69.9335 66.2912C69.0402 68.7061 68.2674 70.905 67.7135 72.4986C67.4466 73.2623 67.2244 73.8968 67.054 74.385C66.8956 74.8295 66.8001 75.0733 66.7838 75.068C66.7674 75.0628 66.8313 74.8093 66.9618 74.3552C67.0914 73.9012 67.2906 73.2474 67.5465 72.4424C68.0577 70.833 68.8055 68.6221 69.6998 66.2039C70.5945 63.7871 71.4666 61.6223 72.1262 60.068C72.4559 59.2904 72.73 58.6645 72.9273 58.2354C73.1246 57.8068 73.2407 57.5725 73.2566 57.5792Z" fill="#455A64"/>
<path d="M119.127 80.1765C122.625 80.6297 123.146 84.2191 124.442 87.2253C125.738 90.2316 128.219 92.9143 130.126 95.6071C131.135 97.0308 132.509 98.309 132.874 99.9996C133.255 101.767 132.449 103.595 132.07 105.397C131.691 107.199 131.955 109.399 133.683 110.194C133.312 110.641 132.69 110.903 132.099 110.862C132.112 111.691 131.299 112.41 130.427 112.646C129.555 112.883 128.64 112.752 127.761 112.62C127.997 113.172 127.496 113.836 126.878 114.054C126.259 114.271 125.583 114.165 124.954 114.036C124.324 113.907 123.671 113.758 123.03 113.897C121.608 114.207 120.748 115.81 119.309 116.018C117.334 116.302 115.909 113.775 113.96 114.216C113.043 114.424 112.43 115.225 111.676 115.771C110.924 116.317 109.653 116.178 109.297 115.395C108.251 116.714 106.631 117.992 104.928 118.343C105.176 117.755 105.043 117.06 104.597 116.615C103.683 117.367 102.535 117.87 101.346 118.041C102.084 117.356 102.491 116.38 102.432 115.441C101.65 116.07 100.531 116.31 99.5713 116.057C101.331 115.058 101.503 112.721 100.879 110.971C100.255 109.22 99.0649 107.649 98.8316 105.803C98.5777 103.793 100.942 101.249 100.48 99.2738C99.7681 96.2316 99.8248 94.3778 99.9472 91.5386C100.027 89.6791 100.848 88.0293 101.665 86.2961C102.698 84.1049 104.105 82.5031 106.321 81.2537C108.178 80.2063 110.856 79.2473 112.985 79.2007C116.774 79.1177 118.319 78.9981 121.318 81.0045" fill="#263238"/>
<path d="M107.441 104.958C106.264 102.508 105.095 100.037 104.357 97.4215C103.62 94.8055 103.327 92.0147 103.926 89.3637C104.017 88.9619 104.884 86.2312 105.296 86.2163C105.59 86.2063 105.165 88.7018 105.346 88.9346C107.071 91.1531 107.842 93.9967 107.991 96.8032C108.14 99.6098 107.898 102.185 107.441 104.958Z" fill="#263238"/>
<path d="M124.021 127.95C119.833 128.424 109.752 124.025 109.188 119.849L105.794 94.7165C104.667 87.9936 107.64 81.7344 114.391 80.7941L115.02 80.7437C121.352 80.2354 127.011 84.6744 128.026 90.9451C128.971 96.7762 129.939 103.23 130.152 106.381C130.595 112.908 124.155 114.445 124.155 114.445C124.141 114.446 124.321 115.951 124.556 117.856C125.087 122.136 124.408 126.829 124.021 127.95Z" fill="#FFBE9D"/>
<path d="M124.156 114.445C124.156 114.445 120.066 115.015 115.466 112.616C115.466 112.616 117.901 117.353 124.36 116.245L124.156 114.445Z" fill="#EB996E"/>
<path d="M125.598 96.6182C125.655 97.1082 125.287 97.5609 124.776 97.6295C124.266 97.6982 123.806 97.3574 123.749 96.8668C123.692 96.3767 124.06 95.9236 124.57 95.855C125.081 95.7863 125.542 96.1276 125.598 96.6182Z" fill="#263238"/>
<path d="M126.871 93.9308C126.765 94.0613 126.018 93.5962 125.016 93.6792C124.014 93.7479 123.32 94.322 123.202 94.2082C123.144 94.1583 123.244 93.9293 123.546 93.6706C123.842 93.4133 124.362 93.1445 124.986 93.097C125.611 93.0504 126.154 93.2381 126.475 93.4488C126.801 93.6605 126.923 93.8717 126.871 93.9308Z" fill="#263238"/>
<path d="M116.18 97.3556C116.237 97.8457 115.868 98.2983 115.357 98.367C114.847 98.4356 114.387 98.0953 114.33 97.6047C114.273 97.1146 114.641 96.6615 115.152 96.5929C115.662 96.5237 116.123 96.8655 116.18 97.3556Z" fill="#263238"/>
<path d="M117.069 94.9513C116.963 95.0818 116.215 94.6167 115.214 94.6998C114.213 94.7684 113.518 95.3425 113.399 95.2287C113.342 95.1788 113.441 94.9503 113.744 94.6916C114.04 94.4343 114.56 94.1655 115.184 94.1175C115.808 94.071 116.351 94.2586 116.672 94.4694C116.998 94.681 117.121 94.8922 117.069 94.9513Z" fill="#263238"/>
<path d="M121.281 102.361C121.271 102.305 121.885 102.147 122.884 101.937C123.138 101.89 123.376 101.82 123.405 101.642C123.451 101.452 123.321 101.185 123.173 100.897C122.883 100.298 122.579 99.6691 122.26 99.01C120.987 96.3206 120.044 94.1011 120.152 94.0507C120.261 94.0003 121.381 96.1392 122.654 98.8286C122.962 99.4924 123.256 100.125 123.536 100.73C123.656 101.014 123.849 101.33 123.749 101.724C123.696 101.921 123.519 102.074 123.358 102.132C123.199 102.195 123.055 102.21 122.929 102.227C121.918 102.363 121.289 102.418 121.281 102.361Z" fill="#263238"/>
<path d="M116.679 91.2132C116.563 91.4801 115.57 91.2891 114.384 91.3587C113.197 91.4043 112.226 91.6904 112.085 91.4364C112.023 91.315 112.204 91.0688 112.604 90.8278C113.001 90.5878 113.623 90.3742 114.335 90.3391C115.046 90.3055 115.686 90.4572 116.104 90.6584C116.525 90.859 116.729 91.0865 116.679 91.2132Z" fill="#263238"/>
<path d="M126.447 91.6075C126.261 91.8547 125.423 91.6963 124.442 91.7784C123.46 91.8317 122.648 92.1033 122.434 91.884C122.339 91.7769 122.448 91.5365 122.79 91.2869C123.127 91.0382 123.708 90.8064 124.382 90.7593C125.057 90.7133 125.66 90.8635 126.023 91.0641C126.392 91.2643 126.528 91.4875 126.447 91.6075Z" fill="#263238"/>
<path d="M106.714 99.5015C106.599 99.4621 102.128 98.5357 102.628 102.982C103.128 107.428 107.488 106.009 107.482 105.88C107.475 105.752 106.714 99.5015 106.714 99.5015Z" fill="#FFBE9D"/>
<path d="M105.935 104.348C105.914 104.336 105.863 104.411 105.739 104.486C105.618 104.559 105.403 104.624 105.162 104.563C104.673 104.444 104.194 103.742 104.082 102.944C104.025 102.54 104.067 102.145 104.174 101.81C104.273 101.469 104.458 101.219 104.69 101.15C104.919 101.07 105.102 101.192 105.171 101.311C105.245 101.429 105.226 101.52 105.251 101.526C105.264 101.535 105.338 101.44 105.281 101.261C105.253 101.174 105.189 101.075 105.075 101.002C104.959 100.927 104.797 100.901 104.634 100.937C104.294 101 104.021 101.349 103.902 101.717C103.766 102.089 103.709 102.534 103.773 102.987C103.902 103.88 104.455 104.666 105.119 104.78C105.441 104.826 105.691 104.702 105.814 104.582C105.939 104.456 105.951 104.355 105.935 104.348Z" fill="#EB996E"/>
<path d="M124.26 83.9317C124.931 83.4478 122.491 81.3819 120.628 80.7949C117.811 79.9078 113.644 79.6568 111.267 80.6538C108.406 81.8538 106.122 83.6274 104.962 86.505C103.802 89.3826 103.624 92.5933 104.084 95.6619C104.225 96.5984 104.441 97.5656 105.04 98.2995C105.779 99.2062 107.045 99.68 107.157 101.041C107.198 101.538 107.4 102.021 107.783 102.341C108.7 103.107 109.596 102.174 109.954 101.304C110.719 99.4458 110.575 97.3558 110.419 95.3523C110.309 93.9286 110.19 92.4747 109.626 91.1624C109.319 90.4486 108.885 89.7915 108.618 89.0614C108.351 88.3314 108.27 87.4765 108.664 86.8059C108.727 86.697 108.838 86.5558 108.98 86.397C110.104 85.1418 111.824 84.5984 113.469 84.9646C116.077 85.5459 120.509 86.349 121.521 85.365C122.978 83.949 123.265 83.1061 123.265 83.1061L124.26 83.9317Z" fill="#263238"/>
<path d="M118.604 103.231C118.544 103.247 118.538 103.493 118.67 103.867C118.795 104.236 119.12 104.735 119.631 105.073C120.135 105.418 120.65 105.578 121.018 105.665C121.388 105.751 121.626 105.761 121.646 105.7C121.666 105.638 121.462 105.514 121.13 105.352C120.799 105.187 120.336 104.986 119.899 104.686C119.006 104.102 118.743 103.182 118.604 103.231Z" fill="#263238"/>
<path d="M106.857 100.081C106.894 100.158 106.93 100.24 106.966 100.33C106.966 100.33 106.926 100.241 106.857 100.081Z" fill="#3282C4"/>
<path d="M105.335 99.3983C105.335 99.3983 106.081 98.4153 106.858 100.08C105.932 97.8998 99.7721 82.1428 116.66 80.0639C116.66 80.0639 110.561 78.9873 106.88 82.0214C106.88 82.0214 99.4049 86.4935 105.335 99.3983Z" fill="#455A64"/>
<path d="M137.628 178.953L98.3756 179.487C98.3756 179.487 87.3985 174.894 84.3826 174.77C81.3668 174.647 75.3807 175.031 72.6116 179.487C69.7493 184.094 69.3495 192.221 78.17 198.128C86.7591 203.88 126.038 209.195 131.423 208.705L141.348 195.383C141.348 195.383 141.452 184.464 141.348 183.944C141.244 183.424 139.58 178.744 139.58 178.744L137.628 178.953Z" fill="#263238"/>
<path d="M114.131 197.385L93.793 204.939L103.062 230.29C105.43 229.256 105.496 214.363 105.496 214.363L118.726 210.058L114.131 197.385Z" fill="#3282C4"/>
<g opacity="0.6">
<path d="M103.729 206.122C103.415 205.681 102.739 205.544 102.285 205.839C101.831 206.134 101.686 206.819 101.992 207.267C102.297 207.714 103.103 207.903 103.522 207.56C103.94 207.215 104.067 206.401 103.663 206.04" fill="white"/>
</g>
<path d="M93.793 204.939L95.8459 204.177L103.982 228.819C103.982 228.819 103.904 230.127 103.062 230.29L93.793 204.939Z" fill="#263238"/>
<path d="M105.775 214.727C105.65 214.768 105.367 214.169 104.746 213.706C104.138 213.226 103.487 213.108 103.494 212.976C103.477 212.853 104.284 212.767 105.026 213.342C105.773 213.91 105.899 214.712 105.775 214.727Z" fill="#263238"/>
<path d="M105.648 217.787C105.539 217.859 105.132 217.401 104.455 217.172C103.784 216.922 103.179 217.023 103.14 216.898C103.078 216.789 103.771 216.439 104.608 216.739C105.447 217.032 105.765 217.742 105.648 217.787Z" fill="#263238"/>
<path d="M103.017 220.462C102.95 220.359 103.505 219.961 104.299 220.031C105.094 220.095 105.575 220.581 105.491 220.671C105.415 220.778 104.914 220.535 104.261 220.488C103.61 220.425 103.075 220.58 103.017 220.462Z" fill="#263238"/>
<path d="M108.681 213.411C108.55 213.4 108.513 212.77 108.21 212.088C107.92 211.399 107.486 210.94 107.569 210.837C107.632 210.733 108.285 211.097 108.631 211.906C108.982 212.712 108.801 213.436 108.681 213.411Z" fill="#263238"/>
<path d="M111.469 211.707C111.418 211.728 111.163 211.266 111.011 210.435C110.936 210.022 110.896 209.517 110.933 208.958C110.952 208.679 110.991 208.386 111.053 208.087C111.086 207.943 111.111 207.777 111.212 207.595C111.291 207.41 111.59 207.212 111.849 207.297C112.092 207.356 112.26 207.554 112.331 207.736C112.405 207.921 112.423 208.086 112.439 208.236C112.474 208.543 112.477 208.842 112.457 209.124C112.414 209.689 112.279 210.185 112.116 210.576C111.787 211.363 111.398 211.733 111.358 211.7C111.297 211.658 111.58 211.231 111.811 210.468C111.925 210.087 112.017 209.621 112.035 209.102C112.042 208.842 112.03 208.57 111.993 208.291C111.966 207.996 111.884 207.768 111.739 207.742C111.684 207.733 111.665 207.737 111.607 207.822C111.556 207.906 111.524 208.041 111.492 208.183C111.428 208.461 111.383 208.733 111.354 208.994C111.296 209.517 111.301 209.994 111.332 210.394C111.396 211.195 111.536 211.685 111.469 211.707Z" fill="#263238"/>
<path d="M111.232 211.612C111.197 211.575 111.551 211.167 112.336 210.828C112.726 210.662 113.223 210.527 113.789 210.493C114.072 210.478 114.372 210.489 114.678 210.535C114.983 210.592 115.385 210.651 115.615 211.11C115.716 211.358 115.596 211.638 115.455 211.77C115.314 211.916 115.173 211.987 115.037 212.07C114.758 212.225 114.466 212.326 114.182 212.384C113.614 212.501 113.084 212.445 112.673 212.321C111.835 212.066 111.498 211.603 111.536 211.577C111.583 211.514 111.98 211.858 112.75 212.006C113.129 212.079 113.601 212.095 114.089 211.971C114.333 211.91 114.581 211.816 114.815 211.68C115.069 211.541 115.25 211.361 115.186 211.27C115.141 211.144 114.86 211.003 114.608 210.978C114.333 210.931 114.062 210.913 113.804 210.916C113.288 210.924 112.824 211.015 112.447 211.133C111.69 211.37 111.275 211.672 111.232 211.612Z" fill="#263238"/>
<path d="M130.907 194.252L150.588 203.381L139.355 227.924C137.077 226.708 138.18 211.856 138.18 211.856L125.33 206.525L130.907 194.252Z" fill="#3282C4"/>
<g opacity="0.6">
<path d="M140.589 203.78C140.937 203.365 141.621 203.281 142.05 203.61C142.48 203.94 142.571 204.635 142.231 205.057C141.892 205.479 141.073 205.604 140.683 205.228C140.294 204.853 140.231 204.03 140.662 203.703" fill="white"/>
</g>
<path d="M150.587 203.381L148.601 202.459L138.554 226.385C138.554 226.385 138.529 227.695 139.355 227.924L150.587 203.381Z" fill="#263238"/>
<path d="M137.873 212.197C137.994 212.248 138.323 211.673 138.978 211.26C139.622 210.829 140.281 210.763 140.284 210.631C140.311 210.51 139.513 210.361 138.728 210.876C137.94 211.383 137.751 212.172 137.873 212.197Z" fill="#263238"/>
<path d="M137.76 215.259C137.864 215.34 138.305 214.914 138.998 214.739C139.686 214.543 140.281 214.691 140.33 214.57C140.401 214.465 139.737 214.061 138.879 214.296C138.02 214.522 137.647 215.204 137.76 215.259Z" fill="#263238"/>
<path d="M140.172 218.131C140.247 218.034 139.725 217.593 138.928 217.6C138.13 217.602 137.612 218.049 137.689 218.145C137.757 218.258 138.275 218.055 138.93 218.059C139.584 218.048 140.105 218.244 140.172 218.131Z" fill="#263238"/>
<path d="M135.079 210.657C135.211 210.657 135.298 210.031 135.654 209.375C135.997 208.711 136.465 208.288 136.391 208.179C136.337 208.07 135.657 208.381 135.249 209.16C134.834 209.936 134.958 210.673 135.079 210.657Z" fill="#263238"/>
<path d="M132.435 208.74C132.484 208.764 132.775 208.324 132.991 207.508C133.098 207.101 133.178 206.601 133.185 206.041C133.187 205.761 133.172 205.466 133.133 205.163C133.112 205.017 133.101 204.849 133.014 204.66C132.949 204.47 132.666 204.249 132.401 204.313C132.155 204.353 131.972 204.537 131.887 204.713C131.798 204.891 131.767 205.054 131.739 205.203C131.68 205.506 131.654 205.804 131.651 206.087C131.65 206.653 131.745 207.158 131.877 207.561C132.143 208.372 132.502 208.771 132.544 208.741C132.608 208.704 132.36 208.256 132.19 207.477C132.105 207.089 132.051 206.617 132.074 206.098C132.087 205.838 132.12 205.567 132.179 205.292C132.23 205.001 132.329 204.779 132.476 204.765C132.531 204.761 132.549 204.766 132.601 204.855C132.645 204.943 132.666 205.08 132.687 205.225C132.729 205.506 132.753 205.781 132.761 206.044C132.777 206.57 132.735 207.045 132.673 207.441C132.548 208.234 132.368 208.712 132.435 208.74Z" fill="#263238"/>
<path d="M132.678 208.663C132.716 208.629 132.395 208.194 131.639 207.795C131.264 207.599 130.779 207.425 130.217 207.347C129.936 207.31 129.636 207.297 129.327 207.319C129.019 207.352 128.614 207.379 128.348 207.819C128.228 208.057 128.324 208.346 128.456 208.489C128.585 208.646 128.72 208.727 128.849 208.822C129.115 208.998 129.398 209.121 129.676 209.201C130.234 209.363 130.766 209.348 131.186 209.257C132.042 209.069 132.414 208.634 132.378 208.606C132.336 208.538 131.913 208.85 131.134 208.937C130.75 208.98 130.279 208.959 129.801 208.798C129.563 208.717 129.323 208.604 129.102 208.45C128.858 208.292 128.693 208.098 128.764 208.013C128.818 207.89 129.11 207.772 129.364 207.767C129.642 207.742 129.912 207.744 130.17 207.767C130.684 207.816 131.139 207.944 131.505 208.091C132.24 208.386 132.63 208.719 132.678 208.663Z" fill="#263238"/>
<path d="M139.58 178.745C139.58 178.745 156.53 172.414 162.769 173.233C166.258 173.691 171.712 176.353 172.128 180.825C172.545 185.296 171.453 191.278 165.422 194.189C159.391 197.101 135.319 207.903 129.599 209.567C123.88 211.231 109.62 215.127 109.62 215.127L104.202 199.689C104.202 199.689 133.757 189.455 135.317 188.312C136.877 187.168 140.828 185.608 140.828 185.608L139.58 178.745Z" fill="#263238"/>
<path d="M80.6572 180.844C80.6582 180.847 80.698 180.837 80.7748 180.813C80.8608 180.787 80.9731 180.753 81.1152 180.71C81.4142 180.62 81.8568 180.491 82.4337 180.353C83.0107 180.218 83.722 180.065 84.5582 179.984C85.3944 179.901 86.3558 179.897 87.4104 179.988C88.4635 180.08 89.614 180.27 90.8025 180.634C91.3958 180.816 92.0006 181.038 92.5915 181.332C93.19 181.624 93.8054 181.924 94.4366 182.232C96.9724 183.444 99.804 184.685 102.82 185.877C108.86 188.297 114.658 189.445 118.791 190.385C120.865 190.844 122.542 191.221 123.697 191.496C124.267 191.631 124.713 191.736 125.028 191.811C125.173 191.844 125.288 191.87 125.375 191.89C125.454 191.906 125.495 191.913 125.495 191.91C125.496 191.907 125.457 191.894 125.38 191.871C125.294 191.847 125.181 191.815 125.038 191.775C124.736 191.695 124.291 191.57 123.715 191.427C122.564 191.131 120.891 190.734 118.82 190.259C114.692 189.287 108.91 188.12 102.887 185.707C99.875 184.517 97.0449 183.282 94.5091 182.08C93.8774 181.775 93.2611 181.477 92.6625 181.188C92.0601 180.892 91.4467 180.67 90.8462 180.489C89.6433 180.128 88.4827 179.944 87.4209 179.859C86.3582 179.776 85.39 179.789 84.5476 179.882C83.7043 179.974 82.9924 180.138 82.4164 180.285C81.84 180.433 81.3998 180.574 81.1036 180.675C80.9635 180.726 80.8531 180.766 80.7686 180.796C80.6937 180.825 80.6563 180.841 80.6572 180.844Z" fill="#455A64"/>
<path d="M81.5489 178.61C81.5546 178.639 82.0649 178.547 82.8948 178.457C83.7242 178.367 84.8772 178.299 86.1482 178.363C87.4193 178.43 88.5593 178.616 89.3753 178.79C90.1917 178.965 90.6895 179.109 90.6986 179.08C90.7025 179.068 90.5815 179.02 90.3597 178.943C90.138 178.864 89.8121 178.768 89.4045 178.664C88.5905 178.456 87.4413 178.248 86.1573 178.18C84.8738 178.116 83.7093 178.205 82.8785 178.329C82.4628 178.391 82.1282 178.453 81.8997 178.509C81.6713 178.562 81.5465 178.597 81.5489 178.61Z" fill="#455A64"/>
<path d="M146.71 183.228C146.73 183.253 147.2 182.889 148.012 182.386C148.823 181.882 149.994 181.264 151.367 180.777C152.742 180.295 154.042 180.041 154.989 179.925C155.937 179.806 156.531 179.795 156.53 179.763C156.53 179.75 156.381 179.743 156.113 179.741C155.844 179.735 155.454 179.753 154.975 179.796C154.016 179.88 152.696 180.117 151.306 180.605C149.917 181.097 148.741 181.742 147.942 182.277C147.542 182.545 147.228 182.776 147.021 182.949C146.814 183.119 146.703 183.218 146.71 183.228Z" fill="#455A64"/>
<path d="M138.205 206.254C138.205 206.254 138.159 206.269 138.072 206.304C137.981 206.343 137.853 206.396 137.687 206.466C137.346 206.603 136.853 206.838 136.19 207.092C134.87 207.616 132.919 208.334 130.416 209.157C125.409 210.793 118.212 212.878 109.6 215.047L109.697 215.099C108.092 210.643 106.32 205.726 104.457 200.554L104.406 200.669C106.485 199.815 108.673 198.917 110.896 198.005C125.2 192.118 138.056 186.827 146.804 183.226L146.816 183.222L146.824 183.212C148.285 181.665 149.63 180.302 150.891 179.201C152.152 178.102 153.311 177.252 154.3 176.632C155.284 176.002 156.096 175.605 156.639 175.328C156.912 175.2 157.121 175.103 157.268 175.034C157.409 174.968 157.479 174.929 157.479 174.929C157.479 174.929 157.404 174.957 157.26 175.018C157.113 175.083 156.901 175.175 156.624 175.296C156.076 175.564 155.257 175.953 154.265 176.575C153.267 177.188 152.098 178.032 150.828 179.128C149.557 180.225 148.203 181.585 146.735 183.127L146.757 183.113C138.003 186.699 125.139 191.97 110.826 197.835C108.603 198.748 106.415 199.647 104.337 200.5L104.257 200.533L104.286 200.615C106.155 205.786 107.931 210.7 109.541 215.155L109.567 215.225L109.639 215.207C118.252 213.022 125.445 210.915 130.447 209.251C132.946 208.414 134.894 207.681 136.209 207.141C136.869 206.878 137.36 206.636 137.697 206.49C137.862 206.415 137.987 206.358 138.077 206.316C138.163 206.277 138.205 206.254 138.205 206.254Z" fill="#455A64"/>
<path d="M96.309 124.725C96.309 124.725 91.4288 127.536 90.4396 130.839C89.8391 132.845 85.2863 158.503 84.5663 163.563C83.8391 168.671 85.3655 172.37 87.5231 174.048C89.6807 175.727 96.2212 177.963 96.2212 177.963L105.423 180.943L108.06 174.231L99.3008 161.648L100.149 153.172L96.309 124.725Z" fill="#3282C4"/>
<path d="M105.902 120.292L108.946 118.047C108.946 118.047 112.911 122.105 117.466 121.626C122.021 121.146 124.719 117.66 124.719 117.66L138.302 120.426C139.213 120.609 140.876 121.185 142.465 123.456C144.239 125.99 152.643 137.224 152.643 137.224H158.53C160.152 137.224 161.643 138.122 162.397 139.558C163.403 141.471 164.609 144.029 164.491 145.09C164.292 146.882 164.638 151.803 162.234 153.339C161.472 153.826 158.744 155.288 156.628 155.188C153.505 155.042 149.878 153.415 147.788 151.954C146.019 150.716 141.903 146.439 140.32 144.77L140.322 144.796L139.306 180.43L103.691 179.416L96.3096 124.726C96.3091 124.725 105.543 120.292 105.902 120.292Z" fill="#3282C4"/>
<path d="M140.446 129.84C140.396 129.839 140.303 134.256 140.238 139.704C140.174 145.154 140.163 149.571 140.213 149.571C140.264 149.572 140.357 145.156 140.421 139.706C140.485 134.259 140.496 129.841 140.446 129.84Z" fill="#263238"/>
<path d="M91.9971 158.646C91.9952 158.665 92.299 158.695 92.8376 158.797C93.3766 158.896 94.1456 159.109 95.0427 159.499C95.9417 159.886 96.9492 160.488 97.9793 161.273C99.0084 162.061 100.051 163.039 101.072 164.134C102.092 165.233 103.021 166.322 103.895 167.287C104.768 168.255 105.587 169.099 106.321 169.758C107.054 170.42 107.687 170.909 108.145 171.218C108.368 171.379 108.556 171.484 108.678 171.563C108.801 171.639 108.868 171.676 108.871 171.67C108.875 171.665 108.815 171.618 108.698 171.532C108.583 171.444 108.403 171.33 108.187 171.16C107.744 170.835 107.127 170.333 106.409 169.663C105.69 168.995 104.885 168.146 104.021 167.175C103.155 166.205 102.23 165.113 101.206 164.009C100.18 162.908 99.1256 161.926 98.0816 161.139C97.0366 160.354 96.0104 159.757 95.094 159.381C94.1796 159.001 93.3972 158.805 92.85 158.728C92.5788 158.674 92.3624 158.672 92.2188 158.655C92.0734 158.643 91.9976 158.64 91.9971 158.646Z" fill="#263238"/>
<path d="M91.1914 156.232C91.1866 156.266 91.7305 156.34 92.5791 156.576C93.4273 156.809 94.5735 157.237 95.7284 157.922C96.8814 158.611 97.8034 159.416 98.4126 160.05C99.0236 160.684 99.3481 161.127 99.375 161.107C99.385 161.1 99.3116 160.984 99.1686 160.781C99.0289 160.575 98.8038 160.294 98.5071 159.962C97.9162 159.298 96.9922 158.465 95.822 157.765C94.6498 157.07 93.4772 156.654 92.6118 156.451C92.1788 156.348 91.8241 156.284 91.5769 156.259C91.3297 156.23 91.1929 156.22 91.1914 156.232Z" fill="#263238"/>
<g opacity="0.3">
<path d="M157.477 149.977C155.592 150.491 153.327 147.778 151.615 146.081C150.724 145.198 149.798 144.256 149.47 143.046C149.199 142.046 149.376 140.966 149.766 140.006C150.157 139.046 150.433 138.425 151.02 137.571C150.862 139.035 150.502 141.277 150.994 143.117C151.405 144.651 152.377 145.872 153.408 147.03C154.499 148.256 155.79 149.542 157.477 149.977Z" fill="black"/>
</g>
<path d="M149.417 148.426C149.452 148.415 149.233 147.805 149.057 146.782C148.964 146.272 148.904 145.657 148.884 144.973C148.875 144.288 148.914 143.535 149.033 142.754C149.161 141.974 149.356 141.246 149.575 140.598C149.805 139.953 150.052 139.387 150.297 138.929C150.78 138.011 151.176 137.498 151.146 137.477C151.135 137.469 151.033 137.594 150.856 137.827C150.765 137.942 150.659 138.086 150.55 138.264C150.439 138.44 150.303 138.635 150.183 138.868C149.921 139.322 149.658 139.891 149.415 140.541C149.184 141.195 148.981 141.934 148.852 142.726C148.731 143.518 148.697 144.283 148.714 144.977C148.745 145.67 148.819 146.293 148.928 146.805C148.971 147.064 149.04 147.291 149.092 147.493C149.141 147.695 149.197 147.866 149.248 148.003C149.346 148.28 149.405 148.43 149.417 148.426Z" fill="#263238"/>
<path d="M123.234 119.037C123.21 119.085 123.628 119.327 124.064 119.719C124.505 120.108 124.794 120.494 124.839 120.464C124.88 120.441 124.648 119.991 124.186 119.583C123.727 119.172 123.253 118.993 123.234 119.037Z" fill="#263238"/>
<path d="M119.528 121.19C119.49 121.229 119.848 121.614 120.136 122.182C120.431 122.747 120.535 123.263 120.589 123.254C120.635 123.252 120.609 122.696 120.299 122.098C119.994 121.498 119.557 121.153 119.528 121.19Z" fill="#263238"/>
<path d="M113.184 123.424C113.235 123.435 113.379 122.948 113.592 122.362C113.802 121.775 114.002 121.308 113.955 121.284C113.912 121.261 113.635 121.7 113.42 122.3C113.202 122.899 113.136 123.415 113.184 123.424Z" fill="#263238"/>
<path d="M109.101 121.494C109.155 121.506 109.294 120.885 109.696 120.229C110.09 119.568 110.577 119.157 110.541 119.114C110.517 119.074 109.955 119.44 109.539 120.134C109.118 120.825 109.055 121.493 109.101 121.494Z" fill="#263238"/>
<path d="M97.374 133.034C97.3241 133.041 97.9269 137.908 98.7204 143.904C99.5143 149.902 100.198 154.758 100.248 154.752C100.298 154.745 99.6953 149.879 98.9013 143.88C98.1079 137.884 97.4239 133.027 97.374 133.034Z" fill="#263238"/>
<path d="M150.744 140.915C150.732 140.916 150.736 141.094 150.755 141.418C150.758 141.581 150.787 141.777 150.828 142.004C150.848 142.119 150.868 142.241 150.89 142.368C150.917 142.496 150.956 142.629 150.992 142.77C151.123 143.337 151.378 143.983 151.693 144.683C152.037 145.369 152.46 146.103 153.002 146.808C153.55 147.505 154.142 148.116 154.741 148.599C155.353 149.065 155.942 149.443 156.488 149.653C156.623 149.708 156.749 149.767 156.872 149.811C156.997 149.846 157.116 149.879 157.229 149.911C157.339 149.94 157.442 149.969 157.54 149.995C157.636 150.016 157.727 150.021 157.808 150.033C158.131 150.071 158.309 150.085 158.31 150.072C158.319 150.023 157.584 150.01 156.54 149.535C156.012 149.315 155.442 148.932 154.848 148.469C154.265 147.986 153.687 147.384 153.147 146.697C152.614 146.004 152.193 145.282 151.845 144.61C151.526 143.924 151.262 143.291 151.117 142.736C150.796 141.633 150.786 140.911 150.744 140.915Z" fill="#263238"/>
<g opacity="0.3">
<path d="M98.5194 181.648C97.0093 180.918 96.6657 178.959 96.5116 177.289C96.0599 172.394 95.6087 167.499 95.157 162.604C94.9449 160.302 94.8412 157.674 96.4645 156.03C97.9468 154.527 100.302 154.436 102.413 154.443C115.446 154.481 126.955 154.861 139.988 154.899L139.324 177.696L98.5194 181.648Z" fill="black"/>
</g>
<path d="M145.605 158.43L144.217 184.872C144.164 185.891 143.312 186.69 142.279 186.689L100.16 186.763C99.1253 186.762 98.2728 185.959 98.2224 184.938L96.6149 158.946C96.5616 157.866 97.3296 156.43 98.4231 156.409L143.628 156.414C144.754 156.391 145.663 157.318 145.605 158.43Z" fill="#E0E0E0"/>
<path d="M145.605 158.43C145.605 158.43 145.608 158.397 145.61 158.332C145.615 158.265 145.609 158.167 145.594 158.037C145.557 157.784 145.447 157.385 145.095 157.007C144.92 156.822 144.686 156.642 144.39 156.528C144.097 156.403 143.741 156.376 143.373 156.386C142.63 156.384 141.775 156.381 140.812 156.378C136.954 156.37 131.38 156.36 124.492 156.347C117.601 156.341 109.398 156.333 100.289 156.325C99.7194 156.324 99.1463 156.324 98.5703 156.324C98.2828 156.311 97.954 156.381 97.7001 156.546C97.4394 156.706 97.2273 156.93 97.0573 157.177C96.7228 157.675 96.5245 158.269 96.5284 158.883C96.5634 159.472 96.5985 160.065 96.6335 160.661C96.7799 163.04 96.9292 165.47 97.0818 167.944C97.3871 172.89 97.7034 178.013 98.0269 183.258L98.0879 184.241C98.1153 184.571 98.1109 184.887 98.169 185.231C98.2938 185.909 98.8017 186.486 99.4391 186.722C99.7535 186.848 100.113 186.865 100.428 186.854L101.397 186.852C102.041 186.851 102.683 186.85 103.324 186.848C105.884 186.844 108.406 186.839 110.886 186.834C115.843 186.823 120.625 186.813 125.181 186.804C129.736 186.793 134.064 186.783 138.116 186.773C139.129 186.77 140.124 186.767 141.102 186.765C141.346 186.764 141.589 186.763 141.831 186.763C142.073 186.759 142.313 186.773 142.563 186.74C143.056 186.673 143.514 186.416 143.826 186.042C144.144 185.672 144.3 185.176 144.296 184.711C144.319 184.252 144.343 183.797 144.366 183.346C144.412 182.446 144.457 181.566 144.501 180.705C144.85 173.826 145.133 168.26 145.328 164.408C145.421 162.486 145.494 160.994 145.543 159.977C145.566 159.473 145.583 159.088 145.594 158.824C145.604 158.563 145.605 158.43 145.605 158.43C145.605 158.43 145.592 158.563 145.575 158.823C145.559 159.086 145.536 159.471 145.506 159.974C145.448 160.991 145.364 162.483 145.256 164.404C145.047 168.255 144.745 173.821 144.372 180.698C144.326 181.558 144.279 182.438 144.23 183.338C144.206 183.788 144.182 184.243 144.157 184.703C144.159 185.159 144.014 185.602 143.718 185.95C143.427 186.297 143.001 186.535 142.543 186.596C142.317 186.627 142.073 186.613 141.831 186.617C141.589 186.617 141.346 186.618 141.101 186.618C140.124 186.618 139.128 186.619 138.116 186.62C134.064 186.624 129.735 186.629 125.18 186.634C120.624 186.641 115.843 186.647 110.885 186.654C108.406 186.658 105.884 186.662 103.323 186.666C102.683 186.667 102.041 186.668 101.396 186.669L100.427 186.671C100.098 186.681 99.7972 186.665 99.5029 186.55C98.9226 186.336 98.4604 185.81 98.3476 185.195C98.2953 184.895 98.2962 184.553 98.2698 184.23L98.2089 183.248C97.8839 178.002 97.5666 172.88 97.2599 167.933C97.1063 165.46 96.9551 163.03 96.8073 160.65C96.7717 160.057 96.7362 159.465 96.7007 158.878C96.6959 158.311 96.8836 157.74 97.198 157.274C97.51 156.807 98.0044 156.451 98.5713 156.494C99.1477 156.494 99.7204 156.494 100.29 156.494C109.398 156.487 117.602 156.481 124.493 156.476C131.38 156.465 136.954 156.455 140.811 156.449C141.774 156.446 142.629 156.443 143.372 156.441C143.744 156.428 144.082 156.452 144.372 156.571C144.663 156.68 144.893 156.853 145.067 157.033C145.417 157.399 145.531 157.791 145.574 158.041C145.615 158.296 145.595 158.43 145.605 158.43Z" fill="#263238"/>
<path d="M118.316 171.327C118.316 172.697 119.427 173.808 120.798 173.808C122.167 173.808 123.278 172.697 123.278 171.327C123.278 169.957 122.167 168.846 120.798 168.846C119.427 168.846 118.316 169.956 118.316 171.327Z" fill="white"/>
<path d="M118.317 171.327C118.337 171.328 118.328 171.105 118.429 170.73C118.529 170.361 118.78 169.821 119.336 169.406C119.612 169.204 119.957 169.032 120.354 168.965C120.748 168.899 121.192 168.914 121.614 169.076C122.036 169.229 122.438 169.516 122.723 169.914C123.017 170.305 123.182 170.808 123.187 171.327C123.182 171.845 123.017 172.348 122.723 172.74C122.438 173.138 122.036 173.425 121.614 173.578C121.193 173.74 120.748 173.754 120.354 173.689C119.957 173.622 119.611 173.45 119.336 173.247C118.78 172.832 118.529 172.292 118.429 171.924C118.328 171.547 118.337 171.326 118.317 171.327C118.31 171.327 118.307 171.381 118.306 171.486C118.303 171.591 118.316 171.746 118.359 171.941C118.441 172.326 118.682 172.899 119.257 173.35C119.542 173.57 119.904 173.759 120.325 173.838C120.743 173.914 121.218 173.905 121.671 173.736C122.125 173.577 122.558 173.271 122.867 172.846C123.185 172.426 123.365 171.884 123.37 171.326C123.365 170.768 123.185 170.226 122.867 169.807C122.558 169.382 122.124 169.076 121.671 168.917C121.218 168.748 120.744 168.738 120.326 168.815C119.905 168.894 119.542 169.083 119.257 169.303C118.682 169.754 118.441 170.327 118.36 170.712C118.317 170.907 118.304 171.062 118.307 171.167C118.307 171.272 118.31 171.327 118.317 171.327Z" fill="#263238"/>
<path d="M144.186 161.357C144.136 161.355 143.928 165.798 143.723 171.28C143.517 176.763 143.391 181.209 143.442 181.211C143.492 181.213 143.7 176.771 143.905 171.287C144.111 165.806 144.237 161.359 144.186 161.357Z" fill="#263238"/>
<path d="M156.846 126.859C157.092 126.65 156.013 122.497 156.013 122.497C156.013 122.497 158.871 117.835 158.946 116.331C159.021 114.827 157.818 111.744 157.818 111.744L149.622 109.639C149.622 109.639 146.989 114.527 146.463 116.256C145.937 117.986 147.366 123.851 147.366 123.851L148.754 126.859C148.754 126.859 152.941 130.167 156.846 126.859Z" fill="#FFBE9D"/>
<path d="M158.93 117.231C158.93 117.231 159.286 116.615 159.794 115.411C160.313 114.18 160.95 112.973 159.794 112.285C159.114 111.88 158.559 112.09 158.559 112.09C158.559 112.09 158.736 111.054 158.117 110.665C157.498 110.277 156.902 110.56 156.902 110.56C156.902 110.56 157.097 109.099 156.206 108.479C155.089 107.702 153.936 108.414 153.936 108.414C153.936 108.414 154.642 102.018 154.703 101.679C154.928 100.436 154.467 99.3355 153.23 99.6423C152.777 99.7546 152.525 100.233 151.993 102.315C151.461 104.398 150.607 107.953 150.607 107.953C150.607 107.953 149.167 110.454 148.487 111.811C147.808 113.167 146.463 116.256 146.351 117.074C146.062 119.19 147.301 121.992 147.301 121.992L156.013 122.497C156.013 122.497 158.599 117.838 158.93 117.231Z" fill="#FFBE9D"/>
<path d="M158.387 112.366C158.365 112.353 158.109 112.713 157.712 113.307C157.506 113.62 157.275 113.973 157.023 114.356C156.895 114.553 156.755 114.764 156.649 115.011C156.543 115.253 156.477 115.55 156.546 115.842C156.604 116.128 156.809 116.406 157.097 116.487C157.381 116.576 157.658 116.491 157.877 116.391C158.1 116.288 158.289 116.153 158.459 116.031C158.631 115.908 158.788 115.79 158.929 115.679C159.211 115.458 159.431 115.269 159.579 115.133C159.726 114.997 159.802 114.916 159.794 114.907C159.776 114.886 159.432 115.162 158.852 115.575C158.559 115.771 158.218 116.045 157.809 116.236C157.604 116.326 157.366 116.387 157.152 116.316C156.935 116.252 156.778 116.044 156.726 115.801C156.667 115.557 156.719 115.307 156.815 115.08C156.91 114.853 157.042 114.647 157.167 114.446C157.406 114.055 157.626 113.696 157.823 113.376C158.19 112.764 158.408 112.38 158.387 112.366Z" fill="#EB996E"/>
<path d="M151.241 113.125C151.288 113.128 151.332 112.501 151.15 111.756C150.972 111.01 150.648 110.473 150.607 110.496C150.558 110.52 150.801 111.077 150.973 111.8C151.149 112.52 151.188 113.126 151.241 113.125Z" fill="#EB996E"/>
<path d="M147.788 114.995C148.567 114.202 149.616 113.71 150.703 113.474C151.789 113.238 152.914 113.245 154.021 113.346C154.907 113.427 155.92 113.656 156.323 114.449C156.739 115.265 156.239 116.318 155.453 116.787C154.666 117.257 153.694 117.276 152.782 117.193C151.87 117.109 150.95 116.94 150.045 117.081" fill="#FFBE9D"/>
<path d="M150.045 117.081C150.047 117.096 150.291 117.057 150.732 117.062C151.175 117.063 151.809 117.143 152.599 117.24C152.995 117.284 153.434 117.32 153.907 117.295C154.378 117.268 154.893 117.18 155.375 116.926C155.859 116.677 156.274 116.226 156.466 115.658C156.565 115.377 156.591 115.06 156.528 114.752C156.455 114.446 156.288 114.156 156.047 113.946C155.561 113.517 154.938 113.379 154.373 113.296C153.798 113.226 153.247 113.198 152.717 113.196C151.66 113.192 150.704 113.349 149.947 113.615C149.188 113.879 148.631 114.232 148.285 114.513C148.11 114.652 147.985 114.773 147.904 114.858C147.823 114.944 147.784 114.991 147.788 114.995C147.8 115.008 147.97 114.828 148.328 114.569C148.683 114.309 149.238 113.981 149.988 113.738C150.736 113.493 151.673 113.352 152.716 113.365C153.236 113.371 153.788 113.404 154.348 113.474C154.898 113.555 155.491 113.696 155.924 114.082C156.14 114.27 156.285 114.525 156.35 114.791C156.405 115.062 156.385 115.345 156.295 115.602C156.122 116.121 155.742 116.544 155.296 116.778C154.847 117.02 154.355 117.111 153.898 117.144C153.438 117.175 153.006 117.147 152.612 117.111C151.825 117.032 151.179 116.97 150.732 116.991C150.508 116.999 150.336 117.021 150.22 117.039C150.104 117.06 150.044 117.074 150.045 117.081Z" fill="#EB996E"/>
<path d="M158.324 112.465C157.407 113.857 156.598 115.388 155.825 116.865C155.601 117.294 155.363 117.749 154.95 118.003C154.62 118.206 153.8 117.837 153.433 117.711L155.95 111.983" fill="#FFBE9D"/>
<path d="M155.949 111.984C155.939 111.979 155.86 112.13 155.725 112.411C155.581 112.721 155.394 113.123 155.168 113.61C154.702 114.631 154.063 116.059 153.349 117.675L153.31 117.764L153.403 117.797C153.674 117.894 153.966 118.017 154.281 118.096C154.405 118.126 154.532 118.151 154.666 118.153C154.733 118.154 154.801 118.152 154.872 118.131C154.944 118.116 155.015 118.071 155.062 118.038C155.274 117.891 155.436 117.695 155.569 117.495C155.828 117.089 156.01 116.681 156.215 116.303C156.611 115.541 156.973 114.859 157.287 114.292C157.601 113.724 157.865 113.271 158.049 112.959C158.233 112.646 158.335 112.473 158.324 112.465C158.314 112.459 158.192 112.619 157.989 112.921C157.786 113.223 157.503 113.667 157.175 114.228C156.845 114.789 156.47 115.466 156.066 116.225C155.858 116.599 155.666 117.015 155.42 117.396C155.294 117.584 155.145 117.76 154.958 117.888C154.8 118.017 154.556 117.97 154.325 117.918C154.027 117.843 153.744 117.725 153.462 117.625L153.515 117.748C154.223 116.129 154.843 114.693 155.279 113.659C155.485 113.163 155.655 112.753 155.786 112.438C155.902 112.149 155.96 111.988 155.949 111.984Z" fill="#EB996E"/>
<path d="M156.628 110.282C155.819 112.311 155.01 114.34 154.201 116.369C154.029 116.8 153.852 117.239 153.548 117.59C153.244 117.94 152.785 118.191 152.326 118.122C151.694 118.028 151.28 117.357 151.248 116.718C151.216 116.08 151.469 115.466 151.702 114.871C152.429 113.022 153.011 111.115 153.443 109.175" fill="#FFBE9D"/>
<path d="M153.443 109.175C153.437 109.173 153.416 109.237 153.382 109.36C153.344 109.503 153.296 109.681 153.238 109.898C153.113 110.365 152.93 111.04 152.673 111.865C152.418 112.689 152.086 113.663 151.669 114.726C151.466 115.255 151.204 115.818 151.16 116.467C151.137 116.787 151.193 117.132 151.344 117.434C151.492 117.735 151.735 118.015 152.073 118.148C152.412 118.284 152.795 118.226 153.093 118.066C153.396 117.909 153.636 117.661 153.81 117.391C154.154 116.843 154.321 116.263 154.544 115.737C154.959 114.678 155.333 113.72 155.651 112.907C155.953 112.117 156.201 111.469 156.383 110.993C156.46 110.781 156.523 110.608 156.574 110.469C156.616 110.349 156.634 110.285 156.629 110.282C156.623 110.28 156.592 110.34 156.539 110.456C156.48 110.591 156.407 110.761 156.317 110.967C156.122 111.438 155.856 112.078 155.531 112.859C155.203 113.668 154.816 114.621 154.387 115.675C154.162 116.199 153.984 116.785 153.66 117.293C153.497 117.545 153.28 117.765 153.009 117.905C152.743 118.047 152.422 118.091 152.14 117.979C151.857 117.869 151.64 117.626 151.507 117.355C151.371 117.08 151.32 116.779 151.34 116.479C151.376 115.875 151.626 115.322 151.826 114.788C152.238 113.718 152.557 112.735 152.798 111.903C153.039 111.071 153.203 110.389 153.308 109.916C153.359 109.679 153.397 109.495 153.419 109.369C153.44 109.243 153.45 109.176 153.443 109.175Z" fill="#EB996E"/>
<path d="M162.21 141.74C161.991 140.936 156.432 124.553 156.432 124.553L147.273 123.455L151.02 137.571C151.02 137.571 150.435 141.155 151.02 143.275C151.605 145.396 156.286 151.174 158.699 149.785C161.113 148.395 162.429 142.545 162.21 141.74Z" fill="#FFBE9D"/>
<path d="M151.021 122.007C151.023 122.027 151.228 122.03 151.544 121.938C151.858 121.848 152.277 121.643 152.649 121.303C153.021 120.96 153.261 120.561 153.379 120.256C153.498 119.949 153.512 119.745 153.492 119.741C153.439 119.719 153.247 120.52 152.526 121.168C151.819 121.829 151.003 121.952 151.021 122.007Z" fill="#EB996E"/>
</svg>
