<svg width="21" height="20" viewBox="0 0 21 20" fill="none" xmlns="http://www.w3.org/2000/svg">
<g id="vuesax/linear/trash">
<g id="trash">
<path id="Vector" d="M18.4238 4.98307C15.6488 4.70807 12.8572 4.56641 10.0738 4.56641C8.42383 4.56641 6.77383 4.64974 5.12383 4.81641L3.42383 4.98307" stroke="#57617E" stroke-width="1.4" stroke-linecap="round" stroke-linejoin="round"/>
<path id="Vector_2" d="M8.00684 4.14199L8.19017 3.05033C8.3235 2.25866 8.4235 1.66699 9.83184 1.66699H12.0152C13.4235 1.66699 13.5318 2.29199 13.6568 3.05866L13.8402 4.14199" stroke="#57617E" stroke-width="1.4" stroke-linecap="round" stroke-linejoin="round"/>
<path id="Vector_3" d="M16.6325 7.61621L16.0908 16.0079C15.9992 17.3162 15.9242 18.3329 13.5992 18.3329H8.24915C5.92415 18.3329 5.84915 17.3162 5.75749 16.0079L5.21582 7.61621" stroke="#57617E" stroke-width="1.4" stroke-linecap="round" stroke-linejoin="round"/>
<path id="Vector_4" d="M9.53223 13.75H12.3072" stroke="#57617E" stroke-width="1.4" stroke-linecap="round" stroke-linejoin="round"/>
<path id="Vector_5" d="M8.84082 10.417H13.0075" stroke="#57617E" stroke-width="1.4" stroke-linecap="round" stroke-linejoin="round"/>
</g>
</g>
</svg>
