<svg width="301" height="301" viewBox="0 0 301 301" fill="none" xmlns="http://www.w3.org/2000/svg">
<path d="M211.897 38.04V72.5394H216.74V80.9082L225.109 72.5394H271.033V38.04H211.897Z" fill="#EBEBEB"/>
<path d="M252.645 55.2893C252.645 56.8367 253.899 58.0907 255.447 58.0907C256.994 58.0907 258.249 56.8367 258.249 55.2893C258.249 53.7419 256.994 52.4873 255.447 52.4873C253.899 52.4879 252.645 53.7425 252.645 55.2893Z" fill="white"/>
<path d="M238.662 55.2893C238.662 56.8367 239.917 58.0907 241.464 58.0907C243.012 58.0907 244.266 56.8367 244.266 55.2893C244.266 53.7419 243.012 52.4873 241.464 52.4873C239.917 52.4879 238.662 53.7425 238.662 55.2893Z" fill="white"/>
<path d="M224.681 55.2893C224.681 56.8367 225.935 58.0907 227.482 58.0907C229.029 58.0907 230.284 56.8367 230.284 55.2893C230.284 53.7419 229.029 52.4873 227.482 52.4873C225.935 52.4879 224.681 53.7425 224.681 55.2893Z" fill="white"/>
<path d="M112.695 147.337V195.601H105.92V207.308L94.2132 195.601H29.9658V147.337H112.695Z" fill="white"/>
<path d="M112.695 147.337C112.735 161.059 113.039 182.04 113.054 195.601L113.055 195.958L112.695 195.96L105.92 195.992L106.311 195.601L106.366 207.308L106.371 208.384L105.605 207.623L93.8506 195.963C79.7182 196.437 45.0376 196.027 29.377 196.189L29.3782 195.601L29.4538 147.337L29.4544 146.822L29.9656 146.824C50.5942 146.925 92.0788 147.152 112.695 147.337ZM112.695 147.337C92.0788 147.526 50.5744 147.753 29.9656 147.849L30.4774 147.337L30.553 195.601L29.9656 195.014C46.102 195.016 78.2962 195.062 94.4266 195.09L94.5748 195.24L106.235 206.994L105.474 207.309L105.53 195.602L105.531 195.209L105.92 195.211L112.695 195.243L112.336 195.602C112.421 182.13 112.581 160.958 112.695 147.337Z" fill="#EBEBEB"/>
<path d="M55.6902 171.469C55.6902 173.633 53.9352 175.388 51.7704 175.388C49.6056 175.388 47.8506 173.633 47.8506 171.469C47.8506 169.304 49.6056 167.549 51.7704 167.549C53.9358 167.549 55.6902 169.304 55.6902 171.469Z" fill="#EBEBEB"/>
<path d="M75.2507 171.469C75.2507 173.633 73.4957 175.388 71.3309 175.388C69.1661 175.388 67.4111 173.633 67.4111 171.469C67.4111 169.304 69.1661 167.549 71.3309 167.549C73.4957 167.549 75.2507 169.304 75.2507 171.469Z" fill="#EBEBEB"/>
<path d="M94.8117 171.469C94.8117 173.633 93.0567 175.388 90.8925 175.388C88.7277 175.388 86.9727 173.633 86.9727 171.469C86.9727 169.304 88.7277 167.549 90.8925 167.549C93.0573 167.549 94.8117 169.304 94.8117 171.469Z" fill="#EBEBEB"/>
<path d="M40.9104 56.0342L43.5396 59.9522L48.078 61.2422L45.1644 64.9538L45.3402 69.6686L40.9104 68.0444L36.48 69.6686L36.6558 64.9538L33.7422 61.2422L38.2806 59.9522L40.9104 56.0342Z" fill="#EBEBEB"/>
<path d="M61.1819 56.0342L63.8111 59.9522L68.3495 61.2422L65.4359 64.9538L65.6123 69.6686L61.1819 68.0444L56.7521 69.6686L56.9279 64.9538L54.0137 61.2422L58.5527 59.9522L61.1819 56.0342Z" fill="#EBEBEB"/>
<path d="M81.4537 56.0342L84.0835 59.9522L88.6219 61.2422L85.7083 64.9538L85.8841 69.6686L81.4537 68.0444L77.0239 69.6686L77.1997 64.9538L74.2861 61.2422L78.8251 59.9522L81.4537 56.0342Z" fill="#EBEBEB"/>
<path d="M101.726 56.0342L104.356 59.9522L108.894 61.2422L105.98 64.9538L106.156 69.6686L101.726 68.0444L97.296 69.6686L97.4712 64.9538L94.5576 61.2422L99.0966 59.9522L101.726 56.0342Z" fill="#EBEBEB"/>
<path d="M121.998 56.0342L124.627 59.9522L129.166 61.2422L126.253 64.9538L126.428 69.6686L121.998 68.0444L117.568 69.6686L117.744 64.9538L114.83 61.2422L119.368 59.9522L121.998 56.0342Z" stroke="#EBEBEB" stroke-miterlimit="10"/>
<path d="M121.998 68.0444V56.0342L119.368 59.9522L114.83 61.2422L117.744 64.9538L117.568 69.6686L121.998 68.0444Z" fill="#EBEBEB"/>
<path fill-rule="evenodd" clip-rule="evenodd" d="M228.119 147.605C226.943 146.872 225.919 145.804 224.346 145.96C223.744 146.021 223.875 145.522 223.87 145.194C223.842 139.28 223.824 133.372 223.799 127.462C223.797 127.031 223.822 126.678 224.29 126.44C228.796 124.149 230.74 119.663 233.493 115.826C236.437 111.731 237.436 107.3 236.723 102.404C236.53 101.074 237.148 100.476 238.346 100.199C239.788 99.8657 241.226 100.26 241.723 101.249C242.947 103.703 244.001 106.255 244.327 108.987C244.595 111.228 243.799 113.414 243.526 115.632C243.325 117.256 242.953 118.861 242.65 120.506C243.047 120.793 243.507 120.641 243.932 120.646C248.925 120.637 253.918 120.619 258.913 120.601C261.018 120.594 262.05 121.195 262.347 122.591C262.712 124.33 261.798 126.101 260.187 126.928C259.814 127.117 259.139 126.949 259.094 127.534C259.052 128.13 259.747 128.066 260.092 128.306C261.904 129.54 261.577 132.098 259.49 133.584C258.989 133.939 258.013 133.778 257.99 134.517C257.981 135.105 258.894 135.095 259.308 135.509C260.772 136.945 260.056 139.64 257.88 140.735C257.6 140.874 257.254 140.901 257.004 141.076C256.756 141.244 256.513 141.431 256.995 141.77C259.163 143.309 259.124 145.459 256.952 147.035C256.739 147.189 256.521 147.348 256.303 147.504C255.513 148.087 254.579 148.082 253.675 148.088C245.845 148.13 238.014 148.15 230.184 148.172C229.449 148.174 228.707 148.154 228.119 147.605Z" fill="#EBEBEB"/>
<path fill-rule="evenodd" clip-rule="evenodd" d="M205.819 137.255C205.806 133.501 205.811 129.742 205.768 125.989C205.76 125.224 205.837 124.849 206.773 124.856C211.356 124.897 215.932 124.881 220.512 124.814C221.411 124.802 221.552 125.111 221.549 125.909C221.549 133.467 221.567 141.024 221.63 148.583C221.639 149.544 221.377 149.817 220.412 149.804C215.969 149.769 211.525 149.772 207.086 149.858C205.98 149.879 205.826 149.492 205.835 148.524C205.878 144.768 205.831 141.013 205.819 137.255Z" fill="#EBEBEB"/>
<path fill-rule="evenodd" clip-rule="evenodd" d="M141.385 197.806C142.276 198.365 143.051 199.179 144.245 199.065C144.702 199.019 144.601 199.398 144.604 199.647C144.61 204.137 144.61 208.621 144.613 213.107C144.613 213.433 144.593 213.701 144.238 213.881C140.811 215.609 139.325 219.009 137.225 221.914C134.98 225.015 134.21 228.376 134.74 232.094C134.883 233.104 134.412 233.556 133.502 233.763C132.406 234.013 131.316 233.71 130.941 232.958C130.018 231.092 129.225 229.152 128.984 227.078C128.786 225.376 129.396 223.719 129.609 222.036C129.765 220.803 130.052 219.586 130.286 218.339C129.986 218.12 129.636 218.234 129.313 218.229C125.523 218.223 121.733 218.225 117.942 218.225C116.344 218.225 115.562 217.766 115.341 216.706C115.068 215.385 115.766 214.043 116.992 213.42C117.275 213.277 117.787 213.406 117.822 212.963C117.855 212.51 117.328 212.557 117.067 212.374C115.694 211.433 115.949 209.492 117.537 208.369C117.919 208.101 118.66 208.225 118.678 207.665C118.687 207.218 117.993 207.223 117.68 206.909C116.572 205.814 117.122 203.771 118.777 202.945C118.99 202.84 119.253 202.82 119.443 202.688C119.632 202.561 119.816 202.42 119.452 202.161C117.81 200.988 117.845 199.356 119.498 198.165C119.66 198.048 119.825 197.929 119.992 197.811C120.592 197.37 121.301 197.376 121.987 197.375C127.931 197.363 133.875 197.367 139.819 197.37C140.377 197.371 140.94 197.388 141.385 197.806Z" fill="#EBEBEB"/>
<path fill-rule="evenodd" clip-rule="evenodd" d="M158.287 205.72C158.287 208.569 158.273 211.423 158.297 214.271C158.301 214.852 158.242 215.136 157.531 215.128C154.052 215.086 150.579 215.086 147.102 215.125C146.42 215.132 146.314 214.898 146.318 214.292C146.337 208.555 146.342 202.819 146.314 197.081C146.309 196.352 146.508 196.145 147.241 196.157C150.614 196.195 153.986 196.204 157.357 196.151C158.196 196.137 158.312 196.432 158.303 197.167C158.26 200.017 158.287 202.867 158.287 205.72Z" fill="#EBEBEB"/>
<path d="M26.6621 272.298C106 271.93 194.999 271.927 274.337 272.298C194.999 272.668 106 272.665 26.6621 272.298Z" fill="#263238"/>
<path d="M190.24 57.9307L193.285 62.3269L198.407 63.8641L195.167 68.1187L195.287 73.4647L190.24 71.6983L185.193 73.4647L185.313 68.1187L182.073 63.8641L187.195 62.3269L190.24 57.9307Z" fill="#3282C4"/>
<path d="M85.1887 132.784L88.2337 137.18L93.3553 138.717L90.1153 142.972L90.2359 148.318L85.1887 146.551L80.1409 148.318L80.2615 142.972L77.0215 138.717L82.1437 137.18L85.1887 132.784Z" fill="#3282C4"/>
<path d="M122.271 181.134L123.793 183.332L126.354 184.101L124.734 186.228L124.795 188.901L122.271 188.018L119.747 188.901L119.807 186.228L118.188 184.101L120.748 183.332L122.271 181.134Z" fill="#3282C4"/>
<path d="M219.896 126.634L221.419 128.832L223.98 129.601L222.36 131.728L222.42 134.401L219.896 133.518L217.373 134.401L217.433 131.728L215.812 129.601L218.374 128.832L219.896 126.634Z" fill="#3282C4"/>
<path d="M172.691 48.77L174.213 50.9684L176.774 51.737L175.154 53.864L175.215 56.5376L172.691 55.6538L170.167 56.5376L170.227 53.864L168.607 51.737L171.168 50.9684L172.691 48.77Z" fill="#3282C4"/>
<path d="M48.7615 214.48C48.7615 214.48 35.4979 237.936 35.4895 237.953C33.3589 242.684 31.5751 246.869 30.8545 249.12C30.8491 249.131 30.8431 249.143 30.8437 249.156C30.5707 250.005 30.4519 250.572 30.5347 250.775C30.5407 250.791 30.5407 250.805 30.5491 250.817C31.5271 252.405 68.8339 270.536 70.3477 270.729C71.8645 270.932 72.5347 266.624 71.6479 264.765C70.7503 262.901 59.5771 249.575 59.5771 249.575L72.6013 226.025L48.7615 214.48Z" fill="#EB9481"/>
<path d="M69.7511 270.594C68.2397 270.397 31.5269 252.403 30.5513 250.819C30.5417 250.803 30.5381 250.789 30.5351 250.776C30.4505 250.572 30.5747 250.003 30.8417 249.158C30.8459 249.139 30.8471 249.133 30.8567 249.122C31.5779 246.871 33.3623 242.683 35.4887 237.951C35.4899 237.945 37.7237 233.851 38.6141 232.428L62.3417 244.693L59.5799 249.574C59.5799 249.574 70.1597 262.766 71.0519 264.626C71.9435 266.487 71.2685 270.792 69.7511 270.594Z" fill="#EBEBEB"/>
<path d="M70.4326 270.087C68.9086 269.856 31.7386 250.707 30.7882 249.079C30.4156 248.466 32.8906 242.888 36.0736 236.233C36.1078 236.164 36.1414 236.094 36.175 236.025L60.2938 248.111L60.0748 248.513C60.0748 248.513 71.0242 262.206 71.8816 264.107C72.73 265.998 71.9536 270.324 70.4326 270.087Z" fill="#3282C4"/>
<path d="M70.7535 268.429C64.5669 265.047 39.2955 251.991 32.9235 249.119C32.8713 249.095 32.8539 249.129 32.9031 249.158C38.9619 252.644 64.3383 265.494 70.7013 268.532C70.8351 268.596 70.8843 268.5 70.7535 268.429Z" fill="white"/>
<path d="M62.0521 249.624C59.8237 247.893 56.6131 246.718 53.8237 247.504C53.7157 247.534 53.7607 247.688 53.8531 247.704C56.6809 248.19 59.2063 248.868 61.8817 249.93C62.0707 250.005 62.2123 249.748 62.0521 249.624Z" fill="#263238"/>
<path d="M63.2796 251.613C61.0512 249.883 57.8406 248.708 55.0512 249.494C54.9432 249.524 54.9882 249.678 55.0806 249.693C57.9084 250.18 60.4332 250.858 63.1092 251.919C63.2976 251.994 63.4392 251.737 63.2796 251.613Z" fill="#263238"/>
<path d="M64.5062 253.603C62.2778 251.872 59.0672 250.697 56.2778 251.484C56.1698 251.514 56.2148 251.667 56.3072 251.683C59.135 252.169 61.6598 252.847 64.3358 253.909C64.5248 253.984 64.6658 253.726 64.5062 253.603Z" fill="#263238"/>
<path d="M40.1677 243.349C38.1673 240.614 33.9121 243.718 35.9161 246.459C37.9165 249.195 42.1717 246.09 40.1677 243.349Z" fill="white"/>
<path opacity="0.1" d="M61.71 250.567L64.3812 267.257C67.746 268.931 70.0704 270.032 70.4292 270.087C71.9502 270.324 72.729 265.998 71.8836 264.105C71.2326 262.669 64.7946 254.461 61.71 250.567Z" fill="black"/>
<path d="M71.6863 269.047C72.2197 269.646 70.9249 271.806 70.3525 271.738C69.7801 271.669 29.3443 250.612 28.7347 250.102C28.1251 249.593 29.6521 247.252 30.5173 247.537C31.3819 247.823 71.6863 269.047 71.6863 269.047Z" fill="#263238"/>
<path d="M38.5566 230.237L65.2908 244.511C65.2908 244.511 99.036 196.421 99.711 183.785C100.643 166.334 85.7436 110.936 85.7436 110.936L61.9782 110.774C61.9782 110.774 71.6394 167.748 70.854 177.467C70.443 182.553 38.5566 230.237 38.5566 230.237Z" fill="#263238"/>
<path d="M67.624 238.986C66.2476 237.994 53.575 230.651 43.9258 225.961C43.861 225.93 43.8178 226.021 43.876 226.059C46.8028 227.992 65.7172 238.354 67.5532 239.089C67.6132 239.114 67.6864 239.031 67.624 238.986Z" fill="#37474F"/>
<path d="M74.1531 165.295C73.0491 156.958 71.8347 148.633 70.4493 140.338C69.0579 132.006 67.5909 123.678 65.8485 115.412C65.6355 114.403 65.4129 113.395 65.1927 112.387C65.1585 112.232 64.9215 112.277 64.9497 112.434C66.4143 120.636 67.9203 128.831 69.2679 137.053C70.6149 145.275 71.8719 153.512 73.0005 161.767C73.2795 163.811 73.5513 165.856 73.8159 167.902C74.0889 170.014 74.3979 172.135 74.4225 174.268C74.4459 176.318 74.1249 178.313 73.4037 180.234C72.6957 182.119 71.6877 183.87 70.6653 185.599C66.3663 192.873 47.1099 224.661 46.6101 225.585C46.5771 225.645 46.6611 225.708 46.7007 225.648C51.3213 218.477 65.6559 195.576 70.0167 188.184C71.9835 184.851 74.2377 181.474 74.8797 177.583C75.5469 173.538 74.6847 169.308 74.1531 165.295Z" fill="#37474F"/>
<path d="M67.3053 230.237C67.3053 230.237 67.0377 257.351 67.0371 257.37C67.1805 262.556 67.3989 267.1 67.7313 269.441C67.7313 269.453 67.7313 269.466 67.7373 269.479C67.8615 270.362 68.0019 270.923 68.1645 271.07C68.1771 271.082 68.1831 271.095 68.1957 271.102C69.7683 272.104 111.247 272.167 112.694 271.682C114.147 271.203 112.873 267.034 111.266 265.747C109.645 264.46 93.7815 257.334 93.7815 257.334L93.7929 230.24L67.3053 230.237Z" fill="#EB9481"/>
<path d="M67.0923 251.804C67.0923 251.804 67.0377 257.351 67.0371 257.371C67.1805 262.556 67.3989 267.101 67.7313 269.441C67.7313 269.454 67.7313 269.467 67.7373 269.479C67.9125 270.35 68.0649 270.925 68.1645 271.07C68.1771 271.083 68.1831 271.096 68.1957 271.102C69.7683 272.105 111.247 272.168 112.694 271.682C114.147 271.204 112.873 267.035 111.266 265.748C109.645 264.461 93.7815 257.335 93.7815 257.335L93.7839 251.683L67.0923 251.804Z" fill="#EBEBEB"/>
<path d="M112.714 271.631C111.245 272.098 69.4392 271.362 67.8666 270.322C67.2618 269.938 67.014 263.84 66.9264 256.463C66.9264 256.386 66.9264 256.309 66.9258 256.232L93.9024 256.406L93.8838 256.864C93.8838 256.864 109.76 264.302 111.37 265.628C112.967 266.948 114.184 271.171 112.714 271.631Z" fill="#3282C4"/>
<path d="M112.27 270.002C105.226 269.705 76.7857 269.171 69.7999 269.413C69.7429 269.415 69.7423 269.454 69.7993 269.458C76.7749 269.905 105.218 270.207 112.268 270.117C112.417 270.115 112.418 270.008 112.27 270.002Z" fill="white"/>
<path d="M96.1479 256.984C93.3837 256.417 89.9847 256.783 87.8307 258.722C87.7473 258.797 87.8553 258.914 87.9453 258.888C90.6963 258.074 93.2613 257.565 96.1305 257.334C96.3333 257.318 96.3465 257.024 96.1479 256.984Z" fill="#263238"/>
<path d="M98.1294 258.226C95.3652 257.659 91.9662 258.025 89.8122 259.964C89.7288 260.039 89.8368 260.157 89.9268 260.13C92.6784 259.315 95.2428 258.807 98.112 258.576C98.3148 258.559 98.3274 258.266 98.1294 258.226Z" fill="#263238"/>
<path d="M100.11 259.467C97.3456 258.901 93.946 259.267 91.7926 261.205C91.7092 261.28 91.8172 261.398 91.9072 261.371C94.6582 260.557 97.2232 260.048 100.092 259.817C100.295 259.801 100.308 259.508 100.11 259.467Z" fill="#263238"/>
<path d="M113.378 270.144C114.122 270.445 113.916 272.955 113.372 273.147C112.829 273.339 67.2497 272.336 66.4775 272.149C65.7053 271.962 66.0395 269.187 66.9419 269.06C67.8437 268.933 113.378 270.144 113.378 270.144Z" fill="#263238"/>
<path d="M73.7449 261.035C70.7407 259.466 68.2975 264.132 71.3071 265.704C74.3113 267.273 76.7545 262.607 73.7449 261.035Z" fill="white"/>
<path d="M85.4444 110.882C85.4444 110.882 85.4438 110.888 85.4354 110.907C85.2776 111.397 76.736 134.802 75.932 135.175C75.0212 135.595 94.8002 168.818 95.9702 184.253C96.7184 194.125 95.2514 249.989 95.2514 249.989H66.335C66.335 249.989 67.7246 199.765 68.3858 183.851C68.642 177.68 48.5318 146.956 48.2852 127.823C48.2072 121.793 52.5404 110.774 52.5404 110.774L85.4444 110.882Z" fill="#263238"/>
<path d="M68.5519 183.42C68.5519 183.165 68.3509 183.083 68.3311 183.344C67.6777 191.957 67.5259 200.522 67.1143 209.149C66.7039 217.75 66.9373 219.824 66.5539 228.426C66.3367 233.295 66.5425 238.175 66.4297 243.047C66.4279 243.123 66.5413 243.132 66.5491 243.056C67.4491 234.471 68.5459 188.297 68.5519 183.42Z" fill="#37474F"/>
<path d="M95.9705 184.593C95.9063 182.471 95.7671 180.343 95.3861 178.252C95.0135 176.208 94.3655 174.228 93.6005 172.299C92.0027 168.271 90.1133 164.343 88.3085 160.404C86.4803 156.414 84.6149 152.441 82.6865 148.498C81.6023 146.282 80.5121 144.069 79.4141 141.86C78.3029 139.625 77.1059 137.43 75.9425 135.222C75.8963 135.135 75.7619 135.199 75.8039 135.289C77.6573 139.269 79.4861 143.259 81.3395 147.238C83.1923 151.218 85.0127 155.213 86.8331 159.207C88.6241 163.135 90.4187 167.067 92.1065 171.041C92.9153 172.946 93.6707 174.877 94.1693 176.89C94.6799 178.953 94.8965 181.071 95.0165 183.189C95.2961 188.128 95.4335 193.082 95.9183 198.007C95.9243 198.069 96.0251 198.063 96.0269 198.001C96.1751 193.542 96.1055 189.052 95.9705 184.593Z" fill="#37474F"/>
<path d="M93.1573 244.274C91.4749 244.055 78.6643 243.613 67.9453 244.071C67.8733 244.074 67.8787 244.174 67.9477 244.18C71.4415 244.491 91.1785 244.624 93.1429 244.399C93.2083 244.391 93.2335 244.284 93.1573 244.274Z" fill="#37474F"/>
<path d="M79.9298 133.875C76.8362 134.598 73.8026 135.762 70.8878 137.01C70.7738 137.059 70.8278 137.234 70.9502 137.196C73.9856 136.246 77.072 135.355 80.051 134.238C80.285 134.151 80.1674 133.82 79.9298 133.875Z" fill="#37474F"/>
<path d="M82.8461 114.053C82.8485 113.952 82.6745 113.912 82.6637 114.02C82.3337 117.474 81.8021 120.488 81.1805 123.684C80.8919 125.168 78.8393 133.319 76.3043 132.45C75.8801 132.305 75.7019 131.853 75.7007 131.191C75.6995 130.395 76.0949 129.459 76.3055 128.688C76.7711 126.986 77.1809 125.271 77.5085 123.537C78.1211 120.299 78.4697 117.033 78.4061 113.736C78.4037 113.628 78.2489 113.621 78.2375 113.729C77.7779 118.251 77.1971 122.753 76.0619 127.162C75.5165 129.281 74.1005 132.411 76.3175 132.972C78.5765 133.545 80.6153 128.268 81.0473 126.813C82.2545 122.749 82.7441 118.279 82.8461 114.053Z" fill="#37474F"/>
<path d="M76.3507 132.68C76.0591 133.211 75.8113 133.77 75.5911 134.335C75.4201 134.774 75.2005 135.244 75.2041 135.72C75.2047 135.813 75.3247 135.834 75.3799 135.777C75.7237 135.422 75.9067 134.907 76.1239 134.467C76.3759 133.957 76.6387 133.451 76.8757 132.934C77.0329 132.591 76.5307 132.351 76.3507 132.68Z" fill="#37474F"/>
<path d="M71.5127 191.918C71.6609 187.808 72.1175 183.496 70.7693 179.529C70.1009 177.562 69.0851 175.74 68.1317 173.902C67.1291 171.969 66.1463 170.026 65.1803 168.074C61.3169 160.271 57.6767 152.344 54.4247 144.265C52.8587 140.375 51.4583 136.382 50.8985 132.206C50.3129 127.839 50.7299 123.37 51.7061 119.09C51.9497 118.02 52.2095 116.955 52.5017 115.897C52.5233 115.82 52.4075 115.776 52.3829 115.854C51.0815 119.91 50.1857 124.125 50.1275 128.398C50.0717 132.515 50.9735 136.512 52.3037 140.387C53.6891 144.423 55.4261 148.347 57.1349 152.254C58.8971 156.281 60.7259 160.279 62.6279 164.243C64.5203 168.186 66.5381 172.063 68.5343 175.954C69.5009 177.837 70.3811 179.765 70.7543 181.863C71.1341 183.998 71.0735 186.176 70.9925 188.333C70.6517 197.428 69.8675 227.695 69.7523 236.766C69.7379 237.917 69.7235 239.069 69.7115 240.221C69.7103 240.322 69.8639 240.337 69.8705 240.233C70.4465 231.183 71.1857 200.985 71.5127 191.918Z" fill="#37474F"/>
<path d="M65.0256 116.772C65.0214 116.707 64.9248 116.721 64.917 116.778C64.5762 119.281 64.3812 121.877 63.1728 124.147C62.064 126.231 60.1296 127.574 58.0218 128.514C56.8032 129.058 55.5354 129.486 54.2682 129.898C54.177 129.928 54.1974 130.071 54.2976 130.05C56.6892 129.553 59.1204 128.995 61.1994 127.653C63.4254 126.214 64.5696 123.913 64.9356 121.337C65.1504 119.823 65.127 118.293 65.0256 116.772Z" fill="#37474F"/>
<path d="M82.1008 77.1398C87.0118 86.5238 102.45 100.084 107.374 101.269C113.442 102.73 126.918 92.5628 132.144 86.5736C134.304 84.0992 125.301 73.2986 121.423 73.8044C119.29 74.0822 108.365 85.058 106.559 84.3032C102.206 82.4846 96.1612 78.7694 87.526 73.7732C82.825 71.0534 79.0468 71.3042 82.1008 77.1398Z" fill="#EB9481"/>
<path d="M116.771 77.4222C116.771 77.4222 119.218 73.056 120.716 71.3754C122.214 69.6948 130.103 65.4852 131.109 67.1376C132.408 69.2706 128.332 72.5976 126.123 73.9668C126.123 73.9668 129.132 78.8988 126.724 81.9192C124.316 84.9396 116.771 77.4222 116.771 77.4222Z" fill="#EB9481"/>
<path d="M130.492 88.1846C132.159 87.2324 139.411 82.1948 141.117 80.3408C142.821 78.4874 147.341 72.7982 146.054 71.348C144.767 69.8984 143.311 71.4584 143.311 71.4584C143.311 71.4584 144.839 68.7536 143.41 67.4126C141.982 66.0716 139.797 68.5724 139.797 68.5724C139.797 68.5724 141.163 65.6804 139.643 64.4444C138.123 63.2084 136.346 66.0914 136.346 66.0914C136.346 66.0914 137.719 63.5054 136.038 63.0146C134.016 62.4236 132.023 67.4768 129.988 69.3818C129.526 69.8144 119.994 77.483 119.994 77.483L130.492 88.1846Z" fill="#EB9481"/>
<path d="M136.503 65.8471C135.029 69.5599 133.741 70.9291 130.564 73.2451C130.501 73.2901 130.555 73.3927 130.624 73.3513C133.943 71.3665 135.805 69.8821 136.686 65.9089C136.729 65.7151 136.573 65.6707 136.503 65.8471Z" fill="#263238"/>
<path d="M139.908 68.275C138.041 71.9974 136.658 73.495 133.508 76.1656C133.463 76.2034 133.523 76.2826 133.571 76.2484C136.88 73.8868 138.704 72.3634 140.081 68.3986C140.144 68.2192 139.994 68.1046 139.908 68.275Z" fill="#263238"/>
<path d="M143.145 71.5889C141.077 75.0623 139.632 76.7693 136.241 78.9695C136.161 79.0217 136.229 79.1429 136.314 79.0985C139.989 77.1917 141.809 75.0743 143.244 71.6627C143.342 71.4305 143.276 71.3705 143.145 71.5889Z" fill="#263238"/>
<path d="M131.274 67.8408C131.055 70.6404 128.039 72.2502 125.996 73.7382C125.84 73.851 125.877 74.0166 125.987 74.118C127.11 76.2696 128.068 79.6308 126.881 81.9012C126.847 81.9678 126.936 82.026 126.98 81.9642C128.583 79.7016 127.912 76.3224 126.53 74.0448C128.65 72.5514 131.603 70.8048 131.301 67.842C131.299 67.8246 131.275 67.8228 131.274 67.8408Z" fill="#263238"/>
<path d="M99.024 79.2795L92.8956 93.4455C92.8956 93.4455 82.2228 80.2461 80.1798 75.4785C77.8806 70.1127 81.1266 70.1103 86.2962 72.1275C91.4652 74.1447 99.024 79.2795 99.024 79.2795Z" fill="#455A64"/>
<path d="M95.1507 78.1581C94.9587 78.1461 94.7907 78.1042 94.6407 78.0142C94.3407 77.8342 94.1607 77.5162 94.1667 77.1682C94.1607 76.7182 93.8667 76.2862 93.4527 76.1302C93.2547 76.0462 93.0147 76.0461 92.8287 76.0701C92.6367 76.0941 92.4387 76.1122 92.2407 76.1482C92.4387 76.1782 92.6367 76.1961 92.8287 76.2201C93.0327 76.2321 93.1947 76.2682 93.3507 76.3521C93.6567 76.5201 93.8547 76.8382 93.8547 77.1742C93.8427 77.6182 94.1247 78.0622 94.5327 78.2302C94.7247 78.3262 94.9587 78.3382 95.1507 78.3142C95.3487 78.2842 95.5467 78.2721 95.7387 78.2361C95.5467 78.2001 95.3487 78.1821 95.1507 78.1581ZM80.1327 74.8941C80.1087 74.6961 80.0907 74.5042 80.0547 74.3062C80.0187 74.5042 80.0067 74.6961 79.9827 74.8941C79.9827 74.9181 79.9767 74.9422 79.9707 74.9662C80.0187 75.0862 80.0667 75.2062 80.1207 75.3382C80.1567 75.1882 80.1507 75.0261 80.1327 74.8941ZM89.8467 83.4741C89.6967 83.6061 89.5527 83.6902 89.3787 83.7322C89.0427 83.8162 88.6887 83.7201 88.4487 83.4741C88.1247 83.1561 87.6087 83.0601 87.2127 83.2401C87.0087 83.3241 86.8407 83.4922 86.7267 83.6422C86.6067 83.7982 86.4807 83.9422 86.3667 84.1102C86.5287 83.9962 86.6787 83.8702 86.8347 83.7502C86.9847 83.6122 87.1227 83.5222 87.2967 83.4682C87.6267 83.3722 87.9927 83.4622 88.2327 83.6962C88.5387 84.0142 89.0487 84.1342 89.4567 83.9662C89.6607 83.8942 89.8347 83.7382 89.9547 83.5822C90.0747 83.4262 90.2007 83.2762 90.3147 83.1142C90.1527 83.2282 90.0027 83.3541 89.8467 83.4741Z" fill="white"/>
<path d="M96.2463 78.6697C95.2215 80.3677 92.8665 85.8937 92.4681 86.8033C92.2581 87.2827 91.5039 89.2327 91.2909 89.7091C91.2633 89.7703 91.3629 89.8009 91.3899 89.7403C91.7967 88.8307 92.2995 87.9613 92.7147 87.0529C93.1395 86.1235 95.7291 80.6101 96.3165 78.7021C96.3291 78.6607 96.2697 78.6313 96.2463 78.6697Z" fill="#263238"/>
<path opacity="0.1" d="M80.1814 75.4753C82.2208 80.2441 92.8954 93.4429 92.8954 93.4429L96.052 86.1433L81.2194 70.8877C79.4134 70.9807 78.8116 72.2749 80.1814 75.4753Z" fill="black"/>
<path d="M48.6285 117.035C48.6291 117.031 89.5041 124.951 89.5035 124.955C89.3469 125.756 91.2549 96.7459 88.2693 76.6213C87.3861 70.6681 80.7051 67.8565 74.4627 73.1155C61.3131 84.1921 48.5271 117.555 48.6285 117.035Z" fill="#455A64"/>
<path d="M57.0981 98.3901C57.0321 98.5221 56.9661 98.6481 56.9061 98.7741C56.9481 98.7321 56.9901 98.6842 57.0261 98.6422C57.1401 98.4862 57.2721 98.3361 57.3801 98.1741C57.2841 98.2401 57.1881 98.3181 57.0981 98.3901ZM89.1141 116.972C88.7961 116.654 88.2801 116.564 87.8781 116.744C87.6741 116.822 87.5061 116.99 87.3921 117.14C87.2721 117.296 87.1461 117.446 87.0321 117.608C87.1941 117.494 87.3441 117.368 87.5001 117.248C87.6561 117.116 87.7881 117.02 87.9621 116.972C88.2921 116.876 88.6641 116.96 88.8981 117.2C89.1201 117.428 89.4501 117.554 89.7681 117.548C89.7681 117.452 89.7741 117.356 89.7741 117.26C89.5281 117.254 89.2941 117.152 89.1141 116.972ZM65.1441 119.144C64.9941 119.276 64.8501 119.36 64.6761 119.408C64.3401 119.492 63.9861 119.39 63.7461 119.144C63.4221 118.826 62.9061 118.736 62.5041 118.916C62.3061 118.994 62.1381 119.162 62.0241 119.312C61.9521 119.402 61.8801 119.492 61.8081 119.588L61.8921 119.6C61.8981 119.606 61.8981 119.606 61.8981 119.6C61.9761 119.54 62.0541 119.48 62.1321 119.42C62.2821 119.288 62.4201 119.192 62.5881 119.144C62.9241 119.048 63.2901 119.132 63.5301 119.372C63.8361 119.684 64.3461 119.81 64.7541 119.636C64.9581 119.564 65.1321 119.408 65.2521 119.252C65.3721 119.096 65.4981 118.952 65.6121 118.784C65.4501 118.898 65.3001 119.024 65.1441 119.144ZM75.8601 98.0361C75.7101 98.1681 75.5661 98.2522 75.3981 98.2942C75.0561 98.3842 74.7021 98.2821 74.4621 98.0361C74.1381 97.7181 73.6221 97.6221 73.2261 97.8081C73.0221 97.8861 72.8541 98.0541 72.7401 98.2041C72.6201 98.3601 72.4941 98.5101 72.3801 98.6721C72.5421 98.5581 72.6921 98.4322 72.8481 98.3122C72.9981 98.1742 73.1361 98.0841 73.3101 98.0361C73.6401 97.9341 74.0121 98.0241 74.2461 98.2581C74.5521 98.5761 75.0621 98.6962 75.4701 98.5282C75.6741 98.4562 75.8541 98.3002 75.9681 98.1442C76.0881 97.9882 76.2141 97.8382 76.3281 97.6762C76.1661 97.7902 76.0161 97.9161 75.8601 98.0361ZM89.1021 83.7561C88.8561 83.7501 88.6221 83.6541 88.4481 83.4741C88.1241 83.1561 87.6081 83.0601 87.2121 83.2401C87.0081 83.3241 86.8401 83.4922 86.7261 83.6422C86.6061 83.7982 86.4801 83.9422 86.3661 84.1102C86.5281 83.9962 86.6781 83.8702 86.8341 83.7502C86.9841 83.6122 87.1221 83.5222 87.2961 83.4682C87.6261 83.3721 87.9921 83.4622 88.2321 83.6962C88.4601 83.9302 88.8021 84.0621 89.1261 84.0381C89.1261 83.9421 89.1141 83.8521 89.1021 83.7561ZM89.7921 95.1322C89.4141 95.1922 89.0601 95.4502 88.9161 95.7982C88.8261 95.9962 88.8141 96.2301 88.8381 96.4221C88.8621 96.6141 88.8801 96.8121 88.9161 97.0041C88.9521 96.8121 88.9641 96.6141 88.9881 96.4221C89.0061 96.2241 89.0481 96.0561 89.1381 95.9061C89.2821 95.6601 89.5281 95.4922 89.8041 95.4442C89.7981 95.3422 89.7921 95.2402 89.7921 95.1322ZM65.8041 90.6021C65.7801 90.4041 65.7621 90.2062 65.7261 90.0142C65.6901 90.2062 65.6781 90.4041 65.6481 90.6021C65.6361 90.8001 65.6061 90.9621 65.5221 91.1181C65.3541 91.4241 65.0301 91.6221 64.7001 91.6221C64.2561 91.6161 63.8061 91.8922 63.6381 92.3001C63.5481 92.4981 63.5361 92.7321 63.5601 92.9241C63.5841 93.1221 63.6021 93.3142 63.6381 93.5122C63.6741 93.3142 63.6861 93.1221 63.7161 92.9241C63.7281 92.7261 63.7701 92.5641 63.8601 92.4081C64.0401 92.1141 64.3581 91.9282 64.7061 91.9341C65.1561 91.9341 65.5881 91.6341 65.7441 91.2201C65.8281 91.0221 65.8281 90.7881 65.8041 90.6021ZM56.5281 110.492C56.5041 110.3 56.4861 110.102 56.4501 109.904C56.4141 110.102 56.4021 110.3 56.3781 110.492C56.3661 110.696 56.3301 110.858 56.2461 111.014C56.0781 111.32 55.7601 111.518 55.4241 111.518C54.9801 111.506 54.5361 111.788 54.3681 112.196C54.2721 112.388 54.2601 112.622 54.2841 112.82C54.3141 113.012 54.3261 113.21 54.3621 113.402C54.3981 113.21 54.4101 113.012 54.4401 112.82C54.4521 112.622 54.4941 112.454 54.5841 112.304C54.7641 112.004 55.0821 111.824 55.4301 111.83C55.8801 111.824 56.3121 111.53 56.4681 111.116C56.5521 110.918 56.5521 110.678 56.5281 110.492ZM75.4761 109.262C75.4521 109.07 75.4341 108.872 75.3981 108.68C75.3621 108.872 75.3501 109.07 75.3201 109.262C75.3081 109.466 75.2781 109.628 75.1941 109.784C75.0261 110.09 74.7021 110.288 74.3721 110.288C73.9281 110.282 73.4841 110.558 73.3101 110.966C73.2201 111.158 73.2081 111.392 73.2321 111.59C73.2561 111.782 73.2741 111.98 73.3101 112.172C73.3461 111.98 73.3581 111.782 73.3881 111.59C73.4001 111.392 73.4421 111.224 73.5321 111.074C73.7121 110.774 74.0301 110.594 74.3781 110.6C74.8281 110.594 75.2601 110.3 75.4161 109.886C75.5001 109.688 75.5001 109.448 75.4761 109.262ZM80.1321 74.8941C80.1081 74.6961 80.0901 74.5042 80.0541 74.3062C80.0181 74.5042 80.0061 74.6961 79.9821 74.8941C79.9641 75.0981 79.9341 75.2602 79.8501 75.4162C79.6821 75.7162 79.3581 75.9202 79.0281 75.9142C78.5841 75.9082 78.1401 76.1842 77.9661 76.5922C77.8761 76.7902 77.8641 77.0242 77.8881 77.2162C77.9121 77.4142 77.9301 77.6061 77.9661 77.8041C78.0021 77.6061 78.0141 77.4142 78.0441 77.2162C78.0561 77.0182 78.0981 76.8562 78.1881 76.7062C78.3681 76.4062 78.6861 76.2202 79.0341 76.2322C79.4841 76.2262 79.9161 75.9262 80.0721 75.5182C80.1561 75.3202 80.1561 75.0801 80.1321 74.8941ZM68.4681 81.9802C68.3181 82.1182 68.1801 82.2081 68.0121 82.2561C67.6761 82.3581 67.3101 82.2682 67.0761 82.0342C67.0041 81.9562 66.9141 81.8902 66.8181 81.8422C66.7641 81.9262 66.7041 82.0102 66.6381 82.0942C66.7161 82.1362 66.7881 82.1901 66.8541 82.2561C67.1781 82.5741 67.6941 82.6701 68.0961 82.4841C68.2941 82.4061 68.4621 82.2381 68.5761 82.0881C68.6961 81.9321 68.8281 81.7821 68.9361 81.6201C68.7741 81.7341 68.6241 81.8602 68.4681 81.9802ZM86.2461 105.278C86.0481 105.266 85.8861 105.224 85.7301 105.134C85.4361 104.954 85.2501 104.63 85.2561 104.288C85.2561 103.838 84.9561 103.406 84.5421 103.25C84.3441 103.166 84.1101 103.166 83.9241 103.19C83.7261 103.214 83.5281 103.232 83.3361 103.262C83.5281 103.298 83.7261 103.316 83.9241 103.34C84.1221 103.352 84.2841 103.388 84.4401 103.472C84.7461 103.634 84.9441 103.958 84.9441 104.294C84.9381 104.732 85.2141 105.182 85.6221 105.35C85.8201 105.446 86.0541 105.458 86.2461 105.434C86.4441 105.404 86.6361 105.392 86.8341 105.356C86.6361 105.32 86.4441 105.302 86.2461 105.278ZM75.5721 121.82C75.5721 121.364 75.2721 120.938 74.8581 120.782C74.6601 120.692 74.4261 120.692 74.2401 120.722C74.0421 120.746 73.8441 120.758 73.6521 120.794C73.8441 120.83 74.0421 120.848 74.2401 120.872C74.4381 120.884 74.6001 120.914 74.7561 121.004C75.0621 121.166 75.2601 121.49 75.2601 121.826C75.2601 121.952 75.2781 122.084 75.3261 122.204L75.6861 122.276C75.6081 122.138 75.5721 121.982 75.5721 121.82ZM64.8381 106.412C64.6401 106.4 64.4781 106.358 64.3221 106.268C64.0221 106.088 63.8421 105.77 63.8481 105.422C63.8481 104.972 63.5481 104.54 63.1341 104.384C62.9361 104.3 62.6961 104.3 62.5101 104.324C62.3181 104.348 62.1201 104.366 61.9281 104.402C62.1201 104.432 62.3181 104.45 62.5101 104.474C62.7141 104.486 62.8761 104.522 63.0321 104.606C63.3381 104.774 63.5361 105.092 63.5361 105.428C63.5301 105.872 63.8061 106.316 64.2141 106.484C64.4121 106.58 64.6461 106.592 64.8381 106.568C65.0301 106.538 65.2281 106.526 65.4201 106.49C65.2281 106.454 65.0301 106.436 64.8381 106.412ZM79.2501 89.1561C79.0581 89.1441 78.8901 89.1021 78.7401 89.0061C78.4401 88.8321 78.2601 88.5082 78.2661 88.1662C78.2601 87.7102 77.9601 87.2842 77.5521 87.1282C77.3541 87.0382 77.1141 87.0382 76.9281 87.0622C76.7301 87.0922 76.5381 87.1041 76.3401 87.1401C76.5381 87.1761 76.7301 87.1941 76.9281 87.2181C77.1321 87.2301 77.2941 87.2601 77.4501 87.3502C77.7501 87.5121 77.9541 87.8361 77.9541 88.1721C77.9421 88.6101 78.2241 89.0602 78.6261 89.2282C78.8241 89.3182 79.0581 89.3361 79.2501 89.3061C79.4481 89.2821 79.6461 89.2642 79.8381 89.2282C79.6461 89.1982 79.4481 89.1801 79.2501 89.1561Z" fill="white"/>
<path d="M85.5474 77.9133C83.5566 78.3471 79.467 75.9387 78.1032 73.0809C78.0108 72.8847 78.414 70.8963 78.7896 68.4579C79.0116 66.9771 79.224 65.3229 79.3092 63.7995C79.3248 63.4869 88.734 66.6531 88.734 66.6531C88.734 66.6531 87.6168 69.7941 87.4854 72.4509C87.477 72.6729 87.4872 72.8805 87.516 73.0797C87.5178 73.1085 87.5238 73.1439 87.5244 73.1841C87.6516 74.3823 87.6774 77.4489 85.5474 77.9133Z" fill="#EB9481"/>
<path d="M87.5195 73.0793C87.5189 73.1099 87.5243 73.1471 87.5231 73.1837C87.2225 73.2077 86.8973 73.2065 86.5427 73.1801C80.9261 72.7427 79.8341 65.6207 79.6475 63.8213C81.3317 64.1591 88.7351 66.6527 88.7351 66.6527C88.7351 66.6527 87.6173 69.7967 87.4847 72.4535C87.4799 72.6737 87.4871 72.8825 87.5195 73.0793Z" fill="#263238"/>
<path d="M78.1969 51.8412C77.0809 55.2084 78.6373 65.0502 80.9977 67.293C84.4195 70.5438 90.1387 70.9836 92.9299 66.8442C95.6359 62.8314 93.3805 50.0412 90.7333 47.991C86.8339 44.9718 79.8463 46.8672 78.1969 51.8412Z" fill="#EB9481"/>
<path d="M87.6159 57.9362C87.6069 57.9116 87.5685 57.9758 87.5739 58.0028C87.6969 58.6628 87.7257 59.4398 87.1593 59.7518C87.1419 59.7614 87.1485 59.7944 87.1707 59.7884C87.8871 59.5724 87.8373 58.5416 87.6159 57.9362Z" fill="#263238"/>
<path d="M86.9167 57.3337C85.8373 57.4159 86.0815 59.5693 87.0817 59.4925C88.0657 59.4175 87.8215 57.2647 86.9167 57.3337Z" fill="#263238"/>
<path d="M91.4886 57.6069C91.491 57.5805 91.5444 57.6321 91.5468 57.6597C91.6014 58.3287 91.7766 59.0859 92.4048 59.2395C92.4246 59.2443 92.4264 59.2779 92.4036 59.2773C91.6554 59.2569 91.4328 58.2489 91.4886 57.6069Z" fill="#263238"/>
<path d="M92.0049 56.8426C93.0681 56.6398 93.3963 58.7812 92.4111 58.969C91.4415 59.1544 91.1133 57.013 92.0049 56.8426Z" fill="#263238"/>
<path d="M85.956 56.4455C86.241 56.3387 86.4858 56.1923 86.7564 56.0573C87.0618 55.9049 87.321 55.8149 87.4974 55.5059C87.5916 55.3397 87.5142 55.0703 87.3618 54.9635C87.0066 54.7139 86.586 54.8075 86.211 54.9761C85.8036 55.1585 85.5366 55.4039 85.3368 55.8017C85.1424 56.1875 85.5804 56.5871 85.956 56.4455Z" fill="#263238"/>
<path d="M92.7139 55.6644C92.4097 55.6494 92.132 55.5852 91.8332 55.5396C91.4954 55.488 91.2218 55.4814 90.959 55.2408C90.818 55.1118 90.8095 54.831 90.9223 54.6822C91.1845 54.3366 91.6135 54.297 92.0221 54.3426C92.4655 54.3918 92.7949 54.5436 93.1069 54.8616C93.4099 55.17 93.1147 55.6842 92.7139 55.6644Z" fill="#263238"/>
<path d="M87.7011 64.1953C87.8787 64.3333 88.0623 64.5301 88.3065 64.5229C88.5411 64.5163 88.8009 64.3807 89.0043 64.2739C89.0247 64.2637 89.0487 64.2835 89.0373 64.3051C88.8933 64.5805 88.5471 64.7821 88.2321 64.7629C87.9243 64.7443 87.7455 64.5001 87.6405 64.2325C87.6255 64.1953 87.6753 64.1755 87.7011 64.1953Z" fill="#263238"/>
<path d="M88.1759 62.119C88.6145 62.6554 89.1995 62.9098 89.8061 62.9572C90.0773 62.98 90.3569 62.9578 90.6269 62.902C90.6803 62.8948 90.7337 62.8828 90.7811 62.8666C90.8291 62.8552 90.8723 62.8444 90.9251 62.8276C91.0019 62.8072 91.0373 62.7382 91.0421 62.6632L91.0415 62.6584C91.0385 62.6338 91.0355 62.614 91.0277 62.5906C91.0277 62.5906 91.0277 62.5906 91.0271 62.5858L91.0193 62.5276C90.9755 62.0128 90.8369 61.2376 90.8369 61.2376C91.0349 61.3102 92.0405 61.6324 91.9949 61.3654C91.6103 59.1598 91.1831 56.707 90.3341 54.5932C90.3095 54.5224 90.1997 54.5518 90.2141 54.6244C90.4997 56.7586 91.1591 58.8286 91.4801 60.9676C91.1615 60.8866 90.6395 60.7282 90.3713 60.7642C90.3005 60.7936 90.6653 62.2576 90.6671 62.4904C90.6671 62.4904 90.6683 62.5 90.6653 62.5156C89.8151 62.7238 89.1353 62.5366 88.2323 62.0524C88.1771 62.0194 88.1297 62.0704 88.1759 62.119Z" fill="#263238"/>
<path d="M90.4808 62.7793C90.4808 62.7793 90.05 63.4927 89.396 63.7975C89.1554 63.9103 88.8902 63.9715 88.6016 63.9229C88.0094 63.8257 87.9446 63.2965 88.0076 62.8327C88.0586 62.4511 88.2008 62.1133 88.2008 62.1133C88.2008 62.1133 89.1194 62.8237 90.4808 62.7793Z" fill="#263238"/>
<path d="M89.396 63.7973C89.1554 63.9101 88.8902 63.9713 88.6016 63.9227C88.0094 63.8255 87.9446 63.2963 88.0076 62.8325C88.6334 62.8373 89.2862 63.2003 89.396 63.7973Z" fill="#FF9ABB"/>
<path d="M81.3563 57.3366C81.9899 55.4154 80.8655 52.218 81.8147 51.3498C83.8703 49.4712 88.1387 53.0046 91.0487 52.998C93.8693 52.9914 94.7969 51.1698 94.2683 48.8856C93.7397 46.6008 91.7825 45.0798 88.6133 44.6334C85.3343 44.172 82.3607 45.5166 80.7467 46.5702C80.7467 46.5702 81.4493 45.4218 81.1799 45.0684C80.9105 44.7156 79.5383 45.8256 79.1201 46.2978C78.6953 46.7772 78.4415 47.6628 78.4415 47.6628C78.4415 47.6628 77.9255 47.514 77.1527 47.5404C76.4357 47.565 75.5369 48.1344 75.4871 48.303C75.4373 48.4722 76.4651 48.5946 77.1851 48.6246C77.1851 48.6246 75.8585 50.418 75.8999 51.9426C75.9413 53.4672 78.3755 60.6912 78.9461 60.7644C79.6799 60.8592 81.0989 58.1172 81.3563 57.3366Z" fill="#263238"/>
<path d="M77.4627 48.4372C77.4879 48.4222 77.5221 48.457 77.4981 48.478C76.8171 49.0762 76.2669 49.771 75.9909 50.6476C75.6699 51.667 75.7485 52.7626 75.9867 53.7904C76.4499 55.7896 77.4435 57.5986 78.3105 59.44C78.3357 59.494 78.2451 59.5384 78.2163 59.4862C77.1735 57.5944 76.1121 55.5388 75.7071 53.4004C75.3615 51.577 75.7671 49.4728 77.4627 48.4372Z" fill="#263238"/>
<path d="M81.697 50.6103C82.5238 50.4879 83.446 50.5587 84.2572 50.7561C85.0564 50.9511 85.7422 51.4413 86.4598 51.8235C88.069 52.6809 89.8324 53.3409 91.6834 53.2113C91.7074 53.2095 91.7086 53.2449 91.6852 53.2479C89.9944 53.4747 88.3348 52.9851 86.8258 52.2489C86.0644 51.8775 85.3444 51.3435 84.5428 51.0663C83.632 50.7513 82.6552 50.7729 81.7054 50.7615C81.607 50.7609 81.6004 50.6247 81.697 50.6103Z" fill="#263238"/>
<path d="M82.4795 45.7541C83.6087 45.1649 84.8405 44.7743 86.0885 44.5283C87.2855 44.2919 88.5239 44.1839 89.7359 44.3711C91.8281 44.6939 93.7613 46.0091 94.2689 48.1511C94.5263 49.2365 94.4219 50.4311 93.8705 51.4127C93.8333 51.4787 93.7349 51.4283 93.7655 51.3593C94.6091 49.4735 94.2533 47.1977 92.6471 45.8261C90.9221 44.3531 88.5143 44.2589 86.3789 44.6183C85.0349 44.8445 83.7515 45.2687 82.4867 45.7685C82.4777 45.7709 82.4711 45.7577 82.4795 45.7541Z" fill="#263238"/>
<path d="M80.4824 59.9975C80.4824 59.9975 78.278 56.8193 76.8368 57.6041C75.3956 58.3889 77.0444 62.9897 78.7304 63.6251C80.4164 64.2599 81.035 62.7107 81.035 62.7107L80.4824 59.9975Z" fill="#EB9481"/>
<path d="M77.3421 58.9108C77.3151 58.9084 77.3097 58.9462 77.3331 58.9558C78.5151 59.44 79.1343 60.5404 79.5663 61.6804C79.2159 61.2406 78.7371 60.9988 78.1491 61.4158C78.1185 61.4374 78.1479 61.486 78.1809 61.4794C78.6663 61.3774 79.0161 61.4626 79.3419 61.8526C79.5729 62.1286 79.7301 62.4772 79.8951 62.7952C79.9503 62.9014 80.1417 62.8456 80.1015 62.7232C80.0985 62.7142 80.0955 62.7052 80.0919 62.6956C80.1273 61.186 78.9621 59.0692 77.3421 58.9108Z" fill="#263238"/>
<path d="M154.799 46.9825L180.431 83.9887L214.949 91.6219L223.547 96.9307L196.273 132.744L197.288 177.748L154.799 162.876L112.311 177.748L103.713 172.44L113.325 132.744L86.0518 96.9307L129.167 83.9887L146.201 41.6743L154.799 46.9825Z" fill="#3282C4"/>
<path opacity="0.1" d="M154.799 46.9825L180.431 83.9887L214.949 91.6219L223.547 96.9307L196.273 132.744L197.288 177.748L154.799 162.876L112.311 177.748L103.713 172.44L113.325 132.744L86.0518 96.9307L129.167 83.9887L146.201 41.6743L154.799 46.9825Z" fill="black"/>
<path d="M146.201 41.6743L171.833 78.6799L214.949 91.6219L187.675 127.435L188.69 172.44L146.201 157.567L103.713 172.44L104.728 127.435L77.4541 91.6219L120.57 78.6799L146.201 41.6743Z" fill="#3282C4"/>
<g opacity="0.2">
<path d="M104.266 147.95L104.728 127.436L98.8184 119.672L158.728 59.7622L171.832 78.6802L173.14 79.0762L104.266 147.95Z" fill="white"/>
<path d="M209.837 90.0858L140.285 159.638L120.335 166.622L199.865 87.0918L209.837 90.0858Z" fill="white"/>
<path d="M99.9165 84.8779L84.2505 100.544L78.6465 93.1879L81.3945 90.4399L99.9165 84.8779Z" fill="white"/>
<path d="M156.646 56.756L96.6165 116.786L96.0645 116.06L156.124 56L156.646 56.756Z" fill="white"/>
<path d="M188.242 152.474L173.566 167.15L172.624 166.82L188.212 151.232L188.242 152.474Z" fill="white"/>
</g>
<path d="M72.1049 80.1442C70.6145 90.0562 66.9125 110.546 71.0603 116.708C76.5029 124.795 94.6955 130.299 99.4619 131.935C101.538 132.648 107.093 119.122 105.947 117.072C104.802 115.023 85.9217 107.291 84.6419 106.089C83.3621 104.887 81.7151 88.6516 80.0537 80.3062C77.9585 69.7798 73.3661 71.7538 72.1049 80.1442Z" fill="#EB9481"/>
<path d="M111.611 121.905C110.869 121.066 111.304 120.671 113.262 121.027C115.245 121.383 122.67 124.454 123.522 121.765C124.381 119.068 113.801 114.894 110.494 114.551C107.188 114.2 101.719 114.812 101.719 114.812C103.614 116.038 107.925 119.451 111.611 121.905Z" fill="#EB9481"/>
<path d="M94.2725 129.668C99.7355 132.927 106.337 137.317 113.514 137.359C114.921 137.368 115.736 136.667 115.736 136.667C118.952 136.743 119.954 135.247 119.954 135.247C122.971 134.401 123.785 132.73 123.785 132.73C123.785 132.73 127.562 132.778 127.97 130.501C128.436 127.948 123.04 128.379 119.928 126.802C112.797 123.189 103.671 116.059 101.718 114.812L94.2725 129.668Z" fill="#EB9481"/>
<path d="M109.794 128.267C111.914 129.289 113.97 130.348 116.217 131.077C118.682 131.877 121.189 132.233 123.732 132.66C123.811 132.673 123.801 132.785 123.72 132.784C118.995 132.741 113.676 130.97 109.746 128.363C109.651 128.3 109.688 128.216 109.794 128.267Z" fill="#263238"/>
<path d="M106.987 132.254C109.105 133.134 112.837 134.656 119.959 135.171C119.983 135.173 119.987 135.213 119.961 135.214C115.293 135.495 111.064 134.486 106.945 132.355C106.818 132.289 106.847 132.196 106.987 132.254Z" fill="#263238"/>
<path d="M105.52 134.425C109.177 135.783 111.656 136.177 115.722 136.649C115.744 136.652 115.746 136.692 115.72 136.692C111.043 136.641 109.353 136.092 105.455 134.544C105.321 134.491 105.377 134.372 105.52 134.425Z" fill="#263238"/>
<path d="M82.7955 91.7139L68.2617 96.5482C68.2617 96.5482 70.9695 79.9222 73.1457 75.2578C75.5949 70.0078 77.7435 72.4084 79.6701 77.5672C81.5961 82.7254 82.7955 91.7139 82.7955 91.7139Z" fill="#455A64"/>
<path d="M79.2498 89.1561C79.0578 89.1441 78.8898 89.1021 78.7398 89.0061C78.4398 88.8321 78.2598 88.5081 78.2658 88.1661C78.2598 87.7101 77.9598 87.2841 77.5518 87.1281C77.3538 87.0381 77.1138 87.0381 76.9278 87.0621C76.7298 87.0921 76.5378 87.1041 76.3398 87.1401C76.5378 87.1761 76.7298 87.1941 76.9278 87.2181C77.1318 87.2301 77.2938 87.2601 77.4498 87.3501C77.7498 87.5121 77.9538 87.8361 77.9538 88.1721C77.9418 88.6101 78.2238 89.0601 78.6258 89.2281C78.8238 89.3181 79.0578 89.3361 79.2498 89.3061C79.4478 89.2821 79.6458 89.2641 79.8378 89.2281C79.6458 89.1981 79.4478 89.1801 79.2498 89.1561ZM79.0038 75.9141C78.5658 75.9201 78.1398 76.1961 77.9658 76.5921C77.8758 76.7901 77.8638 77.0241 77.8878 77.2161C77.9118 77.4141 77.9298 77.6061 77.9658 77.8041C78.0018 77.6061 78.0138 77.4141 78.0438 77.2161C78.0558 77.0181 78.0978 76.8561 78.1878 76.7061C78.3678 76.4061 78.6858 76.2201 79.0338 76.2321C79.0698 76.2321 79.0998 76.2321 79.1358 76.2201C79.0878 76.1181 79.0458 76.0161 79.0038 75.9141Z" fill="white"/>
<path d="M81.4106 89.2561C79.4762 89.6209 73.8308 91.5331 72.8942 91.8397C72.4004 92.0017 70.4594 92.7331 69.9656 92.8903C69.9026 92.9107 69.9452 93.0043 70.0082 92.9845C70.9502 92.6845 71.9258 92.4811 72.8726 92.1877C73.841 91.8871 79.6328 90.1573 81.4334 89.3299C81.4724 89.3113 81.4544 89.2477 81.4106 89.2561Z" fill="#263238"/>
<path d="M71.2267 81.7529C71.2387 81.6821 71.1379 81.6707 71.1199 81.7361C70.7311 83.1143 70.3777 84.5027 70.0465 85.8959C70.0393 85.1453 70.1239 84.4067 70.2541 83.6585C70.2601 83.6255 70.2109 83.6183 70.2031 83.6501C70.0003 84.4859 69.9487 85.3703 69.9673 86.2337C69.7387 87.2057 69.5185 88.1795 69.3103 89.1551C68.7805 91.6379 68.2195 94.1219 67.8331 96.6323C67.8127 96.7661 67.9465 96.8669 68.0701 96.8207C68.5693 96.6359 69.0613 96.4397 69.5473 96.2219C69.5977 96.1991 69.5821 96.1109 69.5221 96.1229C69.0889 96.2087 68.6635 96.3173 68.2375 96.4277C68.8135 94.0433 69.2671 91.6283 69.7747 89.2289C70.2991 86.7455 70.8025 84.2555 71.2267 81.7529Z" fill="#263238"/>
<path d="M81.9426 85.1951C81.888 84.3887 81.8316 83.5823 81.7494 82.7771C81.7476 82.7603 81.723 82.7639 81.7236 82.7801C81.7404 83.3747 81.7716 83.9687 81.807 84.5621C81.5502 83.4029 81.2724 82.2491 80.9436 81.1145C80.9388 81.0977 80.9118 81.1049 80.9142 81.1223C81.156 82.9019 81.4956 84.6683 81.7794 86.4425C82.0578 88.1831 82.3656 89.9165 82.6752 91.6517C82.3614 91.8131 82.0452 91.9673 81.726 92.1173C81.6648 92.1461 81.7008 92.2307 81.7644 92.2133C82.1364 92.1083 82.5078 92.0051 82.884 91.9169C82.9728 91.8959 83.0466 91.8287 83.034 91.7285C82.7574 89.5481 82.398 87.3593 81.9426 85.1951Z" fill="#263238"/>
<path d="M128.219 272.016C129.685 272.547 173.12 273.403 174.755 272.406C174.946 272.304 175.654 257.934 175.654 257.934C175.601 257.73 176.327 256.345 177.434 254.421C180.532 249.016 186.586 239.337 186.586 239.337L160.807 231.542L150.217 252.755L147.518 258.168C147.518 258.168 141.597 260.482 136.432 262.791C136.425 262.797 136.418 262.797 136.418 262.804C133.236 264.22 130.469 265.518 129.823 266.002C128.162 267.278 126.752 271.498 128.219 272.016Z" fill="#FFC4C0"/>
<path d="M128.219 272.015C129.685 272.547 173.12 273.403 174.755 272.405C174.946 272.304 175.654 257.934 175.654 257.934C175.601 257.73 176.327 256.345 177.434 254.421L150.217 252.755L147.518 258.167C147.518 258.167 141.598 260.482 136.433 262.79C136.426 262.797 136.418 262.797 136.418 262.804C133.237 264.22 130.469 265.517 129.823 266.002C128.162 267.278 126.752 271.498 128.219 272.015Z" fill="white"/>
<path d="M128.036 272.177C129.547 272.712 173.038 273.458 174.715 272.438C175.353 272.054 176.121 265.36 175.652 257.934L147.612 257.486C147.612 257.486 131.374 264.664 129.655 265.979C127.945 267.296 126.526 271.643 128.036 272.177Z" fill="#3282C4"/>
<path opacity="0.1" d="M174.714 272.437C174.102 272.807 167.923 272.947 160.245 272.947L174.967 257.924L174.972 257.919L175.654 257.935C176.121 265.36 175.353 272.055 174.714 272.437Z" fill="black"/>
<path d="M128.689 270.449C135.983 270.395 165.406 270.865 172.62 271.366C172.678 271.37 172.678 271.41 172.619 271.412C165.391 271.623 135.973 270.914 128.687 270.568C128.534 270.561 128.536 270.449 128.689 270.449Z" fill="#263238"/>
<path d="M132.479 264.464C134.208 264.423 135.884 265.273 136.809 266.319C137.698 267.324 138.449 268.729 138.372 270.239C138.369 270.283 138.29 270.283 138.284 270.238C137.916 267.377 135.364 264.827 132.476 264.556C132.419 264.55 132.419 264.466 132.479 264.464Z" fill="#263238"/>
<path d="M145.312 258.179C148.231 258.188 151.597 259.276 153.369 261.694C153.438 261.788 153.304 261.884 153.218 261.838C150.603 260.433 148.113 259.377 145.257 258.538C145.054 258.478 145.104 258.178 145.312 258.179Z" fill="#263238"/>
<path d="M143.045 259.019C145.964 259.028 149.329 260.116 151.102 262.534C151.17 262.628 151.037 262.724 150.951 262.677C148.336 261.272 145.846 260.216 142.989 259.377C142.787 259.317 142.836 259.018 143.045 259.019Z" fill="#263238"/>
<path d="M140.777 259.858C143.696 259.868 147.062 260.955 148.834 263.373C148.903 263.467 148.769 263.563 148.683 263.517C146.069 262.112 143.578 261.056 140.721 260.217C140.52 260.157 140.568 259.857 140.777 259.858Z" fill="#263238"/>
<path d="M138.51 260.697C141.429 260.707 144.794 261.795 146.567 264.213C146.636 264.306 146.501 264.402 146.416 264.356C143.801 262.951 141.311 261.895 138.454 261.055C138.252 260.997 138.301 260.697 138.51 260.697Z" fill="#263238"/>
<path d="M170.882 264.41C174.155 264.475 174.059 269.563 170.78 269.498C167.506 269.432 167.603 264.344 170.882 264.41Z" fill="#263238"/>
<path d="M142.452 254.62C143.992 256.678 146.369 257.999 148.422 259.471C148.635 259.624 148.885 259.453 148.951 259.244C148.999 259.249 149.046 259.225 149.043 259.162C148.923 256.644 147.959 253.74 146.519 251.655C145.63 250.367 143.79 249.139 142.292 250.339C140.876 251.473 141.553 253.418 142.452 254.62ZM142.358 252.2C142.703 249.03 145.526 251.518 146.143 252.493C146.54 253.119 146.868 253.805 147.175 254.479C147.818 255.892 148.249 257.368 148.745 258.831C147.781 258.046 146.759 257.35 145.766 256.601C144.584 255.709 142.168 253.948 142.358 252.2Z" fill="#263238"/>
<path d="M159.438 257.479C159.242 255.57 157.075 255.12 155.534 255.39C153.038 255.826 150.292 257.177 148.413 258.858C148.367 258.899 148.383 258.95 148.42 258.981C148.318 259.174 148.371 259.472 148.629 259.517C151.119 259.947 153.727 260.715 156.275 260.368C157.762 260.166 159.623 259.285 159.438 257.479ZM152.537 259.397C151.307 259.215 150.094 258.974 148.858 258.837C150.249 258.165 151.604 257.436 153.061 256.904C153.757 256.65 154.476 256.402 155.201 256.245C156.329 256.002 160.082 256.268 158.065 258.737C156.953 260.099 154.003 259.613 152.537 259.397Z" fill="#263238"/>
<path d="M179.406 254.323L150.474 249.938C150.474 249.938 164.382 222.22 172.99 207.178C177.777 198.815 190.872 198.405 197.241 208.425C205.749 221.812 212.351 234.356 216.135 241.31L222.698 241.871L221.282 252.593L199.471 257.478C191.116 258.479 185.252 243.604 185.116 243.856C184.058 245.81 179.406 254.323 179.406 254.323Z" fill="#37474F"/>
<path d="M184.962 243.922C185.785 242.237 186.427 240.448 187.158 238.722C187.865 237.051 188.578 235.383 189.28 233.71C190.699 230.33 192.169 226.966 193.546 223.569C194.318 221.662 195.028 219.731 195.749 217.804C195.767 217.758 195.838 217.778 195.824 217.826C195.266 219.647 194.684 221.461 194.074 223.266C194.236 222.954 194.397 222.643 194.566 222.34C195.031 221.509 195.51 220.689 195.992 219.868C196.01 219.836 196.057 219.865 196.04 219.898C195.596 220.722 195.152 221.545 194.692 222.36C194.462 222.765 194.212 223.165 193.969 223.57C192.253 228.623 190.307 233.595 187.969 238.396C187.049 240.285 185.971 242.092 185.051 243.977C185.021 244.036 184.933 243.981 184.962 243.922Z" fill="#263238"/>
<path d="M178.76 249.18C180.155 247.028 183.477 240.512 184.667 238.26C187.074 233.704 189.277 229.055 191.359 224.343C192.535 221.681 193.636 218.995 194.725 216.297C194.732 216.279 194.761 216.287 194.755 216.306C193.117 221.167 191.164 225.929 189.046 230.598C186.924 235.275 180.08 247.872 178.848 249.234C178.804 249.284 178.724 249.236 178.76 249.18Z" fill="#263238"/>
<path d="M196.721 219.895C199.214 224.347 201.762 228.768 204.266 233.214C205.531 235.461 206.796 237.708 208.048 239.962C208.637 241.023 209.209 242.096 209.819 243.144C210.398 244.136 211.088 244.957 212.106 245.516C213.226 246.132 214.516 246.426 215.734 246.783C217.141 247.194 218.539 247.637 219.953 248.025C220.017 248.043 219.987 248.142 219.923 248.124C218.662 247.787 217.39 247.497 216.122 247.185C214.972 246.901 213.79 246.662 212.674 246.255C211.664 245.886 210.791 245.338 210.117 244.49C209.395 243.58 208.882 242.514 208.327 241.5C205.825 236.927 203.35 232.34 200.892 227.744C199.495 225.132 198.11 222.512 196.697 219.908C196.691 219.893 196.714 219.881 196.721 219.895Z" fill="#263238"/>
<path d="M180.064 250.263C178.33 249.948 176.554 249.797 174.807 249.573C173.054 249.347 171.301 249.121 169.549 248.892C166.053 248.435 154.152 246.539 153.253 246.241C153.196 246.223 153.216 246.13 153.273 246.128C154.124 246.102 161.918 247.14 163.666 247.396C167.163 247.911 170.635 248.531 174.119 249.118C175.114 249.286 176.105 249.475 177.099 249.651C178.09 249.827 179.082 250.041 180.081 250.169C180.141 250.177 180.124 250.274 180.064 250.263Z" fill="#263238"/>
<path d="M160.734 278.561C161.287 277.103 188.984 243.634 190.802 243.045C191.011 242.967 202.356 251.808 202.356 251.808C202.811 252.473 225.271 248.738 225.271 248.738L224.326 275.596L183.823 272.972C183.823 272.972 178.207 275.953 173.084 278.358C173.075 278.358 173.071 278.363 173.066 278.36C169.913 279.85 167.125 281.1 166.339 281.27C164.287 281.7 160.171 280.011 160.734 278.561Z" fill="#FFC4C0"/>
<path d="M166.338 281.268C167.128 281.102 169.913 279.851 173.064 278.358C173.07 278.364 173.077 278.358 173.083 278.358C178.203 275.953 183.82 272.969 183.82 272.969L192.835 273.555L207.951 251.376C204.827 251.79 202.501 252.019 202.354 251.806C202.354 251.806 191.013 242.965 190.803 243.046C188.985 243.634 161.29 277.102 160.735 278.559C160.173 280.01 164.287 281.703 166.338 281.268Z" fill="white"/>
<path d="M160.493 278.596C161.074 277.102 188.888 243.659 190.754 243.054C191.461 242.82 197.035 246.607 202.356 251.808L184.398 273.348C184.398 273.348 168.363 280.969 166.244 281.413C164.132 281.85 159.912 280.089 160.493 278.596Z" fill="#3282C4"/>
<path d="M162.229 279.229C167.029 273.737 185.871 251.135 190.199 245.341C190.234 245.294 190.204 245.268 190.164 245.312C185.287 250.651 166.629 273.405 162.136 279.153C162.042 279.274 162.127 279.345 162.229 279.229Z" fill="#263238"/>
<path d="M169.237 280.263C170.396 278.978 170.846 277.154 170.657 275.77C170.475 274.441 169.901 272.956 168.706 272.028C168.671 272.002 168.619 272.062 168.65 272.096C170.578 274.241 170.845 277.839 169.166 280.204C169.133 280.253 169.197 280.307 169.237 280.263Z" fill="#263238"/>
<path d="M182.374 274.639C184.271 272.421 185.642 269.161 184.967 266.24C184.94 266.127 184.78 266.166 184.759 266.261C184.118 269.159 183.293 271.736 182.065 274.448C181.979 274.639 182.237 274.798 182.374 274.639Z" fill="#263238"/>
<path d="M180.257 275.809C182.155 273.591 183.526 270.331 182.85 267.411C182.824 267.297 182.663 267.336 182.642 267.432C182.001 270.33 181.177 272.906 179.948 275.619C179.862 275.809 180.121 275.968 180.257 275.809Z" fill="#263238"/>
<path d="M178.141 276.98C180.038 274.762 181.41 271.502 180.734 268.582C180.709 268.468 180.548 268.507 180.527 268.603C179.885 271.501 179.061 274.076 177.833 276.79C177.746 276.98 178.005 277.139 178.141 276.98Z" fill="#263238"/>
<path d="M176.025 278.151C177.922 275.933 179.294 272.673 178.618 269.752C178.592 269.639 178.431 269.678 178.41 269.773C177.769 272.671 176.945 275.247 175.716 277.96C175.63 278.151 175.889 278.31 176.025 278.151Z" fill="#263238"/>
<path d="M194.336 251.198C196.422 248.675 192.504 245.428 190.414 247.955C188.328 250.479 192.246 253.726 194.336 251.198Z" fill="#263238"/>
<path d="M186.344 282.044C188.231 281.691 188.501 279.495 188.105 277.981C187.464 275.529 185.892 272.904 184.062 271.17C184.017 271.127 183.968 271.148 183.94 271.187C183.739 271.101 183.446 271.178 183.423 271.44C183.2 273.956 182.649 276.619 183.204 279.129C183.528 280.595 184.56 282.377 186.344 282.044ZM183.865 275.324C183.945 274.084 184.085 272.855 184.119 271.612C184.904 272.943 185.742 274.232 186.393 275.642C186.703 276.314 187.009 277.011 187.224 277.72C187.56 278.824 187.604 282.587 184.977 280.779C183.528 279.783 183.77 276.803 183.865 275.324Z" fill="#263238"/>
<path d="M187.867 264.904C185.943 266.608 184.822 269.086 183.523 271.253C183.389 271.478 183.58 271.712 183.793 271.761C183.793 271.809 183.82 271.855 183.882 271.846C186.382 271.519 189.197 270.32 191.157 268.713C192.366 267.721 193.44 265.786 192.121 264.392C190.873 263.074 188.991 263.909 187.867 264.904ZM190.271 264.611C193.459 264.694 191.211 267.711 190.291 268.407C189.699 268.854 189.042 269.237 188.396 269.599C187.042 270.356 185.605 270.907 184.188 271.522C184.891 270.497 185.5 269.42 186.165 268.37C186.957 267.118 188.514 264.565 190.271 264.611Z" fill="#263238"/>
<path d="M218.217 240.386C218.217 240.386 246.952 237.291 258.32 240.354C274.175 244.625 275.992 263.671 263.782 270.921C248.312 280.106 194.644 274.986 194.644 274.986L209.624 249.735C209.624 249.735 232.107 245.544 252.26 247.17L211.597 252.201L218.217 240.386Z" fill="#37474F"/>
<path d="M208.584 251.434C208.603 251.401 208.61 251.335 208.62 251.298C208.63 251.26 208.64 251.223 208.65 251.186C208.674 251.099 208.699 251.013 208.724 250.927C208.778 250.748 208.845 250.579 208.915 250.407C208.985 250.235 209.061 250.068 209.141 249.901C209.224 249.73 209.33 249.593 209.432 249.436C209.443 249.42 209.459 249.418 209.473 249.408C209.481 249.401 209.49 249.395 209.499 249.39C209.512 249.384 209.523 249.376 209.536 249.375C209.548 249.37 209.558 249.362 209.573 249.36C212.042 248.965 228.79 247.068 231.277 246.865C233.784 246.66 236.296 246.513 238.807 246.391C243.814 246.147 248.842 246.136 253.843 246.448C254.312 246.478 254.78 246.519 255.248 246.557C255.349 246.525 255.456 246.51 255.56 246.487C255.803 246.433 256.045 246.379 256.289 246.337C256.745 246.262 257.204 246.208 257.662 246.151C258.616 246.033 259.571 245.964 260.521 245.811C260.579 245.802 260.598 245.898 260.539 245.909C259.582 246.099 258.637 246.361 257.679 246.547C257.403 246.6 257.127 246.654 256.85 246.702C258.681 246.888 260.507 247.124 262.332 247.386C262.389 247.395 262.386 247.493 262.327 247.486C259.842 247.216 257.33 247.087 254.832 247.025C252.35 246.963 249.87 246.916 247.386 246.964C242.364 247.062 237.339 247.339 232.325 247.697C229.512 247.898 212.434 249.885 209.617 249.892C209.604 249.892 209.594 249.886 209.582 249.885C209.557 249.955 209.53 250.024 209.495 250.093C209.411 250.258 209.326 250.42 209.236 250.581C209.149 250.737 209.063 250.889 208.965 251.037C208.916 251.11 208.868 251.182 208.817 251.255C208.793 251.291 208.768 251.327 208.742 251.364C208.721 251.394 208.676 251.44 208.664 251.477C208.642 251.547 208.547 251.497 208.584 251.434Z" fill="#263238"/>
<path d="M202.34 273.412C203.225 271.96 203.993 270.402 204.81 268.901C205.631 267.395 206.451 265.888 207.274 264.384C208.915 261.383 214.775 251.303 215.341 250.604C215.377 250.56 215.444 250.615 215.424 250.668C215.135 251.454 211.46 258.138 210.617 259.627C208.929 262.605 207.166 265.52 205.424 268.457C204.927 269.295 204.414 270.122 203.91 270.956C203.408 271.788 202.875 272.607 202.408 273.465C202.38 273.517 202.309 273.463 202.34 273.412Z" fill="#263238"/>
<path d="M216.253 253.372C217.747 253.046 219.271 252.858 220.776 252.612C222.286 252.365 223.796 252.12 225.306 251.88C228.327 251.398 231.351 250.941 234.378 250.515C240.416 249.666 246.47 249.006 252.545 248.631C255.974 248.419 259.406 248.329 262.837 248.202C262.91 248.2 262.902 248.327 262.829 248.328C256.725 248.364 250.604 249.009 244.532 249.7C238.518 250.385 232.515 251.164 226.518 252.01C224.825 252.249 223.132 252.493 221.44 252.74C219.721 252.991 217.999 253.318 216.273 253.483C216.209 253.488 216.186 253.386 216.253 253.372Z" fill="#263238"/>
<path d="M229.536 199.701C230.631 202.495 232.192 205.039 233.066 207.936C233.862 210.591 234.222 213.427 233.799 216.189C232.244 226.33 219.038 232.414 209.762 229.266C205.326 227.757 201.467 224.158 200.289 219.541C198.848 213.883 201.867 208.447 203.699 203.283C204.751 200.323 205.181 197.4 205.188 194.275C205.19 191.591 205.025 188.86 205.569 186.211C205.958 184.321 207.248 178.825 214.211 176.631C219.209 175.056 224.268 177.786 226.599 182.535C229.307 188.052 227.373 194.154 229.536 199.701Z" fill="#263238"/>
<path d="M205.722 200.526C203.562 205.153 200.725 209.878 199.894 214.981C199.205 219.215 200.348 223.794 204.03 226.311C204.062 226.333 204.098 226.288 204.067 226.264C200.198 223.266 199.718 218.084 200.803 213.626C201.915 209.06 204.588 205.087 205.941 200.62C205.984 200.476 205.789 200.384 205.722 200.526Z" fill="#263238"/>
<path d="M204.745 200.257C203.109 206.325 198.117 211.103 197.796 217.56C197.792 217.636 197.911 217.656 197.915 217.578C198.336 211.131 203.89 206.555 204.865 200.275C204.877 200.197 204.764 200.184 204.745 200.257Z" fill="#263238"/>
<path d="M229.886 199.6C228.811 197.299 228.22 194.992 227.989 192.468C227.977 192.339 227.767 192.329 227.758 192.463C227.174 201.37 237.376 208.048 234.661 217.259C234.642 217.324 234.737 217.367 234.76 217.301C236.064 213.501 235.051 209.699 233.344 206.195C232.258 203.963 230.938 201.851 229.886 199.6Z" fill="#263238"/>
<path d="M227.821 191.143C227.799 190.974 227.553 191.023 227.564 191.187C227.774 194.496 228.914 197.762 230.695 200.55C231.581 201.937 232.669 203.179 233.528 204.586C234.468 206.126 235.192 207.779 235.984 209.397C236.004 209.438 236.061 209.409 236.047 209.367C235.019 206.3 233.41 203.859 231.568 201.247C229.422 198.204 228.29 194.817 227.821 191.143Z" fill="#263238"/>
<path d="M208.101 207.555C194.523 216.686 183.523 225.409 182.343 231.499C180.709 239.931 185.818 242.538 188.156 242.675C194.524 243.045 209.071 221.518 213.574 211.855C217.946 202.472 211.091 205.545 208.101 207.555Z" fill="#3282C4"/>
<path opacity="0.1" d="M213.575 211.856C209.069 221.516 194.525 243.044 188.159 242.672C186.533 242.582 183.581 241.298 182.465 237.704L214.817 206.24C215.225 207.134 214.973 208.862 213.575 211.856Z" fill="black"/>
<path d="M239.458 240.351C239.458 240.351 223.256 242.477 215.404 242.393C208.361 242.318 201.447 238.895 201.447 238.895L204.642 227.147C204.642 227.147 201.456 223.081 203.927 218.677C205.685 215.543 211.191 208.841 214.119 205.699C220.72 198.614 226.26 202.632 227.886 204.886C234.094 213.491 239.458 240.351 239.458 240.351Z" fill="#3282C4"/>
<path d="M214.499 226.219C213.012 226.195 211.512 226.228 210.029 226.455C209.291 226.567 208.561 226.717 207.83 226.885C207.465 226.969 207.101 227.039 206.735 227.107C206.358 227.176 205.957 227.235 205.579 227.199C205.545 227.196 205.538 227.253 205.572 227.259C205.937 227.319 206.285 227.375 206.657 227.379C207.009 227.383 207.366 227.345 207.717 227.295C208.467 227.189 209.213 227.044 209.961 226.929C211.471 226.698 212.981 226.467 214.498 226.359C214.568 226.353 214.569 226.219 214.499 226.219Z" fill="#263238"/>
<path d="M217.928 228.178C216.743 227.879 215.525 227.64 214.313 227.496C213.702 227.423 213.093 227.392 212.477 227.378C212.184 227.371 211.89 227.371 211.596 227.374C211.272 227.378 210.947 227.431 210.624 227.429C210.591 227.429 210.582 227.488 210.617 227.489C210.921 227.501 211.224 227.57 211.526 227.602C211.83 227.634 212.134 227.663 212.439 227.695C213.048 227.759 213.656 227.83 214.265 227.887C215.486 228.002 216.699 228.13 217.914 228.292C217.98 228.301 217.99 228.193 217.928 228.178Z" fill="#263238"/>
<path d="M229.078 207.069C240.083 216.616 247.942 229.945 247.602 238.635C247.267 247.217 244.319 246.238 243.474 246.142C238.309 245.55 227.269 221.086 224.028 211.175C220.81 201.337 226.357 204.708 229.078 207.069Z" fill="#3282C4"/>
<path d="M236.914 239.107C236.366 237.997 235.8 236.898 235.27 235.781L233.644 232.449C232.572 230.223 231.481 228.006 230.444 225.763C229.363 223.541 228.335 221.295 227.312 219.047C226.797 217.924 226.294 216.796 225.811 215.66C225.305 214.532 224.851 213.384 224.386 212.236C225.06 214.62 225.954 216.937 226.888 219.23C227.827 221.523 228.862 223.773 229.902 226.02C230.986 228.246 232.071 230.47 233.234 232.657C234.397 234.841 235.591 237.013 236.914 239.107Z" fill="#263238"/>
<path d="M225.456 215.171C225.265 214.756 225.035 214.387 224.805 214.016C224.684 213.834 224.571 213.648 224.442 213.47C224.315 213.291 224.196 213.107 224.049 212.93C224.118 213.383 224.316 213.798 224.552 214.177C224.798 214.551 225.083 214.903 225.456 215.171Z" fill="#263238"/>
<path d="M215.474 210.733C215.474 210.733 222.882 204.818 226.757 204.959L230.04 207.885C230.04 207.885 231.119 208.241 231.455 207.558C232.284 205.868 232.457 201.775 228.942 199.111C225.724 196.671 219.105 197.155 214.699 198.306C210.468 199.412 208.132 201.897 209.424 204.658C210.716 207.419 215.474 210.733 215.474 210.733Z" fill="#3282C4"/>
<path opacity="0.1" d="M215.053 209.435C215.053 209.435 211.625 205.885 211.128 203.827C210.631 201.77 214.747 199.819 217.404 199.056C221.516 197.874 224.315 198.144 226.613 200.343C228.911 202.54 215.053 209.435 215.053 209.435Z" fill="black"/>
<path d="M221.031 203.336C220.964 204.055 217.88 207.693 214.678 207.979C213.635 208.07 213.263 203.733 213.263 203.733L213.111 203.327L211 197.644L217.282 192.286L218.198 191.565C218.198 191.565 218.673 193.158 219.245 195.147C219.272 195.239 219.299 195.331 219.326 195.43C219.362 195.542 219.396 195.647 219.425 195.752C219.514 196.048 219.604 196.351 219.687 196.655C219.751 196.885 219.815 197.11 219.873 197.354C219.938 197.598 219.996 197.836 220.062 198.08C220.652 200.499 221.055 203.032 221.031 203.336Z" fill="#FFC4C0"/>
<path d="M219.245 195.147C218.203 200.042 214.736 202.453 213.112 203.327L211.001 197.644L217.283 192.286L218.199 191.565C218.199 191.565 218.673 193.157 219.245 195.147Z" fill="#263238"/>
<path d="M204.527 185.417C200.385 195.217 205.787 198.804 207.901 199.695C209.821 200.504 216.459 203.014 221.591 193.694C226.723 184.374 223.476 179.349 219.184 177.268C214.893 175.186 208.669 175.616 204.527 185.417Z" fill="#FFC4C0"/>
<path d="M206.918 184.822C207.16 184.89 207.394 184.912 207.64 184.956C207.918 185.004 208.135 185.071 208.403 184.951C208.548 184.887 208.627 184.669 208.578 184.524C208.464 184.184 208.138 184.04 207.806 183.969C207.445 183.891 207.148 183.923 206.82 184.09C206.503 184.251 206.599 184.731 206.918 184.822Z" fill="#263238"/>
<path d="M213.836 187.167C213.616 187.045 213.434 186.896 213.228 186.753C212.997 186.592 212.796 186.487 212.69 186.213C212.633 186.066 212.729 185.854 212.866 185.785C213.186 185.625 213.519 185.752 213.805 185.935C214.116 186.133 214.304 186.366 214.419 186.715C214.532 187.054 214.125 187.328 213.836 187.167Z" fill="#263238"/>
<path d="M211.606 188.462C211.623 188.439 211.644 188.516 211.632 188.543C211.319 189.197 211.071 189.999 211.575 190.483C211.59 190.498 211.573 190.53 211.553 190.517C210.866 190.093 211.206 189.032 211.606 188.462Z" fill="#263238"/>
<path d="M212.503 188.03C213.605 188.418 212.749 190.594 211.727 190.235C210.722 189.882 211.579 187.705 212.503 188.03Z" fill="#263238"/>
<path d="M212.885 188.314C213.027 188.511 213.127 188.802 213.348 188.915C213.603 189.046 213.892 188.896 214.152 188.746C214.179 188.73 214.19 188.757 214.179 188.785C214.021 189.205 213.693 189.57 213.221 189.456C212.791 189.352 212.644 188.868 212.704 188.407C212.715 188.322 212.828 188.233 212.885 188.314Z" fill="#263238"/>
<path d="M207.744 186.789C207.748 186.761 207.678 186.8 207.669 186.828C207.43 187.513 207.042 188.256 206.344 188.246C206.322 188.245 206.311 188.28 206.335 188.286C207.121 188.468 207.627 187.475 207.744 186.789Z" fill="#263238"/>
<path d="M207.412 185.85C206.356 185.349 205.432 187.498 206.41 187.962C207.372 188.418 208.297 186.27 207.412 185.85Z" fill="#263238"/>
<path d="M206.903 185.799C206.684 185.84 206.427 185.974 206.218 185.9C205.976 185.815 205.903 185.507 205.849 185.22C205.843 185.19 205.819 185.201 205.805 185.229C205.618 185.635 205.57 186.121 205.93 186.37C206.258 186.596 206.674 186.358 206.948 185.99C206.999 185.923 206.991 185.782 206.903 185.799Z" fill="#263238"/>
<path d="M209.464 193.887C209.254 194.009 209.028 194.192 208.768 194.149C208.518 194.107 208.26 193.924 208.059 193.78C208.039 193.766 208.01 193.783 208.019 193.808C208.133 194.124 208.473 194.391 208.813 194.416C209.145 194.442 209.372 194.208 209.523 193.936C209.545 193.899 209.495 193.87 209.464 193.887Z" fill="#263238"/>
<path d="M207.369 190.476C207.369 190.476 206.899 191.462 206.745 191.949C206.73 191.994 206.841 192.053 207.003 192.116C207.011 192.12 207.014 192.125 207.023 192.122C207.839 192.528 208.798 192.506 209.543 191.97C209.591 191.934 209.546 191.864 209.492 191.88C208.701 192.148 207.954 192.045 207.188 191.816C207.196 191.67 208.048 190.154 207.973 190.124C207.714 190.017 207.133 190.031 206.789 190.023C207.708 187.941 208.952 186.022 209.835 183.935C209.866 183.86 209.763 183.801 209.718 183.863C208.271 185.781 207.162 188.155 206.159 190.281C206.03 190.545 207.148 190.497 207.369 190.476Z" fill="#263238"/>
<path d="M207.109 191.951C207.109 191.951 207.333 192.754 207.88 193.224C208.082 193.397 208.321 193.527 208.612 193.558C209.209 193.624 209.413 193.131 209.477 192.667C209.531 192.286 209.484 191.923 209.484 191.923C209.484 191.923 208.408 192.36 207.109 191.951Z" fill="#263238"/>
<path d="M207.881 193.223C208.082 193.397 208.321 193.527 208.612 193.558C209.209 193.624 209.413 193.131 209.477 192.667C208.874 192.504 208.147 192.677 207.881 193.223Z" fill="#FF9ABB"/>
<path d="M220.756 193.323C218.871 193.073 219.503 188.77 219.503 188.77C219.503 188.77 212.075 185.405 213.083 178.901C213.083 178.901 210.215 182.334 205.661 183.087C205.661 183.087 208.764 175.53 214.622 175.631C214.622 175.631 221.243 175.084 223.973 181.521C226.772 188.118 222.021 193.491 220.756 193.323Z" fill="#263238"/>
<path d="M213.179 178.425C212.82 179.363 212.7 180.392 212.765 181.406C212.829 182.421 213.085 183.438 213.559 184.349C213.659 184.586 213.818 184.791 213.945 185.013L214.148 185.339C214.224 185.442 214.305 185.541 214.386 185.639C214.55 185.835 214.706 186.038 214.877 186.227C215.059 186.404 215.246 186.577 215.434 186.748C215.528 186.833 215.619 186.922 215.717 187.002L216.024 187.225L216.639 187.667C217.074 187.922 217.521 188.153 217.967 188.376C217.572 188.063 217.153 187.797 216.768 187.485L216.207 187.002L215.928 186.762C215.84 186.677 215.76 186.583 215.676 186.494C215.511 186.312 215.345 186.134 215.174 185.959C215.019 185.772 214.879 185.571 214.731 185.379L214.51 185.088L214.323 184.776C214.206 184.564 214.057 184.368 213.966 184.143C213.507 183.287 213.255 182.335 213.112 181.371C213.043 180.887 213.021 180.396 213.033 179.903C213.036 179.41 213.09 178.917 213.179 178.425Z" fill="#263238"/>
<path d="M219.545 192.587C219.545 192.587 222.778 190.143 223.957 191.395C225.135 192.647 221.99 196.689 220.104 196.771C218.218 196.852 218.108 195.107 218.108 195.107L219.545 192.587Z" fill="#FFC4C0"/>
<path d="M223.027 192.532C223.055 192.538 223.048 192.578 223.021 192.58C221.686 192.676 220.711 193.568 219.908 194.562C220.401 194.239 220.956 194.155 221.406 194.762C221.429 194.794 221.384 194.833 221.353 194.815C220.903 194.554 220.528 194.525 220.076 194.807C219.756 195.006 219.486 195.301 219.217 195.565C219.128 195.652 218.956 195.534 219.035 195.425C219.041 195.418 219.048 195.409 219.054 195.401C219.51 193.886 221.362 192.16 223.027 192.532Z" fill="#263238"/>
<path d="M215.053 209.435C215.053 209.435 221.281 201.251 227.271 200.461L226.758 204.959C226.758 204.959 221.77 205.037 215.475 210.733L215.053 209.435Z" fill="#3282C4"/>
<path d="M228.371 205.044C227.275 204.906 226.185 205.146 225.156 205.468C221.048 206.431 216.856 209.806 216.856 209.806L215.649 210.912L215.513 211.036L215.363 210.959C213.353 209.863 211.335 207.321 210.958 206.821C212.49 208.405 215.029 210.244 215.583 210.507L215.297 210.553L216.505 209.412C216.923 209.047 221.517 206.032 225.071 205.174C225.339 205.099 225.615 205.053 225.888 204.999C226.165 204.964 226.44 204.923 226.719 204.911C227.274 204.874 227.839 204.893 228.371 205.044Z" fill="#263238"/>
<path d="M230.039 207.885C229.423 207.475 228.859 207.006 228.308 206.522C227.764 206.031 227.234 205.525 226.757 204.958C227.374 205.367 227.938 205.837 228.488 206.321C229.031 206.813 229.562 207.319 230.039 207.885Z" fill="#263238"/>
<path d="M217.069 208.483C217.069 208.483 217.748 210.754 218.083 214.09C218.216 215.41 218.082 220.194 216.598 220.139C215.114 220.084 217.267 216.833 217.49 214.297C217.715 211.723 216.899 209.983 216.691 208.492L217.069 208.483Z" fill="#263238"/>
<path d="M212.934 208.421C212.934 208.421 212.126 210.429 211.542 213.434C211.311 214.624 211.032 218.986 212.386 219.06C213.74 219.134 212.055 215.998 212.065 213.673C212.075 211.314 212.964 209.799 213.278 208.46L212.934 208.421Z" fill="#263238"/>
<path d="M184.6 219.234C185.027 215.181 185.986 209.515 187.391 208.289C188.865 207.003 194.229 202.689 195.799 202.088C197.368 201.488 204.359 198.567 205.683 199.277C206.743 199.846 205.598 202.623 202.273 204.043C199.349 205.291 197.86 206.415 197.026 206.808C196.174 207.21 194.188 210.071 194.794 211.29C195.151 212.008 197.3 212.796 198.6 212.157C199.9 211.518 200.142 208.896 201.609 207.616C203.077 206.336 205.739 206.4 205.916 207.113C206.093 207.826 205.226 208.19 203.944 210.673C203.12 212.27 203.182 216.037 201.285 218.799C200.332 220.188 198.711 223.854 198.711 223.854L184.6 219.234Z" fill="#FFC4C0"/>
<path d="M202.98 206.458C203.442 206.338 203.945 206.18 204.279 205.819C204.42 205.667 204.527 205.479 204.561 205.272C204.579 205.162 204.578 205.044 204.56 204.934C204.543 204.833 204.51 204.678 204.42 204.617C204.393 204.598 204.432 204.565 204.447 204.591C204.479 204.65 204.534 204.694 204.573 204.748C204.606 204.793 204.632 204.845 204.654 204.897C204.698 205.002 204.719 205.11 204.721 205.224C204.724 205.472 204.632 205.71 204.48 205.903C204.119 206.364 203.544 206.5 202.985 206.498C202.962 206.498 202.959 206.464 202.98 206.458Z" fill="#263238"/>
<path d="M187.392 208.289C188.608 206.234 191.772 202.496 194.982 201.142C197.152 200.227 204.834 203.663 204.661 205.115C204.487 206.568 203.197 206.615 201.276 206.45C200.577 206.39 196.848 205.187 196.245 205.98C195.379 207.121 194.356 210.956 194.356 210.956L187.392 208.289Z" fill="#FFC4C0"/>
<path d="M204.456 204.557C203.471 203.04 201.39 202.282 199.326 201.697C199.293 201.688 199.277 201.737 199.31 201.746C199.835 201.895 203.215 203.319 204.434 204.583C204.447 204.597 204.465 204.572 204.456 204.557Z" fill="#263238"/>
<path d="M187.392 208.289C188.608 206.233 191.772 202.495 194.982 201.142C197.152 200.227 203.289 204.744 203.116 206.196C202.942 207.649 201.09 207.825 199.016 207.178C198.346 206.969 196.072 205.477 195.469 206.27C194.602 207.411 192.492 210.241 192.492 210.241L187.392 208.289Z" fill="#FFC4C0"/>
<path d="M193.704 208.492C193.9 208.168 193.967 208.054 194.168 207.732C194.369 207.413 194.575 207.095 194.798 206.792C194.992 206.529 195.178 206.239 195.453 206.055C195.717 205.878 196.042 205.828 196.354 205.847C197.068 205.889 197.725 206.32 198.34 206.646C199.025 207.011 200.444 207.592 201.51 207.444C201.803 207.403 202.093 207.344 202.348 207.187C202.513 207.085 202.736 206.957 202.84 206.767C203.278 205.965 202.669 205.085 202.055 204.468C200.912 203.318 199.398 202.507 197.933 201.847C197.573 201.685 197.21 201.532 196.846 201.38C196.432 201.206 196.001 201.039 195.536 201.051C194.792 201.069 193.6 201.865 193.228 202.106C193.2 202.124 193.177 202.078 193.205 202.059C193.652 201.759 194.755 200.795 195.956 200.817C196.396 200.825 196.814 201.036 197.219 201.196C197.642 201.363 198.062 201.543 198.476 201.734C199.282 202.104 200.068 202.519 200.807 203.012C201.505 203.477 202.25 204.022 202.735 204.718C203.155 205.321 203.303 206.194 202.936 206.854C202.625 207.41 201.93 207.564 201.611 207.616C201.292 207.668 200.986 207.672 200.664 207.638C200.33 207.603 199.106 207.291 198.588 207.104C197.929 206.867 197.329 206.447 196.652 206.267C196.329 206.181 195.978 206.187 195.684 206.362C195.411 206.524 195.189 206.813 194.981 207.047C194.509 207.578 194.197 207.922 193.816 208.524C193.723 208.67 193.622 208.628 193.704 208.492Z" fill="#263238"/>
<path d="M186.497 210.077C186.937 209.104 187.602 205.129 188.325 203.893C189.047 202.658 192.39 198.356 194.022 198.484C196.072 198.645 194.064 202.395 193.044 203.946C192.023 205.497 192.289 208.066 192.289 208.066L186.497 210.077Z" fill="#FFC4C0"/>
<path d="M194.451 201.383C194.087 201.875 193.768 202.419 193.454 202.945C193.157 203.443 192.811 203.939 192.59 204.478C192.369 205.018 192.282 205.593 192.247 206.173C192.23 206.458 192.23 206.741 192.237 207.026C192.246 207.338 192.284 207.65 192.287 207.961C192.287 207.994 192.338 207.997 192.338 207.964C192.344 207.401 192.425 206.821 192.504 206.264C192.586 205.684 192.74 205.103 192.96 204.561C193.403 203.476 194.07 202.499 194.522 201.418C194.541 201.374 194.477 201.349 194.451 201.383Z" fill="#263238"/>
<path d="M192.328 208.498C192.232 209.48 192.556 210.46 192.944 211.351C193.145 211.799 193.377 212.235 193.642 212.653C193.909 213.073 194.222 213.467 194.527 213.83C195.139 214.564 195.683 215.318 196.09 216.165C196.499 217.009 196.766 217.928 196.963 218.878C196.987 217.911 196.861 216.918 196.507 215.989C196.169 215.053 195.601 214.208 194.989 213.457C194.361 212.717 193.844 211.972 193.381 211.133C192.94 210.301 192.48 209.455 192.328 208.498Z" fill="#263238"/>
<path d="M188.826 242.302C192.782 241.593 195.096 234.825 199.134 222.927C199.842 220.839 188.898 208.661 187.566 210.606C185.888 213.057 181.661 226.48 181.312 230.103C180.626 237.246 184.206 243.13 188.826 242.302Z" fill="#FFC4C0"/>
<path d="M197.017 229.561L183.653 217.652C183.653 217.652 180.473 228.535 181.008 233.015C181.542 237.495 183.331 242.552 188.756 242.6C192.817 242.636 197.017 229.561 197.017 229.561Z" fill="#3282C4"/>
<path d="M193.243 238.367C193.678 237.69 194.062 236.986 194.434 236.277C194.81 235.57 195.148 234.844 195.479 234.115C195.8 233.381 196.109 232.641 196.373 231.883C196.638 231.126 196.888 230.357 197.017 229.561C196.709 230.303 196.383 231.027 196.052 231.753L195.068 233.932C194.749 234.663 194.423 235.391 194.122 236.131C193.816 236.869 193.511 237.608 193.243 238.367Z" fill="#263238"/>
<path d="M194.349 231.852C193.698 231.196 192.987 230.592 192.298 229.975C191.608 229.358 190.912 228.748 190.209 228.146C188.801 226.944 187.387 225.749 185.958 224.572C185.567 224.251 185.175 223.93 184.779 223.615C184.354 223.278 183.886 222.993 183.466 222.654C183.433 222.627 183.393 222.676 183.424 222.704C183.764 223.005 184.063 223.356 184.397 223.665C184.744 223.984 185.097 224.297 185.453 224.607C186.151 225.216 186.85 225.822 187.554 226.424C188.959 227.628 190.372 228.826 191.815 229.984C192.631 230.638 193.435 231.321 194.289 231.926C194.339 231.961 194.392 231.896 194.349 231.852Z" fill="#263238"/>
<path d="M211.362 208.713L216.771 225.47C216.986 225.957 216.761 226.38 216.27 226.412L207.478 226.988C206.987 227.021 206.414 226.65 206.2 226.162L200.791 209.406C200.576 208.917 200.8 208.495 201.291 208.463L210.082 207.887C210.574 207.855 211.147 208.224 211.362 208.713Z" fill="#37474F"/>
<path d="M210.317 208.773L215.726 225.529C215.941 226.017 215.716 226.44 215.225 226.472L206.433 227.048C205.942 227.08 205.369 226.709 205.154 226.222L199.745 209.465C199.529 208.976 199.754 208.555 200.245 208.522L209.036 207.946C209.529 207.914 210.102 208.284 210.317 208.773Z" fill="#455A64"/>
<path d="M207.958 209.709C207.994 210.12 208.357 210.425 208.769 210.389C209.181 210.353 209.486 209.989 209.45 209.578C209.414 209.166 209.051 208.861 208.638 208.897C208.227 208.933 207.922 209.297 207.958 209.709Z" fill="#263238"/>
<path d="M244.715 246.046C240.876 246.574 236.092 243.591 223.683 234.533C221.966 233.279 227.552 218.782 229.454 220.026C231.851 221.594 240.81 228.195 241.404 228.761C246.416 233.531 247.319 245.688 244.715 246.046Z" fill="#FFC4C0"/>
<path d="M233.886 224.412C233.886 224.412 230.352 219.453 227.689 217.422C224.123 214.703 219.925 213.824 218.144 213.562C214.425 213.014 205.055 214.262 204.943 217.023C204.842 219.523 214.356 217.764 214.356 217.764C214.356 217.764 204.36 217.957 204.792 220.989C205.224 224.022 216.151 221.352 216.151 221.352C216.151 221.352 205.886 221.78 206.825 224.837C207.536 227.147 217.569 225.286 217.569 225.286C217.569 225.286 208.748 225.715 209.376 228.122C210.07 230.782 219.439 229.645 219.439 229.645C222.065 235.495 225.832 237.142 228.568 238.051C229.231 238.269 233.886 224.412 233.886 224.412Z" fill="#FFC4C0"/>
<path d="M217.809 217.476C216.634 217.456 215.445 217.428 214.272 217.512C213.099 217.597 211.928 217.723 210.769 217.916C207.925 218.39 206.218 219.132 206.328 219.098C208.939 218.285 213.133 217.918 214.306 217.833C215.476 217.748 216.642 217.605 217.813 217.52C217.843 217.518 217.837 217.476 217.809 217.476Z" fill="#263238"/>
<path d="M218.191 221.704C216.69 221.744 215.198 221.728 213.698 221.834C212.205 221.939 210.798 222.17 209.317 222.378C209.203 222.394 209.249 222.45 209.364 222.439C210.853 222.29 212.241 222.268 213.731 222.136C215.216 222.006 216.708 221.816 218.196 221.74C218.218 221.738 218.214 221.704 218.191 221.704Z" fill="#263238"/>
<path d="M219.173 225.275C216.875 225.218 214.57 225.585 212.317 225.999C212.205 226.02 212.272 226.086 212.389 226.071C214.663 225.787 216.445 225.549 219.172 225.355C219.214 225.352 219.221 225.276 219.173 225.275Z" fill="#263238"/>
<path d="M233.885 222.44L228.995 240.257C228.995 240.257 242.114 247.981 245.012 245.938C247.911 243.896 246.014 233.607 242.734 229.683C241.367 228.048 233.885 222.44 233.885 222.44Z" fill="#3282C4"/>
<path d="M233.723 223.034L233.915 222.448L233.867 222.465C235.106 223.477 236.349 224.48 237.575 225.503C238.809 226.515 240.031 227.542 241.198 228.621C241.778 229.159 242.368 229.699 242.864 230.3C243.363 230.906 243.795 231.567 244.185 232.252C244.953 233.631 245.463 235.154 245.767 236.724C245.641 235.128 245.211 233.543 244.485 232.094C244.13 231.366 243.683 230.682 243.179 230.044C242.666 229.402 242.08 228.85 241.5 228.293C240.31 227.212 239.066 226.201 237.803 225.217C236.526 224.25 235.235 223.304 233.903 222.415L233.864 222.39L233.855 222.432L233.723 223.034Z" fill="#263238"/>
<path d="M236.76 226.862C236.461 227.737 236.234 228.641 235.987 229.532C235.739 230.424 235.5 231.319 235.273 232.216C234.819 234.011 234.374 235.807 233.953 237.61C233.838 238.103 233.724 238.597 233.617 239.092C233.503 239.623 233.455 240.168 233.337 240.695C233.328 240.736 233.39 240.751 233.4 240.71C233.52 240.272 233.702 239.849 233.831 239.412C233.964 238.96 234.087 238.504 234.208 238.048C234.444 237.152 234.677 236.257 234.906 235.36C235.362 233.566 235.811 231.769 236.208 229.961C236.433 228.94 236.69 227.917 236.853 226.884C236.863 226.823 236.78 226.804 236.76 226.862Z" fill="#263238"/>
<path d="M229.431 238.672C229.396 239.23 229.308 239.775 229.189 240.31L229.101 240.087C230.092 240.622 231.028 241.231 231.929 241.933C231.368 241.794 230.846 241.558 230.344 241.3C229.842 241.039 229.358 240.75 228.892 240.429L228.76 240.337L228.804 240.205C228.974 239.683 229.177 239.17 229.431 238.672Z" fill="#263238"/>
<path d="M225.532 164.5V177.993H228.194V182.593L232.793 177.993H271.753V164.5H225.532Z" fill="white"/>
<path d="M225.532 164.499C225.569 169.049 225.689 173.546 225.712 177.993L225.532 177.813L228.194 177.797L228.388 177.796L228.389 177.993L228.417 182.592L228.037 182.435L232.613 177.812L232.687 177.737H232.794L271.753 177.699L271.459 177.993L271.483 164.499L271.753 164.77C258.441 164.753 239.056 164.607 225.532 164.499ZM225.532 164.499C239.186 164.424 258.279 164.213 271.753 164.229H272.023L272.024 164.499L272.047 177.993L272.048 178.287H271.753L232.794 178.249L232.975 178.174L228.352 182.75L227.968 183.13L227.971 182.592L227.999 177.993L228.194 178.188L225.532 178.172L225.352 178.17L225.352 177.992C225.376 173.444 225.495 168.946 225.532 164.499Z" fill="#263238"/>
<path d="M232.422 168.078L233.474 169.645L235.29 170.161L234.124 171.645L234.194 173.532L232.422 172.882L230.65 173.532L230.72 171.645L229.555 170.161L231.37 169.645L232.422 168.078Z" fill="#3282C4"/>
<path d="M240.532 168.078L241.584 169.645L243.399 170.161L242.234 171.645L242.304 173.532L240.532 172.882L238.76 173.532L238.83 171.645L237.664 170.161L239.48 169.645L240.532 168.078Z" fill="#3282C4"/>
<path d="M248.642 168.078L249.694 169.645L251.509 170.161L250.344 171.645L250.414 173.532L248.642 172.882L246.869 173.532L246.94 171.645L245.774 170.161L247.59 169.645L248.642 168.078Z" fill="#3282C4"/>
<path d="M256.751 168.078L257.804 169.645L259.619 170.161L258.453 171.645L258.524 173.532L256.751 172.882L254.979 173.532L255.05 171.645L253.884 170.161L255.699 169.645L256.751 168.078Z" fill="#3282C4"/>
<path d="M264.862 172.882V168.078L263.81 169.645L261.994 170.161L263.16 171.645L263.09 173.532L264.862 172.882Z" fill="#3282C4"/>
<path d="M264.862 168.078L265.962 169.612C266.383 169.669 267.202 169.935 267.757 170.067L267.898 170.103L267.808 170.222L266.665 171.725L266.692 171.641L266.773 173.527L266.782 173.733L266.587 173.663L264.811 173.023H264.914L263.138 173.663L262.942 173.734L262.951 173.527L263.032 171.642L263.059 171.726L261.917 170.223L261.826 170.103L261.968 170.066C262.52 169.936 263.342 169.666 263.762 169.612C263.761 169.612 264.862 168.078 264.862 168.078ZM264.862 168.078L263.858 169.678C263.27 169.908 262.628 170.057 262.021 170.256L262.072 170.1L263.261 171.567C263.294 171.603 263.291 171.606 263.288 171.651L263.229 173.537L263.042 173.401L264.811 172.741C264.864 172.719 264.863 172.72 264.914 172.741L266.682 173.401L266.495 173.537L266.436 171.651C266.432 171.603 266.433 171.601 266.464 171.567L267.652 170.1L267.703 170.256C267.095 170.057 266.453 169.907 265.865 169.677C265.865 169.677 264.862 168.078 264.862 168.078Z" fill="#263238"/>
<path d="M96.5156 23.6436V46.6115H99.1772V51.2112L103.777 46.6115H150.679V23.6436H96.5156Z" fill="white"/>
<path d="M96.5157 23.6437L96.6093 35.1661C96.6537 38.9965 96.6789 42.8035 96.6837 46.6111L96.5157 46.4431L99.1773 46.4335L99.3543 46.4329L99.3549 46.6117L99.3717 51.2113L99.0393 51.0739L103.622 46.4575L103.686 46.3939C111.497 46.3741 131.394 46.3267 138.953 46.3153L150.678 46.3435L150.41 46.6117L150.461 23.6443L150.678 23.8621C137.177 23.8501 110.016 23.7277 96.5157 23.6437ZM96.5157 23.6437C110.012 23.5615 137.183 23.4397 150.678 23.4259L150.896 23.4253L150.896 23.6437L150.947 46.6111L150.947 46.8787L150.678 46.8793C137.598 46.9447 117.01 46.8517 103.777 46.8295L103.932 46.7653L99.3153 51.3475L98.9811 51.6793L98.9829 51.2101L98.9997 46.6105L99.1773 46.7881L96.5157 46.7785L96.3471 46.7779C96.3171 40.0261 96.4965 30.4789 96.5157 23.6437Z" fill="#263238"/>
<path d="M115.137 35.1583C115.137 38.7703 112.209 41.6989 108.597 41.6989C104.985 41.6989 102.057 38.7709 102.057 35.1583C102.057 31.5457 104.985 28.6177 108.597 28.6177C112.209 28.6177 115.137 31.5457 115.137 35.1583Z" fill="#EBEBEB"/>
<path d="M108.682 36.2703C109.819 36.2703 110.74 35.3489 110.74 34.2123C110.74 33.0757 109.819 32.1543 108.682 32.1543C107.545 32.1543 106.624 33.0757 106.624 34.2123C106.624 35.3489 107.545 36.2703 108.682 36.2703Z" fill="white"/>
<path d="M105.126 39.8887V40.7377C105.714 41.1031 106.367 41.3821 107.077 41.5543C108.911 42.0025 110.752 41.6581 112.239 40.7347V39.8887C112.239 37.9297 110.648 36.3325 108.683 36.3325C106.717 36.3325 105.126 37.9297 105.126 39.8887Z" fill="white"/>
<path d="M144.294 31.1816H119.767V31.5548H144.294V31.1816Z" fill="#EBEBEB"/>
<path d="M144.294 33.7251H119.767V34.0983H144.294V33.7251Z" fill="#EBEBEB"/>
<path d="M144.294 36.269H119.767V36.6422H144.294V36.269Z" fill="#EBEBEB"/>
<path d="M131.923 38.813H119.767V39.1862H131.923V38.813Z" fill="#EBEBEB"/>
</svg>
