<svg width="20" height="21" viewBox="0 0 20 21" fill="none" xmlns="http://www.w3.org/2000/svg">
<g id="vuesax/linear/briefcase">
<g id="briefcase">
<path id="Vector" d="M6.66667 18.8333H13.3333C16.6833 18.8333 17.2833 17.4917 17.4583 15.8583L18.0833 9.19167C18.3083 7.15833 17.725 5.5 14.1667 5.5H5.83333C2.275 5.5 1.69166 7.15833 1.91666 9.19167L2.54166 15.8583C2.71666 17.4917 3.31666 18.8333 6.66667 18.8333Z" stroke="white" stroke-width="1.25" stroke-miterlimit="10" stroke-linecap="round" stroke-linejoin="round"/>
<path id="Vector_2" d="M6.66667 5.50001V4.83334C6.66667 3.35834 6.66667 2.16667 9.33334 2.16667H10.6667C13.3333 2.16667 13.3333 3.35834 13.3333 4.83334V5.50001" stroke="white" stroke-width="1.25" stroke-miterlimit="10" stroke-linecap="round" stroke-linejoin="round"/>
<path id="Vector_3" d="M11.6667 11.3333V12.1667C11.6667 12.175 11.6667 12.175 11.6667 12.1833C11.6667 13.0917 11.6583 13.8333 10 13.8333C8.34999 13.8333 8.33333 13.1 8.33333 12.1917V11.3333C8.33333 10.5 8.33333 10.5 9.16666 10.5H10.8333C11.6667 10.5 11.6667 10.5 11.6667 11.3333Z" stroke="white" stroke-width="1.25" stroke-miterlimit="10" stroke-linecap="round" stroke-linejoin="round"/>
<path id="Vector_4" d="M18.0417 9.66667C16.1167 11.0667 13.9167 11.9 11.6667 12.1833" stroke="white" stroke-width="1.25" stroke-miterlimit="10" stroke-linecap="round" stroke-linejoin="round"/>
<path id="Vector_5" d="M2.18333 9.89166C4.05833 11.175 6.175 11.95 8.33333 12.1917" stroke="white" stroke-width="1.25" stroke-miterlimit="10" stroke-linecap="round" stroke-linejoin="round"/>
</g>
</g>
</svg>
