<svg width="301" height="300" viewBox="0 0 301 300" fill="none" xmlns="http://www.w3.org/2000/svg">
<path d="M247.161 223.153H219.118L213.907 236.709H194.77L224.044 166.937H242.518L271.887 236.709H252.371L247.161 223.153ZM241.666 208.601L233.14 186.274L224.613 208.601H241.666Z" fill="#E0E0E0"/>
<path d="M117.338 146.748C117.338 156.737 109.082 162.6 93.56 162.6H62.3516V104.806H91.9088C107.1 104.806 114.531 110.998 114.531 119.915C114.531 125.447 111.724 129.905 106.77 132.465C113.292 134.776 117.338 139.73 117.338 146.748ZM78.5336 116.612V127.759H89.762C95.2106 127.759 98.018 125.86 98.018 122.144C98.018 118.511 95.2106 116.612 89.762 116.612H78.5336ZM100.825 144.931C100.825 140.968 97.853 139.069 92.2388 139.069H78.5336V150.793H92.2388C97.8536 150.793 100.825 148.894 100.825 144.931Z" fill="#EBEBEB"/>
<path d="M36.6976 281.641C36.6976 281.641 25.171 221.921 25.1446 209.637C25.1086 192.636 38.1226 185.867 38.1226 185.867L33.0658 171.446H60.8818L56.4898 185.767C56.4898 185.767 71.1364 193.531 69.0934 211.165C65.2744 244.134 59.1874 281.642 59.1874 281.642H36.6976V281.641Z" fill="#F5F5F5"/>
<path d="M63.2264 192.639C63.2252 192.646 63.1202 192.638 62.9162 192.616C62.7128 192.594 62.4086 192.568 62.0102 192.575C61.2182 192.579 60.0248 192.718 58.6334 193.316C57.2414 193.9 55.691 194.986 54.3002 196.626C53.6006 197.44 52.9388 198.384 52.3094 199.429C51.686 200.478 51.0602 201.612 50.561 202.865C50.0684 204.115 49.7018 205.504 49.7504 206.965C49.796 208.409 50.3402 209.923 51.3986 211.065C51.9344 211.623 52.601 212.082 53.3666 212.301C54.1262 212.525 54.9614 212.508 55.7372 212.239C57.287 211.689 58.562 210.295 59.0696 208.636C59.6234 206.965 59.0642 205.053 57.9056 203.647C56.7464 202.225 55.0094 201.237 53.1356 200.883C51.245 200.552 49.2404 200.857 47.3852 201.574C45.5264 202.297 43.7744 203.386 42.2204 204.726C39.1112 207.403 36.881 211.002 36.1406 214.804C35.7686 216.697 35.7746 218.639 36.2528 220.433C36.6758 222.233 37.6304 223.873 38.9936 224.98C39.6704 225.53 40.4636 225.925 41.297 226.036C42.1268 226.169 42.9806 225.988 43.6706 225.568C45.0746 224.705 45.764 223.027 45.7934 221.494C45.8108 220.718 45.6644 219.95 45.35 219.274C45.0344 218.601 44.5574 218.011 44.021 217.528C42.9332 216.559 41.579 216.028 40.2692 215.782C37.6094 215.287 35.126 215.995 33.2576 216.997C31.3628 218.011 30.0266 219.356 29.1224 220.559C28.2086 221.768 27.7244 222.858 27.4508 223.605C27.173 224.352 27.0812 224.766 27.0566 224.759C27.0566 224.759 27.1196 224.339 27.3746 223.577C27.6254 222.817 28.0916 221.706 28.997 220.468C29.8928 219.235 31.232 217.853 33.1502 216.801C35.0408 215.763 37.5764 215.014 40.319 215.505C41.6696 215.751 43.0766 216.287 44.2244 217.298C44.792 217.805 45.2924 218.414 45.6386 219.139C45.9788 219.862 46.1378 220.678 46.1228 221.501C46.0946 223.122 45.3902 224.906 43.8518 225.868C43.0922 226.335 42.1508 226.534 41.2466 226.393C40.3346 226.273 39.4814 225.847 38.7632 225.266C37.3208 224.104 36.3254 222.386 35.8832 220.527C35.3858 218.676 35.3762 216.673 35.756 214.73C36.5126 210.824 38.7866 207.157 41.9594 204.423C43.5482 203.055 45.3302 201.946 47.2418 201.204C49.1492 200.468 51.2234 200.149 53.204 200.499C55.1696 200.873 56.9774 201.905 58.199 203.407C58.8068 204.157 59.2616 205.027 59.4926 205.95C59.7392 206.868 59.6936 207.859 59.4194 208.743C58.8686 210.513 57.5246 211.979 55.8488 212.57C55.0106 212.859 54.092 212.876 53.2664 212.628C52.4372 212.386 51.7214 211.888 51.155 211.292C50.0366 210.073 49.4816 208.489 49.4402 206.975C49.3982 205.455 49.787 204.029 50.2964 202.761C50.8136 201.487 51.4532 200.35 52.0898 199.298C52.7336 198.249 53.4116 197.299 54.1286 196.48C55.5542 194.832 57.1478 193.743 58.5704 193.173C59.993 192.588 61.208 192.474 62.0078 192.495C62.8172 192.519 63.2264 192.639 63.2264 192.639Z" fill="#E0E0E0"/>
<path d="M63.9499 237.747C63.9499 237.747 64.0951 238.846 63.6955 240.784C63.4885 241.746 63.1291 242.911 62.4757 244.155C61.8313 245.397 60.8941 246.731 59.5609 247.903C58.2415 249.084 56.4991 250.066 54.4717 250.576C52.4557 251.087 50.1421 251.16 47.8807 250.48C45.6223 249.816 43.4695 248.358 41.9443 246.295C40.4107 244.259 39.4477 241.6 39.6655 238.859C39.7897 237.51 40.2667 236.119 41.3095 235.198C42.3433 234.253 43.8619 234.072 45.1051 234.447C46.3627 234.808 47.4655 235.659 48.0427 236.8C48.6169 237.936 48.6883 239.236 48.4279 240.395C48.1681 241.56 47.5981 242.614 46.8361 243.445C46.0711 244.278 45.1297 244.871 44.1673 245.283C42.2251 246.098 40.2157 246.22 38.4661 246.002C36.7045 245.791 35.1733 245.247 33.9277 244.606C32.6737 243.972 31.7083 243.227 30.9799 242.566C29.5291 241.221 29.0137 240.239 29.0137 240.239C29.0191 240.235 29.0653 240.286 29.1493 240.388C29.2459 240.509 29.3659 240.66 29.5141 240.846C29.8555 241.23 30.3409 241.816 31.0837 242.45C31.8193 243.086 32.7853 243.802 34.0285 244.407C35.2633 245.019 36.7735 245.533 38.4985 245.722C40.2121 245.918 42.1705 245.778 44.0371 244.979C44.9605 244.576 45.8587 243.999 46.5781 243.207C47.2939 242.418 47.8297 241.416 48.0697 240.316C48.3103 239.223 48.2347 238.012 47.7037 236.972C47.1805 235.94 46.1593 235.152 44.9989 234.822C43.8463 234.483 42.4945 234.652 41.5735 235.495C40.6369 236.319 40.1809 237.61 40.0633 238.897C39.8545 241.51 40.7767 244.092 42.2581 246.062C43.7317 248.063 45.8059 249.477 47.9869 250.128C50.1733 250.797 52.4245 250.74 54.3925 250.255C56.3713 249.772 58.0765 248.83 59.3767 247.69C60.6913 246.559 61.6273 245.263 62.2795 244.051C62.9413 242.837 63.3175 241.695 63.5449 240.75C63.7819 239.803 63.8371 239.043 63.8941 238.533C63.9073 238.295 63.9175 238.103 63.9265 237.948C63.9349 237.815 63.9427 237.747 63.9499 237.747Z" fill="#E0E0E0"/>
<path d="M58.7662 265.891C58.7296 265.969 57.5206 265.315 55.4152 264.705C54.8878 264.556 54.3106 264.398 53.6752 264.289C53.0482 264.143 52.3636 264.075 51.6472 263.981C50.2084 263.852 48.6148 263.831 46.9552 264.005C45.2974 264.2 43.7476 264.572 42.3724 265.016C41.6938 265.265 41.041 265.482 40.4614 265.763C39.8656 266.008 39.337 266.29 38.8558 266.551C36.9364 267.61 35.9014 268.513 35.8486 268.446C35.8306 268.425 36.0838 268.196 36.5596 267.799C36.7942 267.595 37.0894 267.358 37.459 267.116C37.8244 266.871 38.2264 266.566 38.7172 266.306C39.1966 266.025 39.7258 265.724 40.3252 265.462C40.9084 265.164 41.5672 264.931 42.2542 264.668C43.6468 264.197 45.2236 263.807 46.9114 263.608C48.601 263.431 50.2252 263.464 51.6868 263.616C52.4146 263.721 53.1088 263.803 53.743 263.965C54.385 264.089 54.9676 264.266 55.4974 264.434C56.0338 264.58 56.4928 264.789 56.9032 264.948C57.316 265.102 57.6568 265.268 57.9304 265.415C58.4812 265.699 58.7788 265.867 58.7662 265.891Z" fill="#E0E0E0"/>
<path d="M56.8261 186.619C56.8405 186.642 56.5129 186.87 55.9057 187.263C55.3027 187.662 54.3991 188.191 53.2567 188.797C50.9755 190.014 47.6755 191.446 43.8565 192.476C40.0333 193.497 36.4591 193.909 33.8755 193.997C32.5831 194.044 31.5361 194.039 30.8143 193.995C30.0925 193.958 29.6947 193.926 29.6953 193.898C29.6965 193.87 30.0961 193.851 30.8161 193.84C31.5361 193.835 32.5777 193.798 33.8605 193.715C36.4255 193.555 39.9619 193.103 43.7527 192.091C47.5399 191.069 50.8273 189.691 53.1277 188.546C54.2797 187.975 55.2001 187.486 55.8253 187.129C56.4559 186.778 56.8117 186.595 56.8261 186.619Z" fill="#E0E0E0"/>
<path d="M60.3288 172.13C60.324 172.17 59.6442 172.066 58.4124 172.065C57.186 172.071 55.386 172.206 53.2986 172.899C52.2576 173.243 51.1506 173.724 50.0454 174.384C49.4934 174.716 48.9426 175.091 48.4068 175.517C47.8656 175.941 47.343 176.405 46.9092 176.972C46.473 177.529 46.1118 178.184 45.993 178.893C45.8676 179.598 46.0962 180.356 46.6356 180.866C47.1666 181.389 47.9214 181.686 48.6924 181.904C49.4688 182.103 50.2986 182.35 51.0486 182.175C51.8124 182.005 52.254 181.258 52.3158 180.491C52.3962 179.711 52.1892 178.944 51.8496 178.251C51.183 176.849 50.004 175.806 48.7494 175.134C47.4882 174.449 46.1244 174.135 44.8518 174.078C43.5744 174.047 42.381 174.267 41.3412 174.598C39.2508 175.269 37.7544 176.297 36.7602 177.011C36.267 177.38 35.8926 177.68 35.6412 177.886C35.3904 178.094 35.2542 178.198 35.2446 178.188C35.2356 178.178 35.3532 178.053 35.5878 177.826C35.823 177.6 36.183 177.279 36.666 176.888C37.6404 176.13 39.1272 175.052 41.2542 174.33C42.3144 173.974 43.5336 173.729 44.862 173.748C46.1838 173.792 47.6016 174.105 48.9222 174.81C50.235 175.502 51.4854 176.59 52.2012 178.08C52.5618 178.809 52.8006 179.662 52.7106 180.531C52.6596 180.962 52.5456 181.409 52.2744 181.787C52.0146 182.169 51.5982 182.453 51.1458 182.562C50.2218 182.765 49.3812 182.484 48.585 182.286C47.7882 182.057 46.9752 181.748 46.3614 181.144C45.7356 180.555 45.4656 179.636 45.6168 178.834C45.7572 178.028 46.1562 177.332 46.6194 176.746C47.0796 176.151 47.6376 175.667 48.1902 175.241C48.7428 174.81 49.3092 174.432 49.8768 174.1C51.0132 173.438 52.1478 172.962 53.2128 172.63C55.3476 171.96 57.1776 171.867 58.4154 171.909C59.0364 171.934 59.5176 171.979 59.8398 172.034C60.1626 172.084 60.3306 172.116 60.3288 172.13Z" fill="#E0E0E0"/>
<path d="M268.131 26.0215H193.105V134.768H268.131V26.0215Z" fill="#E0E0E0"/>
<path d="M264.373 26.0215H189.348V134.768H264.373V26.0215Z" fill="#F5F5F5"/>
<path d="M255.051 37.7998H198.668V122.991H255.051V37.7998Z" fill="white"/>
<path d="M255.053 122.991C255.053 122.991 255.045 122.847 255.042 122.575C255.039 122.293 255.036 121.892 255.031 121.367C255.026 120.297 255.018 118.729 255.008 116.694C254.996 112.611 254.979 106.662 254.958 99.1454C254.935 84.1232 254.903 62.8514 254.866 37.8008L255.053 37.988C237.827 37.9934 218.739 37.9988 198.677 38.0048H198.67L198.874 37.8008C198.858 69.9386 198.844 99.5696 198.833 122.992L198.67 122.829C215.841 122.865 229.916 122.894 239.71 122.914C244.609 122.932 248.435 122.946 251.048 122.956C252.347 122.964 253.342 122.97 254.024 122.974C254.697 122.979 255.053 122.991 255.053 122.991C255.053 122.991 254.721 123.003 254.058 123.009C253.382 123.013 252.398 123.019 251.112 123.027C248.507 123.036 244.693 123.05 239.81 123.068C229.991 123.088 215.882 123.118 198.669 123.154L198.506 123.154V122.991C198.495 99.569 198.48 69.938 198.465 37.8002V37.5962H198.669H198.675C218.738 37.6022 237.826 37.6082 255.052 37.613H255.24L255.239 37.8002C255.201 62.9006 255.17 84.2156 255.147 99.2678C255.126 106.766 255.109 112.701 255.097 116.775C255.087 118.793 255.08 120.348 255.074 121.41C255.069 121.926 255.066 122.32 255.063 122.596C255.06 122.862 255.053 122.991 255.053 122.991Z" fill="#E0E0E0"/>
<path d="M264.584 26.0213C264.628 26.0555 264.119 26.7989 263.247 27.9641C262.375 29.1293 261.139 30.7151 259.727 32.4293C258.314 34.1435 256.995 35.6615 256.018 36.7403C255.041 37.8191 254.409 38.4611 254.368 38.4251C254.324 38.3873 254.879 37.6781 255.8 36.5525C256.805 35.3321 258.043 33.8309 259.412 32.1701C260.779 30.5093 262.015 29.0069 263.02 27.7859C263.949 26.6669 264.539 25.9865 264.584 26.0213Z" fill="#E0E0E0"/>
<path d="M255.34 122.717C258.14 127.17 261.446 131.305 265.174 135.016L255.34 122.717Z" fill="white"/>
<path d="M265.175 135.016C265.138 135.053 264.469 134.473 263.461 133.456C262.453 132.44 261.117 130.978 259.751 129.272C258.387 127.564 257.254 125.939 256.485 124.732C255.716 123.525 255.296 122.744 255.341 122.717C255.392 122.685 255.897 123.41 256.725 124.571C257.552 125.732 258.714 127.319 260.07 129.017C261.428 130.714 262.721 132.196 263.672 133.259C264.621 134.32 265.217 134.973 265.175 135.016Z" fill="#E0E0E0"/>
<path d="M189.338 134.683C192.614 130.641 195.889 126.6 199.165 122.558L189.338 134.683Z" fill="white"/>
<path d="M199.164 122.558C199.252 122.629 197.122 125.401 194.409 128.749C191.695 132.097 189.424 134.754 189.337 134.683C189.249 134.612 191.378 131.841 194.092 128.491C196.806 125.144 199.077 122.487 199.164 122.558Z" fill="#E0E0E0"/>
<path d="M189.349 26.0214C189.437 25.9512 191.573 28.5048 194.119 31.7232C196.665 34.9428 198.657 37.6092 198.569 37.6788C198.481 37.749 196.345 35.196 193.799 31.9764C191.252 28.758 189.26 26.0916 189.349 26.0214Z" fill="#E0E0E0"/>
<path d="M237.484 55.0967H218.605V108.701H237.484V55.0967Z" fill="#E0E0E0"/>
<path d="M276.105 233.508H264.578V247.212H276.105V233.508Z" fill="#F5F5F5"/>
<path d="M264.976 232.614H212.883V248.073H264.976V232.614Z" fill="#3282C4"/>
<path d="M276.455 233.914H263.58V232.614H276.455C276.814 232.614 277.105 232.905 277.105 233.264C277.106 233.623 276.815 233.914 276.455 233.914Z" fill="#3282C4"/>
<path d="M276.455 248.073H263.58V246.773H276.455C276.814 246.773 277.105 247.064 277.105 247.423C277.106 247.782 276.815 248.073 276.455 248.073Z" fill="#3282C4"/>
<g opacity="0.4">
<path d="M260.881 232.614H254.727V248.073H260.881V232.614Z" fill="black"/>
</g>
<g opacity="0.4">
<path d="M223.659 232.614H217.504V248.073H223.659V232.614Z" fill="black"/>
</g>
<path d="M276.105 235.774C276.105 235.812 273.61 235.843 270.533 235.843C267.455 235.843 264.961 235.812 264.961 235.774C264.961 235.737 267.455 235.706 270.533 235.706C273.61 235.706 276.105 235.737 276.105 235.774Z" fill="#E0E0E0"/>
<path d="M276.105 237.829C276.105 237.866 273.61 237.897 270.533 237.897C267.455 237.897 264.961 237.866 264.961 237.829C264.961 237.791 267.455 237.76 270.533 237.76C273.61 237.761 276.105 237.791 276.105 237.829Z" fill="#E0E0E0"/>
<path d="M276.105 240.36C276.105 240.398 273.61 240.428 270.533 240.428C267.455 240.428 264.961 240.398 264.961 240.36C264.961 240.322 267.455 240.292 270.533 240.292C273.61 240.291 276.105 240.322 276.105 240.36Z" fill="#E0E0E0"/>
<path d="M276.105 242.89C276.105 242.927 273.61 242.958 270.533 242.958C267.455 242.958 264.961 242.927 264.961 242.89C264.961 242.852 267.455 242.821 270.533 242.821C273.61 242.821 276.105 242.852 276.105 242.89Z" fill="#E0E0E0"/>
<path d="M276.105 245.42C276.105 245.458 273.61 245.488 270.533 245.488C267.455 245.488 264.961 245.458 264.961 245.42C264.961 245.382 267.455 245.352 270.533 245.352C273.61 245.352 276.105 245.382 276.105 245.42Z" fill="#E0E0E0"/>
<g opacity="0.2">
<path d="M251.416 238.968H227.98V241.751H251.416V238.968Z" fill="black"/>
</g>
<path d="M275.989 248.376H264.285V256.726H275.989V248.376Z" fill="#FAFAFA"/>
<path d="M264.415 248.073H214.607V257.029H264.415V248.073Z" fill="#455A64"/>
<path d="M264.053 248.679H276.632C276.8 248.679 276.935 248.544 276.935 248.376C276.935 248.209 276.8 248.073 276.632 248.073H264.053V248.679Z" fill="#455A64"/>
<path d="M264.053 257.029H276.684C276.823 257.029 276.935 256.916 276.935 256.777V256.674C276.935 256.535 276.823 256.423 276.684 256.423H264.053V257.029Z" fill="#455A64"/>
<path d="M275.989 249.962C275.989 250 273.398 250.03 270.202 250.03C267.006 250.03 264.416 250 264.416 249.962C264.416 249.924 267.006 249.894 270.202 249.894C273.398 249.894 275.989 249.924 275.989 249.962Z" fill="#E0E0E0"/>
<path d="M275.989 251.542C275.989 251.58 273.398 251.61 270.202 251.61C267.006 251.61 264.416 251.58 264.416 251.542C264.416 251.504 267.006 251.474 270.202 251.474C273.398 251.474 275.989 251.504 275.989 251.542Z" fill="#E0E0E0"/>
<path d="M275.989 253.122C275.989 253.159 273.398 253.19 270.202 253.19C267.006 253.19 264.416 253.159 264.416 253.122C264.416 253.084 267.006 253.053 270.202 253.053C273.398 253.053 275.989 253.084 275.989 253.122Z" fill="#E0E0E0"/>
<path d="M275.989 254.701C275.989 254.739 273.398 254.77 270.202 254.77C267.006 254.77 264.416 254.739 264.416 254.701C264.416 254.663 267.006 254.633 270.202 254.633C273.398 254.633 275.989 254.663 275.989 254.701Z" fill="#E0E0E0"/>
<path d="M277.762 257.824H265.816V280.459H277.762V257.824Z" fill="#EBEBEB"/>
<path d="M265.817 257.029H209.742V281.571H265.817V257.029Z" fill="#3282C4"/>
<path d="M278.697 281.571H264.283V279.979H278.697C279.137 279.979 279.493 280.336 279.493 280.775C279.493 281.215 279.137 281.571 278.697 281.571Z" fill="#3282C4"/>
<path d="M278.833 258.621H264.283V257.029H278.833C279.197 257.029 279.493 257.325 279.493 257.689V257.96C279.493 258.325 279.197 258.621 278.833 258.621Z" fill="#3282C4"/>
<path d="M277.764 260.859C277.764 260.897 275.09 260.928 271.791 260.928C268.492 260.928 265.818 260.897 265.818 260.859C265.818 260.822 268.492 260.791 271.791 260.791C275.09 260.791 277.764 260.822 277.764 260.859Z" fill="#E0E0E0"/>
<path d="M277.764 263.762C277.764 263.8 275.09 263.831 271.791 263.831C268.492 263.831 265.818 263.8 265.818 263.762C265.818 263.724 268.492 263.694 271.791 263.694C275.09 263.694 277.764 263.724 277.764 263.762Z" fill="#E0E0E0"/>
<path d="M277.764 266.666C277.764 266.703 275.09 266.734 271.791 266.734C268.492 266.734 265.818 266.703 265.818 266.666C265.818 266.628 268.492 266.597 271.791 266.597C275.09 266.597 277.764 266.628 277.764 266.666Z" fill="#E0E0E0"/>
<path d="M277.764 269.568C277.764 269.606 275.09 269.637 271.791 269.637C268.492 269.637 265.818 269.606 265.818 269.568C265.818 269.531 268.492 269.5 271.791 269.5C275.09 269.5 277.764 269.531 277.764 269.568Z" fill="#E0E0E0"/>
<path d="M277.764 272.471C277.764 272.509 275.09 272.54 271.791 272.54C268.492 272.54 265.818 272.509 265.818 272.471C265.818 272.433 268.492 272.403 271.791 272.403C275.09 272.403 277.764 272.434 277.764 272.471Z" fill="#E0E0E0"/>
<path d="M277.764 275.375C277.764 275.412 275.09 275.443 271.791 275.443C268.492 275.443 265.818 275.412 265.818 275.375C265.818 275.337 268.492 275.306 271.791 275.306C275.09 275.306 277.764 275.337 277.764 275.375Z" fill="#E0E0E0"/>
<path d="M277.764 278.277C277.764 278.315 275.09 278.346 271.791 278.346C268.492 278.346 265.818 278.315 265.818 278.277C265.818 278.24 268.492 278.209 271.791 278.209C275.09 278.209 277.764 278.24 277.764 278.277Z" fill="#E0E0E0"/>
<g opacity="0.3">
<path d="M223.659 257.029L215.938 281.571H209.742V257.029H223.659Z" fill="black"/>
</g>
<path d="M216.502 267.74H218.683C220.253 267.74 221.33 268.686 221.33 270.14C221.33 271.594 220.253 272.54 218.683 272.54H216.502V267.74ZM218.628 271.628C219.581 271.628 220.205 271.059 220.205 270.14C220.205 269.221 219.581 268.652 218.628 268.652H217.613V271.628H218.628Z" fill="white"/>
<path d="M222.168 267.74H223.279V272.54H222.168V267.74Z" fill="white"/>
<path d="M224.115 270.14C224.115 268.693 225.226 267.657 226.722 267.657C227.551 267.657 228.244 267.959 228.696 268.508L227.983 269.166C227.661 268.796 227.256 268.603 226.776 268.603C225.878 268.603 225.241 269.234 225.241 270.14C225.241 271.045 225.879 271.676 226.776 271.676C227.256 271.676 227.661 271.484 227.983 271.107L228.696 271.766C228.244 272.321 227.551 272.622 226.714 272.622C225.226 272.622 224.115 271.586 224.115 270.14Z" fill="white"/>
<path d="M230.391 268.645H228.855V267.74H233.039V268.645H231.502V272.54H230.391L230.391 268.645Z" fill="white"/>
<path d="M233.637 267.74H234.748V272.54H233.637V267.74Z" fill="white"/>
<path d="M235.584 270.14C235.584 268.713 236.695 267.657 238.211 267.657C239.719 267.657 240.837 268.706 240.837 270.14C240.837 271.573 239.719 272.622 238.211 272.622C236.695 272.622 235.584 271.566 235.584 270.14ZM239.713 270.14C239.713 269.228 239.068 268.603 238.211 268.603C237.353 268.603 236.709 269.227 236.709 270.14C236.709 271.052 237.353 271.676 238.211 271.676C239.068 271.676 239.713 271.051 239.713 270.14Z" fill="white"/>
<path d="M246.078 267.74V272.54H245.166L242.773 269.626V272.54H241.676V267.74H242.595L244.981 270.654V267.74H246.078Z" fill="white"/>
<path d="M250.38 271.511H248.151L247.725 272.54H246.588L248.727 267.74H249.824L251.97 272.54H250.805L250.38 271.511ZM250.03 270.668L249.269 268.83L248.507 270.668H250.03Z" fill="white"/>
<path d="M255.531 272.54L254.606 271.203H254.55H253.584V272.54H252.473V267.74H254.55C255.833 267.74 256.635 268.405 256.635 269.481C256.635 270.201 256.272 270.729 255.648 270.997L256.724 272.539H255.531V272.54ZM254.489 268.645H253.584V270.318H254.489C255.168 270.318 255.511 270.003 255.511 269.481C255.511 268.953 255.168 268.645 254.489 268.645Z" fill="white"/>
<path d="M259.749 270.839V272.54H258.638V270.826L256.779 267.74H257.959L259.242 269.872L260.524 267.74H261.614L259.749 270.839Z" fill="white"/>
<path d="M229.744 250.95L229.406 252.634H231.5L231.449 252.893H229.355L229.006 254.633H228.719L229.507 250.691H232.142L232.085 250.951H229.744V250.95Z" fill="white"/>
<path d="M234.105 251.671L234.055 251.947C234.02 251.947 233.998 251.942 233.965 251.942C233.3 251.942 232.861 252.342 232.703 253.125L232.399 254.634H232.117L232.703 251.695H232.979L232.855 252.314C233.114 251.891 233.514 251.671 234.105 251.671Z" fill="white"/>
<path d="M234.5 253.226C234.494 253.288 234.488 253.35 234.488 253.412C234.488 254.048 234.86 254.403 235.575 254.403C235.992 254.403 236.352 254.256 236.583 254.008L236.713 254.206C236.454 254.487 236.021 254.656 235.553 254.656C234.719 254.656 234.213 254.194 234.213 253.423C234.213 252.421 234.894 251.671 235.818 251.671C236.583 251.671 237.068 252.133 237.068 252.899C237.068 253.012 237.051 253.13 237.034 253.226H234.5ZM234.533 253.006H236.796C236.802 252.955 236.802 252.91 236.802 252.859C236.802 252.251 236.397 251.914 235.811 251.914C235.164 251.914 234.674 252.352 234.533 253.006Z" fill="white"/>
<path d="M240.63 252.612C240.63 252.713 240.618 252.82 240.596 252.933L240.258 254.633H239.976L240.315 252.933C240.337 252.831 240.343 252.741 240.343 252.651C240.343 252.195 240.067 251.925 239.515 251.925C238.845 251.925 238.372 252.302 238.225 253.034L237.905 254.633H237.623L238.209 251.694H238.485L238.372 252.252C238.659 251.852 239.087 251.671 239.588 251.671C240.264 251.671 240.63 252.031 240.63 252.612Z" fill="white"/>
<path d="M241.373 253.434C241.373 252.415 242.077 251.671 243.063 251.671C243.586 251.671 243.969 251.858 244.177 252.223L243.946 252.363C243.766 252.065 243.462 251.925 243.045 251.925C242.24 251.925 241.655 252.555 241.655 253.416C241.655 254.042 242.038 254.402 242.719 254.402C243.107 254.402 243.468 254.25 243.693 253.974L243.89 254.132C243.631 254.465 243.18 254.655 242.697 254.655C241.879 254.655 241.373 254.178 241.373 253.434Z" fill="white"/>
<path d="M247.497 252.611C247.497 252.713 247.485 252.82 247.463 252.932L247.125 254.633H246.844L247.182 252.932C247.204 252.831 247.21 252.741 247.21 252.65C247.21 252.194 246.934 251.924 246.382 251.924C245.712 251.924 245.239 252.302 245.093 253.034L244.772 254.633H244.49L245.324 250.455H245.606L245.251 252.24C245.538 251.846 245.96 251.671 246.456 251.671C247.131 251.671 247.497 252.031 247.497 252.611Z" fill="white"/>
<path d="M230.27 237.928H231.003L230.214 241.87H229.482L230.27 237.928Z" fill="white"/>
<path d="M232.2 240.862C232.194 240.907 232.189 240.952 232.189 240.992C232.189 241.2 232.296 241.33 232.543 241.33C232.679 241.33 232.819 241.291 232.938 241.212L233.061 241.73C232.848 241.865 232.582 241.91 232.335 241.91C231.822 241.91 231.473 241.612 231.473 241.105C231.473 241.031 231.479 240.953 231.496 240.868L231.783 239.449H231.293L231.406 238.886H231.895L232.031 238.199H232.735L232.594 238.886H233.405L233.292 239.449H232.481L232.2 240.862Z" fill="white"/>
<path d="M237.03 238.864L236.434 241.87H235.764L235.826 241.56C235.573 241.786 235.241 241.909 234.846 241.909C234.109 241.909 233.523 241.42 233.523 240.586C233.523 239.562 234.255 238.83 235.218 238.83C235.685 238.83 236.04 238.987 236.243 239.308L236.327 238.864H237.03ZM236.063 240.181C236.063 239.714 235.775 239.427 235.269 239.427C234.672 239.427 234.233 239.887 234.233 240.552C234.233 241.02 234.52 241.307 235.026 241.307C235.623 241.307 236.063 240.846 236.063 240.181Z" fill="white"/>
<path d="M238.189 237.692H238.893L238.059 241.87H237.355L238.189 237.692Z" fill="white"/>
<path d="M239.579 238.864H240.283L239.686 241.87H238.982L239.579 238.864ZM239.669 237.974C239.669 237.721 239.861 237.524 240.148 237.524C240.401 237.524 240.571 237.693 240.571 237.901C240.571 238.177 240.379 238.368 240.092 238.368C239.838 238.368 239.669 238.188 239.669 237.974Z" fill="white"/>
<path d="M244.146 238.864L243.549 241.87H242.879L242.941 241.56C242.688 241.786 242.356 241.909 241.962 241.909C241.224 241.909 240.639 241.42 240.639 240.586C240.639 239.562 241.371 238.83 242.333 238.83C242.8 238.83 243.155 238.987 243.358 239.308L243.442 238.864H244.146ZM243.178 240.181C243.178 239.714 242.89 239.427 242.384 239.427C241.787 239.427 241.347 239.887 241.347 240.552C241.347 241.02 241.635 241.307 242.141 241.307C242.738 241.307 243.178 240.846 243.178 240.181Z" fill="white"/>
<path d="M247.804 239.843C247.804 239.956 247.788 240.074 247.765 240.204L247.432 241.87H246.729L247.055 240.22C247.072 240.136 247.078 240.058 247.078 239.989C247.078 239.641 246.886 239.443 246.475 239.443C245.962 239.443 245.608 239.725 245.49 240.31L245.175 241.87H244.471L245.067 238.864H245.737L245.67 239.196C245.946 238.948 246.306 238.83 246.706 238.83C247.371 238.829 247.804 239.184 247.804 239.843Z" fill="white"/>
<path d="M118.063 81.9072H35.9688V86.1324H118.063V81.9072Z" fill="#455A64"/>
<path d="M102.945 39.1447C102.95 39.1417 102.93 39.0979 102.887 39.0139C102.833 38.9143 102.768 38.7937 102.689 38.6467C102.507 38.3275 102.225 37.8649 101.822 37.2943C101.01 36.1741 99.7006 34.5589 97.5424 33.2497C96.4666 32.6095 95.176 32.0545 93.7024 31.8391C92.2372 31.6303 90.6064 31.7389 89.0374 32.3281C87.4774 32.9011 85.9588 33.9931 85.0462 35.5969C84.1288 37.1977 83.833 39.0775 83.2972 40.8739C83.0248 41.7727 82.681 42.6379 82.1824 43.3909C81.6826 44.1421 81.001 44.7343 80.287 45.2587C79.573 45.7855 78.8266 46.2595 78.1504 46.8121C77.4742 47.3665 76.8886 48.0061 76.4146 48.6931C75.4612 50.0701 74.9236 51.5935 74.6356 53.0377C74.344 54.4873 74.3146 55.8739 74.398 57.1201C74.5744 59.6197 75.1006 61.5817 75.4426 62.9275C75.6202 63.6007 75.769 64.1203 75.8716 64.4719C75.9754 64.8229 76.0354 65.0065 76.0462 65.0035C76.057 65.0005 76.0186 64.812 75.9352 64.4551C75.844 64.0717 75.721 63.5521 75.5656 62.8969C75.262 61.5445 74.7724 59.5801 74.6278 57.1069C74.56 55.8733 74.6026 54.5113 74.9002 53.0917C75.1936 51.6775 75.73 50.1937 76.6606 48.8647C77.1238 48.2005 77.6896 47.5879 78.3466 47.0527C79.006 46.5175 79.7488 46.0483 80.4766 45.5149C81.2026 44.9851 81.9214 44.3653 82.4512 43.5715C82.9768 42.7801 83.3314 41.8825 83.6086 40.9681C84.151 39.1405 84.4462 37.2871 85.3228 35.7547C86.1886 34.2241 87.6364 33.1705 89.143 32.6083C90.6568 32.0305 92.2408 31.9135 93.6658 32.1055C95.095 32.3023 96.3646 32.8315 97.4266 33.4471C99.559 34.7059 100.884 36.2791 101.721 37.3687C102.137 37.9237 102.435 38.3731 102.633 38.6803C102.828 38.9905 102.935 39.1507 102.945 39.1447Z" fill="#E0E0E0"/>
<path d="M79.4491 45.7341C79.9441 45.2739 80.1847 45.5943 80.8501 45.7149C81.5149 45.8361 82.1173 46.1901 82.6459 46.6113C84.9469 48.4449 85.9639 51.7383 85.0981 54.5505C82.9825 54.6663 80.8441 53.5425 79.7389 51.7353C78.6337 49.9275 78.6091 47.5119 79.6759 45.6819" fill="#E0E0E0"/>
<path d="M99.7734 36.4823C100.022 35.8541 100.378 36.0395 101.03 35.8625C101.682 35.6855 102.378 35.7461 103.036 35.8991C105.902 36.5651 108.237 39.1007 108.665 42.0113C106.805 43.0259 104.392 42.9317 102.616 41.7749C100.841 40.6187 99.7794 38.4485 99.9558 36.3371" fill="#E0E0E0"/>
<path d="M74.973 58.2543C76.3194 56.6979 78.4008 55.8069 80.4564 55.9071C82.512 56.0073 84.4974 57.0963 85.686 58.7757C84.1848 60.1509 82.1658 60.9471 80.13 60.9669C78.0942 60.9861 76.0602 60.0501 74.5332 58.7031" fill="#E0E0E0"/>
<path d="M76.6423 48.9036C74.5777 48.9636 72.5059 48.039 71.1709 46.4622C69.8365 44.8854 69.2665 42.6894 69.6667 40.6626C71.8285 40.167 74.2339 40.9416 75.7003 42.6054C77.1667 44.2692 77.6335 46.7526 76.8709 48.8352" fill="#E0E0E0"/>
<path d="M83.7959 37.912C81.8681 38.6548 79.6067 38.4712 77.8241 37.4272C76.0415 36.3838 74.7743 34.5016 74.4785 32.4568C76.3529 31.2712 78.8789 31.2028 80.8151 32.2846C82.7513 33.3664 84.0167 35.5534 83.9891 37.7716" fill="#E0E0E0"/>
<path d="M86.1936 34.3231C88.1214 33.5803 90.3828 33.7639 92.1654 34.8073C93.948 35.8507 95.2152 37.733 95.511 39.7772C93.6366 40.9628 91.1106 41.0317 89.1744 39.9499C87.2382 38.8681 85.9728 36.6811 86.0004 34.4629" fill="#E0E0E0"/>
<path d="M89.0524 32.3907C87.0958 31.7289 85.474 30.1419 84.7714 28.1997C84.0682 26.2575 84.2974 24.0003 85.3774 22.2393C87.5764 22.5267 89.5624 24.0885 90.3592 26.1585C91.156 28.2285 90.73 30.7191 89.2912 32.4069" fill="#E0E0E0"/>
<path d="M96.3761 32.7407C95.6717 30.7991 95.9003 28.5413 96.9791 26.7797C98.0579 25.0181 99.9647 23.7887 102.014 23.5337C103.163 25.4315 103.181 27.9581 102.061 29.8721C100.941 31.7867 98.7293 33.0083 96.5123 32.9369" fill="#E0E0E0"/>
<path d="M66.8458 82.2584L62.9434 57.7622L92.8528 58.1252L89.9026 81.9386" fill="#263238"/>
<path d="M79.7515 53.2869C81.3577 54.2901 83.2417 54.4497 84.7153 53.7075C86.1889 52.9647 87.2197 51.3357 87.4309 49.4163C85.7827 48.6279 83.9821 48.5361 82.4755 49.1625C80.9695 49.7895 79.7719 51.1293 79.1797 52.8495" fill="#3282C4"/>
<path d="M93.4234 58.5621C95.0296 59.5653 96.9136 59.7249 98.3872 58.9827C99.8608 58.2399 100.892 56.6109 101.103 54.6915C99.4546 53.9031 97.6534 53.8107 96.1474 54.4377C94.6414 55.0647 93.4438 56.4045 92.8516 58.1247" fill="#3282C4"/>
<path d="M85.7501 46.7812C86.5397 48.5026 88.0259 49.672 89.6651 49.8616C91.3043 50.0518 93.0611 49.258 94.2929 47.7706C93.3497 46.2058 91.8965 45.1384 90.2939 44.8336C88.6913 44.5288 86.9543 44.9896 85.5137 46.1008" fill="#3282C4"/>
<path d="M90.7405 52.8849C88.8469 52.8573 87.1525 53.6961 86.2759 55.0941C85.3993 56.4921 85.3603 58.4193 86.1733 60.1713C87.9919 59.9925 89.5801 59.1399 90.5449 57.8241C91.5091 56.5083 91.8403 54.7419 91.4563 52.9635" fill="#3282C4"/>
<path d="M95.5588 62.5275C94.7344 64.2327 94.7794 66.1227 95.677 67.5075C96.5746 68.8923 98.305 69.7413 100.236 69.7443C100.842 68.0205 100.739 66.2205 99.9538 64.7907C99.1678 63.3609 97.7512 62.6541 95.977 62.2515" fill="#3282C4"/>
<path d="M103.508 63.6611C103.479 63.6983 103.183 63.2297 102.325 62.9075C101.903 62.7455 101.349 62.6447 100.703 62.6231C100.056 62.5961 99.3214 62.6855 98.4958 62.7527C97.6774 62.8085 96.733 62.8649 95.779 62.5199C94.8154 62.1869 94.0216 61.3463 93.5356 60.3515C93.0244 59.3555 92.7922 58.2005 92.5684 57.0437C92.3362 55.8905 92.0872 54.6779 91.4164 53.6489C90.7546 52.6121 89.7892 51.8399 88.8874 51.0785C87.9796 50.3213 87.0904 49.5545 86.467 48.6221C85.2268 46.7489 85.0156 44.6261 85.2628 42.9929C85.5118 41.3363 86.1658 40.1045 86.731 39.3737C87.0232 39.0113 87.2602 38.7407 87.4486 38.5835C87.6274 38.4173 87.724 38.3345 87.7318 38.3429C87.7396 38.3513 87.6574 38.4497 87.4954 38.6291C87.3232 38.7995 87.1054 39.0803 86.8336 39.4475C86.3092 40.1885 85.7038 41.4071 85.4908 43.0235C85.2778 44.6177 85.5136 46.6703 86.7148 48.4541C87.3148 49.3379 88.1812 50.0813 89.0914 50.8349C89.9932 51.5933 90.9874 52.3781 91.6894 53.4743C92.401 54.5705 92.6506 55.8281 92.8804 56.9825C93.1012 58.1465 93.3214 59.2625 93.8032 60.2189C94.2634 61.1741 94.9888 61.9499 95.8738 62.2685C96.7528 62.6009 97.669 62.5667 98.4808 62.5247C99.2968 62.4731 100.049 62.3975 100.712 62.4431C101.372 62.4827 101.94 62.6045 102.372 62.7911C102.806 62.9717 103.1 63.1997 103.272 63.3731C103.363 63.4553 103.418 63.5333 103.457 63.5819C103.494 63.6305 103.512 63.6581 103.508 63.6611Z" fill="#3282C4"/>
<path d="M103.508 63.6611C103.479 63.6983 103.183 63.2297 102.325 62.9075C101.903 62.7455 101.349 62.6447 100.703 62.6231C100.056 62.5961 99.3214 62.6855 98.4958 62.7527C97.6774 62.8085 96.733 62.8649 95.779 62.5199C94.8154 62.1869 94.0216 61.3463 93.5356 60.3515C93.0244 59.3555 92.7922 58.2005 92.5684 57.0437C92.3362 55.8905 92.0872 54.6779 91.4164 53.6489C90.7546 52.6121 89.7892 51.8399 88.8874 51.0785C87.9796 50.3213 87.0904 49.5545 86.467 48.6221C85.2268 46.7489 85.0156 44.6261 85.2628 42.9929C85.5118 41.3363 86.1658 40.1045 86.731 39.3737C87.0232 39.0113 87.2602 38.7407 87.4486 38.5835C87.6274 38.4173 87.724 38.3345 87.7318 38.3429C87.7396 38.3513 87.6574 38.4497 87.4954 38.6291C87.3232 38.7995 87.1054 39.0803 86.8336 39.4475C86.3092 40.1885 85.7038 41.4071 85.4908 43.0235C85.2778 44.6177 85.5136 46.6703 86.7148 48.4541C87.3148 49.3379 88.1812 50.0813 89.0914 50.8349C89.9932 51.5933 90.9874 52.3781 91.6894 53.4743C92.401 54.5705 92.6506 55.8281 92.8804 56.9825C93.1012 58.1465 93.3214 59.2625 93.8032 60.2189C94.2634 61.1741 94.9888 61.9499 95.8738 62.2685C96.7528 62.6009 97.669 62.5667 98.4808 62.5247C99.2968 62.4731 100.049 62.3975 100.712 62.4431C101.372 62.4827 101.94 62.6045 102.372 62.7911C102.806 62.9717 103.1 63.1997 103.272 63.3731C103.363 63.4553 103.418 63.5333 103.457 63.5819C103.494 63.6305 103.512 63.6581 103.508 63.6611Z" fill="#3282C4"/>
<path d="M46.4133 66.171C46.5375 63.6732 45.3303 61.1472 43.3077 59.6754C41.2857 58.2036 38.5107 57.831 36.1719 58.7178C37.8969 62.6862 41.8431 65.5986 46.1439 66.078" fill="#3282C4"/>
<path d="M44.4375 67.2137C42.9753 68.8187 43.0695 71.4035 44.1153 73.3061C45.1611 75.2087 46.9629 76.5653 48.7671 77.7737C49.3749 75.7277 49.2921 73.4825 48.5343 71.4869C47.7765 69.4913 46.3491 67.7567 44.5365 66.6299" fill="#3282C4"/>
<path d="M51.5225 59.6818C51.7547 62.0182 52.9763 64.24 54.8237 65.6884C56.6717 67.1368 59.1203 67.792 61.4447 67.4596C60.8777 65.1094 59.9339 62.7406 58.1177 61.1446C56.3015 59.5486 53.4383 58.9558 51.4277 60.2986" fill="#3282C4"/>
<path d="M51.4769 57.2838C51.1103 55.1442 48.9983 53.5914 46.8371 53.3904C44.6753 53.1888 42.5381 54.1122 40.8047 55.4196C42.1025 56.9058 43.9787 57.8724 45.9419 58.0662C47.9051 58.26 49.9343 57.6792 51.4973 56.4756" fill="#3282C4"/>
<path d="M40.3336 75.4861C38.2798 77.2393 37.7656 80.3629 38.6188 82.9249C39.472 85.4869 41.4712 87.5293 43.7176 89.0287C44.5804 86.4889 45.1216 83.7655 44.6662 81.1219C44.2108 78.4783 42.619 75.9247 40.162 74.8477" fill="#3282C4"/>
<path d="M51.1426 51.2798C52.225 49.685 54.0724 48.6362 55.9966 48.5234C57.9208 48.4106 59.878 49.2374 61.1392 50.6948C60.3058 52.5638 58.3444 53.8736 56.2984 53.9264C54.2524 53.9792 52.2262 52.772 51.298 50.948" fill="#3282C4"/>
<path d="M53.6595 45.1094C51.4485 45.7814 48.9561 45.4622 46.9857 44.2544C45.0159 43.0466 43.6005 40.9694 43.1973 38.6942C44.8431 38.5484 46.5123 38.4752 48.1389 38.7662C49.7655 39.0572 51.3609 39.7382 52.5141 40.9214C53.6679 42.1046 53.9961 43.4912 53.6595 45.1094Z" fill="#3282C4"/>
<path d="M58.4052 43.512C56.88 42.2652 55.9518 40.3176 55.9434 38.3472C55.9356 36.3768 56.8476 34.422 58.3626 33.1626C59.8404 34.959 60.8592 37.131 61.2954 39.4158C61.4592 40.272 61.5396 41.1732 61.2732 42.0036C61.0068 42.834 60.3258 43.578 59.4624 43.698" fill="#3282C4"/>
<g opacity="0.4">
<path d="M46.4133 66.171C46.5375 63.6732 45.3303 61.1472 43.3077 59.6754C41.2857 58.2036 38.5107 57.831 36.1719 58.7178C37.8969 62.6862 41.8431 65.5986 46.1439 66.078" fill="black"/>
</g>
<g opacity="0.4">
<path d="M44.4375 67.2137C42.9753 68.8187 43.0695 71.4035 44.1153 73.3061C45.1611 75.2087 46.9629 76.5653 48.7671 77.7737C49.3749 75.7277 49.2921 73.4825 48.5343 71.4869C47.7765 69.4913 46.3491 67.7567 44.5365 66.6299" fill="black"/>
</g>
<g opacity="0.4">
<path d="M51.5225 59.6818C51.7547 62.0182 52.9763 64.24 54.8237 65.6884C56.6717 67.1368 59.1203 67.792 61.4447 67.4596C60.8777 65.1094 59.9339 62.7406 58.1177 61.1446C56.3015 59.5486 53.4383 58.9558 51.4277 60.2986" fill="black"/>
</g>
<g opacity="0.4">
<path d="M51.4769 57.2838C51.1103 55.1442 48.9983 53.5914 46.8371 53.3904C44.6753 53.1888 42.5381 54.1122 40.8047 55.4196C42.1025 56.9058 43.9787 57.8724 45.9419 58.0662C47.9051 58.26 49.9343 57.6792 51.4973 56.4756" fill="black"/>
</g>
<g opacity="0.4">
<path d="M40.3336 75.4861C38.2798 77.2393 37.7656 80.3629 38.6188 82.9249C39.472 85.4869 41.4712 87.5293 43.7176 89.0287C44.5804 86.4889 45.1216 83.7655 44.6662 81.1219C44.2108 78.4783 42.619 75.9247 40.162 74.8477" fill="black"/>
</g>
<g opacity="0.4">
<path d="M51.1426 51.2798C52.225 49.685 54.0724 48.6362 55.9966 48.5234C57.9208 48.4106 59.878 49.2374 61.1392 50.6948C60.3058 52.5638 58.3444 53.8736 56.2984 53.9264C54.2524 53.9792 52.2262 52.772 51.298 50.948" fill="black"/>
</g>
<g opacity="0.4">
<path d="M53.6595 45.1094C51.4485 45.7814 48.9561 45.4622 46.9857 44.2544C45.0159 43.0466 43.6005 40.9694 43.1973 38.6942C44.8431 38.5484 46.5123 38.4752 48.1389 38.7662C49.7655 39.0572 51.3609 39.7382 52.5141 40.9214C53.6679 42.1046 53.9961 43.4912 53.6595 45.1094Z" fill="black"/>
</g>
<g opacity="0.4">
<path d="M58.4052 43.512C56.88 42.2652 55.9518 40.3176 55.9434 38.3472C55.9356 36.3768 56.8476 34.422 58.3626 33.1626C59.8404 34.959 60.8592 37.131 61.2954 39.4158C61.4592 40.272 61.5396 41.1732 61.2732 42.0036C61.0068 42.834 60.3258 43.578 59.4624 43.698" fill="black"/>
</g>
<path d="M66.6093 58.5498C66.6039 58.5492 66.6039 58.4922 66.6093 58.3806C66.6171 58.251 66.6273 58.089 66.6393 57.888C66.6669 57.4554 66.7071 56.8176 66.7221 55.9956C66.7263 54.3714 66.7233 51.918 65.6103 49.2C65.0403 47.8644 64.1775 46.4682 62.8779 45.3546C61.6035 44.2266 59.8227 43.4748 57.9039 43.5246C56.9535 43.5432 55.9737 43.7598 55.0983 44.2272C54.2121 44.6778 53.4723 45.4188 52.9305 46.2972C51.8463 48.0852 51.5775 50.331 51.6723 52.5456C51.7509 54.7764 52.0695 56.9784 51.8217 59.121C51.6963 60.186 51.4401 61.2246 51.0033 62.169C50.5743 63.114 49.9545 63.9636 49.1631 64.5804C48.3759 65.2098 47.4597 65.5626 46.6011 65.8914C45.7359 66.2148 44.9061 66.531 44.1849 66.987C42.7299 67.8852 41.6721 69.1518 41.0133 70.443C40.3473 71.7396 40.1019 73.0692 40.0977 74.2236C40.0893 75.384 40.3155 76.3734 40.5771 77.1456C41.1189 78.6972 41.7555 79.3944 41.7087 79.4196C41.7045 79.4226 41.6673 79.3794 41.5989 79.2912C41.5323 79.2018 41.4261 79.0734 41.3109 78.8886C41.0697 78.5274 40.7427 77.967 40.4583 77.187C40.1745 76.4106 39.9261 75.408 39.9165 74.2236C39.9033 73.0458 40.1379 71.6772 40.8087 70.3392C41.4717 69.0072 42.5475 67.6956 44.0427 66.7578C45.5217 65.7732 47.4741 65.5284 48.9777 64.3452C50.4873 63.1596 51.2751 61.1418 51.5061 59.0832C51.7449 56.9964 51.4293 54.81 51.3483 52.5552C51.2541 50.3136 51.5217 48 52.6599 46.1298C53.2287 45.2106 54.0165 44.4258 54.9543 43.9518C55.8801 43.461 56.9073 43.2396 57.8985 43.224C59.8953 43.179 61.7493 43.9782 63.0537 45.1494C64.3857 46.3074 65.2545 47.7432 65.8221 49.11C66.3861 50.4888 66.6369 51.822 66.7641 52.9884C66.8841 54.159 66.8793 55.173 66.8487 55.9974C66.8145 56.8224 66.7539 57.4602 66.7047 57.8916C66.6795 58.0914 66.6591 58.2528 66.6429 58.3818C66.6261 58.494 66.6147 58.5504 66.6093 58.5498Z" fill="#3282C4"/>
<g opacity="0.4">
<path d="M66.6093 58.5498C66.6039 58.5492 66.6039 58.4922 66.6093 58.3806C66.6171 58.251 66.6273 58.089 66.6393 57.888C66.6669 57.4554 66.7071 56.8176 66.7221 55.9956C66.7263 54.3714 66.7233 51.918 65.6103 49.2C65.0403 47.8644 64.1775 46.4682 62.8779 45.3546C61.6035 44.2266 59.8227 43.4748 57.9039 43.5246C56.9535 43.5432 55.9737 43.7598 55.0983 44.2272C54.2121 44.6778 53.4723 45.4188 52.9305 46.2972C51.8463 48.0852 51.5775 50.331 51.6723 52.5456C51.7509 54.7764 52.0695 56.9784 51.8217 59.121C51.6963 60.186 51.4401 61.2246 51.0033 62.169C50.5743 63.114 49.9545 63.9636 49.1631 64.5804C48.3759 65.2098 47.4597 65.5626 46.6011 65.8914C45.7359 66.2148 44.9061 66.531 44.1849 66.987C42.7299 67.8852 41.6721 69.1518 41.0133 70.443C40.3473 71.7396 40.1019 73.0692 40.0977 74.2236C40.0893 75.384 40.3155 76.3734 40.5771 77.1456C41.1189 78.6972 41.7555 79.3944 41.7087 79.4196C41.7045 79.4226 41.6673 79.3794 41.5989 79.2912C41.5323 79.2018 41.4261 79.0734 41.3109 78.8886C41.0697 78.5274 40.7427 77.967 40.4583 77.187C40.1745 76.4106 39.9261 75.408 39.9165 74.2236C39.9033 73.0458 40.1379 71.6772 40.8087 70.3392C41.4717 69.0072 42.5475 67.6956 44.0427 66.7578C45.5217 65.7732 47.4741 65.5284 48.9777 64.3452C50.4873 63.1596 51.2751 61.1418 51.5061 59.0832C51.7449 56.9964 51.4293 54.81 51.3483 52.5552C51.2541 50.3136 51.5217 48 52.6599 46.1298C53.2287 45.2106 54.0165 44.4258 54.9543 43.9518C55.8801 43.461 56.9073 43.2396 57.8985 43.224C59.8953 43.179 61.7493 43.9782 63.0537 45.1494C64.3857 46.3074 65.2545 47.7432 65.8221 49.11C66.3861 50.4888 66.6369 51.822 66.7641 52.9884C66.8841 54.159 66.8793 55.173 66.8487 55.9974C66.8145 56.8224 66.7539 57.4602 66.7047 57.8916C66.6795 58.0914 66.6591 58.2528 66.6429 58.3818C66.6261 58.494 66.6147 58.5504 66.6093 58.5498Z" fill="black"/>
</g>
<path d="M110.157 53.2044C110.103 53.193 110.571 52.4682 110.604 51.0126C110.61 50.2956 110.484 49.3956 110.021 48.483C109.568 47.5764 108.739 46.68 107.581 46.1268C107.007 45.8496 106.353 45.6582 105.66 45.6084C104.967 45.555 104.238 45.657 103.51 45.861C102.045 46.2462 100.594 47.079 98.8615 47.4234C98.0047 47.5896 97.0681 47.6412 96.1657 47.3568C95.2579 47.0862 94.4809 46.416 93.9697 45.603C92.9257 43.983 92.6305 41.9502 91.3693 40.4568C90.7501 39.7152 89.9017 39.2058 89.0071 38.913C88.1113 38.6088 87.1573 38.5458 86.2465 38.6334C84.3973 38.7864 82.7875 39.7698 81.6553 41.022C80.5141 42.2844 79.8037 43.7868 79.3765 45.2376C78.9451 46.6974 78.8089 48.12 78.8677 49.4148C78.9757 52.0104 79.4095 54.0882 79.6435 55.5246C79.7641 56.2224 79.8595 56.775 79.9291 57.1806C79.9549 57.3546 79.9759 57.4962 79.9933 57.6132C80.0059 57.711 80.0101 57.7614 80.0041 57.7626C79.9987 57.7638 79.9837 57.7152 79.9603 57.6192C79.9345 57.5046 79.9027 57.3642 79.8643 57.1926C79.7797 56.79 79.6645 56.2416 79.5187 55.548C79.2463 54.1164 78.7771 52.0458 78.6373 49.4226C78.5629 48.1134 78.6883 46.6518 79.1173 45.1626C79.5421 43.6782 80.2585 42.1326 81.4327 40.821C82.0225 40.1718 82.7215 39.588 83.5309 39.1416C84.3403 38.6934 85.2589 38.4114 86.2129 38.3172C87.1645 38.2236 88.1617 38.2878 89.1067 38.6064C90.0493 38.9136 90.9529 39.4536 91.6153 40.2462C92.9503 41.847 93.2359 43.8936 94.2361 45.4308C94.7215 46.2018 95.4253 46.8084 96.2587 47.0616C97.0879 47.3268 97.9765 47.2872 98.8045 47.13C100.474 46.8102 101.931 45.9894 103.439 45.6018C104.188 45.3984 104.95 45.2964 105.678 45.3594C106.405 45.4188 107.086 45.6264 107.681 45.9216C108.88 46.5108 109.728 47.4552 110.182 48.4032C110.645 49.3554 110.754 50.283 110.728 51.0162C110.704 51.7554 110.538 52.3122 110.406 52.6734C110.272 53.0352 110.157 53.2044 110.157 53.2044Z" fill="#3282C4"/>
<path d="M92.667 42.3509C94.2732 43.3541 96.5274 43.4447 98.0004 42.7019C99.474 41.9591 100.505 40.3307 100.716 38.4107C99.0678 37.6223 97.2673 37.5299 95.7607 38.1569C94.2547 38.7839 93.057 40.1237 92.4648 41.8439" fill="#3282C4"/>
<path d="M98.3343 47.4942C98.3133 49.3878 99.4095 51.3594 100.81 52.2312C102.211 53.103 104.139 53.1354 105.888 52.317C105.703 50.499 104.845 48.9138 103.526 47.9538C102.207 46.9938 100.44 46.6686 98.6625 47.0586" fill="#3282C4"/>
<path d="M108.172 46.3539C109.876 47.1807 112.127 47.0301 113.513 46.1343C114.899 45.2385 115.75 43.5093 115.756 41.5779C114.033 40.9701 112.233 41.0703 110.802 41.8539C109.371 42.6375 108.323 44.0979 107.918 45.8715" fill="#3282C4"/>
<path d="M84.4049 38.9447C82.9715 37.7069 82.0108 35.5379 82.285 33.9107C82.5592 32.2835 83.8103 30.8171 85.5815 30.0479C86.8217 31.3895 87.4421 33.0827 87.2885 34.7063C87.1349 36.3305 86.209 37.8707 84.7402 38.9447" fill="#3282C4"/>
<path d="M45.9968 31.9028C45.992 31.8998 46.0118 31.856 46.0544 31.772C46.1084 31.6718 46.1738 31.5512 46.253 31.4048C46.4342 31.0856 46.7168 30.623 47.1194 30.053C47.9318 28.9328 49.241 27.3176 51.3992 26.0084C52.475 25.3688 53.7656 24.8138 55.2392 24.5978C56.7044 24.389 58.3352 24.4976 59.9042 25.0868C61.4642 25.6598 62.9828 26.7518 63.8948 28.3556C64.8122 29.9564 65.108 31.8362 65.6444 33.6326C65.9168 34.5314 66.2606 35.3966 66.7586 36.1496C67.2584 36.9008 67.94 37.493 68.654 38.0174C69.368 38.5442 70.1144 39.0182 70.7906 39.5708C71.4668 40.1252 72.0524 40.7648 72.5264 41.4518C73.4798 42.8288 74.0174 44.3522 74.3054 45.7964C74.597 47.246 74.6264 48.6326 74.5436 49.8788C74.3672 52.3784 73.841 54.3404 73.499 55.6862C73.3214 56.3594 73.1732 56.879 73.07 57.2306C72.9662 57.5822 72.9068 57.7652 72.8954 57.7622C72.8846 57.7592 72.923 57.5708 73.0064 57.2138C73.0976 56.8304 73.2206 56.3108 73.376 55.6556C73.6796 54.3032 74.1692 52.3382 74.3138 49.8656C74.3816 48.632 74.339 47.27 74.0414 45.8504C73.748 44.4368 73.2116 42.9524 72.281 41.6234C71.8178 40.9592 71.252 40.3466 70.595 39.812C69.9356 39.2768 69.1928 38.8076 68.4656 38.2742C67.7396 37.7444 67.0208 37.1246 66.491 36.3308C65.966 35.5394 65.6108 34.6418 65.3336 33.7274C64.7912 31.8998 64.496 30.0464 63.6194 28.514C62.7536 26.9834 61.3058 25.9298 59.7992 25.3676C58.2854 24.7898 56.7008 24.6728 55.2764 24.8648C53.8472 25.0616 52.5776 25.5914 51.5156 26.2064C49.3832 27.4652 48.0584 29.0384 47.2214 30.128C46.8056 30.683 46.508 31.1324 46.3094 31.4396C46.1138 31.748 46.0064 31.9082 45.9968 31.9028Z" fill="#3282C4"/>
<path d="M69.4923 38.4914C68.9973 38.0312 68.7561 38.3516 68.0913 38.4722C67.4265 38.5934 66.8241 38.9474 66.2955 39.3686C63.9951 41.2022 62.9775 44.4962 63.8433 47.3078C65.9589 47.4236 68.0973 46.2998 69.2025 44.492C70.3077 42.6842 70.3329 40.2686 69.2649 38.4386" fill="#3282C4"/>
<path d="M49.1693 29.2401C48.9203 28.6119 48.5651 28.7973 47.9129 28.6203C47.2607 28.4433 46.5647 28.5039 45.9065 28.6569C43.0409 29.3229 40.7057 31.8585 40.2773 34.7691C42.1373 35.7837 44.5511 35.6895 46.3265 34.5327C48.1019 33.3765 49.1633 31.2063 48.9875 29.0949" fill="#3282C4"/>
<path d="M73.9689 51.0116C72.6225 49.4552 70.5411 48.5642 68.4855 48.6644C66.4299 48.7646 64.4445 49.8536 63.2559 51.5336C64.7571 52.9088 66.7761 53.705 68.8119 53.7248C70.8477 53.744 72.8817 52.8074 74.4087 51.461" fill="#3282C4"/>
<path d="M72.3001 41.6612C74.3647 41.7212 76.4371 40.7966 77.7715 39.2198C79.1059 37.643 79.6753 35.447 79.2751 33.4202C77.1133 32.9252 74.7079 33.6992 73.2415 35.363C71.7751 37.0268 71.3083 39.5102 72.0709 41.5928" fill="#3282C4"/>
<path d="M65.1468 30.6692C67.0746 31.412 69.336 31.2284 71.1186 30.185C72.9012 29.1416 74.1684 27.2594 74.4642 25.2146C72.5898 24.029 70.0638 23.9606 68.1276 25.0424C66.1914 26.1242 64.926 28.3112 64.9536 30.5294" fill="#3282C4"/>
<path d="M62.749 27.0804C60.8212 26.3376 58.5598 26.5212 56.7772 27.5652C54.9946 28.6086 53.7274 30.4908 53.4316 32.535C55.306 33.7206 57.832 33.7896 59.7682 32.7078C61.7044 31.626 62.9698 29.439 62.9422 27.2208" fill="#3282C4"/>
<path d="M59.8907 25.1485C61.8473 24.4867 63.4691 22.8997 64.1723 20.9575C64.8755 19.0153 64.6457 16.7581 63.5663 14.9971C61.3673 15.2839 59.3813 16.8463 58.5845 18.9163C57.7877 20.9863 58.2137 23.4769 59.6525 25.1641" fill="#3282C4"/>
<path d="M52.5652 25.4975C53.2696 23.5559 53.041 21.2981 51.9622 19.5365C50.8834 17.7749 48.9766 16.5455 46.927 16.2905C45.7786 18.1883 45.76 20.7149 46.8802 22.6289C48.0004 24.5429 50.212 25.7651 52.429 25.6937" fill="#3282C4"/>
<path d="M62.5625 79.4204L64.8509 82.2584H92.9981L94.9157 79.4204H62.5625Z" fill="#263238"/>
<path d="M94.2969 79.3939C94.2969 79.4833 87.3801 79.5559 78.8505 79.5559C70.3173 79.5559 63.4023 79.4833 63.4023 79.3939C63.4023 79.3045 70.3173 79.2319 78.8505 79.2319C87.3807 79.2319 94.2969 79.3045 94.2969 79.3939Z" fill="#455A64"/>
<path d="M91.1343 68.7067C91.1427 68.7139 91.0821 68.7931 90.9585 68.9377C90.8367 69.0841 90.6513 69.2947 90.3849 69.5401C89.8623 70.0375 89.0337 70.6993 87.8715 71.2843C86.7087 71.8531 85.2045 72.3433 83.4777 72.4129C82.6179 72.4531 81.7077 72.3835 80.7897 72.1873C79.8729 71.9869 78.9573 71.6617 78.0495 71.2795C76.2351 70.5067 74.5857 69.6271 72.9789 69.1153C71.3829 68.5867 69.8415 68.4373 68.6001 68.6929C67.3515 68.9251 66.4443 69.4765 65.9139 69.9391C65.3799 70.4083 65.1759 70.7593 65.1477 70.7383C65.1381 70.7323 65.1867 70.6453 65.2893 70.4839C65.3949 70.3249 65.5689 70.1011 65.8293 69.8461C66.3477 69.3415 67.2687 68.7379 68.5545 68.4685C69.8343 68.1745 71.4381 68.3065 73.0701 68.8309C74.7147 69.3379 76.3827 70.2181 78.1755 70.9807C79.0731 71.3593 79.9689 71.6785 80.8587 71.8771C81.7485 72.0715 82.6293 72.1447 83.4663 72.1141C85.1463 72.0631 86.6211 71.6089 87.7725 71.0779C90.0843 69.9667 91.0803 68.6353 91.1343 68.7067Z" fill="#455A64"/>
<path d="M91.4125 66.5096C91.4203 66.518 91.3537 66.5924 91.2199 66.7274C91.0873 66.8642 90.8857 67.0604 90.6037 67.289C90.0475 67.7504 89.1835 68.366 87.9985 68.906C86.8129 69.4316 85.3021 69.8888 83.5741 69.9626C82.7131 70.0052 81.8029 69.9464 80.8783 69.7814C79.9549 69.6098 79.0249 69.3284 78.0955 68.9942C76.2379 68.3192 74.5327 67.5446 72.9031 67.0898C71.2807 66.6218 69.7429 66.4814 68.4877 66.6896C67.2259 66.875 66.2833 67.3526 65.7007 67.7546C65.1169 68.165 64.8601 68.477 64.8367 68.4542C64.8283 68.447 64.8889 68.3672 65.0125 68.2214C65.1385 68.078 65.3401 67.8788 65.6263 67.6526C66.1993 67.2092 67.1563 66.6836 68.4505 66.4634C69.7393 66.2192 71.3299 66.3416 72.9835 66.8018C74.6461 67.2494 76.3675 68.0216 78.2053 68.6888C79.1251 69.0194 80.0377 69.2972 80.9371 69.4688C81.8371 69.6332 82.7209 69.6968 83.5615 69.6632C85.2475 69.6074 86.7313 69.1838 87.9067 68.6948C90.2635 67.6712 91.3651 66.4388 91.4125 66.5096Z" fill="#455A64"/>
<path d="M60.6679 85.0225H58.2031V91.8931H60.6679V85.0225Z" fill="#455A64"/>
<path d="M95.83 85.0225H93.3652V91.8931H95.83V85.0225Z" fill="#455A64"/>
<path d="M127.369 149.042L138.345 144.402L164.597 139.206L192.923 144.767L155.504 184.982L137.762 185.993L124.312 159.278L127.369 149.042Z" fill="#FFBE9D"/>
<path d="M222.747 179.71C222.747 179.71 204.857 150.992 200.041 147.565C195.226 144.137 179.881 141.97 179.881 141.97C179.881 141.97 162.986 180.126 146.882 178.786C130.777 177.446 129.032 148.262 129.032 148.262L121.945 151.087C119.408 152.099 117.438 154.167 116.552 156.751L102.381 198.06L126.473 203.797C130.712 219.577 136.67 233.303 144.164 245.195L144.934 241.255L195.047 240.481L209.564 234.866L192.087 195.143L222.747 179.71Z" fill="#3282C4"/>
<path d="M130.163 215.154C130.153 215.157 130.106 215.046 130.024 214.832C129.935 214.584 129.822 214.272 129.683 213.889C129.383 213.027 128.973 211.848 128.473 210.408C127.466 207.465 126.053 203.402 124.781 198.819C124.153 196.526 123.643 194.316 123.255 192.292C122.886 190.264 122.625 188.424 122.493 186.87C122.405 186.096 122.384 185.39 122.346 184.773C122.304 184.155 122.297 183.622 122.299 183.186C122.3 182.779 122.301 182.447 122.303 182.183C122.307 181.954 122.315 181.834 122.325 181.834C122.336 181.834 122.349 181.954 122.366 182.183C122.38 182.445 122.399 182.776 122.421 183.183C122.438 183.617 122.462 184.148 122.52 184.763C122.575 185.377 122.611 186.079 122.714 186.849C122.873 188.393 123.155 190.222 123.539 192.238C123.941 194.251 124.457 196.45 125.082 198.737C126.35 203.306 127.73 207.377 128.683 210.339C129.162 211.819 129.547 213.018 129.8 213.851C129.915 214.242 130.01 214.56 130.085 214.812C130.146 215.033 130.173 215.151 130.163 215.154Z" fill="#263238"/>
<path d="M180.62 208.54C180.625 208.549 180.533 208.602 180.354 208.694C180.173 208.781 179.912 208.926 179.558 209.071C178.859 209.384 177.816 209.773 176.487 210.115C173.848 210.808 169.944 211.158 165.861 210.099C161.776 209.038 158.535 206.835 156.566 204.946C155.57 204.001 154.849 203.154 154.39 202.541C154.151 202.242 153.994 201.988 153.878 201.824C153.765 201.657 153.711 201.566 153.72 201.56C153.741 201.544 153.998 201.88 154.485 202.465C154.97 203.052 155.711 203.869 156.716 204.784C158.704 206.613 161.916 208.752 165.939 209.796C169.961 210.84 173.808 210.532 176.434 209.901C177.756 209.59 178.802 209.236 179.511 208.959C180.221 208.685 180.609 208.516 180.62 208.54Z" fill="#263238"/>
<path d="M185.936 163.4C185.915 163.394 185.969 163.14 186.086 162.684C186.199 162.227 186.4 161.575 186.682 160.782C187.244 159.195 188.207 157.058 189.605 154.894C191.009 152.732 192.565 150.98 193.784 149.818C194.392 149.236 194.905 148.786 195.276 148.497C195.644 148.204 195.854 148.05 195.868 148.067C195.904 148.109 195.109 148.778 193.94 149.975C192.77 151.168 191.258 152.925 189.868 155.064C188.485 157.206 187.5 159.304 186.889 160.86C186.275 162.416 185.989 163.415 185.936 163.4Z" fill="#263238"/>
<path d="M187.593 195.41C187.508 195.42 186.803 190.082 186.019 183.487C185.235 176.89 184.669 171.536 184.755 171.525C184.84 171.515 185.545 176.853 186.329 183.45C187.113 190.044 187.679 195.4 187.593 195.41Z" fill="#263238"/>
<g opacity="0.3">
<path d="M154.039 202.675C156.599 206.437 159.26 210.241 162.896 212.979C166.53 215.717 171.359 217.26 175.71 215.924C177.093 215.499 178.38 214.803 179.582 213.997C181.302 212.845 182.977 211.266 183.227 209.21C183.285 208.737 183.21 208.164 182.789 207.942C182.532 207.806 182.221 207.845 181.936 207.901C178.872 208.506 176.205 210.638 173.09 210.869C171.497 210.987 169.915 210.593 168.366 210.202C162.964 208.839 157.738 206.84 154.039 202.675Z" fill="black"/>
</g>
<g opacity="0.3">
<path d="M190.026 219.308C190.808 218.368 191.336 217.597 192.068 216.722C192.449 216.266 192.671 215.753 192.839 215.183C193.026 214.546 192.94 213.863 192.845 213.206C192.041 207.648 190.693 202.169 188.825 196.871C188.74 196.627 188.66 196.33 188.824 196.13C188.917 196.015 189.067 195.966 189.208 195.922C190.118 195.64 191.185 195.265 192.095 194.982C193.435 201.56 194.545 208.914 195.868 215.241C195.854 215.153 191.959 218.029 190.026 219.308Z" fill="black"/>
</g>
<g opacity="0.3">
<path d="M126.266 203.869C124.105 201.759 122.319 199.266 121.017 196.542C120.458 195.373 119.986 194.156 119.731 192.886C119.448 191.47 119.439 190.014 119.478 188.571C119.61 183.683 120.282 178.809 121.477 174.066C121.69 174.331 121.765 174.678 121.828 175.012C122.745 179.921 122.183 185.003 122.949 189.938C123.258 191.927 123.78 193.877 124.105 195.864C124.271 196.881 124.386 197.912 124.679 198.9C124.944 199.797 125.352 200.646 125.638 201.536C125.909 202.377 126.07 203.249 126.229 204.118" fill="black"/>
</g>
<path d="M163.631 238.126L195.855 215.154L192.095 194.982L213.219 184.062C213.219 184.062 220.881 216.149 215.816 228.529C214.078 232.776 161.902 249.384 161.902 249.384L163.631 238.126Z" fill="#FFBE9D"/>
<path d="M208.035 213.179C208.015 213.233 207.314 212.968 206.137 212.755C205.55 212.643 204.84 212.572 204.052 212.549C203.264 212.542 202.397 212.593 201.499 212.744C200.603 212.905 199.769 213.149 199.029 213.421C198.294 213.708 197.651 214.015 197.135 214.317C196.099 214.915 195.528 215.401 195.491 215.356C195.477 215.339 195.61 215.207 195.864 214.982C196.114 214.751 196.509 214.455 197.021 214.127C197.532 213.795 198.179 213.461 198.924 213.152C199.676 212.859 200.528 212.6 201.446 212.435C202.365 212.281 203.255 212.238 204.06 212.261C204.866 212.3 205.588 212.397 206.181 212.538C206.774 212.674 207.245 212.82 207.558 212.953C207.873 213.079 208.043 213.158 208.035 213.179Z" fill="#EB996E"/>
<path d="M203.462 209.16C203.479 209.204 202.947 209.436 202.129 209.888C201.313 210.338 200.21 211.021 199.031 211.821C197.854 212.621 196.897 213.487 196.342 214.229C195.778 214.964 195.569 215.513 195.52 215.492C195.489 215.484 195.626 214.896 196.163 214.1C196.691 213.299 197.66 212.375 198.854 211.564C200.047 210.754 201.173 210.098 202.029 209.691C202.883 209.284 203.449 209.124 203.462 209.16Z" fill="#EB996E"/>
<path d="M137.96 253.622C139.686 253.622 141.085 253.64 141.085 253.663C141.085 253.686 139.686 253.704 137.96 253.704C136.235 253.704 134.836 253.686 134.836 253.663C134.836 253.64 136.235 253.622 137.96 253.622Z" fill="#EB996E"/>
<path d="M141.886 240.355C141.886 240.355 82.2905 215.907 72.4031 213.788C62.5157 211.669 45.1907 210.629 37.9013 225.168C32.8085 235.324 32.2517 247.388 51.6725 257.628C71.0933 267.868 129.004 277.402 129.004 277.402C129.004 277.402 181.25 290.461 189.725 286.93C198.2 283.399 209.867 275.99 206.336 261.865C202.805 247.741 203.584 240.464 190.852 239.682C178.289 238.911 175.203 238.47 163.256 250.005L141.886 240.355Z" fill="#263238"/>
<path d="M209.328 234.19C209.328 234.19 220.031 252.066 215.974 262.374C211.917 272.682 201.553 279.423 201.553 279.423L184.33 241.806L209.328 234.19Z" fill="#263238"/>
<path d="M136.024 265.47C136.022 265.475 135.947 265.44 135.804 265.369C135.649 265.289 135.439 265.181 135.172 265.043C134.617 264.755 133.801 264.324 132.766 263.741C130.696 262.578 127.72 260.847 124.213 258.444C120.693 256.062 116.674 252.983 112.292 249.474C110.102 247.719 107.796 245.884 105.435 243.945C103.07 242.014 100.626 240.008 98.0029 238.119C95.3857 236.219 92.6743 234.594 89.9641 233.201C87.246 231.819 84.5197 230.703 81.8869 229.749C76.6123 227.846 71.6827 226.683 67.5397 225.784C63.3889 224.905 60.0007 224.333 57.6619 223.928C56.5051 223.73 55.6003 223.574 54.9679 223.465C54.6721 223.412 54.4405 223.37 54.2683 223.338C54.1111 223.308 54.0307 223.29 54.0313 223.284C54.0319 223.279 54.1141 223.287 54.2731 223.307C54.4465 223.33 54.6799 223.362 54.9775 223.403C55.6123 223.498 56.5201 223.634 57.6817 223.808C60.0271 224.176 63.4225 224.715 67.5853 225.567C71.7397 226.44 76.6849 227.583 81.9841 229.478C84.6295 230.429 87.3697 231.543 90.1026 232.928C92.8273 234.323 95.5579 235.958 98.1859 237.865C100.82 239.762 103.267 241.773 105.629 243.708C107.987 245.649 110.287 247.488 112.473 249.248C116.843 252.768 120.841 255.86 124.339 258.261C127.823 260.682 130.777 262.44 132.827 263.634C133.852 264.233 134.657 264.68 135.202 264.986C135.463 265.136 135.667 265.253 135.82 265.34C135.957 265.422 136.027 265.466 136.024 265.47Z" fill="#455A64"/>
<path d="M136.764 265.084C139.311 264.041 131.323 266.686 128.67 265.951C124.448 264.782 121.61 259.977 117.23 259.862C114.414 259.788 111.996 261.724 109.35 262.691C106.118 263.872 102.549 263.589 99.145 263.084C95.7412 262.579 92.3086 261.868 88.8886 262.247C87.8908 262.357 86.8378 262.594 86.1376 263.314C85.2154 264.261 85.1914 265.849 85.846 266.998C86.5006 268.146 87.7018 268.896 88.9558 269.313C90.2098 269.73 91.5382 269.858 92.8456 270.054C98.9704 270.969 104.759 273.393 110.768 274.891C116.975 276.438 123.381 276.987 129.755 277.532C129.755 277.532 129.315 268.137 136.764 265.084Z" fill="#FFBE9D"/>
<path d="M192.055 265.459C192.065 265.455 192.101 265.538 192.159 265.699C192.214 265.861 192.31 266.095 192.392 266.41C192.578 267.032 192.784 267.956 192.892 269.118C193.003 270.278 192.987 271.682 192.691 273.202C192.403 274.72 191.802 276.348 190.81 277.843C189.799 279.328 188.486 280.478 187.148 281.258C185.806 282.037 184.456 282.475 183.297 282.638C182.138 282.807 181.182 282.76 180.54 282.648C180.216 282.613 179.974 282.528 179.807 282.493C179.641 282.45 179.556 282.423 179.559 282.412C179.563 282.322 180.984 282.811 183.262 282.421C184.391 282.233 185.701 281.784 187.002 281.011C188.298 280.237 189.569 279.11 190.551 277.669C191.515 276.214 192.111 274.63 192.409 273.147C192.714 271.661 192.753 270.282 192.672 269.137C192.593 267.989 192.423 267.069 192.274 266.442C192.127 265.812 192.03 265.467 192.055 265.459Z" fill="#455A64"/>
<path d="M150.898 253.672L187.24 237.049L198.819 239.471L199.321 240.718L156.848 257.748L150.898 256.316V253.672Z" fill="white"/>
<path d="M188.248 238.586L150.898 256.316L163.155 259.266L201.763 241.189L188.248 238.586Z" fill="#455A64"/>
<path d="M136.764 265.084C136.764 265.084 155.979 251.978 161.009 249.362C166.039 246.746 192.783 240.622 199.49 243.401C206.197 246.181 179.56 270.068 179.56 270.068L136.764 265.084Z" fill="#263238"/>
<path d="M175.848 254.558C175.846 254.563 175.797 254.546 175.705 254.509C175.596 254.462 175.462 254.405 175.298 254.335C174.919 254.168 174.4 253.939 173.742 253.649C172.388 253.067 170.431 252.189 167.892 251.498C166.623 251.165 165.203 250.88 163.662 250.835C162.892 250.792 162.097 250.85 161.283 250.936C160.474 251.06 159.643 251.215 158.82 251.485C155.486 252.499 152.305 254.728 149.029 257.048C145.732 259.377 142.455 261.387 139.532 263.29C138.067 264.238 136.691 265.162 135.422 266.052C134.149 266.93 133.068 267.89 132.337 268.981C131.585 270.052 131.096 271.146 130.73 272.121C130.366 273.1 130.12 273.968 129.927 274.68C129.748 275.375 129.607 275.925 129.504 276.326C129.459 276.499 129.422 276.64 129.392 276.754C129.365 276.85 129.349 276.898 129.344 276.897C129.338 276.896 129.344 276.845 129.361 276.746C129.383 276.63 129.41 276.487 129.443 276.311C129.52 275.93 129.635 275.368 129.809 274.649C129.985 273.931 130.214 273.054 130.566 272.061C130.92 271.072 131.399 269.956 132.156 268.855C132.888 267.734 133.998 266.732 135.271 265.841C136.538 264.939 137.912 264.006 139.374 263.05C142.294 261.13 145.561 259.115 148.849 256.792C152.122 254.476 155.336 252.228 158.735 251.21C159.574 250.939 160.423 250.786 161.248 250.664C162.079 250.582 162.89 250.528 163.672 250.577C165.238 250.634 166.672 250.937 167.949 251.286C170.503 252.01 172.451 252.923 173.791 253.539C174.461 253.852 174.976 254.105 175.324 254.279C175.483 254.36 175.612 254.427 175.717 254.481C175.807 254.527 175.85 254.554 175.848 254.558Z" fill="#455A64"/>
<path d="M178.958 253.507C178.921 253.549 178.42 253.06 177.449 252.524C176.487 251.98 175.026 251.456 173.345 251.253C171.66 251.042 170.116 251.066 169.001 251.119C167.885 251.172 167.192 251.225 167.188 251.179C167.183 251.14 167.866 251.009 168.986 250.898C170.104 250.789 171.671 250.729 173.384 250.943C175.105 251.15 176.603 251.725 177.561 252.333C178.043 252.632 178.402 252.922 178.632 253.139C178.861 253.357 178.972 253.493 178.958 253.507Z" fill="#455A64"/>
<path d="M204.065 245.874C204.048 245.895 203.673 245.622 202.982 245.161C202.274 244.725 201.218 244.133 199.816 243.638C198.417 243.141 196.676 242.762 194.717 242.604C192.758 242.435 190.585 242.517 188.328 242.775C186.073 243.053 183.936 243.465 181.997 243.834C180.058 244.213 178.32 244.59 176.864 244.927C175.409 245.262 174.236 245.558 173.426 245.763C173.048 245.857 172.739 245.934 172.491 245.996C172.277 246.047 172.163 246.069 172.16 246.059C172.157 246.048 172.265 246.006 172.474 245.936C172.683 245.865 172.992 245.765 173.393 245.645C174.195 245.403 175.361 245.075 176.812 244.712C178.263 244.346 180 243.946 181.94 243.551C183.882 243.165 186.016 242.744 188.292 242.464C190.565 242.204 192.76 242.13 194.741 242.316C196.721 242.492 198.483 242.899 199.892 243.429C201.304 243.957 202.356 244.587 203.049 245.058C203.394 245.297 203.641 245.513 203.815 245.648C203.985 245.789 204.072 245.865 204.065 245.874Z" fill="#455A64"/>
<path d="M112.305 200.706C112.305 200.706 115.525 224.968 116.821 228.826C118.116 232.685 128.31 246.785 128.31 246.785L141.886 240.354L132.811 223.284L126.529 203.99L112.305 200.706Z" fill="#FFBE9D"/>
<path d="M141.319 239.47C142.491 239.289 143.683 239.235 144.868 239.309C145.316 239.337 145.789 239.393 146.145 239.666C146.371 239.84 146.529 240.085 146.668 240.333C147.351 241.539 147.729 242.917 147.756 244.302C147.762 244.565 147.746 244.852 147.575 245.053C147.281 245.399 146.725 245.294 146.308 245.114C145.726 244.862 145.182 244.522 144.701 244.108C144.05 243.548 143.522 242.864 142.998 242.184C142.821 241.954 142.645 241.725 142.468 241.495C142.02 240.914 141.573 240.333 141.125 239.752" fill="#EB996E"/>
<path d="M136.419 229.001C137.406 231.534 140.405 239.585 140.405 239.585L142.469 241.851L137.791 228.495C137.664 228.132 137.278 227.93 136.907 228.031C136.49 228.146 136.262 228.597 136.419 229.001Z" fill="#E0E0E0"/>
<path d="M133.838 240.277C133.838 240.277 130.937 240.498 130.128 241.349C129.32 242.199 129.055 244.767 129.055 244.767C129.055 244.767 127.395 247.11 128.274 249.16C128.274 249.16 126.883 252.381 128.018 253.455C129.153 254.529 129.641 254.724 129.641 254.724H142.721L147.894 246.786L142.721 241.839C142.721 241.839 139.481 237.056 137.733 236.861C135.985 236.666 132.463 237.039 133.838 240.277Z" fill="#FFBE9D"/>
<path d="M133.838 240.277C133.833 240.273 133.798 240.189 133.736 240.036C133.668 239.886 133.581 239.669 133.528 239.341C133.469 239.027 133.449 238.599 133.649 238.156C133.841 237.71 134.291 237.322 134.86 237.093C135.429 236.856 136.109 236.748 136.844 236.731C137.215 236.736 137.589 236.708 138 236.828C138.397 236.954 138.754 237.186 139.086 237.454C140.415 238.541 141.612 240.054 142.828 241.766L142.811 241.745C144.383 243.24 146.134 244.907 147.996 246.678L148.085 246.763L148.018 246.866C146.417 249.329 144.669 252.014 142.852 254.808L142.806 254.879H142.721C142.504 254.879 142.269 254.879 142.034 254.879C137.625 254.874 133.431 254.87 129.641 254.867H129.607L129.588 254.856C129.012 254.552 128.597 254.162 128.162 253.777C127.963 253.594 127.709 253.365 127.605 253.073C127.492 252.791 127.447 252.497 127.443 252.213C127.444 251.072 127.787 250.05 128.161 249.11V249.208C127.82 248.379 127.854 247.495 128.054 246.736C128.252 245.969 128.582 245.296 128.973 244.708L128.955 244.756C129.112 243.573 129.339 242.511 129.8 241.671C129.92 241.464 130.073 241.28 130.255 241.142C130.44 241.016 130.629 240.918 130.816 240.843C131.189 240.692 131.541 240.6 131.859 240.53C132.494 240.39 132.992 240.336 133.327 240.302C133.495 240.285 133.623 240.278 133.709 240.273C133.797 240.27 133.833 240.275 133.838 240.277C133.844 240.279 133.792 240.291 133.71 240.303C133.609 240.318 133.485 240.336 133.333 240.359C133.001 240.411 132.508 240.483 131.883 240.638C131.571 240.715 131.226 240.815 130.868 240.968C130.689 241.044 130.511 241.142 130.343 241.26C130.183 241.387 130.048 241.553 129.938 241.751C129.512 242.553 129.296 243.617 129.156 244.778L129.153 244.802L129.138 244.826C128.774 245.388 128.454 246.056 128.273 246.791C128.088 247.523 128.069 248.351 128.388 249.111L128.408 249.158L128.388 249.209C128.032 250.118 127.704 251.144 127.712 252.204C127.716 252.468 127.761 252.73 127.858 252.966C127.947 253.21 128.133 253.371 128.349 253.571C128.764 253.941 129.222 254.342 129.695 254.59L129.641 254.58C133.431 254.576 137.625 254.571 142.034 254.567C142.269 254.567 142.504 254.567 142.721 254.567L142.59 254.637C144.413 251.846 146.165 249.164 147.771 246.704L147.792 246.891C145.939 245.11 144.197 243.435 142.631 241.932L142.622 241.923L142.613 241.911C141.422 240.21 140.235 238.686 138.956 237.618C138.637 237.354 138.295 237.131 137.945 237.015C137.599 236.903 137.197 236.919 136.846 236.911C136.128 236.917 135.464 237.013 134.915 237.231C134.366 237.441 133.941 237.794 133.752 238.204C133.556 238.611 133.559 239.02 133.605 239.329C133.643 239.64 133.724 239.885 133.775 240.044C133.822 240.204 133.844 240.281 133.838 240.277Z" fill="#EB996E"/>
<path d="M139.969 250.858C139.963 250.901 139.318 250.846 138.281 250.723C137.761 250.66 137.148 250.586 136.459 250.487C136.114 250.432 135.745 250.358 135.379 250.206C135.014 250.055 134.675 249.834 134.351 249.592C133.063 248.622 132.066 247.547 131.422 246.718C130.778 245.886 130.467 245.312 130.498 245.292C130.539 245.264 130.913 245.792 131.593 246.577C132.271 247.361 133.277 248.392 134.539 249.342C134.852 249.577 135.169 249.784 135.499 249.925C135.827 250.066 136.172 250.142 136.507 250.204C137.16 250.313 137.765 250.414 138.313 250.505C139.342 250.684 139.975 250.816 139.969 250.858Z" fill="#EB996E"/>
<path d="M139.424 254.233C139.426 254.27 138.809 254.371 137.794 254.426C137.287 254.447 136.676 254.452 136.002 254.363C135.328 254.275 134.594 254.065 133.888 253.721C132.469 253.024 131.436 252.031 130.721 251.321C130.011 250.597 129.611 250.115 129.64 250.087C129.673 250.055 130.13 250.483 130.874 251.161C131.623 251.827 132.662 252.772 134.025 253.439C135.386 254.121 136.793 254.2 137.791 254.205C138.794 254.207 139.422 254.185 139.424 254.233Z" fill="#EB996E"/>
<path d="M141.729 247.516C141.71 247.551 141.202 247.324 140.431 246.865C139.66 246.406 138.635 245.7 137.599 244.8C136.565 243.898 135.723 242.98 135.163 242.28C134.601 241.579 134.307 241.108 134.338 241.085C134.416 241.024 135.752 242.79 137.804 244.564C139.844 246.351 141.779 247.431 141.729 247.516Z" fill="#EB996E"/>
<path d="M112.305 258.285V253.672H150.897V255.16V255.463L145.488 259.266L112.305 258.285Z" fill="white"/>
<path d="M144.775 259.606H109.42V257.749H147.554L144.775 259.606Z" fill="#455A64"/>
<path d="M157.428 239.553C157.018 239.634 148.43 241.107 148.43 241.107L142.295 248.469V253.672C142.295 253.672 144.177 254.767 145.076 253.131C145.076 253.131 143.192 258.452 143.929 259.227C144.667 260.003 145.855 260.657 146.875 259.227C147.896 257.798 149.329 254.277 149.329 254.277L149.575 256.469C149.575 256.469 154.728 253.949 155.301 253.213C155.873 252.477 159.227 247.651 159.227 247.651L160.781 246.26L159.227 248.714C159.227 248.714 156.446 251.659 157.591 252.231C158.736 252.804 160.781 250.677 160.781 250.677L163.971 246.996L166.671 246.669C166.671 246.669 166.845 244.908 166.261 241.353C166.075 240.216 164.139 237.921 164.331 237.684C164.345 237.666 164.328 237.642 164.305 237.646L157.428 239.553Z" fill="#FFBE9D"/>
<path d="M150.295 243.451C150.328 243.483 149.9 243.959 149.241 244.751C148.585 245.541 147.693 246.66 146.832 247.96C146.398 248.584 146.369 249.351 146.165 250.017C145.987 250.682 145.792 251.269 145.617 251.757C145.264 252.731 145.008 253.318 144.969 253.305C144.926 253.29 145.109 252.675 145.407 251.688C145.554 251.195 145.725 250.605 145.885 249.947C145.967 249.615 146.036 249.273 146.115 248.903C146.189 248.532 146.343 248.133 146.566 247.796C147.447 246.465 148.369 245.369 149.074 244.606C149.782 243.845 150.267 243.423 150.295 243.451Z" fill="#EB996E"/>
<path d="M154.647 244.677C154.66 244.696 154.543 244.809 154.342 245.027C154.091 245.303 153.811 245.612 153.495 245.959C153.141 246.356 152.723 246.831 152.27 247.368C152.045 247.637 151.808 247.92 151.576 248.22C151.339 248.529 151.115 248.816 150.997 249.191C150.268 251.672 149.639 253.809 149.371 254.508L149.297 254.699L149.275 254.503C149.251 254.286 149.248 254.181 149.264 254.177C149.281 254.174 149.317 254.273 149.372 254.485L149.276 254.481C149.428 253.739 149.96 251.607 150.703 249.085C150.773 248.886 150.86 248.693 150.98 248.511C151.096 248.341 151.215 248.183 151.335 248.031C151.575 247.727 151.819 247.446 152.051 247.179C152.52 246.65 152.957 246.187 153.334 245.807C154.081 245.043 154.616 244.635 154.647 244.677Z" fill="#EB996E"/>
<path d="M156.856 246.226C156.891 246.254 156.574 246.693 156.002 247.339C155.692 247.692 155.358 248.071 155.003 248.475C154.821 248.689 154.625 248.917 154.461 249.161C154.297 249.408 154.164 249.688 154.05 249.988C153.828 250.589 153.685 251.205 153.523 251.752C153.371 252.27 153.229 252.756 153.096 253.207C152.845 254.033 152.668 254.538 152.626 254.527C152.585 254.515 152.686 253.99 152.883 253.149C152.995 252.693 153.116 252.201 153.245 251.677C153.392 251.126 153.524 250.513 153.758 249.877C153.877 249.562 154.023 249.259 154.207 248.99C154.394 248.721 154.595 248.499 154.788 248.284C155.175 247.859 155.537 247.494 155.841 247.188C156.454 246.582 156.823 246.201 156.856 246.226Z" fill="#EB996E"/>
<path d="M166.953 246.328C166.954 246.333 166.89 246.352 166.764 246.385C166.622 246.421 166.436 246.468 166.198 246.527C165.68 246.65 164.94 246.825 163.985 247.052L164.015 247.033C163.579 247.545 163.073 248.139 162.501 248.808C162.213 249.144 161.909 249.499 161.589 249.873C161.256 250.237 160.962 250.66 160.548 251.029C160.148 251.399 159.704 251.76 159.185 252.06C158.922 252.203 158.641 252.335 158.325 252.403C158.013 252.459 157.639 252.455 157.353 252.181C157.216 252.032 157.196 251.822 157.213 251.651C157.232 251.475 157.283 251.311 157.347 251.155C157.476 250.842 157.649 250.551 157.836 250.267C158.216 249.701 158.655 249.162 159.14 248.631L159.126 248.649C159.61 247.88 160.133 247.048 160.673 246.19L160.868 246.355C160.387 246.787 159.857 247.264 159.317 247.75L159.337 247.726C158.165 249.393 156.929 251.151 155.638 252.986C155.554 253.101 155.484 253.216 155.387 253.33C155.276 253.453 155.159 253.545 155.043 253.63C154.808 253.804 154.565 253.957 154.32 254.108C153.828 254.407 153.322 254.691 152.81 254.971C151.782 255.527 150.726 256.07 149.643 256.605L149.448 256.701L149.423 256.484C149.346 255.795 149.261 255.047 149.177 254.292L149.473 254.332C149.067 255.313 148.631 256.304 148.144 257.296C147.899 257.791 147.644 258.286 147.354 258.771C147.063 259.241 146.747 259.774 146.181 260.064C145.81 260.254 145.348 260.271 144.97 260.127C144.584 259.995 144.264 259.755 143.981 259.494C143.909 259.418 143.849 259.38 143.771 259.269C143.695 259.165 143.667 259.057 143.643 258.955C143.603 258.751 143.603 258.557 143.607 258.365C143.627 257.984 143.684 257.615 143.752 257.251C144.041 255.801 144.474 254.422 144.933 253.078L145.212 253.203C144.944 253.709 144.419 254.119 143.833 254.168C143.253 254.218 142.712 254.059 142.221 253.8L142.146 253.761V253.67C142.149 251.88 142.151 250.144 142.153 248.467V248.415L142.186 248.375C144.411 245.716 146.475 243.25 148.337 241.027L148.366 240.992L148.41 240.985C151.925 240.392 154.949 239.882 157.412 239.467L157.406 239.468C159.593 238.88 161.326 238.414 162.531 238.089C163.113 237.938 163.566 237.82 163.892 237.735C164.036 237.7 164.15 237.672 164.243 237.65C164.279 237.645 164.316 237.623 164.336 237.649C164.349 237.674 164.331 237.681 164.331 237.681C164.379 237.615 164.204 237.693 163.902 237.78C163.58 237.875 163.13 238.008 162.554 238.177C161.354 238.52 159.628 239.013 157.451 239.634L157.448 239.635L157.445 239.635C154.984 240.07 151.962 240.604 148.451 241.225L148.524 241.183C146.672 243.415 144.619 245.89 142.405 248.559L142.438 248.467C142.44 250.144 142.442 251.88 142.445 253.67L142.37 253.54C142.799 253.767 143.314 253.914 143.798 253.866C144.288 253.819 144.699 253.5 144.942 253.056L145.22 253.18C144.767 254.51 144.337 255.889 144.056 257.309C143.99 257.664 143.935 258.023 143.918 258.378C143.913 258.554 143.915 258.732 143.947 258.891C143.975 259.058 144.045 259.127 144.194 259.267C144.693 259.754 145.423 260.11 146.041 259.785C146.5 259.554 146.801 259.077 147.086 258.611C147.369 258.139 147.622 257.649 147.864 257.158C148.347 256.177 148.784 255.188 149.187 254.217L149.417 253.662L149.483 254.257C149.567 255.013 149.651 255.762 149.727 256.45L149.508 256.33C150.588 255.799 151.643 255.259 152.667 254.708C153.177 254.431 153.68 254.15 154.166 253.857C154.408 253.709 154.647 253.558 154.868 253.396C154.98 253.314 155.084 253.23 155.164 253.144C155.249 253.044 155.327 252.919 155.409 252.808C156.703 250.981 157.943 249.231 159.118 247.573L159.128 247.559L159.139 247.549C159.681 247.066 160.214 246.592 160.696 246.163L161.389 245.545L160.891 246.327C160.346 247.182 159.818 248.011 159.33 248.777L159.324 248.787L159.316 248.796C158.839 249.311 158.399 249.846 158.027 250.393C157.842 250.668 157.674 250.948 157.553 251.238C157.436 251.516 157.355 251.854 157.515 252.039C157.688 252.213 158.015 252.254 158.286 252.198C158.568 252.14 158.835 252.019 159.086 251.884C159.587 251.602 160.027 251.252 160.423 250.893C160.822 250.546 161.13 250.117 161.464 249.76C161.788 249.391 162.096 249.039 162.387 248.707C162.969 248.047 163.484 247.462 163.928 246.957L163.941 246.943L163.959 246.939C164.919 246.736 165.663 246.579 166.184 246.468C166.424 246.421 166.613 246.383 166.756 246.355C166.886 246.333 166.952 246.323 166.953 246.328Z" fill="#EB996E"/>
<path d="M123.025 112.584C120.226 110.574 118.793 106.832 119.533 103.467C119.616 103.089 119.719 102.675 119.54 102.333C119.386 102.039 119.065 101.881 118.774 101.723C117.171 100.854 115.87 99.3668 115.418 97.601C114.966 95.8352 115.444 93.8132 116.778 92.5712C114.124 91.6268 113.004 88.0514 114.257 85.5278C115.509 83.0042 118.576 81.6992 121.374 82.0304C120.41 80.6084 120.831 78.5636 121.983 77.2892C123.136 76.0154 124.848 75.3908 126.537 75.083C128.811 74.6684 131.541 74.9342 132.841 76.8446C132.965 75.434 134.382 74.4818 135.757 74.1428C139.445 73.2338 143.634 75.6404 144.705 79.2848C145.878 78.4274 147.231 77.7002 148.684 77.687C150.136 77.6738 151.675 78.566 151.996 79.9826C152.611 78.689 154.176 78.1538 155.602 78.026C156.632 77.9336 157.719 77.9966 158.618 78.5066C159.518 79.016 160.171 80.0654 159.96 81.0776C161.827 80.3678 164.163 81.3002 165.029 83.1008C165.895 84.9014 165.165 87.308 163.444 88.3238C164.97 89.1746 166 90.8504 166.072 92.5958C166.143 94.3412 165.252 96.0956 163.801 97.0682C164.668 97.1402 165.102 98.3078 164.713 99.086C164.324 99.8642 163.425 100.255 162.564 100.38C162.906 103.36 163.249 106.341 163.592 109.321C163.813 111.245 164.033 113.207 163.644 115.104C163.255 117 162.147 118.855 160.377 119.64" fill="#263238"/>
<path d="M122.093 103.972C121.647 96.7171 128.503 88.5589 135.771 88.4209L159.585 89.9365L159.993 93.8191L165.537 143.89L139.591 158.681L138 139.837C138 139.837 128.613 139.46 125.208 127.7C123.513 121.853 122.589 112.032 122.093 103.972Z" fill="#FFBE9D"/>
<path d="M125.891 112.754C125.963 113.57 126.715 114.182 127.568 114.121C128.421 114.06 129.054 113.352 128.981 112.535C128.908 111.719 128.157 111.107 127.305 111.167C126.451 111.228 125.817 111.938 125.891 112.754Z" fill="#263238"/>
<path d="M124.851 108.796C125.066 108.973 126.125 107.965 127.781 107.762C129.433 107.536 130.754 108.235 130.909 108.01C130.986 107.91 130.746 107.572 130.169 107.253C129.6 106.934 128.665 106.672 127.634 106.806C126.604 106.94 125.783 107.428 125.333 107.88C124.873 108.333 124.746 108.718 124.851 108.796Z" fill="#263238"/>
<path d="M140.709 111.546C140.782 112.362 141.533 112.973 142.387 112.913C143.239 112.852 143.873 112.143 143.799 111.327C143.727 110.511 142.975 109.898 142.123 109.959C141.269 110.019 140.636 110.73 140.709 111.546Z" fill="#263238"/>
<path d="M141.167 107.431C141.383 107.608 142.443 106.6 144.098 106.397C145.749 106.171 147.071 106.87 147.225 106.645C147.302 106.544 147.065 106.206 146.485 105.887C145.916 105.568 144.981 105.306 143.951 105.44C142.92 105.574 142.1 106.063 141.65 106.514C141.19 106.969 141.062 107.353 141.167 107.431Z" fill="#263238"/>
<path d="M136.693 120.101C136.689 120.005 135.637 119.957 133.943 119.952C133.514 119.961 133.104 119.927 132.996 119.648C132.858 119.355 132.978 118.877 133.122 118.359C133.391 117.286 133.673 116.162 133.97 114.983C135.132 110.182 135.918 106.256 135.725 106.211C135.531 106.166 134.43 110.02 133.268 114.821C132.991 116.004 132.726 117.131 132.475 118.21C132.375 118.711 132.168 119.29 132.463 119.897C132.617 120.199 132.956 120.389 133.236 120.428C133.517 120.477 133.755 120.452 133.967 120.438C135.656 120.318 136.698 120.196 136.693 120.101Z" fill="#263238"/>
<path d="M138 139.838C138 139.838 146.137 139.349 153.533 133.542C153.533 133.542 150.315 142.459 138.166 142.838L138 139.838Z" fill="#EB996E"/>
<path d="M137.892 124.004C138.389 123.142 139.378 122.579 140.428 122.561C141.157 122.549 141.926 122.804 142.435 123.335C142.945 123.866 143.14 124.685 142.813 125.293C142.445 125.977 141.529 126.239 140.711 126.113C139.893 125.987 139.147 125.552 138.436 125.115C138.24 124.994 138.038 124.867 137.902 124.684C137.766 124.502 137.71 124.247 137.827 124.067" fill="#EB996E"/>
<path d="M141.709 120.637C141.438 120.655 141.659 122.453 140.28 123.921C138.905 125.393 136.963 125.431 136.981 125.684C136.969 125.8 137.45 125.98 138.262 125.9C139.059 125.828 140.185 125.428 141.029 124.531C141.869 123.631 142.142 122.537 142.112 121.792C142.087 121.032 141.83 120.612 141.709 120.637Z" fill="#263238"/>
<path d="M139.927 101.578C140.147 102.007 141.773 101.587 143.745 101.578C145.717 101.53 147.355 101.903 147.562 101.467C147.653 101.259 147.326 100.87 146.639 100.513C145.957 100.156 144.903 99.8683 143.72 99.8839C142.538 99.9025 141.493 100.221 140.822 100.597C140.145 100.974 139.831 101.373 139.927 101.578Z" fill="#263238"/>
<path d="M124.861 103.928C125.2 104.268 126.292 103.735 127.661 103.545C129.023 103.307 130.225 103.481 130.444 103.053C130.537 102.848 130.307 102.494 129.755 102.201C129.211 101.909 128.338 101.724 127.399 101.87C126.46 102.018 125.686 102.461 125.257 102.906C124.82 103.353 124.709 103.761 124.861 103.928Z" fill="#263238"/>
<path d="M125.309 89.5267C124.807 91.8073 125.822 94.3453 127.757 95.6527C129.692 96.9595 132.425 96.9523 134.353 95.6353C133.652 96.4969 133.961 97.8829 134.793 98.6185C135.625 99.3541 136.814 99.5473 137.923 99.4783C140.253 99.3325 142.494 98.1133 143.883 96.2365C144.348 98.0455 145.718 99.5977 147.455 100.285C149.192 100.973 151.252 100.778 152.829 99.7771C151.402 101.517 151.222 104.175 152.403 106.091C153.583 108.007 156.038 109.042 158.234 108.55C160.43 108.058 162.207 106.074 162.457 103.837C164.073 102.902 165.212 101.186 165.446 99.3337C165.681 97.4815 165.005 95.5357 163.673 94.2277C164.838 93.7063 165.534 92.4253 165.635 91.1539C165.737 89.8825 165.33 88.6207 164.784 87.4675C163.448 84.6451 161.129 82.1791 158.16 81.2113C155.192 80.2435 151.583 81.0301 149.675 83.5015C149.459 83.7805 149.24 84.0961 148.902 84.1957C148.439 84.3319 147.978 84.0091 147.606 83.7031C145.955 82.3459 144.225 80.8783 142.11 80.5705C139.556 80.1991 136.856 81.8575 136.032 84.3025C134.298 82.0213 131.037 80.8435 128.4 81.9637C125.763 83.0839 124.384 86.7163 125.988 89.0905" fill="#263238"/>
<path d="M156.705 105.967C157.131 108.387 157.905 110.746 158.997 112.947C159.46 113.881 160.136 114.895 161.174 114.997C162.119 115.09 162.983 114.325 163.309 113.433C163.634 112.541 163.542 111.556 163.41 110.616C162.941 107.274 162.031 104.013 161.123 100.764" fill="#263238"/>
<path d="M159.66 108.47C159.8 108.379 165.452 105.6 166.317 111.71C167.182 117.82 160.87 117.428 160.834 117.254C160.798 117.08 159.66 108.47 159.66 108.47Z" fill="#FFBE9D"/>
<path d="M162.373 114.675C162.397 114.652 162.49 114.735 162.681 114.792C162.868 114.847 163.177 114.859 163.479 114.695C164.091 114.367 164.49 113.265 164.364 112.16C164.301 111.602 164.109 111.088 163.85 110.678C163.6 110.257 163.267 109.986 162.934 109.974C162.6 109.945 162.397 110.172 162.347 110.355C162.289 110.538 162.345 110.654 162.315 110.669C162.3 110.687 162.169 110.585 162.183 110.326C162.191 110.201 162.242 110.047 162.369 109.909C162.498 109.769 162.705 109.678 162.935 109.671C163.411 109.636 163.896 110.01 164.181 110.461C164.492 110.91 164.721 111.484 164.791 112.111C164.926 113.348 164.46 114.589 163.612 114.97C163.198 115.143 162.822 115.064 162.616 114.946C162.405 114.822 162.353 114.69 162.373 114.675Z" fill="#EB996E"/>
<path d="M126.803 118.737C125.341 118.737 123.522 118.635 122.929 118.163C122.052 117.465 120.922 114.63 119.931 111.949C119.804 111.607 119.719 111.374 119.689 111.311L120.214 111.022C120.25 111.084 120.295 111.205 120.494 111.741C121.026 113.181 122.439 117.006 123.303 117.694C124.324 118.507 132.087 118.081 132.745 117.472C133.152 117.044 133.824 113.395 134.171 110.941L134.202 110.718L137.262 110.27L137.359 110.464C138.132 112.006 140.454 116.152 141.888 116.805C143.686 117.622 150.21 116.369 150.634 115.616C150.997 114.971 151.712 110.726 152.103 108.03L152.138 107.792L161.54 107.098L161.584 107.696L152.662 108.355C152.465 109.691 151.652 115.031 151.157 115.91C150.481 117.113 143.453 118.177 141.64 117.352C139.898 116.558 137.449 111.95 136.921 110.927L134.734 111.247C134.533 112.635 133.827 117.206 133.179 117.887C132.582 118.513 128.68 118.69 128.238 118.708C127.871 118.722 127.363 118.737 126.803 118.737Z" fill="#455A64"/>
<path d="M137.557 111.292L136.844 110.327C140.649 107.514 147.757 105.703 152.605 107.683L152.151 108.795C147.83 107.029 141.116 108.66 137.557 111.292Z" fill="#455A64"/>
<path d="M120.128 111.881L119.559 110.824C124.267 108.286 130.668 108.191 134.779 110.6L134.173 111.635C130.459 109.46 124.422 109.565 120.128 111.881Z" fill="#455A64"/>
<path d="M164.387 111.716C163.694 111.375 162.804 111.251 162.188 111.716C161.758 112.04 161.546 112.628 161.67 113.151C161.793 113.675 162.246 114.107 162.775 114.204C163.052 114.255 163.353 114.226 163.598 114.363C163.868 114.513 164.002 114.835 164.025 115.143C164.047 115.452 163.976 115.758 163.934 116.064C163.837 116.767 163.889 117.489 164.086 118.17C164.143 118.369 164.22 118.575 164.381 118.704C164.515 118.811 164.694 118.851 164.866 118.853C165.399 118.858 165.894 118.527 166.198 118.091C166.503 117.654 166.644 117.125 166.732 116.6C166.868 115.783 166.888 114.948 166.791 114.126C166.731 113.622 166.621 113.107 166.323 112.697C165.847 112.041 164.027 111.503 163.221 111.414" fill="#263238"/>
<path d="M144.03 94.9849C144.031 94.9921 143.969 95.0161 143.845 95.0569C143.722 95.0989 143.536 95.1523 143.292 95.2135C142.803 95.3305 142.07 95.4871 141.119 95.4769C140.646 95.4703 140.116 95.4199 139.561 95.2639C139.008 95.1139 138.421 94.8589 137.898 94.4341C137.376 94.0135 136.914 93.4435 136.615 92.7469C136.327 92.0533 136.22 91.2025 136.507 90.3985L136.725 90.5437C135.544 91.6387 133.884 92.4493 132.022 92.6329C131.094 92.7313 130.121 92.6623 129.169 92.4133C128.695 92.2843 128.22 92.1067 127.786 91.8295C127.353 91.5565 126.973 91.1587 126.744 90.6811C126.466 90.1225 126.381 89.5075 126.373 88.9219C126.366 88.3327 126.431 87.7615 126.507 87.2029C126.588 86.6419 126.707 86.0845 126.949 85.5715C127.18 85.0633 127.61 84.5887 128.175 84.4459L128.277 84.7237C127.245 85.1875 126.108 85.2391 125.11 84.9913C124.107 84.7519 123.229 84.2371 122.577 83.5747C121.932 82.9075 121.515 82.0909 121.38 81.2911C121.232 80.4925 121.294 79.7323 121.464 79.0807C121.812 77.7649 122.555 76.9147 123.111 76.4587C123.682 76.0003 124.066 75.8809 124.066 75.8809C124.083 75.9091 123.713 76.0621 123.175 76.5343C122.652 77.0041 121.955 77.8489 121.644 79.1263C121.493 79.7581 121.446 80.4901 121.598 81.2479C121.737 82.0075 122.14 82.7701 122.758 83.3965C123.381 84.0175 124.221 84.5005 125.175 84.7201C126.123 84.9487 127.194 84.8899 128.152 84.4537L128.254 84.7315C127.794 84.8515 127.438 85.2349 127.224 85.7017C127.005 86.1691 126.889 86.7013 126.813 87.2455C126.676 88.3297 126.534 89.5249 127.024 90.5419C127.433 91.4125 128.353 91.8763 129.25 92.1139C130.162 92.3539 131.097 92.4235 131.992 92.3323C133.788 92.1619 135.394 91.3903 136.542 90.3445L136.949 89.9731L136.76 90.4897C136.494 91.2151 136.581 91.9969 136.843 92.6515C137.116 93.3085 137.548 93.8563 138.037 94.2625C138.526 94.6717 139.08 94.9243 139.614 95.0803C140.146 95.2411 140.66 95.3011 141.123 95.3191C142.053 95.3521 142.783 95.2225 143.274 95.1319C143.765 95.0365 144.025 94.9687 144.03 94.9849Z" fill="white"/>
<path d="M124.774 94.6659C124.783 94.6815 124.656 94.7854 124.388 94.9108C124.122 95.0356 123.705 95.1717 123.17 95.1975C122.64 95.2155 121.976 95.1411 121.351 94.7445C121.049 94.5435 120.754 94.2303 120.665 93.8055C120.577 93.4041 120.673 92.8935 121.078 92.6085L121.232 92.8792C121.2 92.8923 121.165 92.9073 121.13 92.9217C119.566 93.5961 117.946 93.2613 117.012 92.7561C116.532 92.5053 116.188 92.2281 115.978 92.0133C115.768 91.7979 115.675 91.6605 115.689 91.6479C115.731 91.6011 116.161 92.1243 117.108 92.5569C118.026 92.9913 119.555 93.2626 121.005 92.635C121.037 92.6218 121.07 92.6079 121.1 92.5953L122.509 92.0133L121.254 92.8659C120.987 93.0471 120.896 93.4264 120.963 93.7432C121.024 94.0624 121.253 94.327 121.512 94.5076C122.047 94.8676 122.671 94.9707 123.166 94.9785C124.183 94.9767 124.754 94.6083 124.774 94.6659Z" fill="white"/>
<path d="M131.578 107.718C131.547 107.759 131.18 107.489 130.515 107.207C129.858 106.923 128.876 106.661 127.786 106.735C126.696 106.81 125.759 107.204 125.146 107.574C124.527 107.944 124.199 108.263 124.164 108.225C124.137 108.203 124.413 107.823 125.027 107.389C125.631 106.956 126.609 106.502 127.765 106.423C128.921 106.344 129.951 106.659 130.609 107.006C131.276 107.353 131.601 107.692 131.578 107.718Z" fill="#EB996E"/>
<path d="M147.81 105.653C147.781 105.693 147.478 105.481 146.941 105.26C146.408 105.037 145.618 104.829 144.742 104.888C143.866 104.946 143.11 105.257 142.612 105.548C142.109 105.838 141.837 106.088 141.803 106.052C141.776 106.028 141.996 105.716 142.494 105.362C142.984 105.008 143.78 104.639 144.722 104.576C145.663 104.514 146.502 104.774 147.034 105.06C147.574 105.345 147.834 105.625 147.81 105.653Z" fill="#EB996E"/>
<path d="M143.252 121.078C143.21 121.097 143.128 120.982 142.961 120.855C142.798 120.726 142.538 120.589 142.225 120.525C141.59 120.414 141.004 120.479 140.998 120.375C140.989 120.311 141.538 120.094 142.289 120.219C142.662 120.295 142.966 120.499 143.119 120.699C143.275 120.9 143.288 121.064 143.252 121.078Z" fill="#EB996E"/>
<path d="M144.524 121.824C144.438 121.847 144.253 121.403 143.951 120.908C143.653 120.409 143.346 120.039 143.406 119.973C143.459 119.91 143.893 120.204 144.218 120.746C144.547 121.286 144.606 121.806 144.524 121.824Z" fill="#EB996E"/>
<path d="M131.792 137.566C131.798 137.565 131.82 137.652 131.859 137.822C131.9 138.006 131.955 138.256 132.026 138.577C132.172 139.257 132.381 140.234 132.65 141.486C133.209 144.005 133.982 147.669 135.374 152.067C136.779 156.439 138.906 161.61 142.731 166.371C143.684 167.558 144.723 168.725 145.794 169.91C146.332 170.5 146.857 171.114 147.509 171.561C148.151 172.019 148.956 172.209 149.744 172.082C150.534 171.957 151.275 171.563 151.956 171.093C152.637 170.613 153.264 170.049 153.875 169.446C155.125 168.276 156.316 167.01 157.494 165.708C162.156 160.457 165.65 154.557 167.303 148.691C168.158 145.77 168.554 142.884 168.612 140.179C168.684 137.472 168.477 134.948 168.159 132.666C167.51 128.099 166.544 124.478 165.919 121.976C165.597 120.738 165.346 119.771 165.171 119.097C165.09 118.779 165.027 118.53 164.981 118.347C164.939 118.178 164.921 118.091 164.926 118.089C164.931 118.088 164.96 118.173 165.011 118.339C165.065 118.52 165.138 118.766 165.231 119.081C165.42 119.751 165.69 120.713 166.037 121.944C166.698 124.439 167.699 128.055 168.378 132.635C168.711 134.924 168.932 137.46 168.872 140.186C168.824 142.909 168.435 145.823 167.58 148.77C165.928 154.691 162.415 160.637 157.728 165.915C156.543 167.224 155.346 168.497 154.089 169.671C153.478 170.273 152.834 170.852 152.133 171.347C151.428 171.83 150.652 172.247 149.792 172.385C148.936 172.526 148.025 172.307 147.339 171.812C146.642 171.33 146.109 170.697 145.574 170.109C144.504 168.921 143.463 167.748 142.507 166.551C138.663 161.741 136.546 156.527 135.165 152.135C133.794 147.713 133.055 144.039 132.531 141.511C132.288 140.255 132.098 139.273 131.966 138.59C131.907 138.267 131.862 138.014 131.829 137.828C131.799 137.656 131.787 137.567 131.792 137.566Z" fill="#263238"/>
<path d="M153.943 238.922C153.938 238.924 153.919 238.866 153.888 238.751C153.853 238.619 153.809 238.45 153.753 238.24C153.695 238.007 153.625 237.729 153.544 237.405C153.451 237.076 153.443 236.68 153.379 236.242C153.154 234.489 153.277 231.892 154.02 228.818C154.715 225.733 156.057 222.208 157.042 218.172C157.515 216.155 157.877 213.991 157.815 211.743C157.8 209.49 157.205 207.201 156.357 204.969C155.504 202.731 154.446 200.634 153.485 198.579C152.53 196.537 151.582 194.484 151.463 192.346C151.35 190.193 152.183 188.303 152.634 186.534C152.862 185.645 153.031 184.768 153.005 183.923C152.973 183.081 152.804 182.276 152.517 181.551C151.966 180.089 151.195 178.879 150.6 177.778C149.992 176.682 149.532 175.691 149.3 174.832C149.174 174.405 149.124 174.013 149.085 173.673C149.067 173.332 149.075 173.041 149.085 172.81C149.121 172.594 149.149 172.422 149.172 172.287C149.194 172.17 149.207 172.11 149.212 172.111C149.288 172.105 148.899 173.103 149.417 174.799C149.664 175.639 150.133 176.609 150.753 177.693C151.36 178.782 152.148 179.986 152.724 181.473C153.023 182.211 153.207 183.043 153.246 183.918C153.279 184.795 153.11 185.697 152.885 186.6C152.434 188.396 151.63 190.267 151.75 192.33C151.872 194.392 152.802 196.411 153.762 198.45C154.725 200.499 155.788 202.6 156.649 204.859C157.505 207.111 158.109 209.441 158.121 211.735C158.179 214.024 157.806 216.211 157.321 218.241C156.313 222.3 154.953 225.808 154.234 228.871C153.469 231.921 153.313 234.487 153.5 236.231C153.553 236.666 153.552 237.061 153.635 237.389C153.704 237.714 153.763 237.993 153.813 238.226C153.856 238.439 153.89 238.609 153.917 238.743C153.94 238.86 153.948 238.92 153.943 238.922Z" fill="#263238"/>
<path d="M147.555 171.445L147.365 172.11L148.824 173.956H149.436L151.046 172.11L150.789 171.445H147.555Z" fill="#455A64"/>
<path d="M25.9252 234.245L52.8094 281.607L157.032 281.643C157.91 281.639 158.619 280.926 158.619 280.049C158.619 279.174 157.915 278.463 157.04 278.453L122.416 277.489C120.826 277.472 119.374 276.584 118.636 275.176L96.1492 232.306C95.686 231.423 94.7758 230.867 93.7792 230.856L28.3066 230.202C26.2198 230.181 24.895 232.43 25.9252 234.245Z" fill="#455A64"/>
<path d="M26.041 232.463C26.041 232.463 26.1466 232.453 26.353 232.451C26.572 232.45 26.8762 232.449 27.268 232.447C28.0858 232.45 29.269 232.455 30.7858 232.462C33.8542 232.489 38.2714 232.527 43.7242 232.575C54.6598 232.701 69.7456 232.875 86.4082 233.067C87.4504 233.08 88.486 233.093 89.515 233.106C90.0298 233.113 90.5422 233.119 91.0534 233.126C91.5826 233.127 92.1232 233.249 92.5942 233.496C93.067 233.742 93.4762 234.102 93.7798 234.535C94.0768 234.987 94.2664 235.428 94.5118 235.871C94.9762 236.756 95.4364 237.634 95.893 238.504C97.7176 241.986 99.478 245.343 101.155 248.542C104.501 254.941 107.515 260.704 110.049 265.548C112.566 270.385 114.605 274.304 116.021 277.026C116.715 278.374 117.256 279.426 117.63 280.153C117.807 280.504 117.944 280.775 118.042 280.971C118.133 281.155 118.173 281.254 118.173 281.254C118.173 281.254 118.114 281.166 118.014 280.986C117.909 280.794 117.763 280.527 117.575 280.183C117.188 279.462 116.63 278.419 115.913 277.083C114.476 274.372 112.407 270.469 109.854 265.651C107.303 260.816 104.27 255.064 100.901 248.677C99.2188 245.48 97.453 242.125 95.6224 238.647C95.1652 237.777 94.7038 236.9 94.2388 236.016C94.0012 235.585 93.7846 235.102 93.526 234.713C93.2506 234.321 92.8798 233.995 92.4514 233.773C92.0218 233.549 91.5418 233.439 91.0492 233.438C90.538 233.432 90.0256 233.425 89.5108 233.419C88.4818 233.406 87.4456 233.393 86.4034 233.38C69.7414 233.152 54.6562 232.946 43.7206 232.797C38.2684 232.708 33.8518 232.635 30.784 232.585C29.2672 232.553 28.084 232.528 27.2668 232.511C26.875 232.5 26.5708 232.491 26.3524 232.484C26.1466 232.475 26.041 232.463 26.041 232.463Z" fill="#263238"/>
<path d="M69.5888 254.679C69.5888 255.968 68.45 257.012 67.0454 257.012C65.6408 257.012 64.502 255.968 64.502 254.679C64.502 253.391 65.6408 252.347 67.0454 252.347C68.45 252.347 69.5888 253.391 69.5888 254.679Z" fill="white"/>
<path d="M287.44 281.572C287.44 281.658 226.507 281.728 151.36 281.728C76.1874 281.728 15.2676 281.657 15.2676 281.572C15.2676 281.485 76.1874 281.416 151.36 281.416C226.507 281.416 287.44 281.485 287.44 281.572Z" fill="#263238"/>
<path d="M184.85 126.291L194.76 120.668C198.798 123.155 203.551 124.593 208.642 124.593C223.281 124.593 235.149 112.725 235.149 98.086C235.149 83.4466 223.282 71.5786 208.642 71.5786C194.002 71.5786 182.135 83.446 182.135 98.086C182.135 104.199 184.21 109.824 187.686 114.308L187.674 114.299L184.85 126.291Z" fill="white"/>
<path d="M184.85 126.291C184.974 125.747 185.847 121.935 187.598 114.281L187.625 114.164L187.721 114.238L187.733 114.247L187.624 114.356C186.453 112.844 185.299 111.033 184.338 108.904C183.393 106.772 182.622 104.33 182.263 101.635C182.091 100.289 181.98 98.8824 182.051 97.437C182.092 96.7152 182.11 95.9796 182.172 95.2386C182.283 94.5024 182.396 93.7554 182.51 92.9988C183.103 89.997 184.242 86.9286 186.019 84.066C187.789 81.2052 190.192 78.5562 193.146 76.4328C196.093 74.313 199.589 72.7056 203.387 71.9532C207.18 71.208 211.245 71.2704 215.18 72.2664C219.1 73.2696 222.931 75.1434 226.083 77.9484L227.274 79.0314C227.674 79.3872 228.004 79.8114 228.372 80.1972C228.72 80.601 229.113 80.9652 229.42 81.399L230.371 82.671C230.704 83.0826 230.973 83.5368 231.243 83.988C231.516 84.4374 231.787 84.8856 232.059 85.3332C232.288 85.8036 232.516 86.2728 232.743 86.7414C232.961 87.2136 233.218 87.6678 233.375 88.1628C234.904 92.0136 235.486 96.1206 235.201 100.046C234.919 103.972 233.793 107.729 231.978 110.953C230.178 114.186 227.775 116.912 225.091 119.017C222.406 121.128 219.444 122.615 216.495 123.536C213.531 124.451 210.592 124.699 207.872 124.689C205.145 124.61 202.632 124.114 200.427 123.391C198.219 122.666 196.32 121.715 194.722 120.733L194.798 120.734C188.435 124.288 185.316 126.031 184.85 126.291C185.313 126.025 188.409 124.241 194.723 120.603L194.761 120.581L194.799 120.605C196.395 121.571 198.287 122.506 200.483 123.215C202.676 123.923 205.171 124.405 207.877 124.472C210.576 124.472 213.488 124.217 216.421 123.303C219.341 122.382 222.27 120.902 224.925 118.807C227.577 116.717 229.95 114.015 231.726 110.814C233.516 107.623 234.625 103.906 234.9 100.024C235.177 96.1416 234.599 92.0826 233.087 88.278C232.933 87.7884 232.677 87.3402 232.462 86.8734C232.237 86.4108 232.012 85.947 231.786 85.482C231.517 85.0404 231.248 84.597 230.978 84.153C230.711 83.7072 230.446 83.2584 230.116 82.8516L229.176 81.594C228.873 81.165 228.483 80.8056 228.14 80.4066C227.776 80.0256 227.451 79.6056 227.055 79.2546L225.877 78.1848C222.763 75.4122 218.978 73.56 215.104 72.567C211.216 71.5806 207.196 71.5158 203.446 72.249C199.69 72.9894 196.232 74.5746 193.313 76.6674C190.389 78.7638 188.005 81.3804 186.247 84.2088C184.483 87.0384 183.348 90.0744 182.752 93.0468C182.637 93.7962 182.523 94.536 182.41 95.265C182.346 95.9994 182.327 96.7284 182.284 97.4436C182.209 98.8758 182.314 100.271 182.48 101.606C182.826 104.281 183.582 106.708 184.51 108.828C185.455 110.946 186.592 112.751 187.747 114.262L188.107 114.733L187.638 114.371L187.626 114.362L187.749 114.319C185.902 121.948 184.981 125.749 184.85 126.291Z" fill="#263238"/>
<path d="M204.027 96.825H197.221L195.879 99.975H193.273L199.399 86.3628H201.888L208.032 99.975H205.388L204.027 96.825ZM203.191 94.8414L200.625 88.8912L198.077 94.8414H203.191Z" fill="#263238"/>
<path d="M223.912 99.6599H211.482C210.985 99.6599 210.582 99.2573 210.582 98.7599C210.582 98.2625 210.985 97.8599 211.482 97.8599H223.912C224.409 97.8599 224.812 98.2625 224.812 98.7599C224.812 99.2573 224.409 99.6599 223.912 99.6599Z" fill="#263238"/>
<path d="M217.697 99.6599C217.2 99.6599 216.797 99.2573 216.797 98.7599V95.4029C216.797 94.9055 217.2 94.5029 217.697 94.5029C218.194 94.5029 218.597 94.9055 218.597 95.4029V98.7599C218.597 99.2573 218.194 99.6599 217.697 99.6599Z" fill="#263238"/>
<path d="M211.797 110.36C211.445 110.36 211.111 110.152 210.966 109.807C210.775 109.348 210.991 108.821 211.449 108.629C211.533 108.595 219.774 105.07 220.491 98.6599C220.546 98.1661 220.993 97.8079 221.485 97.8655C221.979 97.9207 222.335 98.3665 222.279 98.8603C221.443 106.329 212.522 110.132 212.142 110.29C212.029 110.338 211.912 110.36 211.797 110.36Z" fill="#263238"/>
<path d="M221.648 110.36C221.564 110.36 221.48 110.348 221.395 110.323C216.787 108.977 213.141 102.972 212.988 102.717C212.732 102.291 212.87 101.739 213.296 101.483C213.721 101.228 214.274 101.365 214.532 101.791C214.566 101.847 217.97 107.448 221.9 108.595C222.377 108.734 222.651 109.235 222.512 109.711C222.397 110.105 222.038 110.36 221.648 110.36Z" fill="#263238"/>
</svg>
