<svg width="186" height="90" viewBox="0 0 186 90" fill="none" xmlns="http://www.w3.org/2000/svg">
<g id="Layer_1" clip-path="url(#clip0_2640_3190)">
<path id="Vector" d="M155.07 1.3846C155.1 0.154997 155.958 -0.328159 157.267 0.233713C160.079 1.43889 162.872 2.68749 165.67 3.92524C170.073 5.87144 174.476 7.82035 178.876 9.77468C180.903 10.6759 180.986 11.596 179.163 12.9016C172.752 17.4916 166.344 22.087 159.903 26.639C159.378 27.0109 158.464 27.3664 158.001 27.1466C157.535 26.9267 157.224 26.0038 157.165 25.3578C156.458 17.5947 155.812 9.82354 155.149 2.05776C155.13 1.83247 155.094 1.60989 155.067 1.38732L155.07 1.3846Z" fill="#CE4A27"/>
<path id="Vector_2" d="M134.217 39.8872C133.286 39.5913 133.11 38.8259 133.827 37.9491C135.369 36.0654 136.939 34.2006 138.5 32.3331C140.96 29.3935 143.42 26.4538 145.885 23.5196C147.022 22.1679 147.739 22.3063 148.329 23.9946C150.399 29.9228 152.475 35.8509 154.51 41.7927C154.675 42.2785 154.742 43.0576 154.475 43.3616C154.204 43.6683 153.433 43.7036 152.927 43.6059C146.86 42.4224 140.803 41.1928 134.744 39.9768C134.568 39.9415 134.393 39.9198 134.217 39.8899V39.8872Z" fill="#3282C4"/>
<path id="Vector_3" d="M156.212 58.7627C154.805 58.8116 154.199 57.8833 154.759 56.3877C155.96 53.1766 157.211 49.9845 158.447 46.787C160.396 41.7545 162.344 36.7248 164.301 31.6978C165.202 29.3825 166.246 29.2278 167.854 31.1767C173.496 38.025 179.146 44.8652 184.743 51.7461C185.2 52.308 185.663 53.3041 185.443 53.8307C185.222 54.3627 184.185 54.7699 183.454 54.8785C174.633 56.1651 165.803 57.3865 156.975 58.627C156.721 58.6623 156.466 58.7166 156.215 58.76H156.212V58.7627Z" fill="#6AAA43"/>
<g id="Group 1">
<path id="Vector_4" d="M0.5 67.3749L9.0134 43.3447H14.3958L22.6278 67.3749H17.9841L11.0538 46.5205H12.3906L5.14367 67.3749H0.5ZM5.49547 58.2357H17.3157V62.5407H5.49547V58.2357Z" fill="#151515"/>
<path id="Vector_5" d="M30.5431 67.8338C29.2306 67.8338 27.9804 67.5623 26.7979 67.0222C25.6126 66.482 24.5653 65.5401 23.6479 64.1992L26.4623 61.7292C27.2119 62.576 27.9344 63.1814 28.6245 63.5451C29.3172 63.9088 30.0966 64.0934 30.9653 64.0934C31.5525 64.0934 32.0206 63.9522 32.3724 63.6699C32.7242 63.3876 32.9001 63.0348 32.9001 62.6113C32.9001 62.329 32.8054 62.0766 32.6187 61.854C32.432 61.6315 32.0856 61.4143 31.5822 61.1999C31.0789 60.9882 30.3456 60.7656 29.3849 60.5294C27.6016 60.0598 26.2648 59.4165 25.3744 58.6077C24.4841 57.7961 24.0376 56.6506 24.0376 55.1659C24.0376 54.1561 24.2947 53.2305 24.8116 52.3972C25.3284 51.5612 26.0726 50.8962 27.0468 50.4022C28.021 49.9081 29.1738 49.6611 30.5106 49.6611C32.0829 49.6611 33.4251 49.9679 34.54 50.5786C35.6549 51.1893 36.5506 51.9303 37.2299 52.8016L34.2396 55.307C33.7931 54.8374 33.2194 54.4248 32.5158 54.072C31.8123 53.7191 30.9923 53.5427 30.0533 53.5427C29.5364 53.5427 29.0791 53.6594 28.6813 53.8955C28.2835 54.1317 28.0833 54.471 28.0833 54.9188C28.0833 55.3423 28.2997 55.6951 28.7327 55.9774C29.1657 56.2597 30.0046 56.5529 31.2467 56.8596C33.3574 57.3536 34.8702 58.0241 35.7848 58.871C36.6995 59.7178 37.1568 60.847 37.1568 62.2585C37.1568 63.3876 36.8646 64.3702 36.2773 65.2036C35.6901 66.0396 34.8999 66.6856 33.9014 67.1443C32.9055 67.603 31.7852 67.8338 30.5404 67.8338H30.5431Z" fill="#151515"/>
<path id="Vector_6" d="M40.0767 74.0799V50.1203H43.5242L44.6852 54.2135H44.3334V62.8588H44.6852V74.0799H40.0767ZM49.2936 67.7989C47.7701 67.7989 46.4441 67.4406 45.3184 66.724C44.1926 66.0074 43.3186 64.9787 42.6962 63.6378C42.0738 62.2969 41.7653 60.6737 41.7653 58.7682C41.7653 56.8627 42.0819 55.3101 42.7151 53.9692C43.3483 52.6283 44.2332 51.5887 45.3725 50.8477C46.5091 50.1067 47.8296 49.7375 49.3288 49.7375C50.828 49.7375 52.2785 50.1203 53.461 50.883C54.6463 51.6485 55.5718 52.7071 56.2402 54.0588C56.9086 55.4133 57.2442 56.9822 57.2442 58.7709C57.2442 60.5597 56.9086 62.0987 56.2402 63.4641C55.5718 64.8294 54.6382 65.8934 53.4448 66.6562C52.2487 67.4216 50.8659 67.8016 49.2936 67.8016V67.7989ZM48.5197 63.5292C49.6914 63.5292 50.6602 63.0895 51.4233 62.2046C52.1865 61.3224 52.568 60.177 52.568 58.7655C52.568 57.354 52.1865 56.2004 51.4233 55.3074C50.6602 54.4144 49.6941 53.9665 48.5197 53.9665C47.3453 53.9665 46.3738 54.4062 45.5998 55.2911C44.8259 56.176 44.4389 57.3323 44.4389 58.7682C44.4389 60.2041 44.8259 61.3251 45.5998 62.2073C46.3738 63.0895 47.348 63.5319 48.5197 63.5319V63.5292Z" fill="#151515"/>
<path id="Vector_7" d="M59.7422 44.7567C59.7422 43.9098 59.9939 43.2203 60.4972 42.6937C61.0005 42.1644 61.6743 41.8984 62.5214 41.8984C63.3684 41.8984 64.0395 42.1644 64.5428 42.6937C65.0462 43.223 65.2978 43.9098 65.2978 44.7567C65.2978 45.5574 65.0462 46.217 64.5428 46.7327C64.0395 47.2512 63.3657 47.509 62.5214 47.509C61.6771 47.509 61.0032 47.2512 60.4972 46.7327C59.9939 46.2143 59.7422 45.5574 59.7422 44.7567ZM64.8432 67.3754H60.2347V50.1202H64.8432V67.3754Z" fill="#151515"/>
<path id="Vector_8" d="M72.3011 50.0081L73.462 54.7718V67.2633H68.8535V50.0081H72.3011ZM72.5122 57.1361L71.6679 56.7479V53.2192L71.9845 52.8311C72.2416 52.4076 72.6339 51.9489 73.1616 51.4549C73.6893 50.9609 74.2982 50.532 74.991 50.1656C75.6837 49.8019 76.4035 49.62 77.1558 49.62C77.532 49.62 77.8703 49.6444 78.176 49.6906C78.4818 49.7367 78.7146 49.8209 78.8796 49.9376V54.1367H77.7539C76.2304 54.1367 75.0559 54.3783 74.236 54.8614C73.416 55.3446 72.8396 56.1019 72.5122 57.1388V57.1361Z" fill="#151515"/>
<path id="AspiraSys" d="M86.7241 67.4331C85.3946 67.4331 84.196 67.0696 83.1283 66.3427C82.0606 65.6158 81.2145 64.6263 80.5901 63.3744C79.9656 62.1225 79.6533 60.6888 79.6533 59.0735C79.6533 57.4581 79.9656 56.0345 80.5901 54.8028C81.2347 53.5509 82.1009 52.5715 83.1887 51.8648C84.2766 51.1379 85.5155 50.7744 86.9054 50.7744C87.6911 50.7744 88.4062 50.8956 89.0509 51.1379C89.7156 51.36 90.2898 51.673 90.7733 52.0768C91.2769 52.4807 91.6999 52.9451 92.0424 53.4701C92.3848 53.9951 92.6266 54.5605 92.7676 55.1662L91.8611 55.0148V51.1076H96.1217V67.1302H91.8006V63.2835L92.7676 63.1927C92.6064 63.7581 92.3445 64.2932 91.9819 64.798C91.6193 65.3028 91.1661 65.7571 90.6222 66.161C90.0984 66.5446 89.5041 66.8576 88.8393 67.0999C88.1746 67.322 87.4695 67.4331 86.7241 67.4331ZM87.9026 63.7076C88.7084 63.7076 89.4135 63.5158 90.0178 63.1321C90.6222 62.7485 91.0855 62.2134 91.4078 61.5268C91.7503 60.8201 91.9215 60.0023 91.9215 59.0735C91.9215 58.1648 91.7503 57.3672 91.4078 56.6807C91.0855 55.9941 90.6222 55.459 90.0178 55.0754C89.4135 54.6715 88.7084 54.4696 87.9026 54.4696C87.117 54.4696 86.422 54.6715 85.8176 55.0754C85.2334 55.459 84.7701 55.9941 84.4276 56.6807C84.0852 57.3672 83.9139 58.1648 83.9139 59.0735C83.9139 60.0023 84.0852 60.8201 84.4276 61.5268C84.7701 62.2134 85.2334 62.7485 85.8176 63.1321C86.422 63.5158 87.117 63.7076 87.9026 63.7076Z" fill="#151515"/>
<path id="Vector_9" d="M106.706 67.94C105.37 67.94 104.103 67.7391 102.907 67.3401C101.711 66.9411 100.639 66.3168 99.6895 65.4699C98.7396 64.6231 97.9359 63.5183 97.2783 62.153L100.937 59.9299C101.665 61.1758 102.52 62.1068 103.505 62.7176C104.49 63.3283 105.627 63.635 106.917 63.635C108.089 63.635 108.98 63.3826 109.591 62.8777C110.2 62.3728 110.506 61.697 110.506 60.8501C110.506 60.3099 110.37 59.8431 110.1 59.4576C109.829 59.0695 109.356 58.6976 108.676 58.3447C107.997 57.9919 107.009 57.6743 105.721 57.392C103.797 56.9224 102.293 56.3334 101.199 55.6277C100.106 54.9219 99.3404 54.0913 98.8966 53.1386C98.4501 52.1859 98.2282 51.1327 98.2282 49.9818C98.2282 48.5948 98.5637 47.376 99.2321 46.3283C99.9005 45.2805 100.856 44.4526 102.098 43.8392C103.34 43.2285 104.818 42.9218 106.53 42.9218C108.501 42.9218 110.154 43.3045 111.491 44.0672C112.828 44.8327 113.918 45.8614 114.762 47.1562L111.104 49.6615C110.446 48.8146 109.702 48.2093 108.871 47.8429C108.038 47.4792 107.188 47.2973 106.322 47.2973C105.196 47.2973 104.336 47.5199 103.738 47.9677C103.14 48.4156 102.839 49.0372 102.839 49.8379C102.839 50.5437 103.137 51.149 103.738 51.6566C104.336 52.1614 105.502 52.6283 107.237 53.049C109.207 53.5213 110.776 54.0968 111.951 54.7781C113.123 55.4594 113.961 56.2845 114.465 57.2481C114.968 58.2117 115.22 59.3762 115.22 60.7415C115.22 62.1068 114.873 63.331 114.183 64.4113C113.491 65.4944 112.506 66.3521 111.228 66.9873C109.951 67.6224 108.444 67.94 106.706 67.94Z" fill="#151515"/>
<path id="Vector_10" d="M122.432 65.7875L115.572 50.1202H120.286L126.653 64.6936L122.432 65.7875ZM118.492 74.0799L129.01 50.1202H133.724L123.206 74.0799H118.492Z" fill="#151515"/>
<path id="Vector_11" d="M141.041 67.8338C139.729 67.8338 138.479 67.5623 137.296 67.0222C136.111 66.482 135.064 65.5401 134.149 64.1992L136.963 61.7292C137.713 62.576 138.435 63.1814 139.128 63.5451C139.821 63.9088 140.6 64.0934 141.469 64.0934C142.056 64.0934 142.524 63.9522 142.876 63.6699C143.228 63.3876 143.404 63.0348 143.404 62.6113C143.404 62.329 143.309 62.0766 143.122 61.854C142.936 61.6315 142.589 61.4143 142.086 61.1999C141.583 60.9882 140.849 60.7656 139.889 60.5294C138.105 60.0598 136.768 59.4165 135.878 58.6077C134.988 57.7961 134.541 56.6506 134.541 55.1659C134.541 54.1561 134.798 53.2305 135.315 52.3972C135.832 51.5612 136.576 50.8962 137.548 50.4022C138.519 49.9081 139.677 49.6611 141.012 49.6611C142.584 49.6611 143.926 49.9679 145.038 50.5786C146.153 51.1893 147.049 51.9303 147.731 52.8016L144.741 55.307C144.294 54.8374 143.72 54.4248 143.017 54.072C142.313 53.7191 141.493 53.5427 140.554 53.5427C140.037 53.5427 139.58 53.6594 139.182 53.8955C138.784 54.1317 138.584 54.471 138.584 54.9188C138.584 55.3423 138.801 55.6951 139.236 55.9774C139.669 56.2597 140.508 56.5529 141.75 56.8596C143.861 57.3536 145.374 58.0241 146.288 58.871C147.203 59.7178 147.66 60.847 147.66 62.2585C147.66 63.3876 147.368 64.3702 146.781 65.2036C146.194 66.0396 145.404 66.6856 144.405 67.1443C143.409 67.603 142.289 67.8338 141.044 67.8338H141.041Z" fill="#151515"/>
</g>
<g id="Group 2">
<path id="Vector_12" d="M45.3888 83.3553C45.221 83.0024 44.9802 82.7283 44.6608 82.5356C44.3442 82.3428 43.9735 82.2451 43.5513 82.2451C43.1292 82.2451 42.7503 82.3428 42.4121 82.5356C42.0738 82.7283 41.8086 83.0079 41.6165 83.3689C41.4243 83.7299 41.3269 84.1506 41.3269 84.6229C41.3269 85.0952 41.4243 85.5159 41.6165 85.8742C41.8086 86.2325 42.0765 86.5094 42.4121 86.7048C42.7476 86.9003 43.1292 86.9953 43.5513 86.9953C44.1413 86.9953 44.6257 86.8188 45.0072 86.466C45.3888 86.1131 45.6107 85.6354 45.6729 85.0328H43.2645V84.3895H46.5118V84.9975C46.4658 85.4942 46.3089 85.9502 46.0437 86.3655C45.7785 86.7808 45.4294 87.1065 44.9964 87.3481C44.5634 87.587 44.0817 87.7091 43.5513 87.7091C42.9912 87.7091 42.4797 87.5761 42.0197 87.3128C41.5569 87.0495 41.1916 86.6831 40.9237 86.2135C40.6558 85.7439 40.5205 85.2146 40.5205 84.6229C40.5205 84.0312 40.6558 83.5019 40.9237 83.0296C41.1916 82.5573 41.5569 82.1908 42.0197 81.9275C42.4824 81.6643 42.9912 81.5312 43.5513 81.5312C44.1927 81.5312 44.7583 81.6914 45.2535 82.009C45.746 82.3266 46.1059 82.7771 46.3305 83.3553H45.3861H45.3888Z" fill="#566979"/>
<path id="Vector_13" d="M48.9336 83.0349C49.1907 82.8856 49.5046 82.8096 49.8726 82.8096V83.6266H49.6642C48.7821 83.6266 48.3383 84.107 48.3383 85.0679V87.6574H47.5508V82.8964H48.3383V83.67C48.4763 83.3986 48.6738 83.1869 48.9309 83.0349H48.9336Z" fill="#566979"/>
<path id="Vector_14" d="M51.6455 87.4291C51.2856 87.2255 51.0015 86.9378 50.7958 86.5659C50.5901 86.1913 50.4873 85.7597 50.4873 85.2684C50.4873 84.7771 50.5928 84.351 50.8039 83.9791C51.015 83.6045 51.3018 83.3195 51.6645 83.1186C52.0271 82.9178 52.4357 82.8201 52.8849 82.8201C53.3341 82.8201 53.7427 82.9205 54.1054 83.1186C54.468 83.3195 54.7575 83.6045 54.9659 83.9737C55.177 84.3455 55.2825 84.7771 55.2825 85.2684C55.2825 85.7597 55.1743 86.194 54.9578 86.5659C54.7413 86.9405 54.449 87.2282 54.0783 87.4291C53.7076 87.6326 53.2989 87.7331 52.8497 87.7331C52.4005 87.7331 52.0027 87.6326 51.6428 87.4291H51.6455ZM53.6507 86.8373C53.8997 86.7043 54.1 86.5035 54.2515 86.2374C54.403 85.9714 54.4815 85.6457 54.4815 85.2657C54.4815 84.8857 54.4057 84.56 54.2569 84.294C54.1081 84.028 53.9105 83.8298 53.667 83.6995C53.4234 83.5692 53.1609 83.5041 52.8795 83.5041C52.5981 83.5041 52.3275 83.5692 52.0866 83.6995C51.8458 83.8298 51.6563 84.028 51.5102 84.294C51.3641 84.56 51.2937 84.8857 51.2937 85.2657C51.2937 85.6457 51.3641 85.9796 51.5048 86.2483C51.6455 86.5143 51.8349 86.7125 52.0731 86.8428C52.3085 86.973 52.5683 87.0382 52.8524 87.0382C53.1366 87.0382 53.4018 86.973 53.648 86.8373H53.6507Z" fill="#566979"/>
<path id="Vector_15" d="M62.6458 82.8965L61.1655 87.6575H60.351L59.209 83.8791L58.0671 87.6575H57.2525L55.7642 82.8965H56.5706L57.6611 86.892L58.8383 82.8965H59.6447L60.7975 86.9002L61.8718 82.8965H62.6512H62.6458Z" fill="#566979"/>
<path id="Vector_16" d="M66.4397 87.5454C66.1501 87.4205 65.9228 87.2468 65.755 87.0242C65.5872 86.8016 65.4952 86.5465 65.479 86.256H66.2935C66.3152 86.4949 66.4288 86.6876 66.6264 86.8369C66.8266 86.9862 67.0864 87.0622 67.4112 87.0622C67.7115 87.0622 67.947 86.9944 68.1202 86.8614C68.2934 86.7283 68.3799 86.5601 68.3799 86.3565C68.3799 86.1529 68.2879 85.9928 68.1039 85.8923C67.9199 85.7919 67.6331 85.6915 67.2461 85.5937C66.8943 85.5015 66.6075 85.4064 66.3855 85.3114C66.1636 85.2164 65.9715 85.0753 65.8146 84.8853C65.6549 84.698 65.5764 84.451 65.5764 84.1416C65.5764 83.8973 65.6495 83.6747 65.7929 83.4738C65.9363 83.273 66.142 83.1101 66.4072 82.9907C66.6724 82.8712 66.9755 82.8115 67.3164 82.8115C67.8414 82.8115 68.2663 82.9445 68.5883 83.2105C68.9103 83.4765 69.0835 83.843 69.1079 84.3044H68.3204C68.3042 84.0547 68.2041 83.8566 68.0227 83.7045C67.8414 83.5553 67.5979 83.4793 67.2921 83.4793C67.008 83.4793 66.7833 83.539 66.6156 83.6611C66.4478 83.7833 66.3639 83.9434 66.3639 84.1388C66.3639 84.2963 66.4153 84.4239 66.5154 84.5243C66.6156 84.6247 66.7428 84.7061 66.897 84.7686C67.0485 84.8283 67.2623 84.8989 67.5329 84.9722C67.8739 85.0644 68.1499 85.1567 68.3637 85.2463C68.5775 85.3359 68.7615 85.4716 68.913 85.6507C69.0646 85.8299 69.1458 86.066 69.1512 86.3538C69.1512 86.6143 69.0781 86.8478 68.9347 87.0568C68.7913 87.2658 68.5856 87.4287 68.3231 87.5481C68.0606 87.6675 67.7575 87.7272 67.4193 87.7272C67.0567 87.7272 66.7292 87.6648 66.4397 87.5399V87.5454Z" fill="#566979"/>
<path id="Vector_17" d="M71.2184 83.5476V86.3543C71.2184 86.585 71.2671 86.7505 71.3646 86.8456C71.462 86.9406 71.6325 86.9894 71.876 86.9894H72.4551V87.6571H71.7461C71.3077 87.6571 70.9776 87.5567 70.7584 87.3531C70.5392 87.1496 70.4282 86.8184 70.4282 86.3543V83.5476H69.814V82.8962H70.4282V81.6964H71.2157V82.8962H72.4551V83.5476H71.2157H71.2184Z" fill="#566979"/>
<path id="Vector_18" d="M74.7905 83.0349C75.0476 82.8856 75.3615 82.8096 75.7295 82.8096V83.6266H75.5212C74.639 83.6266 74.1952 84.107 74.1952 85.0679V87.6574H73.4077V82.8964H74.1952V83.67C74.3332 83.3986 74.5307 83.1869 74.7878 83.0349H74.7905Z" fill="#566979"/>
<path id="Vector_19" d="M77.502 87.4291C77.142 87.2255 76.8579 86.9378 76.6522 86.5659C76.4466 86.1913 76.3438 85.7597 76.3438 85.2684C76.3438 84.7771 76.4493 84.351 76.6604 83.9791C76.8714 83.6045 77.1583 83.3195 77.5209 83.1186C77.8835 82.9178 78.2921 82.8201 78.7414 82.8201C79.1906 82.8201 79.5992 82.9205 79.9618 83.1186C80.3244 83.3195 80.614 83.6045 80.8224 83.9737C81.0334 84.3455 81.139 84.7771 81.139 85.2684C81.139 85.7597 81.0307 86.194 80.8142 86.5659C80.5977 86.9405 80.3055 87.2282 79.9348 87.4291C79.564 87.6326 79.1554 87.7331 78.7062 87.7331C78.257 87.7331 77.8592 87.6326 77.4993 87.4291H77.502ZM79.5072 86.8373C79.7561 86.7043 79.9564 86.5035 80.1079 86.2374C80.2595 85.9714 80.338 85.6457 80.338 85.2657C80.338 84.8857 80.2622 84.56 80.1134 84.294C79.9645 84.028 79.767 83.8298 79.5234 83.6995C79.2799 83.5692 79.0174 83.5041 78.7359 83.5041C78.4545 83.5041 78.1839 83.5692 77.9431 83.6995C77.7022 83.8298 77.5128 84.028 77.3667 84.294C77.2205 84.56 77.1502 84.8857 77.1502 85.2657C77.1502 85.6457 77.2205 85.9796 77.3612 86.2483C77.502 86.5143 77.6914 86.7125 77.9295 86.8428C78.165 86.973 78.4247 87.0382 78.7089 87.0382C78.993 87.0382 79.2582 86.973 79.5045 86.8373H79.5072Z" fill="#566979"/>
<path id="Vector_20" d="M85.8964 83.3331C86.2536 83.6833 86.4322 84.1881 86.4322 84.8477V87.6544H85.6528V84.9617C85.6528 84.4867 85.5337 84.123 85.2983 83.8705C85.0602 83.6181 84.7382 83.4933 84.3295 83.4933C83.9209 83.4933 83.5826 83.6235 83.3391 83.8841C83.0955 84.1447 82.9711 84.5247 82.9711 85.0214V87.6544H82.1836V82.8934H82.9711V83.572C83.128 83.3277 83.3391 83.1404 83.607 83.0074C83.8749 82.8744 84.1699 82.8065 84.4946 82.8065C85.071 82.8065 85.5392 82.983 85.8964 83.3331Z" fill="#566979"/>
<path id="Vector_21" d="M90.7594 83.0865C91.0679 83.2657 91.2979 83.491 91.4468 83.7651V82.8965H92.2424V87.7607C92.2424 88.195 92.1504 88.5804 91.9664 88.9197C91.7823 89.259 91.5171 89.5223 91.1735 89.715C90.8298 89.9077 90.4293 90.0027 89.9747 90.0027C89.3523 90.0027 88.8327 89.8561 88.4159 89.5603C87.9992 89.2644 87.7557 88.8627 87.6799 88.3524H88.4592C88.5458 88.6428 88.7244 88.8763 88.9951 89.0527C89.2657 89.2291 89.5931 89.3187 89.9747 89.3187C90.4076 89.3187 90.7621 89.183 91.0355 88.9115C91.3088 88.6401 91.4468 88.2574 91.4468 87.7661V86.7672C91.2898 87.0441 91.0598 87.2775 90.754 87.4621C90.4482 87.6467 90.091 87.7389 89.6797 87.7389C89.2684 87.7389 88.876 87.6358 88.5323 87.4268C88.1886 87.2178 87.918 86.9273 87.7232 86.5501C87.5256 86.1728 87.4282 85.7466 87.4282 85.2634C87.4282 84.7803 87.5256 84.3487 87.7232 83.9823C87.918 83.6158 88.1886 83.3281 88.5323 83.1272C88.876 82.9237 89.2575 82.8232 89.6797 82.8232C90.1018 82.8232 90.4482 82.9128 90.7567 83.092L90.7594 83.0865ZM91.2303 84.3297C91.0869 84.0637 90.892 83.8601 90.6458 83.7163C90.3995 83.5751 90.1316 83.5045 89.8367 83.5045C89.5417 83.5045 89.2738 83.5751 89.0302 83.7136C88.7867 83.852 88.5946 84.0556 88.4511 84.3216C88.3077 84.5876 88.2346 84.8997 88.2346 85.2607C88.2346 85.6217 88.3077 85.942 88.4511 86.2108C88.5946 86.4795 88.7894 86.6858 89.0302 86.8269C89.2711 86.9681 89.5417 87.0386 89.8367 87.0386C90.1316 87.0386 90.3995 86.9681 90.6458 86.8269C90.892 86.6858 91.0869 86.4795 91.2303 86.2108C91.3737 85.942 91.4468 85.6272 91.4468 85.2689C91.4468 84.9106 91.3737 84.5984 91.2303 84.3297Z" fill="#566979"/>
<path id="Vector_22" d="M97.8816 85.5697H94.0877C94.1174 86.0393 94.2771 86.4057 94.5694 86.669C94.8616 86.9323 95.2134 87.0653 95.6302 87.0653C95.9711 87.0653 96.2553 86.9866 96.4826 86.8265C96.7099 86.6663 96.8695 86.4546 96.9643 86.1886H97.8113C97.6841 86.6473 97.4297 87.0192 97.0481 87.3042C96.6666 87.5919 96.193 87.7331 95.6274 87.7331C95.1782 87.7331 94.775 87.6326 94.4205 87.4291C94.066 87.2255 93.7873 86.9378 93.5843 86.5659C93.3814 86.1913 93.2812 85.7597 93.2812 85.2684C93.2812 84.7771 93.3787 84.3455 93.5762 83.9737C93.7738 83.6045 94.0471 83.3168 94.4043 83.1186C94.7588 82.9178 95.1674 82.8201 95.6302 82.8201C96.0929 82.8201 96.4799 82.9178 96.8262 83.1159C97.1726 83.3141 97.4405 83.5828 97.6273 83.9275C97.814 84.2723 97.9087 84.6604 97.9087 85.0947C97.9087 85.2467 97.9006 85.4041 97.8816 85.5724V85.5697ZM96.8939 84.1501C96.7613 83.933 96.58 83.7674 96.3527 83.6561C96.1254 83.5421 95.871 83.4878 95.595 83.4878C95.1972 83.4878 94.8562 83.6154 94.5775 83.8705C94.296 84.1257 94.1364 84.4785 94.0958 84.9291H97.0914C97.0914 84.6278 97.0238 84.37 96.8912 84.1528L96.8939 84.1501Z" fill="#566979"/>
<path id="Vector_23" d="M100.328 83.0349C100.585 82.8856 100.899 82.8096 101.267 82.8096V83.6266H101.059C100.177 83.6266 99.7328 84.107 99.7328 85.0679V87.6574H98.9453V82.8964H99.7328V83.67C99.8708 83.3986 100.068 83.1869 100.325 83.0349H100.328Z" fill="#566979"/>
<path id="Vector_24" d="M102.991 86.5605L102.022 88.8976H101.494L102.127 86.5605H102.993H102.991Z" fill="#566979"/>
<path id="Vector_25" d="M107.163 83.5476V86.3543C107.163 86.585 107.212 86.7505 107.31 86.8456C107.407 86.9406 107.578 86.9894 107.821 86.9894H108.4V87.6571H107.691C107.253 87.6571 106.923 87.5567 106.703 87.3531C106.484 87.1496 106.376 86.8184 106.376 86.3543V83.5476H105.762V82.8962H106.376V81.6964H107.163V82.8962H108.403V83.5476H107.163Z" fill="#566979"/>
<path id="Vector_26" d="M110.216 87.4291C109.856 87.2255 109.572 86.9378 109.367 86.5659C109.161 86.1913 109.058 85.7597 109.058 85.2684C109.058 84.7771 109.164 84.351 109.375 83.9791C109.586 83.6045 109.873 83.3195 110.235 83.1186C110.598 82.9178 111.006 82.8201 111.456 82.8201C111.905 82.8201 112.314 82.9205 112.676 83.1186C113.039 83.3195 113.328 83.6045 113.537 83.9737C113.748 84.3455 113.853 84.7771 113.853 85.2684C113.853 85.7597 113.745 86.194 113.529 86.5659C113.312 86.9378 113.02 87.2282 112.649 87.4291C112.278 87.6326 111.87 87.7331 111.421 87.7331C110.971 87.7331 110.574 87.6326 110.214 87.4291H110.216ZM112.222 86.8373C112.471 86.7043 112.671 86.5035 112.822 86.2374C112.974 85.9714 113.052 85.6457 113.052 85.2657C113.052 84.8857 112.977 84.56 112.828 84.294C112.679 84.028 112.481 83.8298 112.238 83.6995C111.994 83.5692 111.732 83.5041 111.45 83.5041C111.169 83.5041 110.898 83.5692 110.657 83.6995C110.417 83.8298 110.227 84.028 110.081 84.294C109.935 84.56 109.865 84.8857 109.865 85.2657C109.865 85.6457 109.935 85.9796 110.076 86.2483C110.216 86.5143 110.406 86.7125 110.644 86.8428C110.882 86.973 111.139 87.0382 111.423 87.0382C111.707 87.0382 111.973 86.973 112.219 86.8373H112.222Z" fill="#566979"/>
<path id="Vector_27" d="M117.931 83.0865C118.24 83.2657 118.47 83.491 118.619 83.7651V82.8965H119.414V87.7607C119.414 88.195 119.322 88.5804 119.138 88.9197C118.954 89.259 118.689 89.5223 118.345 89.715C118.002 89.9077 117.601 90.0027 117.147 90.0027C116.524 90.0027 116.005 89.8561 115.588 89.5603C115.171 89.2644 114.928 88.8627 114.852 88.3524H115.631C115.718 88.6428 115.896 88.8763 116.167 89.0527C116.438 89.2291 116.765 89.3187 117.147 89.3187C117.58 89.3187 117.934 89.183 118.207 88.9115C118.481 88.6401 118.619 88.2574 118.619 87.7661V86.7672C118.462 87.0441 118.232 87.2775 117.926 87.4621C117.62 87.6467 117.263 87.7389 116.852 87.7389C116.44 87.7389 116.048 87.6358 115.704 87.4268C115.361 87.2178 115.09 86.9273 114.895 86.5501C114.7 86.1728 114.6 85.7466 114.6 85.2634C114.6 84.7803 114.698 84.3487 114.895 83.9823C115.093 83.6158 115.361 83.3281 115.704 83.1272C116.048 82.9237 116.429 82.8232 116.852 82.8232C117.274 82.8232 117.62 82.9128 117.929 83.092L117.931 83.0865ZM118.402 84.3297C118.259 84.0637 118.064 83.8601 117.818 83.7163C117.571 83.5751 117.303 83.5045 117.009 83.5045C116.714 83.5045 116.446 83.5751 116.202 83.7136C115.959 83.852 115.766 84.0556 115.623 84.3216C115.48 84.5876 115.407 84.8997 115.407 85.2607C115.407 85.6217 115.48 85.942 115.623 86.2108C115.766 86.4795 115.961 86.6858 116.202 86.8269C116.446 86.9681 116.714 87.0386 117.009 87.0386C117.303 87.0386 117.571 86.9681 117.818 86.8269C118.064 86.6858 118.259 86.4795 118.402 86.2108C118.546 85.942 118.619 85.6272 118.619 85.2689C118.619 84.9106 118.546 84.5984 118.402 84.3297Z" fill="#566979"/>
<path id="Vector_28" d="M125.054 85.5697H121.26C121.29 86.0393 121.449 86.4057 121.741 86.669C122.034 86.9323 122.386 87.0653 122.802 87.0653C123.143 87.0653 123.427 86.9866 123.655 86.8265C123.882 86.6663 124.042 86.4546 124.136 86.1886H124.986C124.859 86.6473 124.605 87.0192 124.223 87.3042C123.841 87.5892 123.368 87.7331 122.802 87.7331C122.353 87.7331 121.95 87.6326 121.595 87.4291C121.241 87.2255 120.962 86.9378 120.759 86.5659C120.556 86.1913 120.456 85.7597 120.456 85.2684C120.456 84.7771 120.553 84.3455 120.751 83.9737C120.949 83.6045 121.222 83.3168 121.579 83.1186C121.934 82.9178 122.342 82.8201 122.805 82.8201C123.268 82.8201 123.655 82.9178 124.001 83.1159C124.347 83.3141 124.615 83.5828 124.802 83.9275C124.989 84.2723 125.083 84.6604 125.083 85.0947C125.083 85.2467 125.075 85.4041 125.056 85.5724L125.054 85.5697ZM124.066 84.1501C123.933 83.933 123.752 83.7674 123.525 83.6561C123.297 83.5448 123.043 83.4878 122.767 83.4878C122.369 83.4878 122.028 83.6154 121.75 83.8705C121.468 84.1257 121.308 84.4785 121.268 84.9291H124.264C124.264 84.6278 124.196 84.37 124.063 84.1528L124.066 84.1501Z" fill="#566979"/>
<path id="Vector_29" d="M127.081 83.5476V86.3543C127.081 86.585 127.129 86.7505 127.227 86.8456C127.324 86.9406 127.495 86.9894 127.738 86.9894H128.317V87.6571H127.608C127.17 87.6571 126.84 87.5567 126.621 87.3531C126.402 87.1496 126.291 86.8184 126.291 86.3543V83.5476H125.676V82.8962H126.291V81.6964H127.078V82.8962H128.317V83.5476H127.078H127.081Z" fill="#566979"/>
<path id="Vector_30" d="M132.596 83.04C132.885 83.1947 133.11 83.4227 133.275 83.7294C133.44 84.0361 133.521 84.4107 133.521 84.8504V87.6571H132.742V84.9644C132.742 84.4894 132.623 84.1257 132.387 83.8733C132.149 83.6208 131.827 83.496 131.418 83.496C131.01 83.496 130.672 83.6263 130.428 83.8868C130.182 84.1474 130.06 84.5274 130.06 85.0242V87.6571H129.272V81.2295H130.06V83.5747C130.217 83.3304 130.431 83.1431 130.704 83.0101C130.977 82.8771 131.286 82.8092 131.627 82.8092C131.984 82.8092 132.309 82.8852 132.596 83.04Z" fill="#566979"/>
<path id="Vector_31" d="M139.117 85.5697H135.323C135.353 86.0393 135.513 86.4057 135.805 86.669C136.097 86.9323 136.449 87.0653 136.866 87.0653C137.207 87.0653 137.491 86.9866 137.718 86.8265C137.945 86.6663 138.105 86.4546 138.2 86.1886H139.05C138.922 86.6473 138.668 87.0192 138.286 87.3042C137.905 87.5892 137.431 87.7331 136.866 87.7331C136.417 87.7331 136.013 87.6326 135.659 87.4291C135.304 87.2255 135.026 86.9378 134.823 86.5659C134.62 86.1913 134.52 85.7597 134.52 85.2684C134.52 84.7771 134.617 84.3455 134.814 83.9737C135.012 83.6045 135.285 83.3168 135.643 83.1186C135.997 82.9178 136.406 82.8201 136.868 82.8201C137.331 82.8201 137.718 82.9178 138.065 83.1159C138.411 83.3141 138.679 83.5828 138.866 83.9275C139.052 84.2723 139.147 84.6604 139.147 85.0947C139.147 85.2467 139.139 85.4041 139.12 85.5724L139.117 85.5697ZM138.129 84.1501C137.997 83.933 137.816 83.7674 137.588 83.6561C137.361 83.5448 137.107 83.4878 136.831 83.4878C136.433 83.4878 136.092 83.6154 135.813 83.8705C135.532 84.1257 135.372 84.4785 135.331 84.9291H138.327C138.327 84.6278 138.259 84.37 138.127 84.1528L138.129 84.1501Z" fill="#566979"/>
<path id="Vector_32" d="M141.563 83.0349C141.821 82.8856 142.134 82.8096 142.503 82.8096V83.6266H142.294C141.412 83.6266 140.968 84.107 140.968 85.0679V87.6574H140.181V82.8964H140.968V83.67C141.106 83.3986 141.304 83.1869 141.561 83.0349H141.563Z" fill="#566979"/>
<path id="Vector_33" d="M143.282 87.5508C143.179 87.4477 143.125 87.3201 143.125 87.1681C143.125 87.0161 143.176 86.8912 143.282 86.7854C143.385 86.6822 143.512 86.6279 143.664 86.6279C143.815 86.6279 143.931 86.6795 144.032 86.7854C144.132 86.8912 144.183 87.0161 144.183 87.1681C144.183 87.3201 144.132 87.445 144.032 87.5508C143.931 87.6567 143.807 87.7082 143.664 87.7082C143.52 87.7082 143.387 87.6567 143.282 87.5508Z" fill="#566979"/>
</g>
</g>
<defs>
<clipPath id="clip0_2640_3190">
<rect width="185" height="90" fill="white" transform="translate(0.5)"/>
</clipPath>
</defs>
</svg>
