<svg width="20" height="20" viewBox="0 0 20 20" fill="none" xmlns="http://www.w3.org/2000/svg">
<g id="paste (1) 1" clip-path="url(#clip0_311_9447)">
<path id="Vector" d="M4.16667 3.33333H4.31667C4.65833 4.3 5.575 5 6.66667 5H8.33333C9.41667 5 10.3333 4.3 10.6833 3.33333H10.8333C11.975 3.33333 12.9667 4.1 13.2583 5.20833C13.375 5.65833 13.825 5.925 14.275 5.80833C14.7167 5.69167 14.9917 5.24167 14.875 4.79167C14.4 2.95 12.7417 1.66667 10.8417 1.66667H10.7C10.3583 0.7 9.43333 0 8.34167 0H6.675C5.59167 0 4.65833 0.7 4.31667 1.66667H4.175C1.86667 1.66667 0 3.53333 0 5.83333V15.8333C0 18.1333 1.86667 20 4.16667 20H6.66667C7.125 20 7.5 19.625 7.5 19.1667C7.5 18.7083 7.125 18.3333 6.66667 18.3333H4.16667C2.79167 18.3333 1.66667 17.2083 1.66667 15.8333V5.83333C1.66667 4.45833 2.79167 3.33333 4.16667 3.33333ZM6.66667 1.66667H8.33333C8.79167 1.66667 9.16667 2.04167 9.16667 2.5C9.16667 2.95833 8.79167 3.33333 8.33333 3.33333H6.66667C6.20833 3.33333 5.83333 2.95833 5.83333 2.5C5.83333 2.04167 6.20833 1.66667 6.66667 1.66667ZM16.6667 7.5H12.5C10.6583 7.5 9.16667 8.99167 9.16667 10.8333V16.6667C9.16667 18.5083 10.6583 20 12.5 20H16.6667C18.5083 20 20 18.5083 20 16.6667V10.8333C20 8.99167 18.5083 7.5 16.6667 7.5ZM18.3333 16.6667C18.3333 17.5833 17.5833 18.3333 16.6667 18.3333H12.5C11.5833 18.3333 10.8333 17.5833 10.8333 16.6667V10.8333C10.8333 9.91667 11.5833 9.16667 12.5 9.16667H16.6667C17.5833 9.16667 18.3333 9.91667 18.3333 10.8333V16.6667ZM16.6667 11.6667C16.6667 12.125 16.2917 12.5 15.8333 12.5H13.3333C12.875 12.5 12.5 12.125 12.5 11.6667C12.5 11.2083 12.875 10.8333 13.3333 10.8333H15.8333C16.2917 10.8333 16.6667 11.2083 16.6667 11.6667ZM16.6667 15C16.6667 15.4583 16.2917 15.8333 15.8333 15.8333H13.3333C12.875 15.8333 12.5 15.4583 12.5 15C12.5 14.5417 12.875 14.1667 13.3333 14.1667H15.8333C16.2917 14.1667 16.6667 14.5417 16.6667 15Z" fill="#3282C4"/>
</g>
<defs>
<clipPath id="clip0_311_9447">
<rect width="20" height="20" fill="white"/>
</clipPath>
</defs>
</svg>
