<svg width="249" height="255" viewBox="0 0 249 255" fill="none" xmlns="http://www.w3.org/2000/svg">
<g id="OBJECTS">
<g id="Group">
<g id="Group_2">
<path id="Vector" opacity="0.41" d="M91.7478 178.438C89.3076 178.428 86.8644 178.33 84.4188 178.129C57.6156 175.932 26.565 163.134 13.2192 139.831C1.55165 119.459 -3.02935 93.0842 2.28305 70.364C7.27685 49.007 22.7593 31.7066 44.439 25.1372C68.8207 17.7494 95.7678 26.726 119.759 16.6364C154.679 1.95139 198.568 13.6136 223.041 41.5538C244.739 66.3254 249.991 106.269 243.179 137.218C239.737 152.86 230.682 167.925 216.268 175.8C204.8 182.065 190.937 183.301 177.823 181.668C167.278 180.355 157.57 176.916 147.427 174.085C139.296 171.817 132.625 172.998 124.303 174.645C113.593 176.764 102.703 178.483 91.7478 178.438Z" fill="#E1E1E1"/>
<path id="Vector_2" d="M97.7309 163.492C95.7563 163.483 93.7793 163.404 91.8005 163.242C70.1117 161.464 44.9867 151.108 34.1879 132.252C24.7469 115.768 21.0395 94.4258 25.3385 76.0412C29.3795 58.7594 41.9075 44.7602 59.4503 39.4448C79.1795 33.467 100.985 40.7306 120.398 32.5664C148.653 20.684 184.168 30.1208 203.971 52.7288C221.528 72.7736 225.778 105.095 220.267 130.138C217.481 142.795 210.154 154.985 198.49 161.358C189.21 166.428 177.993 167.427 167.381 166.106C158.848 165.043 150.993 162.261 142.785 159.97C136.206 158.134 130.807 159.09 124.073 160.423C115.408 162.138 106.595 163.528 97.7309 163.492Z" stroke="white" stroke-width="1.9456" stroke-miterlimit="10" stroke-dasharray="3.85 3.85"/>
</g>
<g id="Group_3">
<path id="Vector_3" opacity="0.87" d="M224.432 247.083C230.262 247.083 234.987 246.724 234.987 246.281C234.987 245.838 230.262 245.479 224.432 245.479C218.603 245.479 213.877 245.838 213.877 246.281C213.877 246.724 218.603 247.083 224.432 247.083Z" fill="#515159"/>
<g id="Group_4">
<path id="Vector_4" d="M225.772 215.931C225.772 215.931 216.735 209.792 222.54 200.867C228.345 191.943 226.894 188.841 224.862 186.329C229.796 191.943 228.715 198.339 225.772 202.397C222.83 206.454 222.364 211.976 225.772 215.931Z" fill="#AFAFAF"/>
<g id="Group_5">
<path id="Vector_5" d="M233.145 223.55H215.719L217.42 245.611H231.444L233.145 223.55Z" fill="#FEFEFE"/>
<path id="Vector_6" d="M234.987 222.421H213.877V225.008H234.987V222.421Z" fill="#8B8B8C"/>
<path id="Vector_7" d="M230.842 220.094H218.023C216.75 220.094 215.719 221.126 215.719 222.398V222.422H233.146V222.398C233.145 221.126 232.114 220.094 230.842 220.094Z" fill="#5A5A63"/>
<path id="Vector_8" d="M232.176 236.119L232.588 230.774H216.275L216.688 236.119H232.176Z" fill="#3282C4"/>
</g>
<path id="Vector_9" d="M233.146 222.421V222.398C233.146 221.125 232.114 220.094 230.842 220.094H224.493C225.766 220.094 226.797 221.125 226.797 222.398V222.421H228.639V225.008H226.684L225.096 245.611H231.445L233.034 225.008H234.988V222.421H233.146Z" fill="#AFAFAF"/>
</g>
</g>
<g id="Group_6">
<path id="Vector_10" d="M139.589 85.2324C139.589 85.2324 143.241 73.779 137.905 70.4532C134.514 68.7102 132.66 70.8816 132.66 70.8816C132.66 70.8816 131.065 62.7834 120.075 65.4588C112.956 67.1916 110.711 63.522 110.711 63.522C110.711 63.522 110.644 73.6734 115.547 76.692C119.097 79.7358 117.735 87.9636 117.735 87.9636L139.589 85.2324Z" fill="#2F2F35"/>
<path id="Vector_11" opacity="0.87" d="M171.965 234.905C171.965 234.905 191.752 235.499 197.273 240.596C203.081 245.957 209.173 254.329 184.174 254.167C159.174 254.006 137.012 247.125 116.044 249.309C95.0767 251.492 77.8705 255.257 72.8581 254.422C67.8457 253.587 103.573 236.472 103.573 236.472L169.903 238.906L171.965 234.905Z" fill="#515159"/>
<path id="Vector_12" d="M153.459 190.399L128.516 187.894L103.573 190.399C103.573 190.399 102.091 202.185 97.2744 208.472C128.516 219.692 128.516 219.692 128.516 219.692C128.516 219.692 128.516 219.692 159.757 208.472C154.941 202.185 153.459 190.399 153.459 190.399Z" fill="#236EAC"/>
<path id="Vector_13" d="M127.531 219.338C128.515 219.692 128.516 219.692 128.516 219.692C128.516 219.692 128.517 219.692 129.5 219.339C135.248 206.116 133.873 191.28 133.532 188.398L128.516 187.894L122.097 188.539C121.969 191.707 121.754 206.2 127.531 219.338Z" fill="#236EAC"/>
<path id="Vector_14" d="M103.431 191.361C103.432 191.362 129.678 202.937 155.025 197.906C153.886 193.792 153.459 190.399 153.459 190.399L128.516 187.894L108.479 189.907L103.431 191.361Z" fill="#895436"/>
<path id="Vector_15" d="M115.546 76.6915C119.096 79.7353 117.734 87.9631 117.734 87.9631L122.378 87.3829C127.146 83.1391 132.53 77.7661 131.748 75.7423C130.378 72.1951 126.422 68.6545 119.126 68.2495C111.831 67.8445 110.71 63.5215 110.71 63.5215C110.71 63.5215 110.643 73.6729 115.546 76.6915Z" fill="#515159"/>
<path id="Vector_16" d="M127.61 105.433L106.989 112.95L103.572 190.4C103.572 190.4 110.862 193.817 128.515 193.817C128.515 113.317 128.515 106.636 128.515 106.636L127.61 105.433Z" fill="white"/>
<path id="Vector_17" d="M129.421 105.433L150.042 112.95L153.459 190.4C153.459 190.4 146.169 193.817 128.516 193.817C128.516 113.317 128.516 106.636 128.516 106.636L129.421 105.433Z" fill="white"/>
<path id="Vector_18" d="M106.989 112.95L106.894 112.984C100.871 115.135 96.0575 119.765 93.6737 125.7L71.5391 179.274L90.3611 181.516L106.295 142.465L106.989 112.95Z" fill="#FF7E6E"/>
<path id="Vector_19" d="M150.042 112.95L150.138 112.984C156.161 115.135 160.975 119.765 163.358 125.7L185.493 179.274L166.671 181.516L150.737 142.465L150.042 112.95Z" fill="#FF7E6E"/>
<path id="Vector_20" d="M171.953 146.502L163.358 125.7C160.975 119.765 156.161 115.136 150.138 112.984L150.042 112.95L150.737 142.464L155.251 153.527C161.277 148.481 167.323 146.842 171.953 146.502Z" fill="#E8E8E8"/>
<path id="Vector_21" d="M85.0781 146.502L93.6731 125.7C96.0569 119.765 100.87 115.136 106.894 112.984L106.99 112.95L106.294 142.464L101.78 153.527C95.7545 148.481 89.7089 146.842 85.0781 146.502Z" fill="#E8E8E8"/>
<path id="Vector_22" d="M151.389 143.485C151.389 143.485 150.831 142.702 150.042 141.236L150.738 142.464C150.738 142.464 142.892 186.01 121.919 193.643C123.936 193.751 126.127 193.816 128.516 193.816C146.17 193.816 153.459 190.399 153.459 190.399L151.389 143.485Z" fill="#D3D3D3"/>
<path id="Vector_23" opacity="0.52" d="M97.2745 137.78C102.593 122.859 102.889 122.973 114.507 120.24C126.124 117.506 123.84 106.808 123.84 106.808L113.009 110.756L111.334 111.367L106.99 112.95L106.894 112.985C100.87 115.136 96.0571 119.765 93.6733 125.7L72.4561 177.053C81.4165 170.457 92.7439 150.487 97.2745 137.78Z" fill="#FFF6E7"/>
<path id="Vector_24" opacity="0.28" d="M159.757 137.78C154.438 122.859 154.143 122.973 142.525 120.24C130.908 117.506 133.192 106.808 133.192 106.808L144.023 110.756L145.698 111.367L150.042 112.95L150.138 112.985C156.161 115.136 160.974 119.765 163.358 125.7L184.575 177.053C175.615 170.457 164.288 150.487 159.757 137.78Z" fill="#4C2A29"/>
<path id="Vector_25" d="M128.571 114.988H128.46C125.412 114.988 122.94 112.517 122.94 109.468V96.2905H134.09V109.468C134.091 112.517 131.619 114.988 128.571 114.988Z" fill="#FF7E6E"/>
<path id="Vector_26" d="M134.001 106.455C134.033 106.455 134.06 106.451 134.091 106.45V96.2905H128.886L122.94 98.4391C122.94 98.4391 125.153 106.455 134.001 106.455Z" fill="#4C2A29"/>
<path id="Vector_27" d="M141.486 88.3741C141.486 90.3517 139.883 91.9543 137.905 91.9543C135.928 91.9543 134.325 90.3517 134.325 88.3741C134.325 86.3965 135.928 84.7939 137.905 84.7939C139.882 84.7939 141.486 86.3965 141.486 88.3741Z" fill="#C64F4F"/>
<path id="Vector_28" d="M138.602 91.8841C139.119 89.8087 139.422 87.1537 139.588 85.2325C139.084 84.9619 138.516 84.7939 137.904 84.7939C135.927 84.7939 134.324 86.3971 134.324 88.3741C134.324 90.3517 135.927 91.9543 137.904 91.9543C138.144 91.9543 138.376 91.9285 138.602 91.8841Z" fill="#803D3D"/>
<path id="Vector_29" d="M115.546 88.3741C115.546 90.3517 117.149 91.9543 119.126 91.9543C121.104 91.9543 122.706 90.3517 122.706 88.3741C122.706 86.3965 121.104 84.7939 119.126 84.7939C117.149 84.7939 115.546 86.3965 115.546 88.3741Z" fill="#C64F4F"/>
<path id="Vector_30" d="M118.43 91.8841C117.912 89.8087 117.609 87.1537 117.443 85.2325C117.947 84.9619 118.515 84.7939 119.127 84.7939C121.105 84.7939 122.707 86.3971 122.707 88.3741C122.707 90.3517 121.104 91.9543 119.127 91.9543C118.888 91.9543 118.655 91.9285 118.43 91.8841Z" fill="#803D3D"/>
<path id="Vector_31" d="M134.817 75.8521H128.516H122.215L119.096 82.6662L119.62 89.4102C119.9 93.0091 122.225 99.2233 125.497 100.75C126.469 101.204 127.498 101.506 128.516 101.506C129.533 101.506 130.563 101.204 131.535 100.75C134.806 99.2233 137.131 93.0096 137.411 89.4102L137.936 82.6662L134.817 75.8521Z" fill="#FF7E6E"/>
<path id="Vector_32" d="M131.748 84.4062C131.748 84.4062 133.862 84.999 136.255 84.4062" stroke="#2F2F35" stroke-width="1.3362" stroke-miterlimit="10" stroke-linecap="round"/>
<path id="Vector_33" d="M131.064 80.531C131.064 80.531 134.153 80.0174 136.009 81.0872" stroke="#2F2F35" stroke-width="2.6723" stroke-miterlimit="10" stroke-linecap="round"/>
<path id="Vector_34" d="M125.284 84.4062C125.284 84.4062 123.169 84.999 120.776 84.4062" stroke="#2F2F35" stroke-width="1.3362" stroke-miterlimit="10" stroke-linecap="round"/>
<path id="Vector_35" d="M125.966 80.531C125.966 80.531 122.878 80.0174 121.021 81.0872" stroke="#2F2F35" stroke-width="2.6723" stroke-miterlimit="10" stroke-linecap="round"/>
<path id="Vector_36" opacity="0.52" d="M123.494 90.2826C123.083 83.4684 122.215 75.8521 122.215 75.8521L119.096 82.6662L119.263 84.8071C119.216 84.8053 119.173 84.7933 119.127 84.7933C117.15 84.7933 115.547 86.3965 115.547 88.3735C115.547 90.3511 117.15 91.9536 119.127 91.9536C119.44 91.9536 119.739 91.9009 120.028 91.8253C120.871 95.3083 122.88 99.5287 125.497 100.75C126.469 101.204 127.499 101.506 128.516 101.506C128.516 101.506 123.906 97.0974 123.494 90.2826Z" fill="#FFF6E7"/>
<g id="Group_7">
<path id="Vector_37" d="M150.042 220.696L78.7812 199.075C69.3192 196.204 59.3682 201.775 56.8674 211.34L56.7732 211.702C54.1968 221.558 60.588 231.515 70.623 233.269C96.9708 237.874 144.727 245.707 169.861 246.664L180.455 253.727C182.055 254.794 184.179 254.618 185.582 253.303L185.636 253.252C187.303 251.69 187.388 249.072 185.827 247.404L184.174 245.639C184.174 245.639 182.701 238.464 175.427 235.388C168.152 232.313 167.469 224.796 165.761 220.696C164.051 216.595 153.118 214.546 150.042 220.696Z" fill="#8C4242"/>
<path id="Vector_38" d="M56.867 211.34C59.3678 201.774 69.3194 196.204 78.7808 199.075L102.947 206.407C99.3068 210.949 94.5056 220.167 94.3604 237.275C85.5374 235.841 77.3744 234.449 70.622 233.269C60.587 231.515 54.1958 221.557 56.7722 211.702L56.867 211.34Z" fill="#3282C4"/>
<path id="Vector_39" opacity="0.67" d="M79.347 226.37C79.347 229.276 78.6498 232.018 77.421 234.444C75.0348 234.035 72.7518 233.64 70.623 233.268C60.588 231.515 54.1968 221.557 56.7732 211.701L56.8674 211.34C57.0918 210.481 57.3786 209.655 57.7176 208.864C58.9212 208.608 60.1686 208.472 61.4484 208.472C71.3334 208.472 79.347 216.485 79.347 226.37Z" fill="#236EAC"/>
<path id="Vector_40" d="M153.458 230.604C153.458 230.604 152.433 236.576 142.524 234.445" stroke="#7B3C38" stroke-width="1.139" stroke-miterlimit="10"/>
<path id="Vector_41" opacity="0.28" d="M159.757 227.871C159.757 227.871 144.575 227.188 112.456 221.458C86.4348 216.817 78.8016 203.497 76.8408 198.607C77.4882 198.726 78.1356 198.879 78.7806 199.075L150.041 220.695C153.117 214.545 164.051 216.595 165.759 220.695C167.467 224.796 168.151 232.312 175.425 235.388C182.699 238.463 184.172 245.639 184.172 245.639C184.172 245.639 176.693 240.855 171.964 239.83C167.236 238.806 159.757 227.871 159.757 227.871Z" fill="#4C2A29"/>
</g>
<path id="Vector_42" d="M163.045 246.28C163.045 246.28 176.13 258.8 187.286 253.648C189.142 252.791 189.724 250.421 188.512 248.775C179.115 236.012 167.266 222.109 162.75 216.883C161.62 215.575 159.83 215.047 158.17 215.529L145.318 219.262L163.045 246.28Z" fill="#2F2F35"/>
<path id="Vector_43" d="M145.319 219.263L133.01 215.528L142.334 244.22L163.045 246.28L145.319 219.263Z" fill="#A5A5A5"/>
<path id="Vector_44" d="M106.99 220.696L178.251 199.075C187.713 196.204 197.664 201.775 200.165 211.34L200.259 211.702C202.836 221.558 196.444 231.515 186.409 233.269C160.062 237.874 112.306 245.707 87.1717 246.664L76.5769 253.727C74.9773 254.794 72.8533 254.618 71.4505 253.303L71.3959 253.252C69.7291 251.69 69.6439 249.072 71.2057 247.404L72.8581 245.639C72.8581 245.639 74.3311 238.464 81.6055 235.388C88.8799 232.313 89.5633 224.796 91.2715 220.696C92.9803 216.595 103.914 214.546 106.99 220.696Z" fill="#FF7E6E"/>
<path id="Vector_45" d="M200.164 211.34C197.663 201.774 187.712 196.204 178.25 199.075L154.084 206.407C157.724 210.949 162.525 220.167 162.67 237.275C171.493 235.841 179.656 234.449 186.408 233.269C196.443 231.515 202.835 221.557 200.258 211.702L200.164 211.34Z" fill="#3282C4"/>
<path id="Vector_46" opacity="0.67" d="M177.685 226.37C177.685 229.276 178.382 232.018 179.611 234.444C181.997 234.035 184.28 233.64 186.409 233.268C196.444 231.515 202.835 221.557 200.258 211.701L200.164 211.34C199.94 210.481 199.653 209.655 199.314 208.864C198.11 208.608 196.863 208.472 195.583 208.472C185.698 208.472 177.685 216.485 177.685 226.37Z" fill="#236EAC"/>
<path id="Vector_47" opacity="0.28" d="M97.2742 227.871C97.2742 227.871 112.457 227.188 144.575 221.458C170.597 216.817 178.23 203.497 180.191 198.607C179.543 198.726 178.896 198.879 178.251 199.075L106.989 220.696C103.914 214.545 92.98 216.595 91.2718 220.696C89.5636 224.796 88.8802 232.313 81.6058 235.389C74.3314 238.464 72.8584 245.64 72.8584 245.64C72.8584 245.64 80.338 240.856 85.0666 239.831C89.7946 238.806 97.2742 227.871 97.2742 227.871Z" fill="#4C2A29"/>
<path id="Vector_48" opacity="0.57" d="M81.6051 235.389L70.9227 233.408C61.2543 231.865 54.7065 222.725 56.3559 213.074L56.4207 212.696C58.2189 202.174 68.8989 195.666 79.0749 198.891L99.2451 205.284" stroke="white" stroke-width="1.1139" stroke-miterlimit="10"/>
<path id="Vector_49" d="M124.852 90.1709C124.468 90.1709 124.242 90.6161 124.478 90.9191C125.548 92.2925 126.964 93.1319 128.521 93.1319C130.078 93.1319 131.494 92.2925 132.564 90.9191C132.799 90.6161 132.574 90.1709 132.19 90.1709H124.852Z" fill="white"/>
<path id="Vector_50" d="M129.573 84.2559V87.9627C129.573 87.9627 128.72 87.4809 127.534 87.9627" stroke="#2F2F35" stroke-width="0.8212" stroke-miterlimit="10" stroke-linecap="round"/>
<path id="Vector_51" d="M132.66 70.8809H131.748V76.6805H132.66V70.8809Z" fill="#FF7E6E"/>
<g id="Group_8">
<path id="Vector_52" d="M185.493 179.273L185.531 179.377C187.667 185.291 185.109 191.874 179.539 194.793L141.486 214.741L141.298 214.255C137.945 205.594 141.452 195.784 149.535 191.211L166.672 181.516L185.493 179.273Z" fill="#FF7E6E"/>
<path id="Vector_53" opacity="0.28" d="M177.458 191.491C177.458 192.896 177.809 194.217 178.422 195.378L179.539 194.793C183.931 192.49 186.439 187.908 186.26 183.174C186.106 183.166 185.955 183.151 185.799 183.151C181.192 183.151 177.458 186.885 177.458 191.491Z" fill="#4C2A29"/>
<path id="Vector_54" d="M166.671 181.516L177.458 175.399" stroke="#4C2A29" stroke-width="1.3362" stroke-miterlimit="10" stroke-linecap="round"/>
</g>
<g id="Group_9">
<path id="Vector_55" d="M71.6502 179.273L71.6124 179.377C69.4764 185.291 72.0348 191.874 77.604 194.793L115.658 214.741L115.846 214.255C119.199 205.594 115.692 195.784 107.609 191.211L90.4722 181.516L71.6502 179.273Z" fill="#FF7E6E"/>
<path id="Vector_56" opacity="0.28" d="M79.685 191.491C79.685 192.896 79.334 194.217 78.7208 195.378L77.6036 194.793C73.2116 192.49 70.7042 187.908 70.883 183.174C71.0366 183.166 71.1884 183.151 71.3444 183.151C75.9506 183.151 79.685 186.885 79.685 191.491Z" fill="#4C2A29"/>
<path id="Vector_57" d="M90.4723 181.516L79.6855 175.399" stroke="#4C2A29" stroke-width="1.3362" stroke-miterlimit="10" stroke-linecap="round"/>
</g>
<path id="Vector_58" d="M111.434 212.527C111.434 212.527 113.355 201.988 107.101 198.607" stroke="#4C2A29" stroke-width="1.3362" stroke-miterlimit="10" stroke-linecap="round"/>
<path id="Vector_59" d="M145.596 212.527C145.596 212.527 143.676 201.988 149.93 198.607" stroke="#4C2A29" stroke-width="1.3362" stroke-miterlimit="10" stroke-linecap="round"/>
<path id="Vector_60" d="M93.9866 246.28C93.9866 246.28 80.9012 258.8 69.7454 253.648C67.8896 252.791 67.3076 250.421 68.5196 248.775C77.9168 236.012 89.7644 222.109 94.2812 216.883C95.4116 215.575 97.2014 215.047 98.8616 215.529L111.713 219.262L93.9866 246.28Z" fill="#2F2F35"/>
<path id="Vector_61" d="M111.713 219.263L124.022 215.528L114.698 244.22L93.9863 246.28L111.713 219.263Z" fill="#ECECEC"/>
<path id="Vector_62" opacity="0.28" d="M106.594 227.065C110.245 226.675 114.987 226.105 120.853 225.277L124.021 215.528L111.713 219.263L106.594 227.065Z" fill="#4C2A29"/>
<path id="Vector_63" d="M97.9077 237.566L90.7671 248.449C90.3225 249.127 89.5281 249.489 88.7247 249.38L88.6773 249.373C87.1305 249.163 86.3433 247.401 87.2187 246.109L94.5219 235.327C94.9893 234.637 95.8335 234.308 96.6441 234.498L96.6861 234.508C98.0457 234.827 98.6733 236.399 97.9077 237.566Z" fill="#FFF6E7"/>
<g id="Group_10">
<g id="Group_11">
<path id="Vector_64" d="M127.534 174.668H83.835L94.6092 213.045H127.534H160.459L171.233 174.668H127.534Z" fill="#AFAFAF"/>
<path id="Vector_65" d="M160.459 213.044H94.6094V218.634H160.459V213.044Z" fill="#8B8B8C"/>
<path id="Vector_66" d="M127.61 202.353C133.511 202.353 138.294 199.903 138.294 196.881C138.294 193.859 133.511 191.409 127.61 191.409C121.709 191.409 116.925 193.859 116.925 196.881C116.925 199.903 121.709 202.353 127.61 202.353Z" fill="#5A5A63"/>
<path id="Vector_67" d="M171.233 172.122H83.835V174.668H171.233V172.122Z" fill="#5A5A63"/>
<path id="Vector_68" d="M104.851 214.649H98.2568V216.896H104.851V214.649Z" fill="#5A5A63"/>
<path id="Vector_69" d="M114.369 214.649H107.774V216.896H114.369V214.649Z" fill="#5A5A63"/>
<path id="Vector_70" d="M160.459 215.839H120.383" stroke="#0F1201" stroke-miterlimit="10"/>
<path id="Vector_71" opacity="0.54" d="M83.835 174.668L94.6092 213.045H118.063C131.989 196.899 140.45 174.668 140.45 174.668L140.421 172.122H83.835V174.668Z" fill="white"/>
</g>
<path id="Vector_72" opacity="0.57" d="M83.835 174.668H171.233" stroke="#0F1201" stroke-miterlimit="10"/>
</g>
</g>
<g id="Group_12">
<path id="Vector_73" opacity="0.87" d="M38.4341 247.083C47.1863 247.083 54.2813 246.724 54.2813 246.281C54.2813 245.838 47.1863 245.479 38.4341 245.479C29.6819 245.479 22.5869 245.838 22.5869 246.281C22.5869 246.724 29.6819 247.083 38.4341 247.083Z" fill="#515159"/>
<g id="Group_13">
<g id="Group_14">
<path id="Vector_74" d="M40.7509 238.39L41.7895 237.258L41.2705 237.824L41.7943 237.262C41.6665 237.14 29.1601 224.461 44.2669 167.326L42.7813 166.933C27.3583 225.264 40.1971 237.881 40.7509 238.39Z" fill="#5A5A63"/>
<g id="Group_15">
<path id="Vector_75" d="M36.0919 168.309C41.8135 173.509 40.8109 179.657 40.8109 179.657C40.8109 179.657 35.0809 177.213 33.7519 169.597C33.5185 168.261 35.0887 167.397 36.0919 168.309Z" fill="#5A5A63"/>
<path id="Vector_76" d="M50.4075 171.98C42.8895 173.784 40.8105 179.657 40.8105 179.657C40.8105 179.657 47.0091 180.272 51.8397 174.234C52.6869 173.176 51.7257 171.663 50.4075 171.98Z" fill="#5A5A63"/>
</g>
<g id="Group_16">
<path id="Vector_77" d="M32.172 183.252C38.3874 187.85 38.0076 194.067 38.0076 194.067C38.0076 194.067 32.061 192.212 29.973 184.768C29.607 183.462 31.0818 182.445 32.172 183.252Z" fill="#5A5A63"/>
<path id="Vector_78" d="M46.7846 185.465C39.4862 188.016 38.0078 194.067 38.0078 194.067C38.0078 194.067 44.237 194.056 48.4358 187.564C49.172 186.427 48.0638 185.018 46.7846 185.465Z" fill="#5A5A63"/>
</g>
<g id="Group_17">
<path id="Vector_79" d="M29.6869 196.355C36.2257 200.481 36.3067 206.71 36.3067 206.71C36.3067 206.71 30.2395 205.3 27.6061 198.03C27.1447 196.756 28.5409 195.632 29.6869 196.355Z" fill="#5A5A63"/>
<path id="Vector_80" d="M44.4228 197.482C37.3332 200.566 36.3066 206.71 36.3066 206.71C36.3066 206.71 42.5178 206.238 46.2252 199.453C46.875 198.264 45.666 196.941 44.4228 197.482Z" fill="#5A5A63"/>
</g>
<path id="Vector_81" d="M48.3487 156.861C48.4783 164.591 43.3117 168.071 43.3117 168.071C43.3117 168.071 41.1685 162.222 45.8077 156.037C46.6207 154.953 48.3259 155.505 48.3487 156.861Z" fill="#5A5A63"/>
</g>
<path id="Vector_82" d="M46.1388 213.057H29.5254V245.923H46.1388V213.057Z" fill="#3282C4"/>
<path id="Vector_83" opacity="0.67" d="M46.1392 213.057H39.502V245.923H46.1392V213.057Z" fill="#236EAC"/>
</g>
</g>
<g id="Group_18">
<g id="Group_19">
<path id="Vector_84" d="M53.4339 56.3057L47.4561 57.7924C46.5891 58.0084 45.7107 57.4799 45.4953 56.6129L44.9199 54.2992L54.0387 52.0312L54.6141 54.3448C54.8295 55.2124 54.3015 56.0903 53.4339 56.3057Z" fill="#236EAC"/>
<path id="Vector_85" d="M75.6472 49.1772L24.0064 62.0202C23.1106 62.2428 22.2034 61.6974 21.9802 60.801L13.4638 26.5566C13.2412 25.6608 13.7866 24.7536 14.683 24.5304L66.3238 11.6874C67.2196 11.4648 68.1268 12.0102 68.3494 12.9066L76.8658 47.151C77.089 48.0474 76.543 48.954 75.6472 49.1772Z" fill="#236EAC"/>
<path id="Vector_86" d="M74.117 43.2586L72.677 47.3962L26.8592 58.7908L22.7906 56.0236L14.3516 22.0936L65.6786 9.32861L74.117 43.2586Z" fill="#3282C4"/>
<path id="Vector_87" d="M39.3535 15.8765L14.3486 22.0942L22.7854 56.0231L47.7903 49.8054L39.3535 15.8765Z" fill="white"/>
<path id="Vector_88" d="M37.8076 18.7795L17.2627 23.8882L17.5578 25.0748L38.1027 19.9661L37.8076 18.7795Z" fill="#AFAFAF"/>
<path id="Vector_89" d="M38.7559 22.5698L18.2109 27.6807L18.5061 28.8673L39.051 23.7564L38.7559 22.5698Z" fill="#AFAFAF"/>
<path id="Vector_90" d="M39.6953 26.3723L19.1504 31.481L19.4455 32.6676L39.9904 27.5589L39.6953 26.3723Z" fill="#AFAFAF"/>
<path id="Vector_91" d="M40.6396 30.1686L20.0947 35.2773L20.3898 36.464L40.9347 31.3552L40.6396 30.1686Z" fill="#AFAFAF"/>
<path id="Vector_92" d="M41.5889 33.9585L21.0439 39.0693L21.3391 40.2559L41.8841 35.1451L41.5889 33.9585Z" fill="#AFAFAF"/>
<path id="Vector_93" d="M42.5273 37.7614L21.9824 42.8701L22.2775 44.0567L42.8224 38.948L42.5273 37.7614Z" fill="#AFAFAF"/>
<path id="Vector_94" d="M43.4717 41.5573L22.9268 46.666L23.2218 47.8526L43.7667 42.7439L43.4717 41.5573Z" fill="#AFAFAF"/>
<path id="Vector_95" d="M44.4219 45.3472L23.877 50.458L24.1721 51.6446L44.7171 46.5338L44.4219 45.3472Z" fill="#AFAFAF"/>
<path id="Vector_96" d="M65.6758 9.32267L40.6709 15.543L49.1112 49.4718L74.116 43.2515L65.6758 9.32267Z" fill="white"/>
<path id="Vector_97" d="M63.9414 12.2739L43.3965 17.3848L43.6917 18.5714L64.2366 13.4605L63.9414 12.2739Z" fill="#AFAFAF"/>
<path id="Vector_98" d="M64.8828 16.0788L44.3379 21.1875L44.633 22.3741L65.1779 17.2654L64.8828 16.0788Z" fill="#AFAFAF"/>
<path id="Vector_99" d="M65.8262 19.8752L45.2812 24.9839L45.5763 26.1705L66.1212 21.0618L65.8262 19.8752Z" fill="#AFAFAF"/>
<path id="Vector_100" d="M66.7744 23.6626L46.2295 28.7734L46.5247 29.96L67.0696 24.8492L66.7744 23.6626Z" fill="#AFAFAF"/>
<path id="Vector_101" d="M67.7148 27.4675L47.1699 32.5762L47.465 33.7628L68.0099 28.6541L67.7148 27.4675Z" fill="#AFAFAF"/>
<path id="Vector_102" d="M68.6582 31.2643L48.1133 36.373L48.4083 37.5597L68.9533 32.4509L68.6582 31.2643Z" fill="#AFAFAF"/>
<path id="Vector_103" d="M69.6074 35.0508L49.0625 40.1616L49.3577 41.3482L69.9026 36.2374L69.6074 35.0508Z" fill="#AFAFAF"/>
<path id="Vector_104" d="M70.5459 38.8566L50.001 43.9653L50.296 45.1519L70.841 40.0432L70.5459 38.8566Z" fill="#AFAFAF"/>
<path id="Vector_105" d="M51.8676 54.3224L47.9112 55.3064C47.0442 55.5218 46.167 54.9938 45.951 54.1274L45.5898 52.6748L52.6854 50.9102L53.0466 52.3628C53.262 53.2292 52.734 54.107 51.8676 54.3224Z" fill="#3282C4"/>
</g>
<g id="Group_20">
<path id="Vector_106" d="M139.68 5.5341C137.628 3.5829 135.036 2.2521 132.366 1.3629C132.348 1.3569 132.307 1.3455 132.246 1.3293C129.828 0.6819 127.279 0.6819 124.861 1.3293C124.801 1.3455 124.759 1.3569 124.741 1.3629C122.072 2.2521 119.479 3.5835 117.427 5.5341C111.319 11.3415 112.312 21.8823 118.26 27.4443C119.929 29.0043 120.661 31.0185 121.172 33.2391C121.326 33.9081 122.211 40.8831 121.902 40.8831C124.887 40.8831 128.553 40.8831 128.553 40.8831C128.553 40.8831 132.219 40.8831 135.204 40.8831C134.896 40.8831 135.781 33.9075 135.934 33.2391C136.446 31.0191 137.178 29.0049 138.847 27.4443C144.796 21.8829 145.788 11.3421 139.68 5.5341Z" fill="#3282C4"/>
<path id="Vector_107" opacity="0.52" d="M126.162 33.2392C125.651 31.0192 124.918 29.005 123.25 27.4444C117.301 21.8824 116.309 11.3416 122.417 5.53422C124.469 3.58302 127.062 2.25222 129.731 1.36302C129.749 1.35702 129.79 1.34562 129.851 1.32942C130.247 1.22322 130.647 1.14102 131.049 1.06962C128.997 0.70542 126.883 0.787621 124.861 1.32942C124.801 1.34562 124.759 1.35702 124.741 1.36302C122.072 2.25222 119.479 3.58362 117.427 5.53422C111.319 11.3416 112.312 21.8824 118.26 27.4444C119.929 29.0044 120.661 31.0186 121.172 33.2392C121.326 33.9082 122.211 40.8832 121.902 40.8832C123.616 40.8832 125.551 40.8832 126.892 40.8832C127.201 40.8832 126.316 33.9076 126.162 33.2392Z" fill="#FFF6E7"/>
<path id="Vector_108" d="M128.554 40.8833V24.6161L131.417 22.9655C132.364 22.4201 132.175 21.0023 131.119 20.7239L125.908 19.3487C125.02 19.1141 124.919 17.8937 125.757 17.5163L128.554 16.2581V10.7363" stroke="#FEFEFE" stroke-width="2.2387" stroke-miterlimit="10" stroke-linecap="round"/>
<path id="Vector_109" d="M136.528 43.1218C136.528 43.6162 136.128 44.017 135.633 44.017H121.008C120.513 44.017 120.112 43.6162 120.112 43.1218C120.112 42.6274 120.513 42.2266 121.008 42.2266H135.633C136.127 42.2266 136.528 42.6274 136.528 43.1218Z" fill="#2F2F35"/>
<path id="Vector_110" d="M136.528 45.8078C136.528 46.3022 136.128 46.7036 135.633 46.7036H121.008C120.513 46.7036 120.112 46.3028 120.112 45.8078C120.112 45.3134 120.513 44.9126 121.008 44.9126H135.633C136.127 44.9126 136.528 45.3134 136.528 45.8078Z" fill="#2F2F35"/>
<path id="Vector_111" d="M136.528 48.4939C136.528 48.9883 136.128 49.3891 135.633 49.3891H121.008C120.513 49.3891 120.112 48.9883 120.112 48.4939C120.112 47.9995 120.513 47.5981 121.008 47.5981H135.633C136.127 47.5987 136.528 47.9995 136.528 48.4939Z" fill="#2F2F35"/>
<path id="Vector_112" d="M128.32 55.6577C131.204 55.6577 133.543 53.3189 133.543 50.4341H123.097C123.097 53.3195 125.435 55.6577 128.32 55.6577Z" fill="#2F2F35"/>
</g>
<g id="Group_21">
<path id="Vector_113" d="M190.199 59.092V54.8866H188.341C187.99 52.8892 187.173 51.0568 186.007 49.4962L187.481 48.022L184.507 45.0484L182.978 46.5778C181.412 45.5086 179.593 44.7922 177.632 44.5096V42.313H173.428V44.5918C171.548 44.9464 169.82 45.7156 168.329 46.7974L166.841 45.3088L163.867 48.2824L165.375 49.7902C164.273 51.3568 163.523 53.182 163.219 55.1572H161.132V59.362H163.265C163.61 61.2892 164.386 63.0616 165.493 64.5844L163.85 66.2272L166.823 69.2008L168.487 67.5376C170.012 68.6092 171.783 69.3478 173.699 69.667V71.9368H177.904V69.667C179.813 69.3496 181.577 68.6152 183.1 67.5496L184.49 68.9404L187.464 65.9668L186.097 64.6C187.261 63.0034 188.058 61.129 188.378 59.092H190.199ZM175.801 64.2616C171.851 64.2616 168.648 61.0588 168.648 57.1084C168.648 53.1574 171.851 49.9552 175.801 49.9552C179.752 49.9552 182.954 53.158 182.954 57.1084C182.954 61.0594 179.752 64.2616 175.801 64.2616Z" fill="#666666"/>
<path id="Vector_114" d="M206.968 75.0412V72.6154H205.896C205.693 71.4628 205.222 70.4062 204.55 69.5056L205.401 68.6548L203.685 66.9394L202.803 67.8214C201.9 67.2046 200.85 66.7912 199.719 66.628V65.3608H197.293V66.6754C196.209 66.88 195.212 67.324 194.352 67.948L193.494 67.0894L191.778 68.8048L192.648 69.6748C192.013 70.5784 191.58 71.6314 191.404 72.7708H190.2V75.1966H191.431C191.63 76.3084 192.078 77.3308 192.716 78.2092L191.768 79.1572L193.483 80.8726L194.443 79.9132C195.323 80.5318 196.344 80.9578 197.449 81.1414V82.4506H199.875V81.1414C200.976 80.9584 201.994 80.5348 202.872 79.9198L203.674 80.722L205.39 79.0066L204.601 78.2182C205.273 77.2972 205.733 76.216 205.917 75.0406L206.968 75.0412ZM198.662 78.0232C196.383 78.0232 194.535 76.1758 194.535 73.8964C194.535 71.6176 196.383 69.7696 198.662 69.7696C200.941 69.7696 202.789 71.617 202.789 73.8964C202.789 76.1758 200.941 78.0232 198.662 78.0232Z" fill="#9E9E9E"/>
<g id="Group_22">
<path id="Vector_115" d="M245.188 43.6233V34.9875H241.371C240.649 30.8853 238.973 27.1227 236.577 23.9169L239.606 20.8887L233.499 14.7825L230.359 17.9229C227.144 15.7275 223.407 14.2563 219.381 13.6749V9.16406H210.746V13.8441C206.886 14.5719 203.336 16.1523 200.276 18.3741L197.219 15.3177L191.113 21.4239L194.21 24.5205C191.947 27.7377 190.407 31.4859 189.783 35.5425H185.495V44.1783H189.878C190.585 48.1359 192.18 51.7755 194.451 54.9027L191.077 58.2771L197.183 64.3833L200.6 60.9675C203.732 63.1689 207.368 64.6857 211.302 65.3403V70.0017H219.938V65.3403C223.858 64.6881 227.483 63.1803 230.608 60.9915L233.465 63.8481L239.571 57.7419L236.765 54.9357C239.155 51.6567 240.792 47.8083 241.448 43.6239L245.188 43.6233ZM215.619 54.2409C207.506 54.2409 200.929 47.6637 200.929 39.5511C200.929 31.4379 207.506 24.8607 215.619 24.8607C223.733 24.8607 230.31 31.4379 230.31 39.5511C230.31 47.6637 223.733 54.2409 215.619 54.2409Z" fill="#8B8B8C"/>
<path id="Vector_116" d="M215.342 48.2038C220.103 48.2038 223.962 44.3444 223.962 39.5836C223.962 34.8228 220.103 30.9634 215.342 30.9634C210.581 30.9634 206.722 34.8228 206.722 39.5836C206.722 44.3444 210.581 48.2038 215.342 48.2038Z" fill="#666666"/>
</g>
</g>
<g id="Group_23">
<path id="Vector_117" d="M47.4291 83.6806C28.9071 84.8038 14.5095 95.9038 15.2721 108.473C16.0347 121.041 31.6677 130.32 50.1897 129.196C50.2035 129.195 50.2173 129.194 50.2311 129.194C52.0539 129.081 53.3289 127.32 52.8783 125.551C52.6593 124.69 52.5357 123.788 52.5213 122.857C52.4271 116.866 57.0615 111.719 63.0291 111.179C67.3599 110.788 71.3163 112.824 73.5999 116.137C74.7267 117.772 77.1219 117.888 78.3405 116.319C81.1251 112.735 82.6047 108.654 82.3467 104.405C81.5847 91.8352 65.9517 82.5568 47.4291 83.6806Z" fill="#5A5A63"/>
<g id="Group_24">
<path id="Vector_118" d="M47.3061 81.6464C28.7841 82.7696 14.3865 93.8696 15.1491 106.438C15.9117 119.007 31.5447 128.286 50.0673 127.162C50.0811 127.161 50.0949 127.16 50.1087 127.159C51.9315 127.047 53.2065 125.286 52.7559 123.517C52.5369 122.656 52.4133 121.754 52.3989 120.823C52.3047 114.832 56.9391 109.684 62.9067 109.145C67.2375 108.754 71.1939 110.79 73.4775 114.103C74.6043 115.738 76.9995 115.854 78.2181 114.285C81.0027 110.701 82.4823 106.62 82.2243 102.37C81.4611 89.801 65.8281 80.5226 47.3061 81.6464Z" fill="#8B8B8C"/>
<path id="Vector_119" d="M40.7641 117.277C40.8997 119.509 39.1993 121.429 36.9667 121.565C34.7341 121.7 32.8141 120 32.6785 117.767C32.5429 115.535 34.2433 113.615 36.4759 113.479C38.7085 113.344 40.6285 115.044 40.7641 117.277Z" fill="#3282C4"/>
<path id="Vector_120" d="M29.7299 109.611C29.8655 111.844 28.1651 113.764 25.9325 113.899C23.6999 114.035 21.7799 112.335 21.6443 110.102C21.5087 107.869 23.2091 105.949 25.4417 105.814C27.6749 105.678 29.5943 107.379 29.7299 109.611Z" fill="#3282C4"/>
<path id="Vector_121" d="M32.974 96.2034C33.1096 98.436 31.4092 100.356 29.1766 100.492C26.944 100.627 25.024 98.9268 24.8884 96.6942C24.7528 94.4616 26.4532 92.5416 28.6858 92.406C30.919 92.2704 32.839 93.9708 32.974 96.2034Z" fill="#3282C4"/>
<path id="Vector_122" d="M46.6488 88.9573C46.7844 91.1899 45.084 93.1099 42.8514 93.2455C40.6188 93.3811 38.6988 91.6807 38.5632 89.4481C38.4276 87.2155 40.128 85.2955 42.3606 85.1599C44.5932 85.0243 46.5132 86.7247 46.6488 88.9573Z" fill="#3282C4"/>
<path id="Vector_123" d="M62.0512 89.1556C62.1868 91.3882 60.4864 93.3082 58.2538 93.4438C56.0212 93.5794 54.1012 91.879 53.9656 89.6464C53.83 87.4138 55.5304 85.4938 57.763 85.3582C59.9956 85.2226 61.9156 86.923 62.0512 89.1556Z" fill="#3282C4"/>
<path id="Vector_124" d="M75.0522 96.4822C75.1878 98.7148 73.4874 100.635 71.2548 100.77C69.0222 100.906 67.1022 99.2056 66.9666 96.973C66.831 94.7404 68.5314 92.8204 70.764 92.6848C72.9972 92.5492 74.9172 94.2496 75.0522 96.4822Z" fill="#3282C4"/>
</g>
<path id="Vector_125" opacity="0.68" d="M65.3327 84.0454L61.5197 92.023C61.0169 91.9984 60.5309 92.284 60.3305 92.7772L60.3197 92.8042C60.0653 93.4282 60.3653 94.1404 60.9899 94.3948L61.3475 94.5406C61.2773 94.5172 60.9137 94.4746 60.1469 95.5912C60.1463 95.5918 60.1463 95.5918 60.1463 95.5924C60.1001 95.6596 60.0521 95.7322 60.0029 95.8084C59.9981 95.8162 59.9933 95.8234 59.9879 95.8312C59.9423 95.9026 59.8949 95.9782 59.8463 96.0574C59.8367 96.0736 59.8271 96.0892 59.8169 96.1054C59.7713 96.1804 59.7251 96.259 59.6777 96.3412C59.6639 96.3652 59.6495 96.3898 59.6351 96.415C59.5901 96.4936 59.5445 96.5752 59.4977 96.6604C59.4791 96.694 59.4605 96.7288 59.4413 96.7636C59.3969 96.8458 59.3513 96.931 59.3051 97.0192C59.2823 97.0624 59.2596 97.1068 59.2361 97.1518C59.1917 97.2376 59.1468 97.3252 59.1006 97.417C59.0736 97.471 59.046 97.5268 59.0178 97.5832C58.9734 97.6726 58.9289 97.7632 58.8839 97.8574C58.8527 97.9222 58.8209 97.9894 58.7885 98.0572C58.7441 98.1514 58.6991 98.2462 58.6535 98.3452C58.6187 98.4196 58.5833 98.4982 58.5479 98.5756C58.5029 98.6746 58.4579 98.7736 58.4117 98.8774C58.3727 98.965 58.3326 99.0574 58.2924 99.1492C58.248 99.2506 58.2035 99.3514 58.1579 99.457C58.1141 99.559 58.0691 99.6658 58.0241 99.772C57.9797 99.8776 57.9353 99.9814 57.8897 100.091C57.8417 100.206 57.7925 100.328 57.7433 100.447C57.6989 100.556 57.6552 100.662 57.6096 100.775C57.5568 100.906 57.5015 101.045 57.4475 101.183C57.4037 101.294 57.3605 101.402 57.3155 101.517C57.2549 101.672 57.1925 101.835 57.1301 101.997C57.0899 102.102 57.0504 102.203 57.0096 102.311C56.9358 102.505 56.8601 102.709 56.7839 102.912C56.7521 102.998 56.7209 103.08 56.6885 103.167C56.5793 103.464 56.4677 103.769 56.3537 104.087C56.0483 104.937 55.6913 105.938 55.2977 107.048C55.2521 107.177 55.2078 107.302 55.1604 107.434C55.101 107.602 55.0385 107.778 54.9773 107.951C54.9263 108.095 54.8765 108.236 54.8243 108.384C54.7439 108.611 54.6611 108.846 54.5783 109.082C54.5411 109.187 54.5052 109.29 54.4674 109.397C54.3852 109.629 54.3011 109.868 54.2171 110.108C54.1745 110.229 54.1319 110.349 54.0887 110.472C54.0095 110.697 53.9291 110.927 53.8481 111.157C53.7983 111.299 53.7491 111.438 53.6987 111.582C53.6057 111.848 53.5109 112.119 53.4155 112.391C53.3795 112.493 53.3448 112.593 53.3088 112.696C53.2122 112.973 53.1137 113.255 53.0147 113.537C52.9727 113.658 52.9307 113.777 52.8887 113.898C52.7969 114.161 52.7039 114.428 52.6109 114.695C52.5635 114.831 52.5167 114.966 52.4687 115.103C52.3697 115.386 52.2701 115.673 52.1705 115.961C52.1273 116.084 52.0847 116.207 52.0421 116.331C51.9437 116.613 51.8447 116.899 51.7457 117.185C51.6959 117.328 51.6467 117.47 51.5975 117.613C51.5087 117.87 51.4193 118.128 51.3299 118.386C51.2663 118.569 51.2033 118.752 51.1397 118.937C51.0629 119.159 50.9855 119.382 50.9087 119.606C50.8355 119.818 50.7623 120.03 50.6885 120.243C50.6063 120.482 50.5235 120.721 50.4413 120.96C50.3981 121.086 50.3549 121.21 50.3117 121.336C49.6391 123.29 48.9611 125.273 48.2939 127.238C48.8819 127.223 49.4735 127.198 50.0681 127.162C50.0819 127.161 50.0957 127.16 50.1095 127.16C51.9323 127.047 53.2073 125.286 52.7567 123.517C52.5377 122.656 52.4141 121.754 52.3997 120.823C52.3175 115.58 55.8563 110.983 60.7415 109.555C61.2815 108.386 61.764 107.337 62.1678 106.452C66.465 97.042 65.3969 96.1984 65.2619 96.133L65.6195 96.2788C66.2435 96.5326 66.9557 96.2326 67.2101 95.6086L67.2209 95.5816C67.4585 94.9978 67.2077 94.342 66.6635 94.051L69.5207 85.837C68.1995 85.1686 66.8009 84.5692 65.3327 84.0454Z" fill="#2F2F35"/>
<path id="Vector_126" opacity="0.42" d="M32.2734 95.584C32.3298 96.5176 31.6188 97.321 30.6852 97.3774C29.7516 97.4338 28.9482 96.7228 28.8918 95.7892C28.8354 94.8556 29.5464 94.0522 30.48 93.9958C31.4136 93.9394 32.2164 94.6504 32.2734 95.584Z" fill="white"/>
<path id="Vector_127" opacity="0.42" d="M45.957 88.483C46.0134 89.4166 45.3024 90.22 44.3688 90.2764C43.4352 90.3328 42.6318 89.6218 42.5754 88.6882C42.519 87.7546 43.23 86.9512 44.1636 86.8948C45.0972 86.8378 45.9 87.5488 45.957 88.483Z" fill="white"/>
<path id="Vector_128" opacity="0.42" d="M60.4453 88.1206C60.5017 89.0542 59.7907 89.8576 58.8571 89.914C57.9235 89.9704 57.1201 89.2594 57.0637 88.3258C57.0073 87.3922 57.7183 86.5888 58.6519 86.5324C59.5855 86.476 60.3883 87.187 60.4453 88.1206Z" fill="white"/>
<path id="Vector_129" opacity="0.42" d="M28.0224 108.416C28.0788 109.35 27.3678 110.153 26.4342 110.209C25.5006 110.266 24.6972 109.555 24.6408 108.621C24.5844 107.688 25.2954 106.884 26.229 106.828C27.1626 106.771 27.9654 107.482 28.0224 108.416Z" fill="white"/>
<path id="Vector_130" opacity="0.42" d="M40.0293 116.102C40.0857 117.035 39.3747 117.839 38.4411 117.895C37.5075 117.951 36.7041 117.24 36.6477 116.307C36.5913 115.373 37.3023 114.57 38.2359 114.513C39.1695 114.457 39.9723 115.168 40.0293 116.102Z" fill="white"/>
<g id="Group_25">
<path id="Vector_131" d="M80.1418 81.6358C80.1418 81.6358 85.6678 78.6154 86.0218 73.9474C85.9996 71.1886 84.8014 68.9248 84.8014 68.9248L84.0448 71.7676C84.0448 71.7676 83.629 67.3018 80.44 65.1442C77.251 62.9866 78.0358 63.5926 78.0358 63.5926C78.0358 63.5926 80.7136 67.1464 77.7412 73.0396C74.7688 78.9328 78.52 80.9758 78.52 80.9758L80.1418 81.6358Z" fill="#3282C4"/>
<path id="Vector_132" d="M79.8002 79.7225C79.8002 79.7225 78.8005 74.5973 81.0847 71.8433C78.1153 75.6077 77.5021 78.6323 78.2479 81.0761C79.8001 79.7225 79.8002 79.7225 79.8002 79.7225Z" fill="#236EAC"/>
<path id="Vector_133" d="M77.1304 80.7349C77.617 79.7497 78.7816 79.3075 79.7998 79.7221L79.8178 79.7293L79.8358 79.7365C80.8534 80.1511 81.3784 81.2809 81.0382 82.3261L77.4046 93.4891L74.6686 92.3749L71.9326 91.2607L77.1304 80.7349Z" fill="white"/>
<path id="Vector_134" d="M71.5104 93.7563L76.1394 95.6409C76.7634 95.8953 77.4756 95.5953 77.73 94.9707L77.7408 94.9437C77.9952 94.3191 77.6952 93.6075 77.0706 93.3531L72.4416 91.4685C71.8176 91.2141 71.1054 91.5141 70.851 92.1387L70.8402 92.1657C70.5864 92.7897 70.8864 93.5019 71.5104 93.7563Z" fill="#CCCCCC"/>
<path id="Vector_135" d="M71.8818 93.907L73.8252 94.6978L75.7686 95.4892C75.7686 95.4892 77.2434 95.8378 72.6876 105.814C69.3018 113.229 60.5928 131.825 55.5744 141.761C55.1052 142.691 53.6976 142.118 54.0108 141.125C57.36 130.509 64.1178 111.118 66.8742 103.447C70.5828 93.1264 71.8818 93.907 71.8818 93.907Z" fill="#2F2F35"/>
<path id="Vector_136" d="M61.5164 129.616C59.3474 134.138 57.2535 138.436 55.5735 141.762C55.1043 142.691 53.6966 142.118 54.0098 141.125C55.1312 137.572 56.6348 133.034 58.2416 128.282L61.5164 129.616Z" fill="white"/>
<path id="Vector_137" opacity="0.75" d="M60.8311 120.697C67.9711 111.86 70.6555 95.0258 70.6675 94.9526C69.8749 96.107 68.6521 98.4998 66.8737 103.448C65.5267 107.196 63.2245 113.743 60.8311 120.697Z" fill="white"/>
</g>
</g>
<g id="Group_26">
<path id="Vector_138" d="M199.067 99.9722L200.332 102.535L203.16 102.946L201.113 104.941L201.596 107.759L199.067 106.429L196.537 107.759L197.02 104.941L194.974 102.946L197.802 102.535L199.067 99.9722Z" fill="#9E9E9E"/>
<path id="Vector_139" d="M235.485 96.3916L237.252 99.9706L241.201 100.545L238.344 103.331L239.018 107.264L235.485 105.407L231.953 107.264L232.627 103.331L229.77 100.545L233.719 99.9706L235.485 96.3916Z" fill="#666666"/>
<path id="Vector_140" d="M224.432 150.027L225.418 152.025L227.623 152.345L226.027 153.9L226.404 156.096L224.432 155.059L222.46 156.096L222.837 153.9L221.241 152.345L223.446 152.025L224.432 150.027Z" fill="#9E9E9E"/>
<path id="Vector_141" d="M189.257 136.495L191.024 140.074L194.973 140.647L192.115 143.433L192.79 147.367L189.257 145.51L185.724 147.367L186.399 143.433L183.541 140.647L187.491 140.074L189.257 136.495Z" fill="#666666"/>
<g id="Group_27">
<g id="Group_28">
<path id="Vector_142" d="M223.127 144.952C233.224 140.903 238.127 129.435 234.078 119.337C230.029 109.24 218.561 104.336 208.464 108.385C198.366 112.434 193.463 123.902 197.512 134C201.561 144.097 213.029 149.001 223.127 144.952Z" fill="#3282C4"/>
</g>
<g id="Group_29" opacity="0.67">
<path id="Vector_143" d="M210.488 145.638C217.447 147.579 224.572 145.528 229.432 140.865C226.141 141.747 222.578 141.79 219.058 140.808C208.579 137.884 202.455 127.02 205.379 116.541C206.361 113.021 208.243 109.995 210.701 107.636C204.196 109.38 198.751 114.414 196.81 121.372C193.886 131.85 200.011 142.714 210.488 145.638Z" fill="#236EAC"/>
</g>
<path id="Vector_144" opacity="0.52" d="M221.077 107.693C220.096 107.419 219.111 107.225 218.13 107.105C217.616 108.947 217.336 110.886 217.336 112.892C217.336 123.145 224.514 131.716 234.118 133.869C234.36 133.25 234.574 132.613 234.756 131.959C237.679 121.481 231.555 110.616 221.077 107.693Z" fill="#FFF6E7"/>
<path id="Vector_145" d="M196.153 125.045C188.512 122.067 183.759 119.374 184.158 117.943C184.822 115.562 199.491 117.575 216.922 122.439C234.352 127.302 247.944 133.175 247.279 135.556C246.882 136.983 241.455 136.832 233.419 135.435" stroke="#666666" stroke-width="2" stroke-miterlimit="10"/>
</g>
</g>
</g>
</g>
</g>
</svg>
